<svg width="111" height="26" viewBox="0 0 111 26" fill="none" xmlns="http://www.w3.org/2000/svg">
<g id="akeneo_coloured.svg" clip-path="url(#clip0_223_314)">
<g id="Group">
<g id="Group_2">
<path id="Vector" d="M37.1836 13.2867C37.1836 12.2747 36.9294 11.5641 36.4209 11.1765C35.9124 10.7889 35.1708 10.5736 34.2174 10.5736C33.6241 10.5736 33.0732 10.6167 32.5435 10.7243C32.035 10.8105 31.5265 10.9397 31.0392 11.0904C30.7214 10.5306 30.5519 9.84151 30.5519 9.0448C31.1239 8.851 31.7596 8.70028 32.4588 8.61415C33.158 8.50648 33.8148 8.46342 34.4716 8.46342C36.1666 8.46342 37.4591 8.851 38.349 9.64771C39.2388 10.4229 39.6626 11.6933 39.6626 13.4159V21.7275C39.0693 21.8567 38.349 22.0074 37.5015 22.1582C36.6539 22.3089 35.7852 22.3735 34.9165 22.3735C34.0902 22.3735 33.3275 22.2874 32.6706 22.1366C31.9926 21.9859 31.4418 21.7275 30.9756 21.383C30.5095 21.0385 30.1493 20.6078 29.8951 20.0695C29.6408 19.5312 29.5137 18.8852 29.5137 18.1316C29.5137 17.3995 29.662 16.732 29.9586 16.1721C30.2552 15.6123 30.6578 15.1385 31.1663 14.7725C31.6748 14.4064 32.2681 14.1265 32.9249 13.9542C33.5817 13.782 34.2809 13.6743 35.0013 13.6743C35.5522 13.6743 35.9971 13.6958 36.3361 13.7174C36.6751 13.7389 36.9718 13.782 37.2048 13.8035V13.2867H37.1836ZM37.1836 15.806C36.9294 15.763 36.6116 15.7414 36.209 15.6984C35.8276 15.6553 35.4886 15.6553 35.2132 15.6553C34.1538 15.6553 33.3698 15.8491 32.819 16.2582C32.2681 16.6458 31.9926 17.2487 31.9926 18.067C31.9926 18.5838 32.0774 18.9929 32.2681 19.2728C32.4588 19.5743 32.6918 19.7896 32.9673 19.9403C33.2427 20.091 33.5605 20.1987 33.8995 20.2202C34.2385 20.2633 34.5564 20.2633 34.8742 20.2633C35.2555 20.2633 35.6581 20.2418 36.0819 20.1987C36.5056 20.1556 36.8658 20.091 37.1836 20.0049V15.806ZM43.3281 3.08026C43.5188 3.03719 43.7306 3.01566 43.9425 2.99413C44.1756 2.9726 44.3875 2.9726 44.557 2.9726C44.7477 2.9726 44.9595 2.9726 45.1926 2.99413C45.4257 3.01566 45.6375 3.03719 45.8282 3.08026V22.029C45.6375 22.072 45.4257 22.0936 45.1926 22.1151C44.9595 22.1366 44.7477 22.1366 44.557 22.1366C44.3663 22.1366 44.1544 22.1366 43.9425 22.1151C43.7095 22.0936 43.4976 22.072 43.3281 22.029V3.08026ZM45.913 15.1601L50.7014 8.76487C50.9133 8.72181 51.1464 8.70028 51.3582 8.67874C51.5701 8.65721 51.8032 8.65721 52.0362 8.65721C52.2905 8.65721 52.5236 8.65721 52.7566 8.67874C52.9897 8.70028 53.2228 8.72181 53.4558 8.76487L48.6674 14.9663L54.1762 22.029C53.9431 22.072 53.7101 22.0936 53.4982 22.1151C53.2863 22.1366 53.0533 22.1366 52.8202 22.1366C52.5871 22.1366 52.3541 22.1366 52.0998 22.1151C51.8667 22.0936 51.6337 22.072 51.3794 22.029L45.913 15.1601ZM57.8841 16.0429C57.9264 17.4856 58.2866 18.5407 58.9858 19.2297C59.685 19.8972 60.7232 20.2418 62.1004 20.2418C63.3081 20.2418 64.4523 20.0264 65.5328 19.5958C65.66 19.8542 65.7871 20.1772 65.8718 20.5432C65.9566 20.9093 65.999 21.2753 66.0201 21.6414C65.4693 21.8782 64.8548 22.072 64.1768 22.1797C63.4988 22.3089 62.7572 22.352 61.9521 22.352C60.7656 22.352 59.7486 22.1797 58.9011 21.8567C58.0536 21.5122 57.3544 21.0385 56.8035 20.4356C56.2526 19.8326 55.85 19.1005 55.5958 18.2608C55.3415 17.421 55.2144 16.5166 55.2144 15.5046C55.2144 14.5141 55.3415 13.6097 55.5746 12.7484C55.8289 11.8871 56.189 11.155 56.6975 10.5306C57.2061 9.9061 57.8417 9.41085 58.6256 9.02327C59.3884 8.65721 60.2995 8.46342 61.3589 8.46342C62.2487 8.46342 63.0539 8.61415 63.7319 8.93714C64.4099 9.23859 64.982 9.66925 65.4269 10.2076C65.893 10.7459 66.232 11.3919 66.4651 12.1455C66.6982 12.8991 66.8253 13.7174 66.8253 14.5787C66.8253 14.8155 66.8253 15.0739 66.8041 15.3323C66.7829 15.5907 66.7617 15.8276 66.7617 16.0214H57.8841V16.0429ZM64.3675 14.1265C64.3675 13.6528 64.3039 13.1791 64.1768 12.7484C64.0497 12.3178 63.859 11.9302 63.6259 11.6072C63.3717 11.2842 63.0751 11.0258 62.6937 10.8105C62.3123 10.6167 61.8674 10.509 61.3377 10.509C60.2995 10.509 59.5155 10.832 58.9646 11.4565C58.4138 12.1024 58.0748 12.9853 57.9688 14.1265H64.3675ZM70.1518 8.76487C70.3425 8.72181 70.512 8.70028 70.7026 8.67874C70.8721 8.65721 71.0628 8.65721 71.2535 8.65721C71.4442 8.65721 71.6137 8.65721 71.7832 8.67874C71.9527 8.70028 72.1222 8.72181 72.3129 8.76487C72.3553 9.02327 72.4189 9.36779 72.4612 9.81997C72.5036 10.2506 72.546 10.6167 72.546 10.9181C72.7155 10.6167 72.9274 10.3368 73.2028 10.0353C73.4571 9.73384 73.7749 9.47545 74.1139 9.23859C74.4529 9.00173 74.8343 8.80794 75.2792 8.67874C75.7241 8.52802 76.2115 8.46342 76.72 8.46342C78.2031 8.46342 79.3261 8.89407 80.0253 9.77691C80.7456 10.6382 81.0846 11.9302 81.0846 13.6528V22.0505C80.894 22.0936 80.6821 22.1151 80.449 22.1366C80.2159 22.1582 80.0041 22.1582 79.8134 22.1582C79.6227 22.1582 79.4108 22.1582 79.1989 22.1366C78.9659 22.1151 78.754 22.0936 78.5845 22.0505V14.3418C78.5845 13.1145 78.3938 12.2101 78.0336 11.6502C77.6522 11.0689 77.059 10.7889 76.2538 10.7889C75.7877 10.7889 75.3216 10.8751 74.8978 11.0473C74.4741 11.2196 74.0927 11.478 73.7749 11.844C73.457 12.2101 73.2028 12.6838 72.9909 13.2437C72.8002 13.825 72.6943 14.5141 72.6943 15.3323V22.0505C72.5036 22.0936 72.2917 22.1151 72.0798 22.1366C71.8468 22.1582 71.6349 22.1582 71.4654 22.1582C71.2747 22.1582 71.0628 22.1582 70.8298 22.1366C70.5967 22.1151 70.3848 22.0936 70.1941 22.0505V8.76487H70.1518ZM86.7418 16.0429C86.7841 17.4856 87.1443 18.5407 87.8435 19.2297C88.5427 19.8972 89.5809 20.2418 90.9581 20.2418C92.1658 20.2418 93.31 20.0264 94.3905 19.5958C94.5177 19.8542 94.6448 20.1772 94.7295 20.5432C94.8143 20.9093 94.8567 21.2753 94.8779 21.6414C94.327 21.8782 93.7125 22.072 93.0345 22.1797C92.3565 22.3089 91.6149 22.352 90.8098 22.352C89.6233 22.352 88.6063 22.1797 87.7588 21.8567C86.9113 21.5122 86.2121 21.0385 85.6612 20.4356C85.1103 19.8326 84.7077 19.1005 84.4535 18.2608C84.1992 17.421 84.0721 16.5166 84.0721 15.5046C84.0721 14.5141 84.1992 13.6097 84.4323 12.7484C84.6866 11.8871 85.0467 11.155 85.5553 10.5306C86.0638 9.9061 86.6994 9.41085 87.4833 9.02327C88.2461 8.65721 89.1572 8.46342 90.2166 8.46342C91.1064 8.46342 91.9116 8.61415 92.5896 8.93714C93.2676 9.23859 93.8397 9.66925 94.2846 10.2076C94.7507 10.7459 95.0897 11.3919 95.3228 12.1455C95.5559 12.8991 95.683 13.7174 95.683 14.5787C95.683 14.8155 95.683 15.0739 95.6618 15.3323C95.6406 15.5907 95.6194 15.8276 95.6194 16.0214H86.7418V16.0429ZM93.204 14.1265C93.204 13.6528 93.1405 13.1791 93.0133 12.7484C92.8862 12.3178 92.6955 11.9302 92.4625 11.6072C92.2082 11.2842 91.9116 11.0258 91.5302 10.8105C91.1488 10.6167 90.7039 10.509 90.1742 10.509C89.136 10.509 88.352 10.832 87.8012 11.4565C87.2503 12.1024 86.9113 12.9853 86.8053 14.1265H93.204ZM104.306 22.352C103.289 22.352 102.4 22.1797 101.637 21.8137C100.874 21.4691 100.238 20.9739 99.7299 20.3494C99.2213 19.725 98.84 18.9929 98.6069 18.1531C98.3527 17.3133 98.2467 16.3874 98.2467 15.4185C98.2467 14.428 98.3738 13.5236 98.6069 12.6838C98.8612 11.844 99.2213 11.1119 99.7299 10.4875C100.238 9.86304 100.874 9.36779 101.637 9.02327C102.4 8.65721 103.289 8.48495 104.306 8.48495C105.323 8.48495 106.213 8.65721 106.976 9.02327C107.739 9.38932 108.374 9.88457 108.883 10.4875C109.391 11.1119 109.773 11.844 110.006 12.6838C110.26 13.5236 110.366 14.4495 110.366 15.4185C110.366 16.409 110.239 17.3133 110.006 18.1531C109.752 18.9929 109.391 19.725 108.883 20.3494C108.374 20.9739 107.739 21.4476 106.976 21.8137C106.213 22.1582 105.323 22.352 104.306 22.352ZM104.306 20.3064C105.472 20.3064 106.34 19.8757 106.891 19.0144C107.442 18.1531 107.739 16.9473 107.739 15.4185C107.739 13.8896 107.463 12.6838 106.891 11.844C106.34 10.9827 105.472 10.5736 104.306 10.5736C103.141 10.5736 102.272 11.0043 101.722 11.844C101.171 12.7053 100.895 13.8896 100.895 15.4185C100.895 16.9473 101.171 18.1531 101.722 19.0144C102.272 19.8757 103.141 20.3064 104.306 20.3064Z" fill="black"/>
<path id="Vector_2" d="M20.2705 24.5309C20.3597 24.8318 20.4416 25.0349 20.4639 25.1026C20.449 25.0725 20.4267 25.0048 20.3969 24.9145L20.2705 24.5309Z" fill="#692F8D"/>
<path id="Vector_3" d="M20.4634 25.1026L20.3965 24.9145C20.4337 25.0048 20.456 25.0725 20.4634 25.1026Z" fill="#692F8D"/>
<path id="Vector_4" d="M20.4634 25.1026L20.3965 24.9145C20.4337 25.0048 20.456 25.0725 20.4634 25.1026Z" fill="#692F8D"/>
<path id="Vector_5" opacity="0.7982" d="M20.4038 24.9145C20.0692 23.899 18.7454 19.4305 19.4519 14.6687C18.039 14.7966 16.4772 14.7515 14.8932 14.5634C14.1644 16.0002 13.3315 17.3468 12.4316 18.4676C17.035 20.6567 20.1064 24.6211 20.4633 25.0951C20.441 25.0274 20.3592 24.8242 20.27 24.5233L20.4038 24.9145Z" fill="#692F8D"/>
<path id="Vector_6" opacity="0.461984" d="M19.4523 14.6687C19.5192 14.2099 19.6085 13.751 19.7126 13.2921C21.4379 5.93501 17.5634 0.29306 17.5634 0.29306C17.7418 2.75295 17.6972 5.15266 17.3997 7.10101C17.0502 9.43302 16.1281 12.1336 14.8936 14.571C16.4776 14.7515 18.0393 14.7966 19.4523 14.6687Z" fill="#692F8D"/>
<path id="Vector_7" opacity="0.461984" d="M11.1528 17.926C11.5916 18.0915 12.0229 18.2721 12.4319 18.4752C13.3243 17.3543 14.1647 16.0078 14.8935 14.571C12.5435 14.2926 10.1637 13.7059 8.18555 12.8934C7.90295 12.7806 7.62779 12.6602 7.36751 12.5323C6.60896 12.1713 5.80579 11.7274 4.98031 11.2159C4.96543 11.2084 4.95056 11.2008 4.93568 11.1858C4.92081 11.1783 4.91337 11.1708 4.8985 11.1632C3.83504 10.5012 2.7344 9.72641 1.67091 8.88388C1.66351 8.88388 4.13995 15.2931 11.1528 17.926Z" fill="#692F8D"/>
<path id="Vector_8" d="M12.4394 18.4752C10.9446 20.3558 9.28624 21.6046 7.70964 21.6196C7.57578 21.6196 7.44192 21.6121 7.3155 21.5971C7.22625 21.5895 7.14445 21.5745 7.05521 21.5519C6.96597 21.5294 6.88416 21.5068 6.79492 21.4842C6.85442 21.5068 6.90647 21.5218 6.95109 21.5444C11.1752 22.8308 15.3844 21.1608 20.4637 25.1026C20.1142 24.6287 17.0428 20.6643 12.4394 18.4752Z" fill="#692F8D"/>
<path id="Vector_9" d="M7.3154 21.5971C7.44926 21.6121 7.57568 21.6196 7.70955 21.6196C9.28614 21.6046 10.9445 20.3558 12.4393 18.4752C12.0229 18.2796 11.599 18.0915 11.1602 17.926C4.14734 15.2931 1.6709 8.88388 1.6709 8.88388C1.68577 9.04938 1.69321 9.20735 1.70808 9.37285C1.70808 9.40294 1.71552 9.42551 1.71552 9.4556C1.72296 9.51578 1.72296 9.57596 1.73039 9.63614C1.73039 9.65119 1.73039 9.65871 1.73783 9.67375C1.73783 9.70384 1.74527 9.72641 1.74527 9.7565C1.76014 9.88439 1.76758 10.0047 1.78245 10.1326C1.78989 10.1928 1.79732 10.2455 1.80476 10.3057C1.81963 10.4486 1.83451 10.5915 1.85682 10.742L1.87913 10.8999V10.93C1.90144 11.1106 1.92375 11.2836 1.9535 11.4641C1.9535 11.4792 1.9535 11.5017 1.96093 11.5168L2.00555 11.8102C2.01299 11.8327 2.01299 11.8628 2.02043 11.8854C2.0353 11.9681 2.05017 12.0584 2.06505 12.1412C2.06505 12.1562 2.07248 12.1713 2.07248 12.1863C2.10223 12.3744 2.13198 12.5549 2.16916 12.743L2.19147 12.8558C2.22122 12.9987 2.24353 13.1492 2.27328 13.2921C2.28071 13.3297 2.28815 13.3673 2.29559 13.3974C2.30302 13.42 2.30302 13.4351 2.31046 13.4576C2.34764 13.6306 2.38483 13.8112 2.42201 13.9842C2.42945 14.0143 2.43688 14.0519 2.44432 14.082C2.57818 14.6763 2.73435 15.2555 2.89796 15.8047V15.8122C2.92027 15.8799 2.94258 15.9551 2.96489 16.0228C2.97233 16.0529 2.9872 16.083 2.99464 16.1206C3.00951 16.1733 3.02439 16.2184 3.0467 16.2711C3.06901 16.3388 3.09132 16.399 3.11363 16.4667C3.12107 16.4968 3.13594 16.5344 3.15081 16.5645C3.18056 16.6547 3.21774 16.7525 3.24749 16.8428C3.24749 16.8503 3.25493 16.8578 3.25493 16.8654C3.37392 17.1888 3.50034 17.5048 3.62677 17.8057C3.6342 17.8132 3.6342 17.8282 3.64164 17.8358C3.67882 17.926 3.72344 18.0163 3.76063 18.0991C3.76806 18.1066 3.76806 18.1216 3.7755 18.1292C3.82012 18.2269 3.86474 18.3172 3.90936 18.415C3.96886 18.5279 4.02091 18.6407 4.08041 18.746C4.08041 18.7535 4.08041 18.7535 4.08784 18.7611C4.09528 18.7836 4.11015 18.7987 4.11759 18.8212C4.16221 18.8965 4.1994 18.9717 4.24402 19.0469C4.25145 19.062 4.25889 19.077 4.26633 19.0845C4.31838 19.1748 4.37044 19.2575 4.4225 19.3403C4.4225 19.3478 4.42994 19.3478 4.42994 19.3553C4.43737 19.3704 4.44481 19.3779 4.45225 19.393C4.49687 19.4607 4.54149 19.5284 4.57867 19.5961C4.60842 19.6337 4.63073 19.6713 4.65304 19.7089C4.67535 19.739 4.7051 19.7766 4.72741 19.8067C4.73484 19.8217 4.74228 19.8293 4.75715 19.8443C4.77946 19.8744 4.80177 19.9045 4.82408 19.9271C4.83152 19.9346 4.83896 19.9496 4.84639 19.9571C4.8687 19.9872 4.89845 20.0173 4.92076 20.0474L5.03231 20.1828C5.11412 20.2806 5.20336 20.3784 5.2926 20.4687L5.33722 20.5138C5.38184 20.559 5.42646 20.5966 5.47108 20.6417L5.47852 20.6492C5.50827 20.6793 5.53801 20.7019 5.5752 20.732C5.61982 20.7696 5.66444 20.8072 5.70162 20.8448C5.7388 20.8749 5.76855 20.8975 5.80574 20.9276C5.85036 20.9652 5.89498 20.9953 5.9396 21.0329C5.97678 21.0554 6.00653 21.078 6.04371 21.1006C6.08833 21.1307 6.14039 21.1608 6.19245 21.1909C6.22219 21.2134 6.25938 21.2285 6.29656 21.251C6.35606 21.2811 6.40811 21.3037 6.46761 21.3338C6.49735 21.3413 6.5271 21.3639 6.54941 21.3714C6.59403 21.394 6.63122 21.409 6.67584 21.4241L6.8097 21.4692C6.89894 21.4993 6.98074 21.5218 7.06998 21.5369C7.13692 21.5745 7.22616 21.5895 7.3154 21.5971Z" fill="#692F8D"/>
<path id="Vector_10" d="M19.4526 14.6687C18.7461 19.4305 20.0698 23.899 20.4045 24.9145L20.4714 25.1026C20.0252 18.6181 23.7287 16.0529 25.0376 11.7951C25.045 11.7349 25.0599 11.6597 25.0822 11.5845C24.5468 13.4651 22.3009 14.413 19.4526 14.6687Z" fill="#692F8D"/>
<path id="Vector_11" d="M25.149 11.2836C25.1564 11.2234 25.1713 11.1632 25.1787 11.103C25.1787 11.088 25.1862 11.0654 25.1862 11.0504C25.1936 10.9827 25.201 10.9225 25.201 10.8548V10.584C25.201 10.5163 25.1936 10.4486 25.1936 10.3733V10.3658C25.1862 10.2906 25.1787 10.2229 25.1713 10.1477C25.1713 10.1326 25.1638 10.1101 25.1638 10.095C25.1564 10.0273 25.1415 9.9596 25.1341 9.8919V9.87685C25.1192 9.80163 25.1044 9.73392 25.0895 9.6587C25.082 9.63613 25.082 9.61356 25.0746 9.59851C25.0597 9.53833 25.0449 9.47815 25.03 9.41045C25.0225 9.3954 25.0225 9.38036 25.0151 9.36531C24.9928 9.29761 24.9705 9.22238 24.9482 9.15468C24.9407 9.12459 24.9333 9.0945 24.9184 9.07193C24.9036 9.01927 24.8887 8.97414 24.8664 8.92148C24.8515 8.87635 24.8366 8.83873 24.8218 8.7936C24.8069 8.74846 24.7846 8.6958 24.7623 8.65067C24.7474 8.61305 24.7251 8.56792 24.7102 8.52278C24.6953 8.49269 24.6879 8.4626 24.673 8.44003C23.6393 6.04785 21.2224 3.34724 18.4856 1.0378C18.441 1.00018 18.3964 0.962572 18.3443 0.917436C18.2997 0.879823 18.2625 0.849733 18.2179 0.81212C18.1287 0.736894 18.032 0.661668 17.9428 0.586442C17.9204 0.571396 17.8981 0.556351 17.8833 0.533783C17.7791 0.451035 17.675 0.360764 17.5635 0.278015C17.5635 0.278015 21.438 5.91996 19.7127 13.2846C19.6086 13.7435 19.5193 14.2023 19.4524 14.6612C22.3007 14.4055 24.5466 13.4576 25.0746 11.577C25.1044 11.4792 25.1267 11.3814 25.1415 11.2836C25.149 11.2911 25.149 11.2836 25.149 11.2836Z" fill="#692F8D"/>
</g>
</g>
</g>
<defs>
<clipPath id="clip0_223_314">
<rect width="110" height="25" fill="white" transform="translate(0.670898 0.278015)"/>
</clipPath>
</defs>
</svg>
