<svg width="99" height="25" viewBox="0 0 99 25" fill="none" xmlns="http://www.w3.org/2000/svg">
<g id="algolia_coloured.svg" clip-path="url(#clip0_223_335)">
<g id="Group">
<g id="Group_2">
<path id="Vector" d="M3.8266 0.778015H21.5973C23.3462 0.778015 24.7735 2.19102 24.7735 3.93802V21.619C24.7735 23.359 23.3532 24.778 21.5973 24.778H3.8266C2.07767 24.778 0.650391 23.366 0.650391 21.619V3.93002C0.650391 2.19102 2.06963 0.778015 3.8266 0.778015Z" fill="#5468FF"/>
<path id="Vector_2" d="M15.7991 5.59788V4.79436C15.7987 4.23285 15.3437 3.77791 14.7827 3.77802H12.4133C11.8523 3.77791 11.3974 4.23285 11.3969 4.79436V5.61936C11.3969 5.71113 11.4818 5.77557 11.5745 5.75409C12.2447 5.56039 12.9389 5.46244 13.6366 5.46314C14.3125 5.46314 14.9817 5.55492 15.6284 5.73261C15.7143 5.75409 15.7991 5.69063 15.7991 5.59788ZM9.30556 6.64937L8.90075 6.2442C8.71026 6.05341 8.45182 5.94621 8.18234 5.94621C7.91285 5.94621 7.65441 6.05341 7.46392 6.2442L6.9801 6.72748C6.78906 6.91752 6.68164 7.17598 6.68164 7.44556C6.68164 7.71515 6.78906 7.9736 6.9801 8.16365L7.37808 8.56199C7.44246 8.62545 7.53513 8.6108 7.5917 8.54734C7.8265 8.22458 8.08576 7.92037 8.36718 7.63741C8.65097 7.3524 8.95764 7.09117 9.2841 6.85635C9.35512 6.8134 9.36214 6.71381 9.30556 6.64937ZM13.6295 9.2005V12.6762C13.6295 12.7758 13.7368 12.8471 13.8285 12.7973L16.9158 11.198C16.986 11.1629 17.0075 11.077 16.9724 11.0067C16.3325 9.88295 15.1444 9.11556 13.7719 9.06577C13.7007 9.06577 13.6295 9.12239 13.6295 9.2005ZM13.6295 17.5734C11.0553 17.5734 8.96396 15.4831 8.96396 12.9105C8.96396 10.3379 11.0553 8.24859 13.6295 8.24859C16.2047 8.24859 18.2953 10.3379 18.2953 12.9105C18.2953 15.4831 16.2117 17.5734 13.6295 17.5734ZM13.6295 6.28716C9.97355 6.28716 7.00819 9.25127 7.00819 12.9105C7.00819 16.5707 9.97355 19.528 13.6295 19.528C17.2855 19.528 20.2509 16.5639 20.2509 12.9037C20.2509 9.24346 17.2923 6.28716 13.6295 6.28716Z" fill="white"/>
<path id="Vector_3" d="M49.1785 19.8309C44.4824 19.8527 44.4824 16.0564 44.4824 15.4519L44.4744 1.23041L47.3393 0.778015V14.9124C47.3393 15.2557 47.3393 17.4266 49.1783 17.4336L49.1785 19.8309ZM37.5655 17.5067C38.4446 17.5067 39.097 17.4556 39.5512 17.3685V14.469C39.3244 14.4089 39.0942 14.3625 38.8619 14.3299C38.5321 14.2812 38.1992 14.2567 37.8658 14.2568C37.5502 14.2568 37.2276 14.2788 36.9061 14.3299C36.5835 14.3739 36.29 14.461 36.0338 14.5851C35.7775 14.7092 35.5645 14.8844 35.4107 15.1096C35.2499 15.3358 35.1766 15.4669 35.1766 15.8092C35.1766 16.4788 35.4107 16.8661 35.8358 17.1203C36.2609 17.3755 36.8397 17.5067 37.5655 17.5067ZM37.3163 7.1606C38.2609 7.1606 39.0596 7.2777 39.7048 7.51091C40.3492 7.74411 40.8697 8.0714 41.2504 8.48676C41.6393 8.90913 41.9026 9.47062 42.0636 10.0681C42.2324 10.6657 42.3128 11.3212 42.3128 12.0419V19.3723C41.8736 19.4664 41.2062 19.5755 40.313 19.7066C39.4194 19.8377 38.4157 19.9037 37.301 19.9037C36.5614 19.9037 35.88 19.8307 35.272 19.6926C34.656 19.5544 34.1365 19.3282 33.6963 19.015C33.2642 18.7017 32.9275 18.3003 32.6783 17.8059C32.4361 17.3095 32.3115 16.6109 32.3115 15.8822C32.3115 15.1826 32.4502 14.7382 32.7225 14.2568C32.9999 13.7764 33.3737 13.383 33.843 13.0768C34.3194 12.7705 34.861 12.5523 35.4841 12.4212C36.1071 12.2901 36.7593 12.224 37.4326 12.224C37.7482 12.224 38.0778 12.246 38.4295 12.2821C38.7742 12.3191 39.1481 12.3852 39.544 12.4793V12.0128C39.544 11.6856 39.5068 11.3723 39.4264 11.081C39.3492 10.794 39.2088 10.5277 39.0154 10.3013C38.8174 10.0751 38.5622 9.9 38.2396 9.77689C37.917 9.65278 37.506 9.5577 37.0156 9.5577C36.3564 9.5577 35.7554 9.63777 35.2057 9.73285C34.656 9.82693 34.2018 9.93703 33.8571 10.0601L33.5134 7.72209C33.8722 7.59798 34.4068 7.47387 35.0962 7.35077C35.7846 7.21865 36.5254 7.1606 37.3163 7.1606ZM93.8959 17.4266C94.7752 17.4266 95.4264 17.3755 95.8806 17.2875V14.3889C95.7198 14.3449 95.4927 14.2938 95.1922 14.2498C94.8622 14.2011 94.529 14.1767 94.1953 14.1767C93.8808 14.1767 93.5582 14.1988 93.2356 14.2498C92.914 14.2938 92.6206 14.3809 92.3643 14.505C92.1071 14.6291 91.8951 14.8043 91.7413 15.0295C91.5795 15.2557 91.5071 15.3868 91.5071 15.7291C91.5071 16.3987 91.7413 16.786 92.1664 17.0402C92.5985 17.3025 93.1703 17.4266 93.8959 17.4266ZM93.6537 7.08854C94.5983 7.08854 95.397 7.20464 96.0422 7.43784C96.6863 7.67105 97.2069 7.99833 97.5878 8.4137C97.9686 8.82906 98.24 9.39756 98.4008 9.99508C98.5696 10.5926 98.65 11.2482 98.65 11.9698V19.2992C98.2108 19.3933 97.5436 19.5024 96.6502 19.6345C95.7568 19.7656 94.7529 19.8307 93.6384 19.8307C92.8988 19.8307 92.2174 19.7576 91.6096 19.6195C90.9936 19.4814 90.4741 19.2552 90.0339 18.9419C89.6018 18.6286 89.2651 18.2273 89.0159 17.7329C88.7737 17.2374 88.6491 16.5378 88.6491 15.8092C88.6491 15.1096 88.7888 14.6652 89.0601 14.1837C89.3375 13.7033 89.7113 13.31 90.1806 13.0037C90.657 12.6984 91.1986 12.4793 91.8217 12.3481C92.4447 12.217 93.0969 12.152 93.7712 12.152C94.0858 12.152 94.4154 12.174 94.7671 12.21C95.1189 12.246 95.4857 12.3121 95.8806 12.4072V11.9408C95.8806 11.6125 95.8444 11.2992 95.764 11.008C95.687 10.7209 95.5466 10.4545 95.353 10.2283C95.155 10.0021 94.8998 9.82693 94.5772 9.70382C94.2544 9.57972 93.8436 9.48563 93.3532 9.48563C92.694 9.48563 92.093 9.5657 91.5433 9.65979C90.9936 9.75487 90.5394 9.86397 90.1947 9.98807L89.851 7.64903C90.2098 7.52492 90.7444 7.40181 91.4338 7.2777C92.1222 7.15359 92.8618 7.08854 93.6537 7.08854ZM85.0515 5.73335C86.011 5.73335 86.796 4.96068 86.796 4.00584C86.796 3.05201 86.019 2.27933 85.0515 2.27933C84.0847 2.27933 83.3079 3.05201 83.3079 4.00584C83.3079 4.96068 84.0918 5.73335 85.0515 5.73335ZM86.4946 19.8307H83.6152V7.53192L86.4943 7.08053L86.4946 19.8307ZM81.4466 19.8309C76.7505 19.8527 76.7505 16.0564 76.7505 15.4519L76.7425 1.23041L79.6076 0.778015V14.9124C79.6076 15.2557 79.6076 17.4266 81.4466 17.4336V19.8309ZM72.1339 13.5362C72.1339 12.3041 71.8626 11.2772 71.3352 10.5636C70.8076 9.84195 70.068 9.48563 69.1223 9.48563C68.1777 9.48563 67.4369 9.84195 66.9103 10.5636C66.3827 11.2842 66.1256 12.3041 66.1256 13.5362C66.1256 14.7823 66.3899 15.619 66.9175 16.3406C67.4451 17.0693 68.1847 17.4266 69.1304 17.4266C70.075 17.4266 70.8156 17.0623 71.3432 16.3406C71.8706 15.612 72.1339 14.7823 72.1339 13.5362ZM75.0643 13.5292C75.0643 14.491 74.9256 15.2187 74.6394 16.0133C74.354 16.807 73.951 17.4846 73.4315 18.0461C72.9109 18.6066 72.2878 19.044 71.5551 19.3503C70.8227 19.6555 69.6939 19.8307 69.1302 19.8307C68.5654 19.8237 67.4449 19.6635 66.7193 19.3503C65.9938 19.037 65.3707 18.6066 64.8512 18.0461C64.3306 17.4846 63.9278 16.807 63.6344 16.0133C63.3418 15.2187 63.1952 14.491 63.1952 13.5292C63.1952 12.5673 63.3267 11.6415 63.6201 10.8548C63.9136 10.0681 64.3236 9.39756 64.8512 8.83707C65.3788 8.27558 66.0088 7.8452 66.7264 7.53993C67.4519 7.23366 68.2509 7.08854 69.1151 7.08854C69.9803 7.08854 70.7782 7.24067 71.5108 7.53993C72.2444 7.8452 72.8747 8.27558 73.3872 8.83707C73.9066 9.39756 74.3098 10.0681 74.6032 10.8548C74.9107 11.6415 75.0643 12.5673 75.0643 13.5292ZM53.5017 13.5292C53.5017 14.7232 53.765 16.0494 54.2926 16.6029C54.8202 17.1573 55.5013 17.4336 56.3376 17.4336C56.7918 17.4336 57.2239 17.3685 57.6267 17.2444C58.0297 17.1203 58.3515 16.9742 58.6087 16.8V9.72584C58.4037 9.68181 57.5463 9.50665 56.7175 9.48563C55.6774 9.45561 54.8865 9.87898 54.3297 10.5556C53.7798 11.2342 53.5017 12.4212 53.5017 13.5292ZM61.4658 19.1531C61.4658 21.0988 60.9673 22.519 59.9632 23.4228C58.9603 24.3256 57.4287 24.778 55.3626 24.778C54.6079 24.778 53.0402 24.6319 51.7871 24.3556L52.2483 22.0967C53.2965 22.3149 54.6813 22.3739 55.4068 22.3739C56.5565 22.3739 57.3775 22.1407 57.8679 21.6743C58.3593 21.2079 58.6005 20.5163 58.6005 19.5975V19.1311C58.3151 19.2692 57.9413 19.4083 57.48 19.5544C57.0187 19.6926 56.4841 19.7656 55.8822 19.7656C55.0913 19.7656 54.3728 19.6415 53.7216 19.3933C53.0694 19.1461 52.5046 18.7818 52.0433 18.3003C51.5821 17.8199 51.2153 17.2154 50.959 16.4938C50.7028 15.7721 50.5701 14.483 50.5701 13.5362C50.5701 12.6474 50.7098 11.5324 50.9813 10.7888C51.2595 10.0461 51.6546 9.40456 52.1901 8.8731C52.7178 8.34163 53.3628 7.93328 54.1175 7.63401C54.8722 7.33575 55.7576 7.14659 56.7173 7.14659C57.6488 7.14659 58.506 7.26269 59.3411 7.40181C60.1762 7.53993 60.8867 7.68506 61.4656 7.8452L61.4658 19.1531Z" fill="#5468FF"/>
</g>
</g>
</g>
<defs>
<clipPath id="clip0_223_335">
<rect width="98" height="24" fill="white" transform="translate(0.650391 0.778015)"/>
</clipPath>
</defs>
</svg>
