<svg width="123" height="31" viewBox="0 0 123 31" fill="none" xmlns="http://www.w3.org/2000/svg">
<g id="Amplience_coloured.svg" clip-path="url(#clip0_223_348)">
<g id="Group">
<g id="Group_2">
<path id="Vector" d="M76.5333 13.5398C76.9932 13.5398 77.3673 13.1547 77.3673 12.6825C77.3673 12.2082 76.9932 11.8238 76.5333 11.8238C76.0726 11.8238 75.6992 12.2082 75.6992 12.6825C75.6992 13.1547 76.0726 13.5398 76.5333 13.5398Z" fill="#010101"/>
<g id="Group_3">
<g id="Mask group">
<mask id="mask0_223_348" style="mask-type:luminance" maskUnits="userSpaceOnUse" x="27" y="11" width="96" height="20">
<g id="Group_4">
<path id="Vector_2" d="M27.0713 11.7984H122.641V30.778H27.0713V11.7984Z" fill="white"/>
</g>
</mask>
<g mask="url(#mask0_223_348)">
<path id="Vector_3" d="M117.955 17.2604C120.147 17.2604 121.173 18.7727 121.334 21.013H114.375C114.637 18.7534 116.064 17.2604 117.955 17.2604ZM117.975 26.2393C115.843 26.2393 114.355 24.5106 114.335 21.7989H122.581C122.5 18.4195 120.731 16.4351 117.955 16.4351C115.159 16.4351 113.169 18.6552 113.169 21.7394C113.169 24.8645 115.12 27.0453 117.955 27.0453C120.851 27.0252 122.138 25.3939 122.641 23.567L121.777 23.2138C121.354 24.8042 120.429 26.2393 117.975 26.2393ZM102.107 21.7394C102.107 24.9232 104.139 27.0453 106.954 27.0453C109.468 27.0453 111.037 25.2764 111.459 23.2726L110.614 22.8599C110.233 24.6481 109.267 26.2199 106.954 26.2199C104.763 26.2199 103.274 24.5299 103.274 21.7394C103.274 18.9497 104.802 17.2604 106.994 17.2604C109.046 17.2604 110.052 18.7534 110.272 20.6397L111.118 20.2263C110.937 18.1838 109.529 16.4351 106.994 16.4351C104.079 16.4351 102.107 18.5571 102.107 21.7394ZM91.5692 26.7701H92.675V21.2294C92.675 18.3995 94.4245 17.241 96.0538 17.241C97.9243 17.241 98.6486 18.2233 98.6486 19.717V26.7701H99.7544V19.6575C99.7544 17.8099 98.9301 16.4351 96.3555 16.4351C94.8076 16.4351 93.1178 17.3987 92.6347 19.1661H92.5347V16.7102H91.5692V26.7701ZM84.389 17.2604C86.5805 17.2604 87.6065 18.7727 87.7685 21.013H80.8093C81.0714 18.7534 82.4991 17.2604 84.389 17.2604ZM84.4091 26.2393C82.2773 26.2393 80.7892 24.5106 80.769 21.7989H89.0147C88.9348 18.4195 87.1652 16.4351 84.389 16.4351C81.5933 16.4351 79.6027 18.6552 79.6027 21.7394C79.6027 24.8645 81.5538 27.0453 84.389 27.0453C87.2854 27.0252 88.5727 25.3939 89.0752 23.567L88.2105 23.2138C87.7879 24.8042 86.8628 26.2393 84.4091 26.2393ZM76.023 26.7701H77.1289V16.7109H76.023V26.7701ZM71.7594 26.7701H72.8652V11.8378H71.7594V26.7701ZM61.0399 21.7394C61.0399 18.6552 62.7692 17.2604 64.6195 17.2604C66.8327 17.2604 68.1992 18.8909 68.1992 21.7394C68.1992 24.5886 66.8924 26.2593 64.5799 26.2593C62.6893 26.2593 61.0399 24.9619 61.0399 21.7394ZM60.9398 30.7785V24.55H61.06C61.6238 26.1411 62.9111 27.0453 64.7808 27.0453C67.174 27.0453 69.3461 25.4928 69.3461 21.7394C69.3461 17.9675 67.1538 16.4351 64.7808 16.4351C63.1515 16.4351 61.5827 17.3786 61.0802 19.2642H60.9398V16.7102H59.8735V30.7785H60.9398ZM42.1956 26.7701H43.3014V21.2688C43.3014 18.4582 44.7702 17.241 46.439 17.241C48.3095 17.241 48.933 18.1645 48.933 19.6769V26.7701H50.0388V21.2688C50.0388 18.4582 51.5068 17.241 53.1563 17.241C55.0469 17.241 55.6502 18.1645 55.6502 19.6769V26.7701H56.7568V19.6181C56.7568 17.7511 56.0923 16.4351 53.5184 16.4351C51.9496 16.4351 50.4615 17.3987 49.9783 19.1661H49.8977C49.7976 17.5347 49.033 16.4351 46.7803 16.4351C45.2122 16.4351 43.7435 17.3987 43.2611 19.1661H43.161V16.7102H42.1956V26.7701ZM33.5272 13.4884H33.6683L36.5842 20.7966H30.6509L33.5272 13.4884ZM34.2507 11.7984H33.1046L27.0713 26.7701H28.2981L30.2492 21.8376H36.9859L38.9572 26.7701H40.2646L34.2507 11.7984Z" fill="#010101"/>
</g>
</g>
</g>
<path id="Vector_4" d="M13.849 11.1008L10.123 7.43894L21.6878 3.13315L13.849 11.1008Z" fill="#EF128B"/>
<path id="Vector_5" d="M13.8075 16.3702L17.5343 20.0313L5.96875 24.3379L13.8075 16.3702Z" fill="#EF128B"/>
<path id="Vector_6" d="M15.7393 11.8872V6.70923L27.0158 11.6983L15.7393 11.8872Z" fill="#F46CA5"/>
<path id="Vector_7" d="M0.640625 15.7719L11.9172 20.7617V15.5837L0.640625 15.7719Z" fill="#F46CA5"/>
<path id="Vector_8" d="M16.5098 13.7562L20.2365 10.0943L24.6189 21.4569L16.5098 13.7562Z" fill="#922F86"/>
<path id="Vector_9" d="M11.1472 13.7148L7.42118 17.376L3.03809 6.01331L11.1472 13.7148Z" fill="#922F86"/>
<path id="Vector_10" d="M15.71 15.6129H20.9801L15.9011 26.6922L15.71 15.6129Z" fill="#EE2968"/>
<g id="Group_5">
<g id="Mask group_2">
<mask id="mask1_223_348" style="mask-type:luminance" maskUnits="userSpaceOnUse" x="6" y="0" width="6" height="12">
<g id="Group_6">
<path id="Vector_11" d="M6.67773 0.778015H11.9471V11.8579H6.67773V0.778015Z" fill="white"/>
</g>
</mask>
<g mask="url(#mask1_223_348)">
<path id="Vector_12" d="M11.756 0.778015L6.67773 11.8581H11.9471L11.756 0.778015Z" fill="#EE2968"/>
</g>
</g>
</g>
</g>
</g>
</g>
<defs>
<clipPath id="clip0_223_348">
<rect width="122" height="30" fill="white" transform="translate(0.640625 0.778015)"/>
</clipPath>
</defs>
</svg>
