<svg width="179" height="59" viewBox="0 0 179 59" fill="none" xmlns="http://www.w3.org/2000/svg">
<g id="contentstack_coloured.svg" clip-path="url(#clip0_223_392)">
<g id="Group">
<g id="Group_2">
<g id="Group_3">
<g id="Group_4">
<g id="Mask group">
<mask id="mask0_223_392" style="mask-type:luminance" maskUnits="userSpaceOnUse" x="0" y="0" width="179" height="59">
<g id="Group_5">
<path id="Vector" d="M178.65 0.458008H0.650391V58.458H178.65V0.458008Z" fill="white"/>
</g>
</mask>
<g mask="url(#mask0_223_392)">
<g id="Group_6">
<g id="Group_7">
<path id="Vector_2" fill-rule="evenodd" clip-rule="evenodd" d="M28.8727 24.9816C28.8727 25.317 28.649 25.5407 28.3136 25.5407H17.6909C17.3555 25.5407 17.1318 25.317 17.1318 24.9816V23.7516C17.1318 23.4161 17.3555 23.1925 17.6909 23.1925H28.3136C28.649 23.1925 28.8727 23.4161 28.8727 23.7516V24.9816Z" fill="#DB5145"/>
<path id="Vector_3" fill-rule="evenodd" clip-rule="evenodd" d="M33.569 28.4479C33.569 28.7833 33.3453 29.007 33.0099 29.007H19.9273C19.5918 29.007 19.3682 28.7833 19.3682 28.4479V27.2179C19.3682 26.8824 19.5918 26.6588 19.9273 26.6588H32.8981C33.2335 26.6588 33.4572 26.8824 33.4572 27.2179L33.569 28.4479Z" fill="#DB5145"/>
<path id="Vector_4" fill-rule="evenodd" clip-rule="evenodd" d="M37.1481 32.026C37.1481 32.3615 36.9245 32.5851 36.589 32.5851H22.3882C22.0527 32.5851 21.8291 32.3615 21.8291 32.026V30.796C21.8291 30.4606 22.0527 30.2369 22.3882 30.2369H36.589C36.9245 30.2369 37.1481 30.4606 37.1481 30.796V32.026Z" fill="#DB5145"/>
<path id="Vector_5" fill-rule="evenodd" clip-rule="evenodd" d="M37.1481 35.6043C37.1481 35.9397 36.9245 36.1634 36.589 36.1634H22.3882C22.0527 36.1634 21.8291 35.9397 21.8291 35.6043V34.3743C21.8291 34.0388 22.0527 33.8152 22.3882 33.8152H36.589C36.9245 33.8152 37.1481 34.0388 37.1481 34.3743V35.6043Z" fill="#DB5145"/>
<path id="Vector_6" fill-rule="evenodd" clip-rule="evenodd" d="M33.569 39.0706C33.569 39.406 33.3453 39.6297 33.0099 39.6297H19.9273C19.5918 39.6297 19.3682 39.406 19.3682 39.0706V37.8406C19.3682 37.5051 19.5918 37.2815 19.9273 37.2815H32.8981C33.2335 37.2815 33.4572 37.5051 33.4572 37.8406L33.569 39.0706Z" fill="#DB5145"/>
<path id="Vector_7" fill-rule="evenodd" clip-rule="evenodd" d="M28.8727 42.6487C28.8727 42.9842 28.649 43.2078 28.3136 43.2078H17.6909C17.3555 43.2078 17.1318 42.9842 17.1318 42.6487V41.4187C17.1318 41.0833 17.3555 40.8596 17.6909 40.8596H28.3136C28.649 40.8596 28.8727 41.0833 28.8727 41.4187V42.6487Z" fill="#DB5145"/>
<path id="Vector_8" fill-rule="evenodd" clip-rule="evenodd" d="M8.74609 14.2471C8.74609 14.5825 8.96973 14.8062 9.30518 14.8062H19.9278C20.2633 14.8062 20.4869 14.5825 20.4869 14.2471V13.0171C20.4869 12.6816 20.2633 12.458 19.9278 12.458H9.30518C8.96973 12.458 8.74609 12.6816 8.74609 13.0171V14.2471Z" fill="#DB5145"/>
<g id="Group_8">
<g id="Mask group_2">
<mask id="mask1_223_392" style="mask-type:luminance" maskUnits="userSpaceOnUse" x="0" y="16" width="19" height="10">
<g id="Group_9">
<path id="Vector_9" d="M0.650391 16.0361H18.2505V25.5406H0.650391V16.0361Z" fill="white"/>
</g>
</mask>
<g mask="url(#mask1_223_392)">
<path id="Vector_10" fill-rule="evenodd" clip-rule="evenodd" d="M4.16113 17.8252C4.16113 18.1607 4.38477 18.3843 4.72022 18.3843H17.691C18.0265 18.3843 18.2501 18.1607 18.2501 17.8252V16.5952C18.2501 16.2598 18.0265 16.0361 17.691 16.0361H4.72022C4.38477 16.0361 4.16113 16.2598 4.16113 16.5952V17.8252Z" fill="#DB5145"/>
</g>
</g>
<g id="Mask group_3">
<mask id="mask2_223_392" style="mask-type:luminance" maskUnits="userSpaceOnUse" x="0" y="16" width="19" height="10">
<g id="Group_10">
<path id="Vector_11" d="M0.650391 16.0361H18.2505V25.5406H0.650391V16.0361Z" fill="white"/>
</g>
</mask>
<g mask="url(#mask2_223_392)">
<path id="Vector_12" fill-rule="evenodd" clip-rule="evenodd" d="M0.583008 21.4033C0.583008 21.7388 0.806643 21.9624 1.1421 21.9624H15.3429C15.6784 21.9624 15.902 21.7388 15.902 21.4033V20.1733C15.902 19.8379 15.6784 19.6143 15.3429 19.6143H1.1421C0.806643 19.6143 0.583008 19.8379 0.583008 20.1733V21.4033Z" fill="#DB5145"/>
</g>
</g>
<g id="Mask group_4">
<mask id="mask3_223_392" style="mask-type:luminance" maskUnits="userSpaceOnUse" x="0" y="16" width="19" height="10">
<g id="Group_11">
<path id="Vector_13" d="M0.650391 16.0361H18.2505V25.5406H0.650391V16.0361Z" fill="white"/>
</g>
</mask>
<g mask="url(#mask3_223_392)">
<path id="Vector_14" fill-rule="evenodd" clip-rule="evenodd" d="M0.583008 24.9816C0.583008 25.317 0.806643 25.5407 1.1421 25.5407H15.3429C15.6784 25.5407 15.902 25.317 15.902 24.9816V23.7516C15.902 23.4161 15.6784 23.1925 15.3429 23.1925H1.1421C0.806643 23.1925 0.583008 23.4161 0.583008 23.7516V24.9816Z" fill="#DB5145"/>
</g>
</g>
</g>
<path id="Vector_15" fill-rule="evenodd" clip-rule="evenodd" d="M4.16113 28.4479C4.16113 28.7833 4.38477 29.007 4.72022 29.007H17.691C18.0265 29.007 18.2501 28.7833 18.2501 28.4479V27.2179C18.2501 26.8824 18.0265 26.6588 17.691 26.6588H4.72022C4.38477 26.6588 4.16113 26.8824 4.16113 27.2179V28.4479Z" fill="#DB5145"/>
<path id="Vector_16" fill-rule="evenodd" clip-rule="evenodd" d="M8.74609 32.026C8.74609 32.3615 8.96973 32.5851 9.30518 32.5851H19.9278C20.2633 32.5851 20.4869 32.3615 20.4869 32.026V30.796C20.4869 30.4606 20.2633 30.2369 19.9278 30.2369H9.30518C8.96973 30.2369 8.74609 30.4606 8.74609 30.796V32.026Z" fill="#DB5145"/>
<path id="Vector_17" fill-rule="evenodd" clip-rule="evenodd" d="M51.1246 34.8215C50.5655 34.9334 50.0064 34.9334 49.4473 34.9334C47.9937 34.9334 46.8755 34.7097 46.0928 34.2625C45.4219 33.8152 44.8628 33.1443 44.6392 32.1379C44.4155 31.1316 44.3037 29.6779 44.3037 27.777C44.3037 25.8761 44.4155 24.4225 44.6392 23.4162C44.8628 22.4098 45.3101 21.7389 46.0928 21.2916C46.7637 20.8444 47.8819 20.6207 49.4473 20.6207C50.0064 20.6207 50.4537 20.6207 51.0128 20.7325C51.5718 20.8444 52.0191 20.9562 52.3546 20.9562V23.4162C51.2364 23.3043 50.4537 23.1925 50.1182 23.1925C49.2237 23.1925 48.5528 23.3043 48.2173 23.4162C47.8819 23.528 47.6582 23.9753 47.5464 24.5343C47.4346 25.0934 47.4346 26.0998 47.4346 27.6652C47.4346 29.2307 47.4346 30.237 47.5464 30.7961C47.6582 31.3552 47.8819 31.6907 48.2173 31.9143C48.5528 32.1379 49.2237 32.1379 50.1182 32.1379C50.9009 32.1379 51.6837 32.0261 52.4664 31.9143V34.3743C52.2428 34.5979 51.6837 34.7097 51.1246 34.8215Z" fill="#0A0B09"/>
<path id="Vector_18" fill-rule="evenodd" clip-rule="evenodd" d="M60.9644 32.0261C61.1881 31.9143 61.4117 31.467 61.4117 31.0198C61.5235 30.4607 61.5235 29.3425 61.5235 27.777C61.5235 26.2116 61.5235 25.0934 61.4117 24.5343C61.2999 23.9753 61.1881 23.6398 60.9644 23.528C60.7408 23.4162 60.1817 23.3043 59.5108 23.3043C58.8399 23.3043 58.2808 23.4162 58.0572 23.528C57.8335 23.6398 57.6099 24.0871 57.6099 24.5343C57.4981 25.0934 57.4981 26.2116 57.4981 27.777C57.4981 29.3425 57.4981 30.4607 57.6099 31.0198C57.7217 31.5788 57.8335 31.9143 58.0572 32.0261C58.2808 32.1379 58.8399 32.2497 59.5108 32.2497C60.1817 32.2497 60.629 32.2497 60.9644 32.0261ZM55.9326 34.2625C55.2617 33.8152 54.8145 33.2561 54.5908 32.2497C54.3672 31.3552 54.3672 29.7898 54.3672 27.777C54.3672 25.6525 54.479 24.1989 54.5908 23.3043C54.7026 22.4098 55.1499 21.7389 55.9326 21.2916C56.6035 20.8444 57.8335 20.7325 59.5108 20.7325C61.1881 20.7325 62.418 20.9562 63.089 21.2916C63.7599 21.7389 64.2071 22.298 64.4308 23.3043C64.6544 24.1989 64.6544 25.6525 64.6544 27.777C64.6544 29.9016 64.5426 31.3552 64.4308 32.2497C64.2071 33.1443 63.8717 33.8152 63.089 34.2625C62.3062 34.7097 61.1881 34.8215 59.5108 34.8215C57.8335 34.9334 56.4917 34.7097 55.9326 34.2625Z" fill="#0A0B09"/>
<path id="Vector_19" fill-rule="evenodd" clip-rule="evenodd" d="M74.0469 34.7097L70.0215 26.7707H69.9097V34.7097H66.8906V20.8444H70.0215L73.8233 28.1125H73.9351V20.8444H76.9542V34.7097H74.0469Z" fill="#0A0B09"/>
<path id="Vector_20" fill-rule="evenodd" clip-rule="evenodd" d="M81.6509 34.7097V23.6398H78.4082V20.9562H88.0245V23.6398H84.7818V34.7097H81.6509Z" fill="#0A0B09"/>
<path id="Vector_21" fill-rule="evenodd" clip-rule="evenodd" d="M89.4785 34.7097V20.8444H97.753V23.4162H92.4976V26.3234H96.9703V28.8952H92.4976V32.0261H97.753V34.5979H89.4785V34.7097Z" fill="#0A0B09"/>
<path id="Vector_22" fill-rule="evenodd" clip-rule="evenodd" d="M107.146 34.7097L103.12 26.7707H103.008V34.7097H99.9893V20.8444H103.12L106.922 28.1125H107.034V20.8444H110.053V34.7097H107.146Z" fill="#0A0B09"/>
<path id="Vector_23" fill-rule="evenodd" clip-rule="evenodd" d="M114.861 34.7097V23.6398H111.618V20.9562H121.234V23.6398H117.992V34.7097H114.861Z" fill="#0A0B09"/>
<path id="Vector_24" fill-rule="evenodd" clip-rule="evenodd" d="M122.688 34.5979V32.1379C124.365 32.2497 125.483 32.3616 126.266 32.3616C126.825 32.3616 127.272 32.3616 127.607 32.2497C127.943 32.1379 128.167 32.1379 128.278 32.0261C128.39 31.9143 128.502 31.8025 128.502 31.5788C128.502 31.3552 128.502 31.1316 128.502 30.7961C128.502 30.3488 128.502 30.0134 128.39 29.9016C128.278 29.6779 128.167 29.5661 128.055 29.4543C127.831 29.3425 127.607 29.2307 127.16 29.2307L124.924 28.8952C123.917 28.7834 123.247 28.3361 122.799 27.6652C122.352 26.9943 122.24 26.0998 122.24 24.8698C122.24 23.7516 122.464 22.8571 122.799 22.1862C123.135 21.6271 123.694 21.1798 124.365 20.9562C125.036 20.7325 125.93 20.6207 126.937 20.6207C128.167 20.6207 129.508 20.7325 130.85 21.068V23.528C129.62 23.4162 128.614 23.3043 127.607 23.3043C126.601 23.3043 125.93 23.4162 125.707 23.528C125.483 23.6398 125.483 23.7516 125.371 23.9753C125.259 24.1989 125.259 24.4225 125.259 24.758C125.259 25.0934 125.259 25.4289 125.371 25.5407C125.483 25.6525 125.483 25.7643 125.595 25.8761C125.707 25.988 125.93 25.988 126.377 26.0998L128.726 26.4352C129.285 26.5471 129.732 26.6589 130.067 26.8825C130.403 27.1061 130.738 27.4416 130.962 27.8889C131.186 28.4479 131.409 29.3425 131.409 30.4607C131.409 31.8025 131.186 32.697 130.85 33.3679C130.515 34.0388 129.956 34.4861 129.397 34.7097C128.837 34.9334 127.943 35.0452 126.937 35.0452C125.259 34.9334 123.806 34.7097 122.688 34.5979Z" fill="#0A0B09"/>
<path id="Vector_25" fill-rule="evenodd" clip-rule="evenodd" d="M135.659 34.7097V23.6398H132.416V20.9562H142.032V23.6398H138.79V34.7097H135.659Z" fill="#0A0B09"/>
<path id="Vector_26" fill-rule="evenodd" clip-rule="evenodd" d="M147.623 23.7516L146.169 29.3425H148.965L147.623 23.7516ZM150.419 34.7097L149.748 31.9143H145.61L144.939 34.7097H141.809L145.499 20.8444H149.859L153.549 34.7097H150.419Z" fill="#0A0B09"/>
<path id="Vector_27" fill-rule="evenodd" clip-rule="evenodd" d="M161.377 34.8215C160.817 34.9334 160.258 34.9334 159.699 34.9334C158.246 34.9334 157.127 34.7097 156.345 34.2625C155.562 33.8152 155.115 33.1443 154.891 32.1379C154.667 31.1316 154.556 29.6779 154.556 27.777C154.556 25.8761 154.667 24.4225 154.891 23.4162C155.115 22.4098 155.562 21.7389 156.345 21.2916C157.016 20.8444 158.134 20.6207 159.699 20.6207C160.258 20.6207 160.706 20.6207 161.265 20.7325C161.824 20.8444 162.271 20.9562 162.607 20.9562V23.4162C161.488 23.3043 160.706 23.1925 160.37 23.1925C159.476 23.1925 158.805 23.3043 158.469 23.4162C158.134 23.6398 157.91 23.9753 157.798 24.5343C157.687 25.0934 157.687 26.0998 157.687 27.6652C157.687 29.2307 157.687 30.237 157.798 30.7961C157.91 31.3552 158.134 31.6907 158.469 31.9143C158.805 32.1379 159.476 32.1379 160.37 32.1379C161.153 32.1379 161.936 32.0261 162.718 31.9143V34.3743C162.383 34.5979 161.936 34.7097 161.377 34.8215Z" fill="#0A0B09"/>
<path id="Vector_28" fill-rule="evenodd" clip-rule="evenodd" d="M171.775 34.7097L168.645 29.007H167.75V34.7097H164.619V20.8444H167.75V26.3234H168.645L171.775 20.8444H175.13L171.105 27.4416L175.13 34.5979L171.775 34.7097Z" fill="#0A0B09"/>
<path id="Vector_29" fill-rule="evenodd" clip-rule="evenodd" d="M177.228 21.8708C177.165 21.8462 177.077 21.835 176.963 21.835H176.854V22.3382H177.03C177.136 22.3382 177.219 22.3169 177.278 22.2744C177.338 22.2319 177.368 22.1637 177.368 22.0687C177.368 21.9736 177.321 21.9077 177.228 21.8708ZM176.398 23.264V21.5286C176.507 21.5286 176.668 21.5286 176.883 21.5297C177.096 21.5308 177.216 21.532 177.239 21.5331C177.377 21.5431 177.492 21.5722 177.583 21.6225C177.737 21.7075 177.814 21.8451 177.814 22.0363C177.814 22.1827 177.773 22.2879 177.692 22.3527C177.609 22.4176 177.51 22.4556 177.39 22.469C177.5 22.4914 177.583 22.5249 177.637 22.5685C177.739 22.6513 177.791 22.781 177.791 22.9588V23.1131C177.791 23.1298 177.792 23.1477 177.793 23.1645C177.795 23.1813 177.799 23.198 177.806 23.2159L177.822 23.264H177.389C177.375 23.2092 177.366 23.1287 177.36 23.0247C177.356 22.9196 177.346 22.8481 177.331 22.8123C177.309 22.7508 177.266 22.7083 177.204 22.6848C177.17 22.6703 177.119 22.6613 177.048 22.6568L176.95 22.6501H176.854V23.264H176.398ZM176.165 21.4861C175.916 21.7411 175.791 22.0441 175.791 22.393C175.791 22.7552 175.919 23.0639 176.171 23.3177C176.424 23.5704 176.728 23.6979 177.085 23.6979C177.441 23.6979 177.745 23.5693 177.996 23.3155C178.249 23.0583 178.374 22.7519 178.374 22.393C178.374 22.0452 178.249 21.7422 177.999 21.4861C177.745 21.2256 177.441 21.0959 177.085 21.0959C176.725 21.0959 176.419 21.2256 176.165 21.4861ZM178.181 23.5167C177.877 23.8119 177.512 23.9584 177.085 23.9584C176.644 23.9584 176.273 23.8075 175.972 23.5067C175.67 23.2048 175.52 22.8335 175.52 22.393C175.52 21.9356 175.683 21.5554 176.008 21.2524C176.313 20.9695 176.673 20.8275 177.085 20.8275C177.517 20.8275 177.886 20.9807 178.192 21.2871C178.497 21.5923 178.65 21.9613 178.65 22.393C178.65 22.838 178.494 23.2126 178.181 23.5167Z" fill="#0A0B09"/>
</g>
</g>
</g>
</g>
</g>
</g>
</g>
</g>
</g>
<defs>
<clipPath id="clip0_223_392">
<rect width="178" height="58" fill="white" transform="translate(0.650391 0.458008)"/>
</clipPath>
</defs>
</svg>
