<svg width="144" height="30" viewBox="0 0 144 30" fill="none" xmlns="http://www.w3.org/2000/svg">
<g id="contentful_coloured.svg" clip-path="url(#clip0_223_376)">
<g id="Group">
<g id="Group_2" style="mix-blend-mode:multiply">
<path id="Vector" d="M9.46926 20.49C7.94382 18.9629 7.09359 16.8965 7.10619 14.7467C7.10064 12.5966 7.96704 10.5345 9.51037 9.02473C10.402 8.23852 10.782 7.02743 10.4975 5.87813C10.2131 4.72884 9.31089 3.83002 8.15355 3.54287C6.99621 3.25571 5.7737 3.62736 4.97728 4.50848C-0.740041 10.1465 -0.76805 19.3145 4.91472 24.9867C5.70846 25.8665 6.92698 26.2398 8.0826 25.9571C9.23821 25.6745 10.1421 24.782 10.4325 23.637C10.7229 22.492 10.3524 21.2815 9.46926 20.49Z" fill="#FEDC00"/>
<path id="Vector_2" d="M9.51036 9.02469C12.7161 5.87657 17.8852 5.89481 21.0683 9.06547C21.8594 9.95472 23.0823 10.3355 24.2438 10.0542C25.4053 9.77295 26.3138 8.876 26.6028 7.72518C26.8918 6.57436 26.5137 5.35945 25.6211 4.5705C22.902 1.83844 19.1976 0.293714 15.3273 0.278074C11.4571 0.262434 7.74016 1.77717 4.99872 4.48717C4.10383 5.26933 3.71854 6.47839 3.99761 7.62869C4.27668 8.77899 5.17431 9.68178 6.32996 9.97442C7.4856 10.2671 8.70962 9.90155 9.51036 9.02469Z" fill="#1AB1FF"/>
<path id="Vector_3" d="M21.0484 20.5308C19.5095 22.047 17.4258 22.8936 15.2569 22.8837C13.088 22.8869 11.0091 22.0242 9.48863 20.49C8.69607 19.6055 7.47519 19.2286 6.3166 19.5107C5.15802 19.7929 4.25194 20.6879 3.96246 21.8359C3.67298 22.984 4.04764 24.1967 4.93588 24.9867C7.65959 27.7185 11.3674 29.2625 15.2407 29.2779C19.114 29.2932 22.8341 27.7785 25.5797 25.0683C26.8428 23.827 26.8524 21.805 25.6011 20.552C24.3498 19.299 22.3115 19.2895 21.0484 20.5308Z" fill="#FE5A6A"/>
<path id="Vector_4" d="M5.99754 9.71222C4.79445 9.21444 4.01302 8.04574 4.01858 6.75266C4.02433 5.45957 4.81595 4.29765 6.02334 3.81023C7.23074 3.32281 8.6153 3.60623 9.52957 4.52795C10.7693 5.77777 10.7605 7.7856 9.50991 9.0247C8.58761 9.93852 7.20063 10.21 5.99754 9.71222Z" fill="#00A1FE"/>
<path id="Vector_5" d="M9.44746 24.9866C8.52481 25.9001 7.13771 26.1711 5.93482 25.6728C4.73193 25.1745 3.95097 24.0055 3.95707 22.7125C3.96331 21.4194 4.75538 20.2578 5.96298 19.7708C7.17057 19.2839 8.55501 19.5678 9.46891 20.4899C10.7081 21.7402 10.6985 23.748 9.44746 24.9866Z" fill="#F84467"/>
<path id="Vector_6" d="M39.9391 17.8746C40.8668 17.1795 40.9901 17.5678 41.773 18.3445C42.1645 18.7328 43.2352 19.4084 42.5345 19.9793C41.0723 21.1638 39.7532 21.6958 37.887 21.6958C33.6632 21.6763 30.6763 18.5484 30.9158 14.3992C31.0177 12.5409 31.7595 10.7819 33.2234 9.57619C34.5623 8.452 36.23 7.96261 37.9818 8.00339C38.8403 8.00086 39.6909 8.1672 40.4842 8.49278C41.0216 8.68525 41.528 8.95403 41.9875 9.29071C42.9152 9.99997 42.4827 10.4149 41.7605 11.1295C41.5961 11.2926 41.4316 11.4575 41.2868 11.6206C40.9168 11.9877 40.6684 12.2537 40.175 11.9061C39.2276 11.2518 38.03 10.9043 36.8985 11.1969C33.252 12.1154 33.4165 18.5537 37.8888 18.575C38.6302 18.5653 39.3489 18.3198 39.9391 17.8746ZM141.303 21.7756C141.007 21.777 140.723 21.6613 140.514 21.4542C140.305 21.2471 140.188 20.9657 140.189 20.6726L140.252 6.40754C140.25 6.11444 140.367 5.8329 140.575 5.62548C140.784 5.41805 141.068 5.30191 141.363 5.30285H142.559C142.855 5.30191 143.139 5.41829 143.348 5.6261C143.556 5.83391 143.673 6.11591 143.671 6.40932L143.608 20.6744C143.61 20.9674 143.493 21.2487 143.284 21.4559C143.076 21.663 142.792 21.7787 142.497 21.7773L141.303 21.7756ZM135.046 20.1212C133.749 21.3269 132.512 21.96 130.678 21.96C126.97 21.9387 125.197 18.8942 125.197 15.4808L125.219 9.67726C125.218 9.38431 125.335 9.10314 125.544 8.89633C125.753 8.68952 126.037 8.57423 126.332 8.57608H127.528C127.823 8.5747 128.107 8.69044 128.316 8.89759C128.525 9.10473 128.641 9.38609 128.64 9.67903L128.62 15.4826C128.62 17.3834 129.65 18.8747 131.67 18.8747C133.69 18.8747 134.925 17.199 134.944 15.3283V13.2555C134.928 13.175 134.922 13.0929 134.925 13.0108L134.944 9.71981C134.943 9.42687 135.06 9.14551 135.269 8.93837C135.477 8.73122 135.761 8.61548 136.056 8.61691H137.236C137.531 8.61548 137.815 8.73122 138.024 8.93837C138.233 9.14551 138.349 9.42687 138.348 9.71981L138.309 20.6744C138.303 21.278 137.805 21.7627 137.197 21.7578H136.187C135.591 21.7394 135.113 21.265 135.095 20.6744L135.046 20.1212ZM120.823 8.61691H123.131C123.426 8.62109 123.708 8.74218 123.913 8.95328C124.118 9.16438 124.23 9.44799 124.223 9.74109V10.4965C124.218 11.1022 123.725 11.5926 123.115 11.5994H120.802L120.761 20.6124C120.762 20.9055 120.645 21.187 120.437 21.3944C120.228 21.6018 119.944 21.718 119.649 21.717H118.455C118.159 21.718 117.875 21.6019 117.666 21.3945C117.457 21.1872 117.34 20.9056 117.341 20.6124L117.382 8.14702C117.382 5.42876 118.948 3.28146 121.751 3.03676C121.833 3.03676 121.894 3.01726 121.976 3.01726C122.141 3.00662 122.306 3.00662 122.471 3.01726H123.544C123.839 3.02144 124.12 3.14229 124.325 3.35301C124.53 3.56372 124.642 3.84687 124.636 4.13967V4.83475C124.632 5.44255 124.137 5.93459 123.524 5.93943H122.659C121.34 5.93943 120.784 6.93949 120.762 8.16652L120.823 8.61691ZM112.542 8.57612H115.071C115.679 8.58197 116.168 9.07549 116.163 9.67903V10.4344C116.157 11.0379 115.66 11.5227 115.051 11.5178H112.52L112.501 17.0323C112.501 18.0962 113.015 18.708 114.086 18.708H114.601C115.21 18.7148 115.698 19.2088 115.693 19.8127V20.5787C115.686 21.1818 115.189 21.666 114.581 21.6621H113.612C113.433 21.6656 113.254 21.6585 113.076 21.6408C110.336 21.4635 109.12 19.701 109.12 17.043C109.142 13.4665 109.142 9.91131 109.162 6.33484C109.164 6.04468 109.283 5.76752 109.492 5.56434C109.701 5.36116 109.983 5.24861 110.275 5.25134H111.45C112.058 5.25729 112.547 5.7508 112.542 6.35435V8.57612ZM75.8981 8.4325H78.4274C79.0358 8.43835 79.5245 8.93186 79.5196 9.5354V10.2943C79.5127 10.8974 79.0158 11.3817 78.4077 11.3777H75.8695V16.894C75.8695 17.9579 76.3843 18.5697 77.455 18.5697H77.9716C78.2636 18.5725 78.5426 18.6903 78.7471 18.8971C78.9516 19.1039 79.0648 19.3829 79.062 19.6726V20.4279C79.0561 21.0315 78.5586 21.5163 77.9501 21.5114H77.1887C74.2 21.4918 72.4697 20.224 72.4697 16.9011C72.4911 13.3247 72.4911 9.76769 72.5108 6.19122C72.5177 5.5874 73.0157 5.10289 73.6244 5.10774H74.7988C75.4072 5.11463 75.8951 5.60895 75.8892 6.2125L75.8981 8.4325ZM61.0244 9.98579C62.2399 8.8616 63.559 8.14702 65.2679 8.14702C68.9769 8.16652 70.8931 11.1614 70.8717 14.6244L70.852 20.4279C70.853 20.7212 70.7359 21.0027 70.5269 21.2101C70.3178 21.4175 70.034 21.5336 69.7384 21.5326H68.5443C68.2487 21.5336 67.9649 21.4175 67.7559 21.2101C67.5468 21.0027 67.4298 20.7212 67.4307 20.4279L67.4522 14.6652C67.4522 12.7643 66.4226 11.2731 64.4027 11.2731C62.3829 11.2731 61.1477 12.9292 61.128 14.8088L61.1066 20.4279C61.1007 21.0315 60.6032 21.5163 59.9948 21.5113H58.8204C58.212 21.5055 57.7233 21.012 57.7281 20.4084C57.7479 16.9135 57.7479 13.3991 57.7693 9.90422V9.43433C57.7713 8.8315 58.2645 8.34383 58.8722 8.34384H59.8821C60.4778 8.36141 60.9566 8.83632 60.9743 9.42724L61.0244 9.98579ZM97.7377 10.1276C98.9532 9.00523 100.271 8.28887 101.981 8.28887C105.69 8.31015 107.605 11.3139 107.585 14.768L107.564 20.5787C107.565 20.8718 107.448 21.1533 107.24 21.3607C107.031 21.5682 106.747 21.6843 106.452 21.6834H105.258C104.962 21.6843 104.678 21.5682 104.469 21.3608C104.26 21.1535 104.143 20.8719 104.144 20.5787L104.166 14.8159C104.166 12.9151 103.134 11.4238 101.116 11.4238C99.098 11.4238 97.8611 13.0782 97.8396 14.9595L97.811 20.5787C97.8041 21.1825 97.3061 21.667 96.6974 21.6621H95.523C94.9153 21.6552 94.4277 21.162 94.4326 20.5592L94.4738 9.58328C94.4747 9.29188 94.5928 9.0129 94.8018 8.80819C95.0109 8.60347 95.2936 8.48995 95.5874 8.49278H96.5973C97.1953 8.51238 97.6738 8.99172 97.6877 9.58505L97.7377 10.1276ZM49.8078 8.04394C45.7895 8.0229 42.9474 10.9043 42.9258 14.8691C42.9063 18.8747 45.7073 21.717 49.7667 21.7367C53.8261 21.756 56.6682 18.9367 56.6881 14.9045C56.7093 10.9663 53.8047 8.06368 49.8078 8.04394ZM83.1625 16.2397C83.4503 18.0785 85.2235 18.8339 86.9538 18.8552C87.8212 18.8476 88.6773 18.6598 89.467 18.3037C89.594 18.2524 89.7175 18.1932 89.837 18.1264C90.2499 17.9012 90.6199 17.7593 90.9917 18.1264C91.1973 18.3303 91.3832 18.536 91.5887 18.7186C91.7829 18.9024 91.9622 19.101 92.125 19.3126C92.6809 20.0059 92.2894 20.1708 91.6513 20.5999C90.291 21.4989 88.5196 21.9475 86.8912 21.9475C82.5244 21.928 79.6393 19.2878 79.6393 14.9187C79.6608 10.789 82.544 8.05127 86.7053 8.07056C90.9506 8.09205 93.3601 10.5656 93.4227 14.7751C93.4424 15.9188 93.4835 16.2876 92.2894 16.2876L83.1625 16.2397ZM49.8078 11.1295C51.8885 11.1295 53.2684 12.9292 53.2684 14.9116C53.2684 16.9756 51.9707 18.6353 49.7864 18.6353C47.6021 18.6353 46.3258 16.9596 46.3258 14.8957C46.3258 12.8317 47.645 11.1295 49.8078 11.1295ZM83.2536 13.3991L90.0944 13.4186C89.8459 11.7217 88.4249 11.0479 86.7982 11.0479C85.1716 11.0479 83.7595 11.8051 83.2536 13.3991Z" fill="#29303A"/>
</g>
</g>
</g>
<defs>
<clipPath id="clip0_223_376">
<rect width="143" height="29" fill="white" transform="translate(0.670898 0.277954)"/>
</clipPath>
</defs>
</svg>
