<svg width="154" height="15" viewBox="0 0 154 15" fill="none" xmlns="http://www.w3.org/2000/svg">
<g id="empathy.svg" clip-path="url(#clip0_223_444)">
<g id="Group">
<g id="Group_2">
<g id="Group_3">
<path id="Vector" fill-rule="evenodd" clip-rule="evenodd" d="M34.0657 0.77832V14.7776H32.6172V3.58145L27.0046 13.0001H26.2974L20.6848 3.64274V14.7776H19.2363V0.782407H20.4798L26.6842 11.16L32.8265 0.782407L34.0657 0.77832Z" fill="black"/>
<path id="Vector_2" fill-rule="evenodd" clip-rule="evenodd" d="M51.719 5.572C51.719 8.55356 49.4918 10.3528 45.8213 10.3528H41.9458V14.7775H40.4209V0.778208H45.8228C49.4918 0.77345 51.719 2.57274 51.719 5.572ZM50.1926 5.572C50.1926 3.33413 48.6677 2.05379 45.7802 2.05379H41.9458V9.05344H45.7802C48.6677 9.05344 50.1955 7.7731 50.1955 5.572H50.1926ZM64.8242 11.0346H56.7109L54.9615 14.7775H53.3666L60.0257 0.778217H61.5441L68.1959 14.7775H66.5721L64.8242 11.0346ZM64.2692 9.83594L60.7762 2.31599L57.2717 9.83662L64.2692 9.83594Z" fill="black"/>
<path id="Vector_3" fill-rule="evenodd" clip-rule="evenodd" d="M74.0503 2.0573H69.1377V0.77832H80.4358V2.0573H75.5254V14.7776H74.0495L74.0503 2.0573ZM96.4429 0.77832V14.7776H94.8566V8.31598H85.339V14.7776H83.7318V0.782407H85.339V7.02066H94.8566V0.77832H96.4429ZM107.456 9.93411V14.7776H105.907V9.93411L99.9734 0.77832H101.648L106.736 8.64083L111.821 0.782407H113.39L107.456 9.93411Z" fill="black"/>
<path id="Vector_4" fill-rule="evenodd" clip-rule="evenodd" d="M13.8443 4.13711C13.2608 3.11071 12.3895 2.25549 11.3256 1.66496C10.2291 1.0687 8.9825 0.762606 7.71712 0.778942C6.44545 0.763834 5.1933 1.07477 4.09422 1.67858C3.02246 2.27618 2.14599 3.14098 1.56109 4.17797C0.938559 5.28757 0.622347 6.5273 0.641651 7.78267C0.619494 9.04828 0.956639 10.2964 1.6181 11.3976C2.25969 12.4428 3.19408 13.301 4.31867 13.8779C5.526 14.4892 6.87906 14.7987 8.249 14.7769C9.33154 14.7837 10.404 14.5848 11.4014 14.1932C12.3378 13.8274 13.168 13.2556 13.8226 12.5254L13.8573 12.4845L12.958 11.5433L12.9097 11.5992C12.3734 12.216 11.6836 12.6979 10.9019 13.0021C10.0698 13.3261 9.1773 13.4894 8.27715 13.4822C7.20242 13.4974 6.13988 13.2658 5.18109 12.8073C4.28437 12.3728 3.53141 11.7141 3.00447 10.9032C2.47085 10.0716 2.1754 9.12353 2.1471 8.15179H14.7298L14.763 7.72955C14.7838 6.47792 14.4682 5.2418 13.8443 4.13711ZM2.17885 7.0206C2.24468 6.12311 2.53238 5.25265 3.0189 4.47899C3.49063 3.73035 4.16489 3.11359 4.97252 2.69196C5.81536 2.26386 6.76004 2.04586 7.71712 2.0586C9.63539 2.02093 11.4302 2.94846 12.4298 4.49397C12.9238 5.25818 13.2081 6.1266 13.2568 7.0206H2.17885Z" fill="black"/>
<path id="Vector_5" fill-rule="evenodd" clip-rule="evenodd" d="M114.873 14.484C114.671 14.2952 114.56 14.036 114.567 13.7675C114.56 13.5033 114.671 13.2479 114.873 13.062C115.068 12.8767 115.335 12.7739 115.615 12.778C115.896 12.7739 116.169 12.8761 116.367 13.062C116.577 13.2452 116.691 13.5012 116.685 13.7675C116.691 14.0365 116.576 14.296 116.367 14.484C116.171 14.674 115.898 14.7802 115.615 14.7768C115.335 14.7811 115.066 14.6749 114.873 14.484ZM126.413 13.8745C125.245 13.2997 124.269 12.4316 123.591 11.3662C122.228 9.14566 122.228 6.40665 123.591 4.18609C124.272 3.12142 125.252 2.25555 126.422 1.68466C127.671 1.0712 129.062 0.759974 130.471 0.77889C131.529 0.768313 132.58 0.94169 133.571 1.29034C134.485 1.61011 135.311 2.12119 135.986 2.78521L134.973 3.71073C133.793 2.62176 132.307 2.07762 130.517 2.07762C129.384 2.06383 128.266 2.32084 127.266 2.82471C126.319 3.2967 125.526 4.00442 124.974 4.87121C123.868 6.67197 123.868 8.89328 124.974 10.694C125.526 11.5603 126.319 12.2679 127.266 12.7405C128.266 13.2409 129.383 13.4948 130.514 13.4788C132.323 13.4788 133.808 12.9285 134.97 11.8266L135.983 12.7508C135.308 13.4168 134.482 13.9311 133.568 14.2558C132.574 14.6096 131.52 14.786 130.458 14.7761C129.051 14.7984 127.66 14.4885 126.413 13.8745Z" fill="black"/>
<path id="Vector_6" fill-rule="evenodd" clip-rule="evenodd" d="M142.433 13.8554C141.319 13.2679 140.398 12.4028 139.77 11.3547C138.492 9.11991 138.492 6.42842 139.77 4.19364C140.398 3.1455 141.319 2.28041 142.433 1.69289C144.797 0.476125 147.653 0.472793 150.021 1.68404C151.13 2.27406 152.047 3.13876 152.674 4.18479C153.963 6.42342 153.963 9.12628 152.674 11.3649C152.048 12.4136 151.131 13.2807 150.021 13.8725C147.653 15.082 144.798 15.079 142.433 13.8643V13.8554ZM149.264 12.7331C150.154 12.2477 150.885 11.5394 151.376 10.6866C152.398 8.85826 152.398 6.67168 151.376 4.84334C150.885 3.99077 150.154 3.28278 149.264 2.79752C147.377 1.81508 145.088 1.81508 143.201 2.79752C142.302 3.28083 141.562 3.98901 141.062 4.84402C140.026 6.66888 140.026 8.86174 141.062 10.6866C141.561 11.5415 142.302 12.2497 143.201 12.7331C145.087 13.7155 147.377 13.7155 149.264 12.7331Z" fill="black"/>
</g>
</g>
</g>
</g>
<defs>
<clipPath id="clip0_223_444">
<rect width="153" height="14" fill="white" transform="translate(0.640625 0.777954)"/>
</clipPath>
</defs>
</svg>
