<svg width="148" height="24" viewBox="0 0 148 24" fill="none" xmlns="http://www.w3.org/2000/svg">
<g id="Google%20cloud_coloured.svg" clip-path="url(#clip0_223_462)">
<g id="Group">
<g id="Group_2">
<g id="Group_3">
<path id="Vector" d="M18.7352 6.40592H19.5552L21.8926 4.00251L22.0072 2.98173C17.6569 -0.966963 11.0175 -0.540391 7.17722 3.9328C6.11021 5.17434 5.33699 6.65323 4.91406 8.25329C5.17395 8.14374 5.4629 8.12549 5.73409 8.2035L10.4089 7.41011C10.4089 7.41011 10.6462 7.00511 10.7705 7.03001C12.8497 4.68138 16.3493 4.40751 18.7513 6.40592H18.7352Z" fill="#EA4335"/>
<path id="Vector_2" d="M25.2226 8.2533C24.6851 6.21837 23.5826 4.38926 22.049 2.9917L18.7689 6.36444C20.1539 7.52796 20.9433 9.28239 20.9094 11.1215V11.7206C22.522 11.7206 23.8295 13.0651 23.8295 14.7232C23.8295 16.3814 22.522 17.7258 20.9094 17.7258H15.0691L14.4863 18.3333V21.9351L15.0691 22.5343H20.9094C25.1032 22.5675 28.5302 19.0985 28.5625 14.7863C28.5818 12.1671 27.3276 9.71726 25.2226 8.2533Z" fill="#4285F4"/>
<path id="Vector_3" d="M9.22115 22.4962H15.0615V17.6894H9.22115C8.80468 17.6894 8.39466 17.5964 8.01532 17.4188L7.19528 17.6811L4.84173 20.0845L4.63672 20.9277C5.95555 21.9534 7.56656 22.5045 9.22115 22.4962Z" fill="#34A853"/>
<path id="Vector_4" d="M9.22107 6.90375C5.02567 6.92878 1.64707 10.4459 1.67103 14.7598C1.68581 17.1682 2.77865 19.4355 4.63664 20.9027L8.02331 17.4204C6.55435 16.7383 5.90058 14.9589 6.56403 13.4485C7.22749 11.9381 8.95795 11.2659 10.4269 11.948C11.0742 12.2485 11.5924 12.7829 11.8862 13.4485L15.2728 9.96623C13.8329 8.02757 11.5924 6.89392 9.22107 6.90375Z" fill="#FBBC05"/>
</g>
<g id="Group_4">
<path id="Vector_5" d="M44.3377 18.8422C42.2914 18.8683 40.3248 18.0562 38.888 16.5922C37.4041 15.1902 36.5752 13.2262 36.6012 11.1788C36.5768 9.13146 37.4057 7.16906 38.888 5.76548C40.3183 4.28673 42.2866 3.45831 44.3377 3.47465C46.2914 3.44851 48.1751 4.21157 49.5648 5.59228L48.0955 7.09553C47.0894 6.11678 45.7371 5.58084 44.3377 5.60045C42.8701 5.58247 41.4609 6.18541 40.4565 7.26056C39.413 8.3014 38.8376 9.72623 38.862 11.2033C38.849 12.6641 39.4244 14.0677 40.4565 15.0971C42.5824 17.2278 46.0102 17.2686 48.1865 15.1886C48.835 14.4762 49.2316 13.5677 49.3177 12.6069H44.3621V10.4828H51.3738C51.442 10.9109 51.4697 11.3439 51.4567 11.7785C51.5444 13.5906 50.8911 15.3602 49.6477 16.6771C48.2645 18.1232 46.3336 18.9108 44.3377 18.8422ZM60.6398 17.4304C58.6845 19.3144 55.5996 19.3144 53.6444 17.4304C52.6968 16.5072 52.1799 15.2278 52.2157 13.9027C52.1799 12.5775 52.6984 11.2981 53.6444 10.3749C55.6012 8.49585 58.6829 8.49585 60.6398 10.3749C61.5857 11.2981 62.1042 12.5775 62.0684 13.9027C62.1026 15.2294 61.5808 16.5088 60.6316 17.4304H60.6398ZM55.1884 16.0448C56.1977 17.1298 57.8913 17.1853 58.9706 16.169C59.0128 16.1281 59.0551 16.0873 59.0941 16.0448C59.6451 15.4713 59.9425 14.7 59.9197 13.9027C59.9441 13.1036 59.6467 12.3275 59.0941 11.7524C58.0555 10.6641 56.3359 10.6265 55.2518 11.6707C55.2242 11.6968 55.1965 11.7246 55.1705 11.7524C54.6179 12.3275 54.3205 13.1036 54.3449 13.9027C54.3237 14.7 54.6244 15.4729 55.1787 16.0448H55.1884ZM71.3913 17.4304C69.436 19.3144 66.3512 19.3144 64.3959 17.4304C63.4483 16.5072 62.9315 15.2278 62.9672 13.9027C62.9315 12.5775 63.45 11.2981 64.3959 10.3749C66.3512 8.49094 69.436 8.49094 71.3913 10.3749C72.3372 11.2981 72.8557 12.5775 72.82 13.9027C72.8573 15.2278 72.3389 16.5072 71.3913 17.4304ZM65.9416 16.0448C66.9509 17.1298 68.6445 17.1853 69.7237 16.169C69.766 16.1281 69.8082 16.0873 69.8472 16.0448C70.3982 15.4713 70.6957 14.7 70.6729 13.9027C70.6973 13.1036 70.3998 12.3275 69.8472 11.7524C68.8087 10.6641 67.0891 10.6265 66.0066 11.6707C65.979 11.6968 65.9513 11.7246 65.9253 11.7524C65.3727 12.3275 65.0753 13.1036 65.0997 13.9027C65.0785 14.7 65.3792 15.4729 65.9335 16.0448H65.9416ZM78.4598 23.2751C77.47 23.3062 76.4997 22.9957 75.7098 22.3944C75.0093 21.865 74.4567 21.1608 74.1072 20.3519L75.9893 19.5627C76.1941 20.0464 76.5143 20.4712 76.9223 20.7997C77.3579 21.1526 77.9056 21.3389 78.4663 21.3225C79.1847 21.3666 79.8869 21.0938 80.3907 20.5758C80.8881 19.9729 81.1335 19.1984 81.0766 18.4173V17.7033H81.0019C80.3631 18.4647 79.4058 18.8797 78.4176 18.8242C77.1645 18.8275 75.9666 18.3046 75.1149 17.3798C74.1917 16.4631 73.6814 15.2066 73.7025 13.901C73.6798 12.5889 74.1901 11.3243 75.1149 10.3978C75.965 9.46969 77.1628 8.94192 78.4176 8.94515C78.9426 8.94355 79.4627 9.0612 79.9373 9.28505C80.3485 9.46479 80.7142 9.7344 81.0116 10.0743H81.0864V9.28505H83.1343V18.1265C83.2432 19.5399 82.7686 20.9369 81.821 21.9876C80.919 22.8552 79.7081 23.3192 78.4598 23.2751ZM78.6094 16.8994C79.3229 16.9157 80.0072 16.6102 80.4753 16.0693C80.984 15.4827 81.2538 14.7229 81.2262 13.9435C81.257 13.151 80.9889 12.3782 80.4753 11.7769C80.0072 11.2344 79.3229 10.9305 78.6094 10.9468C77.8764 10.9321 77.1726 11.2344 76.6769 11.7769C76.1308 12.3569 75.8333 13.1298 75.8512 13.9272C75.8349 14.718 76.1308 15.4827 76.6769 16.053C77.1693 16.6003 77.8731 16.9092 78.6094 16.8994ZM86.7766 4.03183V18.5431H84.6215V4.03183H86.7766ZM92.6896 18.8422C91.3844 18.8765 90.1248 18.3618 89.213 17.4222C88.2882 16.4909 87.7827 15.218 87.8168 13.9027C87.7681 12.584 88.2541 11.3014 89.1626 10.3488C90.0208 9.44028 91.2203 8.93702 92.4653 8.96153C93.0325 8.95499 93.5933 9.0661 94.1166 9.28505C94.588 9.47623 95.017 9.75891 95.3795 10.1151C95.6916 10.4174 95.9679 10.754 96.2052 11.12C96.3969 11.4288 96.5595 11.754 96.6928 12.0906L96.9154 12.6559L90.3101 15.3879C90.7197 16.3324 91.664 16.9271 92.688 16.883C93.6778 16.8863 94.5961 16.3651 95.1081 15.5138L96.7594 16.6347C96.3384 17.2409 95.7988 17.7556 95.1731 18.1461C94.4319 18.6167 93.5673 18.8585 92.6896 18.8422ZM89.9314 13.7523L94.3247 11.9174C94.1898 11.5939 93.9476 11.3275 93.6388 11.1625C93.2942 10.9664 92.9041 10.8667 92.5075 10.8716C91.8363 10.8896 91.1975 11.1723 90.7327 11.6608C90.1687 12.2033 89.8745 12.9697 89.9314 13.7523Z" fill="#5F6368"/>
<g id="Group_5">
<path id="Vector_6" d="M108.207 18.8422C104.449 18.9075 101.351 15.8978 101.286 12.12C101.285 12.0285 101.285 11.9354 101.288 11.8439C101.2 8.06614 104.176 4.93382 107.932 4.84558C108.023 4.84395 108.116 4.84395 108.207 4.84395C110.086 4.78513 111.89 5.59231 113.104 7.0351L111.914 8.19686C111.022 7.06778 109.647 6.43544 108.215 6.49426C106.842 6.46321 105.514 6.99752 104.54 7.97137C103.528 8.99587 102.986 10.3978 103.045 11.8406C102.985 13.2834 103.528 14.6854 104.54 15.7099C105.514 16.6853 106.842 17.218 108.215 17.187C109.814 17.2049 111.334 16.4893 112.343 15.2442L113.533 16.4402C112.911 17.1886 112.129 17.7866 111.246 18.1919C110.294 18.6363 109.255 18.8585 108.207 18.8422Z" fill="#5F6368"/>
<path id="Vector_7" d="M116.728 18.5431H115.019V5.13477H116.728V18.5431Z" fill="#5F6368"/>
<path id="Vector_8" d="M119.521 10.473C121.385 8.61187 124.395 8.61187 126.259 10.473C127.144 11.4125 127.62 12.6674 127.581 13.9599C127.62 15.2523 127.144 16.5072 126.259 17.4468C124.395 19.3079 121.385 19.3079 119.521 17.4468C118.637 16.5072 118.16 15.2523 118.199 13.9599C118.16 12.6674 118.635 11.4125 119.521 10.473ZM120.792 16.3683C121.886 17.5301 123.709 17.5807 124.867 16.4811C124.906 16.4451 124.943 16.4059 124.979 16.3683C125.582 15.718 125.9 14.8504 125.863 13.9615C125.902 13.0726 125.583 12.205 124.979 11.5547C123.885 10.3929 122.061 10.3423 120.904 11.4419C120.865 11.4779 120.828 11.5171 120.792 11.5547C120.189 12.205 119.87 13.0726 119.908 13.9615C119.874 14.8487 120.195 15.7131 120.8 16.3602L120.792 16.3683Z" fill="#5F6368"/>
<path id="Vector_9" d="M137.051 18.5431H135.4V17.2735H135.351C135.057 17.7555 134.641 18.151 134.145 18.4189C133.632 18.718 133.046 18.8765 132.452 18.8748C131.473 18.9418 130.519 18.5562 129.859 17.8291C129.233 17.0333 128.92 16.035 128.975 15.0235V9.37817H130.685V14.7082C130.685 16.419 131.436 17.2735 132.939 17.2735C133.617 17.2948 134.262 16.9859 134.673 16.4435C135.117 15.8797 135.353 15.1788 135.343 14.4598V9.37817H137.053V18.5431H137.051Z" fill="#5F6368"/>
<path id="Vector_10" d="M142.858 18.8422C141.684 18.8454 140.568 18.334 139.802 17.4386C138.946 16.4876 138.487 15.2425 138.521 13.9598C138.487 12.6772 138.946 11.4321 139.802 10.4811C140.568 9.58734 141.684 9.07427 142.858 9.07754C143.508 9.06774 144.15 9.22133 144.724 9.52525C145.229 9.78015 145.656 10.1674 145.962 10.6462H146.037L145.962 9.37656V5.13477H147.672V18.5431H146.021V17.2735H145.946C145.64 17.7523 145.213 18.1395 144.707 18.3944C144.138 18.6951 143.503 18.8503 142.858 18.8422ZM143.139 17.2735C143.921 17.285 144.67 16.9582 145.195 16.3765C145.775 15.7115 146.073 14.8438 146.021 13.9598C146.073 13.0775 145.775 12.2082 145.195 11.5432C144.158 10.3962 142.393 10.3128 141.252 11.3569C141.187 11.4158 141.125 11.4795 141.067 11.5432C140.485 12.2033 140.187 13.0693 140.241 13.95C140.187 14.8308 140.485 15.6968 141.067 16.3569C141.593 16.9517 142.349 17.285 143.139 17.2735Z" fill="#5F6368"/>
</g>
</g>
</g>
</g>
</g>
<defs>
<clipPath id="clip0_223_462">
<rect width="147" height="23" fill="white" transform="translate(0.670898 0.277954)"/>
</clipPath>
</defs>
</svg>
