<svg width="140" height="52" viewBox="0 0 140 52" fill="none" xmlns="http://www.w3.org/2000/svg">
<g id="Grafana_coloured.svg" clip-path="url(#clip0_223_485)">
<g id="Group">
<g id="Group_2">
<g id="Group_3">
<path id="Vector" d="M71.2539 25.3795C71.0845 30.0905 67.359 33.7078 62.7021 33.7078C57.7912 33.7078 54.1504 29.754 54.1504 25.043C54.1504 20.2479 58.0452 16.2941 62.8715 16.2941C65.0729 16.2941 67.1897 17.2194 68.9678 18.9019L67.613 20.5844C66.2583 19.4067 64.5649 18.5654 62.9561 18.5654C59.4 18.5654 56.5212 21.4257 56.5212 24.9589C56.5212 28.5762 59.2306 31.3523 62.7021 31.3523C65.835 31.3523 68.2904 29.081 68.7138 26.1366H61.6861V24.1176H71.2539V25.3795Z" fill="#414042"/>
<path id="Vector_2" d="M79.3821 24.2018H78.1121C76.6727 24.2018 75.4873 25.3795 75.4873 26.8096V33.5396H73.2012V22.0145H75.1486V23.024C75.7413 22.4351 76.7573 22.0145 77.8581 22.0145H80.3982L79.3821 24.2018Z" fill="#414042"/>
<path id="Vector_3" d="M92.083 33.5396H90.1356V32.1095C88.6115 33.6237 86.1561 34.2967 83.7853 33.2031C82.0072 32.446 80.6525 30.7635 80.2291 28.8287C79.5518 25.1272 82.4306 21.7622 86.1561 21.7622C87.6802 21.7622 89.1196 22.3511 90.1356 23.3606V21.9305H92.1677L92.083 33.5396ZM89.7122 28.5763C90.2203 26.2208 88.4422 24.1177 86.1561 24.1177C84.124 24.1177 82.5152 25.7161 82.5152 27.735C82.5152 30.0064 84.5473 31.6889 86.8334 31.3524C88.1882 31.1 89.3736 30.0064 89.7122 28.5763Z" fill="#414042"/>
<path id="Vector_4" d="M96.7402 21.3415V22.0145H100.466V24.0335H96.7402V33.5396H94.4541V21.4257C94.4541 18.9019 96.3169 17.3877 98.603 17.3877H101.397L100.466 19.5749H98.603C97.5869 19.5749 96.7402 20.332 96.7402 21.3415Z" fill="#414042"/>
<path id="Vector_5" d="M112.827 33.5396H110.88V32.1095C109.356 33.6237 106.9 34.2967 104.529 33.2031C102.751 32.446 101.397 30.7635 100.973 28.8287C100.296 25.1272 103.175 21.7622 106.9 21.7622C108.424 21.7622 109.864 22.3511 110.88 23.3606V21.9305H112.912L112.827 33.5396ZM110.456 28.5763C110.964 26.2208 109.186 24.1177 106.9 24.1177C104.868 24.1177 103.259 25.7161 103.259 27.735C103.259 30.0064 105.291 31.6889 107.578 31.3524C108.932 31.1 110.118 30.0064 110.456 28.5763Z" fill="#414042"/>
<path id="Vector_6" d="M125.189 26.7255V33.5395H122.903V26.7255C122.903 25.2954 121.717 24.1176 120.278 24.1176C118.839 24.1176 117.653 25.2954 117.653 26.7255V33.5395H115.367V22.0145H117.315V23.024C118.161 22.2669 119.262 21.8463 120.447 21.8463C123.072 21.7621 125.189 24.0335 125.189 26.7255Z" fill="#414042"/>
<path id="Vector_7" d="M138.906 33.5396H136.959V32.1095C135.435 33.6237 132.979 34.2967 130.609 33.2031C128.83 32.446 127.476 30.7635 127.052 28.8287C126.375 25.1272 129.254 21.7622 132.979 21.7622C134.503 21.7622 135.943 22.3511 136.959 23.3606V21.9305H138.991L138.906 33.5396ZM136.535 28.5763C137.044 26.2208 135.265 24.1177 132.979 24.1177C130.947 24.1177 129.338 25.7161 129.338 27.735C129.338 30.0064 131.371 31.6889 133.657 31.3524C135.011 31.1 136.197 30.0064 136.535 28.5763Z" fill="#414042"/>
</g>
<g id="Group_4">
<g id="Mask group">
<mask id="mask0_223_485" style="mask-type:luminance" maskUnits="userSpaceOnUse" x="0" y="0" width="47" height="52">
<g id="Group_5">
<path id="Vector_8" d="M21.0331 6.02283C21.0331 6.02283 21.0331 6.0883 20.9698 6.21924C20.7799 6.28471 20.5267 6.35018 20.3368 6.41565C20.0203 6.48111 19.7671 6.61205 19.4506 6.74299C19.1974 6.87393 18.8809 6.93939 18.6277 7.07033C18.058 7.33221 17.4883 7.59408 16.9819 7.92142C16.4755 8.24876 15.9058 8.57611 15.3994 8.90345C15.3361 8.83798 15.2728 8.83798 15.2728 8.83798C10.0821 6.80846 5.52452 9.23079 5.52452 9.23079C5.08141 14.9266 7.61343 18.5273 8.05653 19.1165C7.92993 19.4439 7.80333 19.8367 7.74003 20.164C7.36023 21.4734 7.04372 22.7828 6.91712 24.1576C6.91712 24.354 6.85382 24.5504 6.85382 24.7468C2.1063 27.1692 0.650391 32.2103 0.650391 32.2103C4.63831 36.924 9.25924 37.2513 9.25924 37.2513C9.82894 38.3643 10.5252 39.4118 11.2848 40.3284C11.6013 40.7212 11.9179 41.114 12.2977 41.5068C10.8417 45.8277 12.4876 49.363 12.4876 49.363C16.9186 49.5594 19.8304 47.3335 20.4634 46.8752C20.9065 47.0061 21.3496 47.1371 21.7927 47.268C23.1853 47.6608 24.5779 47.8572 25.9705 47.9227C26.3503 47.9227 26.6668 47.9227 27.0466 47.9227H27.2365H27.3631H27.553H27.7429C29.8318 50.9997 33.5033 51.458 33.5033 51.458C36.0986 48.5774 36.2885 45.7622 36.2885 45.173C36.2885 45.173 36.2885 45.173 36.2885 45.1076C36.2885 45.0421 36.2885 45.0421 36.2885 45.0421C36.2885 44.9766 36.2885 44.9766 36.2885 44.9112C36.8582 44.5183 37.3646 44.0601 37.871 43.6018C38.9471 42.6198 39.8333 41.5068 40.5929 40.3284C40.6562 40.1974 40.7195 40.1319 40.7828 40.001C43.7579 40.1974 45.8468 38.1024 45.8468 38.1024C45.3404 34.8945 43.568 33.3887 43.2515 33.0613C43.2515 33.0613 43.2515 33.0613 43.1882 33.0613H43.1249C43.1249 33.0613 43.0616 33.0613 43.0616 32.9959C43.0616 32.7995 43.1249 32.6031 43.1249 32.4067C43.1249 32.0793 43.1249 31.6865 43.1882 31.3592V31.0973V30.9664V30.9009C43.1882 30.8354 43.1882 30.8354 43.1882 30.8354V30.639V30.3771C43.1882 30.2462 43.1882 30.1807 43.1882 30.1153C43.1882 30.0498 43.1882 29.9189 43.1882 29.8534V29.5915L43.1249 29.3296C43.0616 29.0023 42.9983 28.6095 42.935 28.2821C42.6185 26.9073 42.1121 25.5979 41.4158 24.4195C40.7195 23.2411 39.8966 22.1936 38.9471 21.3425C37.9976 20.4914 36.9215 19.7712 35.7821 19.2475C34.6427 18.7237 33.44 18.3964 32.3006 18.2C31.7309 18.1345 31.0979 18.069 30.5281 18.069H30.3382H30.2749H30.2116H30.1483H29.9584C29.8951 18.069 29.7685 18.069 29.7052 18.069C29.3887 18.069 29.1355 18.1345 28.819 18.2C27.6163 18.3964 26.5402 18.8547 25.5907 19.4439C24.6412 20.0331 23.755 20.8187 23.0587 21.6698C22.3624 22.5209 21.856 23.4375 21.4762 24.4195C21.0964 25.4015 20.9065 26.3836 20.8432 27.3656C20.8432 27.6275 20.8432 27.8239 20.8432 28.0857C20.8432 28.1512 20.8432 28.2167 20.8432 28.2821V28.4785C20.8432 28.6095 20.8432 28.7404 20.8432 28.8059C20.9065 29.3296 20.9698 29.7879 21.0964 30.2462C21.3496 31.1628 21.7927 32.0138 22.2991 32.734C22.8055 33.4542 23.4385 34.0434 24.0715 34.5017C24.7045 34.9599 25.4008 35.2873 26.0971 35.4837C26.7934 35.6801 27.4897 35.811 28.1227 35.811C28.186 35.811 28.3126 35.811 28.3759 35.811C28.4392 35.811 28.4392 35.811 28.5025 35.811C28.5658 35.811 28.5658 35.811 28.6291 35.811C28.6924 35.811 28.7557 35.811 28.819 35.811H28.8823H28.9456C29.0089 35.811 29.0089 35.811 29.0722 35.811C29.1355 35.811 29.1988 35.811 29.3254 35.7456C29.3887 35.7456 29.452 35.7456 29.5786 35.6801C29.7052 35.6146 29.8951 35.6146 30.0217 35.5491C30.2749 35.4837 30.5914 35.3527 30.7814 35.2218C30.9713 35.0909 31.2245 34.9599 31.4777 34.7635C31.541 34.6981 31.6043 34.6981 31.6676 34.6326C31.9208 34.4362 31.9208 34.1088 31.7309 33.9124C31.6043 33.716 31.2878 33.6506 31.0979 33.7815C31.0346 33.7815 30.9713 33.847 30.908 33.847C30.7181 33.9124 30.5281 34.0434 30.3382 34.1088C30.1483 34.1743 29.8951 34.2398 29.7052 34.3052C29.5786 34.3052 29.452 34.3707 29.3887 34.3707C29.3254 34.3707 29.2621 34.3707 29.1988 34.3707C29.1355 34.3707 29.0722 34.3707 29.0089 34.3707C28.9456 34.3707 28.8823 34.3707 28.819 34.3707C28.7557 34.3707 28.6924 34.3707 28.6291 34.3707C28.5658 34.3707 28.6291 34.3707 28.6291 34.3707H28.5658C28.5025 34.3707 28.5025 34.3707 28.5025 34.3707C28.4392 34.3707 28.3759 34.3707 28.3126 34.3707C27.8062 34.3052 27.2998 34.1743 26.7934 33.9124C26.287 33.6506 25.8439 33.3887 25.4008 32.9959C24.9577 32.6031 24.5779 32.1448 24.3247 31.621C24.0082 31.0973 23.8183 30.5081 23.755 29.8534C23.6917 29.526 23.6917 29.1987 23.6917 28.9368C23.6917 28.8714 23.6917 28.7404 23.6917 28.675V28.6095C23.6917 28.544 23.6917 28.544 23.6917 28.4785C23.6917 28.2821 23.755 28.1512 23.755 27.9548C24.0082 26.58 24.6412 25.2706 25.654 24.2886C25.9072 24.0267 26.1604 23.8303 26.4769 23.5684C26.7934 23.372 27.1099 23.1756 27.4264 23.0447C27.7429 22.9137 28.0594 22.7828 28.4392 22.6518C28.7557 22.5864 29.1355 22.5209 29.5153 22.4554C29.7052 22.4554 29.8951 22.4554 30.085 22.4554C30.1483 22.4554 30.1483 22.4554 30.2116 22.4554H30.3382H30.4015C30.4015 22.4554 30.4648 22.4554 30.4015 22.4554H30.4648H30.5914C30.9713 22.5209 31.3511 22.5209 31.7309 22.6518C32.4905 22.8483 33.2501 23.1101 33.9464 23.5029C35.339 24.2886 36.5417 25.5325 37.238 27.0382C37.6178 27.7584 37.871 28.6095 37.9976 29.4606C37.9976 29.657 38.0609 29.8534 38.0609 30.1153V30.2462V30.3771C38.0609 30.4426 38.0609 30.5081 38.0609 30.5081C38.0609 30.5735 38.0609 30.639 38.0609 30.639V30.7699V30.9009C38.0609 31.0318 38.0609 31.1628 38.0609 31.2937C38.0609 31.5556 37.9976 31.752 37.9976 32.0138C37.9976 32.2103 37.9343 32.4721 37.871 32.6685C37.8077 32.8649 37.8077 33.1268 37.7444 33.3232C37.6178 33.7815 37.4912 34.1743 37.3646 34.6326C37.0481 35.4837 36.605 36.2693 36.0986 37.0549C35.0225 38.5607 33.6299 39.8046 31.9841 40.5248C31.1612 40.9176 30.2749 41.1794 29.3887 41.3104C28.9456 41.3759 28.5025 41.4413 28.0594 41.4413H27.9961H27.9328H27.8062H27.2365H27.1099C27.1099 41.4413 27.1732 41.4413 27.1099 41.4413H27.0466C26.7934 41.4413 26.5402 41.4413 26.3503 41.3759C25.4008 41.3104 24.4513 41.114 23.5018 40.8521C22.5523 40.5902 21.6661 40.1974 20.8432 39.7391C19.1341 38.8226 17.6782 37.5132 16.4755 36.0074C15.9058 35.2218 15.3361 34.4362 14.9563 33.5196C14.5132 32.6685 14.1967 31.752 13.9435 30.8354C13.6903 29.9189 13.5637 28.9368 13.5004 28.0203V27.8239V27.7584V27.6929V27.6275V27.4965V27.431V27.3656V27.2346V27.0382V26.9728V26.9073C13.5004 26.7764 13.5004 26.6454 13.5004 26.58C13.5004 26.1217 13.5637 25.5979 13.627 25.1397C13.6903 24.6814 13.7536 24.1576 13.8802 23.6993C14.0068 23.2411 14.0701 22.7173 14.1967 22.259C14.4499 21.3425 14.7664 20.4259 15.1462 19.5094C15.9058 17.7417 16.9186 16.2359 18.1846 14.992C18.5011 14.6647 18.8176 14.4028 19.1341 14.1409C19.4506 13.8791 19.8304 13.6172 20.1469 13.3553C20.5267 13.0934 20.8432 12.897 21.223 12.7006C21.4129 12.5697 21.6028 12.5042 21.7927 12.4388C21.856 12.3733 21.9826 12.3733 22.1092 12.3078C22.1725 12.2423 22.2991 12.2423 22.4257 12.1769C22.8055 11.9805 23.1853 11.8495 23.6284 11.7186C23.755 11.7186 23.8183 11.6531 23.9449 11.6531C24.0715 11.5877 24.1348 11.5877 24.2614 11.5877C24.4513 11.5222 24.6412 11.4567 24.8944 11.4567C25.021 11.4567 25.0843 11.3913 25.2109 11.3913C25.3375 11.3913 25.4008 11.3258 25.5274 11.3258C25.654 11.3258 25.7173 11.2603 25.8439 11.2603H25.9705H26.0971C26.2237 11.2603 26.287 11.1948 26.4136 11.1948C26.5402 11.1948 26.6668 11.1948 26.7934 11.1294C26.92 11.1294 27.0466 11.1294 27.1732 11.0639C27.2365 11.0639 27.2998 11.0639 27.4264 11.0639H27.553H27.6163H27.6796C27.8062 11.0639 27.9328 11.0639 28.0594 11.0639H28.2493C28.2493 11.0639 28.3126 11.0639 28.2493 11.0639H28.3126H28.3759C28.5025 11.0639 28.5658 11.0639 28.6924 11.0639C29.0722 11.0639 29.5153 11.0639 29.8951 11.0639C30.7181 11.1294 31.4777 11.1948 32.2373 11.3258C33.7565 11.5877 35.2124 12.1114 36.4784 12.7661C37.7444 13.4208 38.9471 14.2064 39.9599 15.123C40.0232 15.1884 40.0865 15.2539 40.1498 15.3194C40.2131 15.3848 40.2764 15.4503 40.3397 15.5158C40.4663 15.6467 40.5929 15.7122 40.7195 15.8431C40.8461 15.9741 40.9727 16.105 41.036 16.1705C41.1626 16.3014 41.2892 16.4323 41.3525 16.4978C41.7956 16.9561 42.1754 17.4144 42.5552 17.9381C43.2515 18.9201 43.8212 19.8367 44.3276 20.7533C44.3276 20.8187 44.3909 20.8842 44.3909 20.9497C44.3909 21.0151 44.4542 21.0806 44.4542 21.1461C44.5175 21.277 44.5808 21.3425 44.5808 21.4734C44.6441 21.6043 44.7074 21.6698 44.7074 21.8008C44.7707 21.9317 44.7707 21.9972 44.834 22.1281C45.0239 22.5209 45.1505 22.9792 45.2771 23.372C45.467 23.9612 45.6569 24.5504 45.7835 25.0087C45.8468 25.2051 46.0367 25.3361 46.2266 25.3361C46.4165 25.3361 46.6064 25.1397 46.6064 24.9432C46.6064 24.4195 46.6064 23.8303 46.5431 23.1101C46.4798 22.259 46.3532 21.277 46.0367 20.164C45.7835 19.0511 45.3404 17.8726 44.7707 16.6287C44.201 15.3848 43.3781 14.0755 42.3653 12.8316C41.9855 12.3733 41.5424 11.8495 41.036 11.3913C41.7323 8.51064 40.2131 6.02283 40.2131 6.02283C37.5545 5.82643 35.8454 6.87393 35.2124 7.33221C35.0858 7.26674 35.0225 7.26674 34.8959 7.20127C34.4528 7.00486 33.9464 6.80846 33.5033 6.67752C32.9969 6.54658 32.5538 6.35018 32.0474 6.28471C31.541 6.15377 31.0346 6.0883 30.5281 5.95737C30.4648 5.95737 30.3382 5.95737 30.2749 5.8919C29.1355 2.02925 25.7806 0.458008 25.7806 0.458008C21.7294 2.553 21.0331 6.02283 21.0331 6.02283Z" fill="white"/>
</g>
</mask>
<g mask="url(#mask0_223_485)">
<path id="Vector_9" d="M46.3532 0.130615H0.650391V51.5234H46.3532V0.130615Z" fill="url(#paint0_linear_223_485)"/>
</g>
</g>
</g>
</g>
</g>
</g>
<defs>
<linearGradient id="paint0_linear_223_485" x1="2255.91" y1="6309.16" x2="2255.91" y2="4010.7" gradientUnits="userSpaceOnUse">
<stop stop-color="#FFF200"/>
<stop offset="1" stop-color="#F15A29"/>
</linearGradient>
<clipPath id="clip0_223_485">
<rect width="139" height="51" fill="white" transform="translate(0.650391 0.458008)"/>
</clipPath>
</defs>
</svg>
