<svg width="227" height="62" viewBox="0 0 227 62" fill="none" xmlns="http://www.w3.org/2000/svg">
<g id="Group">
<g id="Group_2">
<path id="Vector" d="M36.7518 7.02779C39.5296 4.02779 43.5296 2.25001 47.863 2.25001C53.6407 2.25001 58.7518 5.47223 61.4185 10.25C63.7518 9.25001 66.3074 8.58334 69.0852 8.58334C79.5296 8.58334 87.9741 17.1389 87.9741 27.6945C87.9741 38.25 79.5296 46.8056 69.0852 46.8056C67.863 46.8056 66.5296 46.6945 65.3074 46.4722C62.9741 50.6945 58.4185 53.5833 53.1963 53.5833C50.9741 53.5833 48.9741 53.0278 47.1963 52.1389C44.7518 57.8056 39.1963 61.8056 32.6407 61.8056C25.863 61.8056 20.0852 57.4722 17.863 51.4722C16.863 51.6945 15.863 51.8056 14.863 51.8056C6.75184 51.8056 0.196289 45.1389 0.196289 37.0278C0.196289 31.5833 3.19629 26.8056 7.52962 24.25C6.64073 22.1389 6.08518 19.9167 6.08518 17.4722C6.08518 8.02779 13.7518 0.472232 23.0852 0.472232C28.7518 0.361121 33.6407 2.91668 36.7518 7.02779Z" fill="#00A1E0"/>
<g id="Group_3">
<path id="Vector_2" d="M12.9736 32.1389C12.9736 32.25 12.9736 32.3611 12.9736 32.3611C13.0847 32.4722 13.307 32.5834 13.5292 32.6945C14.4181 33.1389 15.307 33.3611 16.1959 33.3611C17.9736 33.3611 19.0847 32.3611 19.0847 30.9167C19.0847 29.4722 17.8625 29.0278 16.6403 28.5834H16.5292C15.6403 28.25 14.8625 28.0278 14.8625 27.4722C14.8625 26.9167 15.307 26.5834 15.9736 26.5834C16.7514 26.5834 17.6403 26.8056 18.307 27.1389C18.307 27.1389 18.5292 27.25 18.5292 27.0278C18.5292 26.9167 18.8625 26.1389 18.8625 26.0278C18.8625 25.9167 18.8625 25.9167 18.7514 25.8056C18.0847 25.3611 17.0847 25.1389 16.1959 25.1389H15.9736C14.307 25.1389 13.1959 26.1389 13.1959 27.5834C13.1959 29.1389 14.4181 29.5834 15.6403 29.9167L15.8625 30.0278C16.7514 30.25 17.5292 30.4722 17.5292 31.1389C17.5292 31.6945 17.0847 32.1389 16.307 32.1389C15.9736 32.1389 15.0847 32.1389 13.9736 31.4722C13.8625 31.3611 13.7514 31.3611 13.6403 31.25C13.6403 31.25 13.4181 31.1389 13.4181 31.3611L12.9736 32.1389Z" fill="white"/>
<path id="Vector_3" d="M39.3066 32.1389C39.3066 32.25 39.3066 32.3611 39.3066 32.3611C39.4178 32.4722 39.64 32.5834 39.8622 32.6945C40.7511 33.1389 41.64 33.3611 42.5289 33.3611C44.3066 33.3611 45.4178 32.3611 45.4178 30.9167C45.4178 29.4722 44.1955 29.0278 42.9733 28.5834H42.8622C41.9733 28.25 41.1955 28.0278 41.1955 27.4722C41.1955 26.9167 41.64 26.5834 42.3066 26.5834C43.0844 26.5834 43.9733 26.8056 44.64 27.1389C44.64 27.1389 44.8622 27.25 44.8622 27.0278C44.8622 26.9167 45.1955 26.1389 45.1955 26.0278C45.1955 25.9167 45.1955 25.9167 45.0844 25.8056C44.4178 25.3611 43.4177 25.1389 42.5289 25.1389H42.3066C40.64 25.1389 39.5289 26.1389 39.5289 27.5834C39.5289 29.1389 40.7511 29.5834 41.9733 29.9167L42.1955 30.0278C43.0844 30.25 43.8622 30.4722 43.8622 31.1389C43.8622 31.6945 43.4177 32.1389 42.64 32.1389C42.3066 32.1389 41.4178 32.1389 40.3066 31.4722C40.1955 31.3611 40.0844 31.3611 39.9733 31.25C39.9733 31.25 39.7511 31.1389 39.7511 31.3611L39.3066 32.1389Z" fill="white"/>
<path id="Vector_4" d="M58.751 27.5833C58.6399 27.1388 58.4176 26.6944 58.0843 26.2499C57.751 25.9166 57.4176 25.5833 56.9732 25.361C56.5288 25.1388 55.9732 25.0277 55.4176 25.0277C54.8621 25.0277 54.3065 25.1388 53.751 25.361C53.3065 25.5833 52.8621 25.9166 52.6399 26.2499C52.3065 26.5833 52.0843 27.0277 51.9732 27.5833C51.8621 28.0277 51.751 28.5833 51.751 29.2499C51.751 29.8055 51.8621 30.361 51.9732 30.9166C52.0843 31.361 52.3065 31.8055 52.6399 32.2499C52.9732 32.5833 53.3065 32.9166 53.751 33.1388C54.1954 33.361 54.751 33.4722 55.3065 33.4722C55.8621 33.4722 56.4176 33.361 56.8621 33.1388C57.3065 32.9166 57.751 32.5833 57.9732 32.2499C58.3065 31.9166 58.5288 31.4722 58.6399 30.9166C58.751 30.4722 58.8621 29.9166 58.8621 29.2499C58.9732 28.5833 58.9732 28.0277 58.751 27.5833ZM57.3065 29.1388C57.3065 30.0277 57.1954 30.6944 56.8621 31.1388C56.5288 31.5833 56.0843 31.8055 55.4176 31.8055C54.751 31.8055 54.3065 31.5833 53.9732 31.1388C53.6399 30.6944 53.5288 29.9166 53.5288 29.1388C53.5288 28.2499 53.6399 27.5833 53.9732 27.1388C54.3065 26.6944 54.751 26.4722 55.4176 26.4722C56.0843 26.4722 56.5288 26.6944 56.8621 27.1388C57.0843 27.5833 57.3065 28.2499 57.3065 29.1388Z" fill="white"/>
<path id="Vector_5" fill-rule="evenodd" clip-rule="evenodd" d="M71.0844 31.6944C71.0844 31.5833 70.8622 31.5833 70.8622 31.5833C70.64 31.6944 70.4178 31.6944 70.1955 31.8055C69.9733 31.8055 69.64 31.9166 69.4178 31.9166C68.64 31.9166 68.0844 31.6944 67.7511 31.2499C67.3066 30.8055 67.0844 30.1388 67.0844 29.2499C67.0844 28.361 67.3066 27.8055 67.64 27.2499C67.9733 26.8055 68.5289 26.4722 69.3066 26.4722C69.9733 26.4722 70.4178 26.5833 70.8622 26.6944C70.8622 26.6944 70.9733 26.6944 71.0844 26.5833C71.1955 26.2499 71.3066 25.9166 71.4178 25.5833C71.4178 25.4722 71.3066 25.4722 71.3066 25.361C71.0844 25.2499 70.64 25.1388 70.3066 25.1388C69.9733 25.1388 69.64 25.0277 69.1955 25.0277C68.5289 25.0277 67.9733 25.1388 67.5289 25.361C67.0844 25.5833 66.64 25.9166 66.3066 26.2499C65.9733 26.5833 65.7511 27.0277 65.5289 27.5833C65.4178 28.0277 65.3066 28.5833 65.3066 29.2499C65.3066 30.4722 65.64 31.4722 66.3066 32.2499C66.9733 33.0277 67.9733 33.361 69.3066 33.361C70.0844 33.361 70.8622 33.2499 71.4178 33.0277C71.4178 33.0277 71.5289 33.0277 71.5289 32.8055L71.0844 31.6944Z" fill="white"/>
<path id="Vector_6" fill-rule="evenodd" clip-rule="evenodd" d="M78.8625 27.25C78.7514 26.8055 78.4181 26.25 78.1959 26.0277C77.8625 25.6944 77.5292 25.4722 77.1959 25.25C76.7514 25.0277 76.307 24.9166 75.7514 24.9166C75.0847 24.9166 74.5292 25.0277 74.0847 25.25C73.6403 25.4722 73.1959 25.8055 72.8625 26.1388C72.5292 26.4722 72.307 26.9166 72.1959 27.4722C72.0847 28.0277 71.9736 28.4722 71.9736 29.1388C71.9736 29.6944 72.0847 30.25 72.1959 30.8055C72.307 31.25 72.6403 31.6944 72.9736 32.1388C73.307 32.4722 73.7514 32.8055 74.307 33.0277C74.8625 33.25 75.4181 33.3611 76.1959 33.3611C77.6403 33.3611 78.4181 33.0277 78.7514 32.8055C78.8625 32.8055 78.8625 32.6944 78.7514 32.5833L78.4181 31.6944C78.4181 31.5833 78.1959 31.5833 78.1959 31.5833C77.8625 31.6944 77.307 31.9166 76.0847 31.9166C75.307 31.9166 74.7514 31.6944 74.307 31.3611C73.9736 31.0277 73.7514 30.4722 73.7514 29.6944H78.8625C78.8625 29.6944 78.9736 29.6944 78.9736 29.5833C78.9736 29.3611 79.1959 28.3611 78.8625 27.25ZM73.7514 28.3611C73.8625 27.9166 73.9736 27.4722 74.1959 27.1388C74.5292 26.6944 74.9736 26.3611 75.6403 26.3611C76.307 26.3611 76.7514 26.5833 77.0847 27.1388C77.307 27.4722 77.4181 27.9166 77.4181 28.3611H73.7514Z" fill="white"/>
<path id="Vector_7" fill-rule="evenodd" clip-rule="evenodd" d="M38.0852 27.25C37.9741 26.8055 37.6407 26.25 37.4185 26.0277C37.0852 25.6944 36.7518 25.4722 36.4185 25.25C35.9741 25.0277 35.5296 24.9166 34.9741 24.9166C34.3074 24.9166 33.7518 25.0277 33.3074 25.25C32.863 25.4722 32.4185 25.8055 32.0852 26.1388C31.7518 26.4722 31.5296 26.9166 31.4185 27.4722C31.3074 28.0277 31.1963 28.4722 31.1963 29.1388C31.1963 29.6944 31.3074 30.25 31.4185 30.8055C31.5296 31.25 31.863 31.6944 32.1963 32.1388C32.5296 32.4722 32.9741 32.8055 33.5296 33.0277C34.0852 33.25 34.6407 33.3611 35.4185 33.3611C36.863 33.3611 37.6407 33.0277 37.9741 32.8055C38.0852 32.8055 38.0852 32.6944 37.9741 32.5833L37.6407 31.6944C37.6407 31.5833 37.4185 31.5833 37.4185 31.5833C37.0852 31.6944 36.5296 31.9166 35.3074 31.9166C34.5296 31.9166 33.9741 31.6944 33.5296 31.3611C33.1963 31.0277 32.9741 30.4722 32.9741 29.6944H38.0852C38.0852 29.6944 38.1963 29.6944 38.1963 29.5833C38.1963 29.3611 38.4185 28.3611 38.0852 27.25ZM32.9741 28.3611C33.0852 27.9166 33.1963 27.4722 33.4185 27.1388C33.7518 26.6944 34.1963 26.3611 34.863 26.3611C35.5296 26.3611 35.9741 26.5833 36.3074 27.1388C36.5296 27.4722 36.6407 27.9166 36.6407 28.3611H32.9741Z" fill="white"/>
<path id="Vector_8" d="M24.0847 28.0277C23.8625 28.0277 23.6403 28.0277 23.307 28.0277C22.8625 28.0277 22.4181 28.0277 22.0847 28.1388C21.6403 28.2499 21.307 28.361 20.9736 28.5833C20.6403 28.8055 20.4181 29.1388 20.1959 29.4722C19.9736 29.9166 19.9736 30.2499 19.9736 30.6944C19.9736 31.1388 20.0847 31.5833 20.1959 31.8055C20.307 32.1388 20.5292 32.361 20.8625 32.5833C21.1959 32.8055 21.5292 32.9166 21.8625 33.0277C22.307 33.1388 22.7514 33.1388 23.1959 33.1388C23.7514 33.1388 24.1959 33.1388 24.7514 33.0277C25.1959 32.9166 25.8625 32.8055 26.0847 32.8055C26.307 32.8055 26.4181 32.6944 26.4181 32.6944C26.5292 32.6944 26.5292 32.5833 26.5292 32.5833V27.9166C26.5292 26.9166 26.307 26.1388 25.7514 25.6944C25.1959 25.2499 24.4181 25.0277 23.4181 25.0277C23.0847 25.0277 22.4181 25.0277 22.0847 25.1388C22.0847 25.1388 20.9736 25.361 20.5292 25.6944C20.5292 25.6944 20.4181 25.8055 20.5292 25.9166L20.8625 26.9166C20.8625 27.0277 21.0847 27.0277 21.0847 27.0277C21.0847 27.0277 21.0847 27.0277 21.1959 27.0277C22.1959 26.4722 23.4181 26.4722 23.4181 26.4722C23.9736 26.4722 24.4181 26.5833 24.6403 26.8055C24.9736 27.0277 25.0847 27.361 25.0847 28.0277V28.2499C24.4181 28.1388 24.0847 28.0277 24.0847 28.0277ZM22.0847 31.6944C21.8625 31.5833 21.8625 31.4722 21.7514 31.361C21.6403 31.2499 21.6403 31.0277 21.6403 30.6944C21.6403 30.2499 21.7514 29.9166 22.0847 29.6944C22.0847 29.6944 22.5292 29.361 23.5292 29.361C24.307 29.361 24.8625 29.4722 24.8625 29.4722V31.8055C24.8625 31.8055 24.1959 31.9166 23.5292 32.0277C22.5292 32.0277 21.9736 31.6944 22.0847 31.6944Z" fill="white"/>
<path id="Vector_9" fill-rule="evenodd" clip-rule="evenodd" d="M65.0844 25.4722C65.0844 25.3611 65.0844 25.25 64.9733 25.25C64.8622 25.25 64.4178 25.1389 64.0844 25.1389C63.4178 25.1389 63.0844 25.25 62.7511 25.3611C62.4177 25.4722 62.0844 25.6945 61.8622 26.0278V25.3611C61.8622 25.25 61.7511 25.25 61.7511 25.25H60.4178C60.3066 25.25 60.3066 25.3611 60.3066 25.3611V32.9167C60.3066 33.0278 60.4178 33.0278 60.4178 33.0278H61.7511C61.8622 33.0278 61.8622 32.9167 61.8622 32.9167V29.1389C61.8622 28.5834 61.9733 28.1389 62.0844 27.8056C62.1955 27.4722 62.3066 27.25 62.5289 27.0278C62.7511 26.8056 62.9733 26.6945 63.1955 26.6945C63.4178 26.5834 63.64 26.5834 63.8622 26.5834C64.0844 26.5834 64.4178 26.6945 64.4178 26.6945C64.5289 26.6945 64.5289 26.6945 64.64 26.5834C64.7511 26.25 65.0844 25.5834 65.0844 25.4722Z" fill="white"/>
<path id="Vector_10" fill-rule="evenodd" clip-rule="evenodd" d="M52.5288 21.9167C52.4176 21.9167 52.1954 21.8055 51.9732 21.8055C51.751 21.8055 51.5288 21.8055 51.3065 21.8055C50.4176 21.8055 49.6399 22.0278 49.1954 22.5833C48.6399 23.1389 48.3065 23.9167 48.1954 24.9167L48.0843 25.25H46.9732C46.9732 25.25 46.8621 25.25 46.751 25.3611L46.5288 26.4722C46.5288 26.5833 46.5288 26.5833 46.6399 26.5833H47.751L46.6399 32.9167C46.5288 33.4722 46.4176 33.8055 46.3065 34.1389C46.1954 34.4722 46.0843 34.6944 45.9732 34.9167C45.8621 35.0278 45.751 35.25 45.5288 35.25C45.3065 35.3611 45.1954 35.3611 44.9732 35.3611C44.8621 35.3611 44.6399 35.3611 44.5288 35.3611C44.4176 35.3611 44.3065 35.3611 44.3065 35.25C44.3065 35.25 44.1954 35.25 44.0843 35.3611C44.0843 35.4722 43.751 36.25 43.751 36.3611C43.751 36.4722 43.751 36.5833 43.8621 36.5833C43.9732 36.5833 44.0843 36.6944 44.3065 36.6944C44.6399 36.8055 44.8621 36.8055 45.0843 36.8055C45.5288 36.8055 45.9732 36.6944 46.3065 36.5833C46.6399 36.4722 46.9732 36.25 47.1954 35.9167C47.5288 35.5833 47.6399 35.25 47.8621 34.8055C48.0843 34.3611 48.1954 33.8055 48.3065 33.1389L49.4176 26.6944H51.0843C51.0843 26.6944 51.1954 26.6944 51.3065 26.5833L51.5288 25.4722C51.5288 25.3611 51.5288 25.3611 51.4176 25.3611H49.751C49.751 25.3611 49.8621 24.8055 49.9732 24.25C50.0843 24.0278 50.1954 23.8055 50.3065 23.6944C50.4176 23.5833 50.5288 23.4722 50.751 23.4722C50.8621 23.4722 51.0843 23.3611 51.3065 23.3611C51.4176 23.3611 51.6399 23.3611 51.751 23.3611C51.8621 23.3611 51.9732 23.3611 51.9732 23.4722C52.0843 23.4722 52.1954 23.4722 52.1954 23.3611L52.6399 22.25C52.6399 22.0278 52.5288 21.9167 52.5288 21.9167Z" fill="white"/>
<path id="Vector_11" fill-rule="evenodd" clip-rule="evenodd" d="M29.8622 32.9166C29.8622 33.0277 29.7511 33.0277 29.7511 33.0277H28.4178C28.3066 33.0277 28.3066 32.9166 28.3066 32.9166V22.0277C28.3066 21.9166 28.4178 21.9166 28.4178 21.9166H29.7511C29.8622 21.9166 29.8622 22.0277 29.8622 22.0277V32.9166Z" fill="white"/>
</g>
</g>
<g id="Group_4">
<path id="Vector_12" d="M121.085 35.3611V17.25H127.196C129.085 17.25 130.529 17.4722 131.529 17.9167C133.529 18.8056 134.752 20.9167 134.752 23.3611C134.752 26.6944 132.863 29.6944 127.752 29.6944H125.529V35.3611H121.085ZM127.529 25.6944C129.418 25.6944 130.307 25.0278 130.307 23.4722C130.307 22.0278 129.418 21.3611 127.307 21.3611H125.529V25.6944H127.529Z" fill="white"/>
<path id="Vector_13" d="M146.307 35.3611L145.418 32.6944H139.085L138.085 35.3611H133.085L140.307 17.25H143.974L151.196 35.3611H146.307ZM142.307 22.9167L140.418 29.1389H144.196L142.307 22.9167Z" fill="white"/>
<path id="Vector_14" d="M161.863 35.3611L157.641 29.4722V35.3611H153.196V17.25H159.085C160.974 17.25 162.419 17.4722 163.419 17.9167C165.419 18.8056 166.752 20.9167 166.752 23.4722C166.752 26.3611 165.085 28.6944 162.196 29.1389L167.085 35.3611H161.863ZM159.307 26.3611C161.196 26.3611 162.307 25.4722 162.307 23.8056C162.307 22.25 161.085 21.3611 159.419 21.3611H157.641V26.3611H159.307Z" fill="white"/>
<path id="Vector_15" d="M170.752 35.3611V21.3611H167.196V17.25H178.863V21.3611H175.307V35.3611H170.752Z" fill="white"/>
<path id="Vector_16" d="M191.974 35.3611L184.974 24.25L185.085 35.3611H180.641V17.25H184.641L191.641 28.6944L191.418 17.25H195.863V35.3611H191.974Z" fill="white"/>
<path id="Vector_17" d="M199.308 35.3611V17.25H209.419V21.3611H203.752V24.1389H209.197V28.25H203.752V31.3611H209.419V35.4722H199.308V35.3611Z" fill="white"/>
<path id="Vector_18" d="M220.974 35.3611L216.752 29.4722V35.3611H212.308V17.25H218.197C220.085 17.25 221.53 17.4722 222.53 17.9167C224.53 18.8056 225.863 20.9167 225.863 23.4722C225.863 26.3611 224.197 28.6944 221.308 29.1389L226.197 35.3611H220.974ZM218.419 26.3611C220.308 26.3611 221.419 25.4722 221.419 23.8056C221.419 22.25 220.197 21.3611 218.53 21.3611H216.641V26.3611H218.419Z" fill="white"/>
</g>
<g id="Group_5">
<path id="Vector_19" d="M135.196 50.6944L136.085 49.5833C136.419 49.8055 136.863 50.0277 137.196 50.1388C137.53 50.25 137.974 50.3611 138.419 50.3611C138.974 50.3611 139.419 50.25 139.752 50.0277C140.085 49.8055 140.307 49.4722 140.307 49.0277C140.307 48.6944 140.196 48.4722 140.085 48.25C139.974 48.0277 139.752 47.9166 139.419 47.8055C139.085 47.6944 138.752 47.5833 138.196 47.3611C137.307 47.1388 136.641 46.8055 136.307 46.3611C135.863 45.9166 135.641 45.3611 135.641 44.5833C135.641 44.0277 135.752 43.5833 136.085 43.1388C136.419 42.6944 136.752 42.4722 137.307 42.25C137.863 42.0277 138.419 41.9166 138.974 41.9166C140.085 41.9166 141.196 42.25 141.974 42.8055L141.196 43.9166C140.863 43.6944 140.419 43.4722 140.085 43.3611C139.752 43.25 139.307 43.25 138.974 43.25C138.53 43.25 138.085 43.3611 137.752 43.5833C137.419 43.8055 137.307 44.0277 137.307 44.4722C137.307 44.9166 137.419 45.1388 137.752 45.3611C138.085 45.5833 138.53 45.8055 139.307 45.9166C140.196 46.1388 140.974 46.4722 141.419 46.9166C141.863 47.3611 142.196 48.0277 142.196 48.9166C142.196 49.5833 142.085 50.1388 141.752 50.5833C141.419 51.0277 140.974 51.3611 140.419 51.5833C139.863 51.8055 139.307 51.9166 138.641 51.9166C137.974 51.9166 137.419 51.8055 136.863 51.5833C136.307 51.3611 135.53 51.1388 135.196 50.6944Z" fill="white"/>
<path id="Vector_20" d="M145.863 50.2499H146.974V51.5832H143.085V50.2499H144.196V43.361H143.085V42.1388H146.974V43.4721H145.863V50.2499Z" fill="white"/>
<path id="Vector_21" d="M148.752 42.1388H150.752L155.419 49.1388V42.1388H157.085V51.5832H155.085L150.419 44.5832V51.5832H148.752V42.1388Z" fill="white"/>
<path id="Vector_22" d="M166.53 43.0277L165.53 44.1388C165.196 43.9166 164.863 43.6944 164.53 43.5833C164.085 43.4721 163.752 43.361 163.307 43.361C162.307 43.361 161.53 43.6944 160.974 44.2499C160.53 44.9166 160.196 45.6944 160.196 46.8055C160.196 47.8055 160.419 48.6944 160.974 49.2499C161.419 49.9166 162.196 50.1388 163.196 50.1388C163.641 50.1388 164.085 50.0277 164.53 49.9166C164.974 49.8055 165.307 49.4721 165.53 49.2499L166.53 50.361C166.085 50.8055 165.641 51.1388 164.974 51.361C164.307 51.5833 163.752 51.6944 162.974 51.6944C161.974 51.6944 161.085 51.4721 160.419 51.0277C159.752 50.5833 159.196 50.0277 158.752 49.2499C158.419 48.4721 158.196 47.5833 158.196 46.6944C158.196 45.6944 158.419 44.8055 158.752 44.0277C159.085 43.2499 159.641 42.6944 160.419 42.2499C161.085 41.8055 161.974 41.5833 162.974 41.5833C163.641 41.5833 164.307 41.6944 164.863 41.9166C165.641 42.361 166.085 42.6944 166.53 43.0277Z" fill="white"/>
<path id="Vector_23" d="M173.974 43.5832H169.751V46.1388H173.307V47.4721H169.751V50.2499H174.196V51.6943H167.974V42.1388H173.974V43.5832Z" fill="white"/>
<path id="Vector_24" d="M184.974 44.6943C184.974 45.2499 184.863 45.8054 184.641 46.361C184.419 46.9165 183.974 47.361 183.419 47.9165C182.863 48.4721 181.974 49.2499 180.752 50.1388H185.308V51.5832H178.53V50.2499L178.752 50.0276C180.197 48.8054 181.197 47.9165 181.752 47.4721C182.308 46.9165 182.752 46.4721 182.974 46.1388C183.197 45.8054 183.308 45.361 183.308 44.9165C183.308 44.4721 183.197 44.0276 182.863 43.8054C182.53 43.5832 182.085 43.361 181.53 43.361C181.085 43.361 180.752 43.4721 180.308 43.5832C179.974 43.8054 179.641 44.0276 179.308 44.361L178.308 43.4721C178.752 42.9165 179.308 42.5832 179.752 42.2499C180.308 42.0276 180.863 41.8054 181.641 41.8054C182.308 41.8054 182.974 41.9165 183.419 42.2499C183.974 42.4721 184.308 42.8054 184.641 43.2499C184.863 43.8054 184.974 44.2499 184.974 44.6943Z" fill="white"/>
<path id="Vector_25" d="M186.419 46.9166C186.419 45.2499 186.752 44.0277 187.308 43.2499C187.863 42.4722 188.752 42.0277 189.974 42.0277C191.197 42.0277 192.086 42.4722 192.641 43.2499C193.197 44.0277 193.53 45.361 193.53 46.9166C193.53 48.4722 193.197 49.8055 192.641 50.5833C192.086 51.361 191.086 51.8055 189.974 51.8055C188.752 51.8055 187.863 51.361 187.308 50.5833C186.752 49.8055 186.419 48.4722 186.419 46.9166ZM191.863 46.9166C191.863 45.6944 191.752 44.8055 191.419 44.2499C191.086 43.6944 190.641 43.361 189.974 43.361C189.308 43.361 188.863 43.6944 188.53 44.2499C188.197 44.8055 188.086 45.6944 188.086 46.9166C188.086 48.1388 188.197 49.0277 188.53 49.5833C188.863 50.1388 189.308 50.4722 189.974 50.4722C190.641 50.4722 191.086 50.2499 191.419 49.5833C191.752 48.9166 191.863 48.1388 191.863 46.9166Z" fill="white"/>
<path id="Vector_26" d="M201.53 50.1388V51.5832H195.308V50.1388H197.863V43.9166L195.53 45.0277L194.863 43.8055L198.086 42.1388H199.641V50.1388H201.53Z" fill="white"/>
<path id="Vector_27" d="M209.53 50.1388V51.5832H203.308V50.1388H205.863V43.9166L203.53 45.0277L202.863 43.8055L206.086 42.1388H207.641V50.1388H209.53Z" fill="white"/>
</g>
</g>
</svg>
