<svg width="181" height="37" viewBox="0 0 181 37" fill="none" xmlns="http://www.w3.org/2000/svg">
<g id="isovalent_coloured.svg" clip-path="url(#clip0_223_508)">
<g id="Group">
<g id="Group_2">
<path id="Vector" d="M32.7353 0.777954H11.3488L0.640625 18.775L11.3488 36.772H32.7353L43.4435 18.775L32.7353 0.777954ZM27.2462 10.0164H16.8379L11.6488 18.775L16.8379 27.5335H27.2162L32.4055 18.775C32.4353 18.775 27.2462 10.0164 27.2462 10.0164Z" fill="#0078FB"/>
<path id="Vector_2" d="M18.9078 13.5259H25.1168L28.2063 18.745L25.1168 23.9641H18.9078L15.8184 18.745L18.9078 13.5259Z" fill="#737373"/>
<path id="Vector_3" d="M25.1162 23.9641L22.0567 18.745L18.9072 23.9641H25.1162Z" fill="#464646"/>
<path id="Vector_4" d="M25.1165 13.5259H18.9375L22.087 18.745C22.057 18.745 25.1165 13.5259 25.1165 13.5259Z" fill="#C7C7C7"/>
<path id="Vector_5" d="M25.1168 13.5259L22.0573 18.745H28.2363L25.1168 13.5259ZM22.0573 18.745L18.9078 13.5259L15.8184 18.745H22.0573Z" fill="#989898"/>
<path id="Vector_6" d="M32.7352 36.7719L43.4434 18.7749H32.4352L27.2461 27.5334L32.7352 36.7719Z" fill="#0058FB"/>
<path id="Vector_7" d="M32.7349 36.772L38.224 27.5035H27.2158L32.7349 36.772Z" fill="#0078FB"/>
<path id="Vector_8" d="M38.2543 10.0164H27.2461L32.4352 18.7749L38.2543 10.0164Z" fill="#4CBAFB"/>
<path id="Vector_9" d="M38.2546 10.0464L32.4355 18.7749H43.4437L38.2546 10.0464Z" fill="#9DDAFB"/>
<path id="Vector_10" d="M22.0273 36.772L27.2165 27.5035L32.7056 36.772H22.0273Z" fill="#0069E4"/>
<path id="Vector_11" d="M0.640625 18.7749H11.6488L5.85976 27.5334H16.8679L22.207 36.7719H11.3488L5.85976 27.5034L0.640625 18.7749Z" fill="#0101D7"/>
<path id="Vector_12" d="M11.6488 18.7749L5.85976 10.0164L0.640625 18.7749H11.6488L16.8379 27.5334H5.85976L11.6488 18.7749Z" fill="#0035FB"/>
<path id="Vector_13" d="M27.2464 10.0164L22.2073 0.777954L16.8682 10.0464H27.2464V10.0164Z" fill="#0027FB"/>
<path id="Vector_14" d="M32.7352 0.777954L27.2461 10.0464H38.2543L32.7352 0.777954Z" fill="#37A0FB"/>
<path id="Vector_15" d="M115.851 19.7347H116.961L117.531 20.6646L116.961 21.5944H115.851L115.281 20.6646L115.851 19.7347Z" fill="#0101D7"/>
<path id="Vector_16" d="M59.1904 24.6539V13.2258H60.6902V24.6539H59.1904ZM74.4879 15.6254C74.2179 15.3255 73.768 15.0555 73.1981 14.8156C72.5982 14.5756 71.9383 14.4256 71.2484 14.4556C70.3486 14.4556 69.6587 14.6356 69.2388 14.9656C68.8188 15.2955 68.5789 15.7454 68.5789 16.3453C68.5789 16.7653 68.6988 17.0652 68.9088 17.3052C69.1188 17.5451 69.4787 17.7251 69.9286 17.8751C70.4086 18.025 70.9785 18.175 71.6983 18.355C72.5082 18.535 73.2281 18.7449 73.828 18.9849C74.4279 19.2249 74.8778 19.5548 75.2078 19.9747C75.5377 20.3947 75.6877 20.9346 75.6877 21.6244C75.6877 22.3443 75.5077 22.9442 75.1178 23.4241C74.7278 23.9041 74.2179 24.234 73.558 24.474C72.8981 24.7139 72.1783 24.8039 71.3684 24.8039C69.5087 24.8039 67.919 24.264 66.5392 23.1842L67.2591 21.9544C67.499 22.1944 67.829 22.4343 68.2489 22.6743C68.6689 22.9142 69.1488 23.0942 69.6887 23.2742C70.2286 23.4241 70.7985 23.5141 71.3984 23.5141C72.2383 23.5141 72.8981 23.3642 73.3781 23.0942C73.858 22.7943 74.068 22.3443 74.068 21.7744C74.068 21.3545 73.948 20.9946 73.678 20.7546C73.4081 20.4846 73.0481 20.2747 72.5382 20.0947C71.9383 19.8847 71.3084 19.7348 70.6785 19.5848C69.9886 19.4348 69.3287 19.2249 68.6688 18.9549C68.1289 18.7149 67.709 18.415 67.4391 18.025C67.1691 17.6351 67.0491 17.1552 67.0491 16.5553C67.0491 15.8354 67.2291 15.2055 67.589 14.6956C67.949 14.1857 68.4589 13.7958 69.1188 13.5558C69.7787 13.2858 70.4985 13.1659 71.3084 13.1659C72.0883 13.1659 72.8082 13.2858 73.4681 13.5258C74.1279 13.7658 74.6978 14.0657 75.2078 14.4856L74.4879 15.6254ZM86.4859 24.7439C85.646 24.7439 84.8961 24.594 84.2063 24.264C83.5464 23.9341 82.9465 23.5141 82.4366 22.9442C81.9566 22.4043 81.5667 21.7744 81.2967 21.0845C81.0268 20.3947 80.9068 19.6748 80.9068 18.9549C80.9068 18.205 81.0568 17.4551 81.3267 16.7653C81.6267 16.0754 82.0166 15.4455 82.5265 14.9056C83.0365 14.3657 83.6364 13.9157 84.2962 13.6158C84.9861 13.2858 85.736 13.1359 86.5159 13.1359C87.3557 13.1359 88.1056 13.3158 88.7955 13.6458C89.4554 13.9757 90.0553 14.4256 90.5352 14.9956C91.0151 15.5655 91.4051 16.1654 91.675 16.8552C92.2149 18.235 92.2149 19.7648 91.645 21.1445C91.3751 21.8344 90.9551 22.4643 90.4752 23.0042C89.9653 23.5441 89.3654 23.9641 88.7055 24.264C88.0156 24.594 87.2658 24.7439 86.4859 24.7439ZM82.4366 18.9549C82.4366 19.5248 82.5265 20.0947 82.7065 20.6346C82.9165 21.1745 83.1864 21.6544 83.5464 22.0744C83.9063 22.4943 84.3262 22.8242 84.8362 23.0642C85.3461 23.3042 85.886 23.4241 86.5159 23.4241C87.1458 23.4241 87.7157 23.3042 88.2256 23.0342C88.7355 22.7643 89.1554 22.4343 89.4854 22.0144C89.8453 21.5945 90.1153 21.0845 90.2952 20.5746C90.4752 20.0347 90.5652 19.4948 90.5652 18.9549C90.5652 18.385 90.4752 17.8151 90.2652 17.2752C90.0853 16.7353 89.7853 16.2553 89.4254 15.8354C89.0654 15.4155 88.6455 15.0555 88.1356 14.8456C87.6257 14.6056 87.0558 14.4556 86.5159 14.4856C85.886 14.4856 85.3161 14.6056 84.8062 14.8756C84.2962 15.1155 83.8763 15.4755 83.5164 15.8954C83.1564 16.3153 82.8865 16.8252 82.7065 17.3352C82.5265 17.8451 82.4366 18.385 82.4366 18.9549ZM98.0639 13.2258L101.993 22.8542L105.893 13.2258H107.482L102.683 24.6539H101.303L96.4742 13.2258H98.0639ZM115.701 13.2258H116.961L121.79 24.6539H120.08L118.79 21.2945L116.331 14.8756L112.432 24.6539H110.842L115.701 13.2258ZM127.399 24.6539V13.2258H128.899V23.3642H135.498V24.6539H127.399ZM149.175 23.3642V24.6539H141.137V13.2258H149.025V14.5156H142.637V18.235H148.186V19.4348H142.637V23.3942C142.637 23.3642 149.175 23.3642 149.175 23.3642ZM156.734 15.8954V24.6539H155.234V13.2258H156.494L163.723 22.1644V13.2258H165.223V24.6539H163.843C163.873 24.6539 156.734 15.8954 156.734 15.8954ZM180.61 14.5156H176.531V24.6539H175.031V14.5156H170.952V13.2258H180.64C180.61 13.2258 180.61 14.5156 180.61 14.5156Z" fill="#0A0B0F"/>
</g>
</g>
</g>
<defs>
<clipPath id="clip0_223_508">
<rect width="180" height="36" fill="white" transform="translate(0.640625 0.777954)"/>
</clipPath>
</defs>
</svg>
