<svg width="161" height="41" viewBox="0 0 161 41" fill="none" xmlns="http://www.w3.org/2000/svg">
<g id="magnolia_coloured.svg" clip-path="url(#clip0_223_534)">
<g id="Group">
<g id="Group_2">
<path id="Vector" d="M51.6037 40.778C48.4037 40.5114 45.2038 40.2447 42.8038 39.7114C37.4706 38.378 35.0707 36.778 35.0707 34.6447C35.0707 33.0447 36.404 31.7114 39.3372 30.378C40.6705 29.8447 43.3372 29.0447 44.6705 28.778C45.7371 28.5114 48.937 27.7114 48.937 27.7114C48.937 27.7114 48.4037 27.4447 47.6037 27.178C46.8038 26.9114 46.0038 26.6447 45.4704 26.378L44.6705 26.1114H42.2705H39.8706V25.3114V24.5114L39.3372 24.778C38.8039 25.3114 38.0039 25.578 37.4706 25.8447C36.6706 26.1114 34.5373 26.1114 33.4707 25.8447C31.6041 25.3114 30.0041 23.978 29.4708 22.378C29.2041 21.578 29.2041 19.978 29.2041 19.178C29.4708 17.578 30.5374 16.2447 32.1374 15.7114C33.4707 15.178 34.004 15.178 37.2039 15.178H39.8706V14.378C39.8706 13.3114 39.6039 13.0447 39.0706 12.5114C38.2706 11.7114 36.9373 11.4447 35.604 11.7114C34.5373 11.978 34.004 12.2447 33.4707 12.778L32.9374 13.3114L32.6707 12.5114C31.3374 11.178 30.2707 10.1114 30.2707 10.1114C30.2707 9.84471 31.3374 9.04471 32.1374 8.51138C32.404 8.24471 33.204 7.97804 33.7373 7.97804C36.1373 7.44471 40.1372 7.71138 42.0039 8.51138C42.8038 8.77804 43.8705 10.1114 44.1371 10.9114C44.6705 12.2447 44.6705 12.2447 44.9371 17.8447V22.9114L45.2038 22.6447C45.7371 22.378 48.4037 21.0447 50.537 20.2447L51.0703 19.978L50.537 19.7114C47.8704 18.378 47.0704 16.778 47.3371 14.378C47.6037 13.578 48.1371 12.5114 48.6704 11.978C49.4704 11.178 50.8037 10.1114 52.4037 9.31138C54.0036 8.51138 54.8036 8.24471 57.4702 7.71138C60.4035 6.91138 62.0035 6.91138 65.7367 6.91138C69.2033 6.91138 70.8033 6.91138 73.2032 7.44471C74.2699 7.71138 74.5366 7.71138 80.4031 7.71138C83.603 7.71138 86.5363 7.71138 86.5363 7.71138C86.5363 7.71138 86.5363 7.97804 86.5363 8.51138V9.31138L86.803 8.77804C87.3363 8.24471 87.8696 7.97804 88.6696 7.71138C89.2029 7.44471 89.4696 7.44471 91.0696 7.44471C92.4029 7.44471 92.6695 7.44471 93.4695 7.71138C94.0028 7.97804 94.5362 8.24471 94.8028 8.24471C95.6028 8.77804 96.4028 9.84471 96.6695 10.6447C97.4694 12.2447 97.4694 11.978 97.4694 19.4447V26.1114H95.0695H92.6695V19.978C92.6695 13.3114 92.6695 13.3114 91.8695 12.5114C90.5362 11.178 87.8696 11.4447 87.0696 13.3114C86.803 13.8447 86.803 13.8447 86.803 19.978V26.1114H84.403H82.0031V18.1114V10.1114H81.2031C80.6698 10.1114 80.1364 10.1114 79.6031 10.1114H78.8031L79.3365 10.6447C79.6031 10.9114 79.8698 11.4447 80.1364 11.7114C80.4031 12.2447 80.4031 12.5114 80.4031 13.3114C80.4031 14.378 80.1364 15.178 79.6031 15.978C79.0698 16.778 78.0032 17.8447 76.9365 18.378C75.0699 19.4447 72.4033 20.5114 70.0033 21.0447C67.3367 21.578 66.0034 21.8447 62.8034 21.8447C59.6035 21.8447 57.4702 21.8447 55.3369 21.3114L54.2703 21.0447L53.4703 21.3114C52.6703 21.578 51.8703 22.1114 51.8703 22.378C51.6037 22.6447 51.6037 22.6447 51.8703 22.9114C52.4036 24.2447 54.8036 24.778 65.4701 26.1114C68.1367 26.378 71.6033 27.178 72.6699 27.4447C74.0032 27.7114 76.4032 28.5114 77.2032 29.0447C78.0032 29.3114 79.0698 30.378 79.3365 30.9114C80.1364 32.2447 79.8698 33.8447 78.5365 35.178C77.7365 36.2447 76.9365 36.5114 75.6032 37.3114C74.0032 38.1114 73.2032 38.378 70.8033 38.9114C67.6034 39.7114 64.6701 40.2447 61.2035 40.5114C59.0702 40.778 53.737 40.778 51.6037 40.778ZM62.0035 38.6447C67.3367 38.1114 70.8033 36.5114 71.8699 34.6447C72.1366 34.1114 72.1366 33.8447 71.8699 33.0447C71.3366 31.978 69.47 30.9114 66.8034 30.378C64.4034 29.8447 57.2036 28.778 55.0703 28.778C52.6703 28.778 48.4037 29.8447 46.0038 31.178C42.8038 32.778 42.2705 34.6447 43.8705 36.2447C45.4704 37.578 49.737 38.6447 54.0036 38.9114C55.8702 38.9114 60.6702 38.6447 62.0035 38.6447ZM38.2706 22.1114C39.0706 21.8447 39.6039 21.3114 39.8706 20.5114C39.8706 20.2447 40.1372 19.7114 40.1372 19.178V18.378H38.0039C35.604 18.378 35.0707 18.378 34.5373 18.9114C34.004 19.4447 33.7373 20.2447 34.2707 21.0447C34.804 21.8447 35.3373 22.1114 36.9373 22.1114C37.4706 22.378 38.0039 22.378 38.2706 22.1114ZM64.9367 19.7114C68.67 18.9114 71.3366 17.0447 71.8699 14.378C72.1366 12.5114 71.3366 10.6447 69.2033 9.84471C68.1367 9.31138 67.3367 9.04471 65.7367 9.04471C62.5368 8.77804 59.3368 9.57804 57.4702 11.178C56.1369 12.5114 55.6036 13.578 55.3369 15.178C55.3369 17.0447 55.8702 18.1114 57.7369 18.9114C59.3368 19.978 62.5368 20.2447 64.9367 19.7114Z" fill="#7BA02D"/>
<path id="Vector_2" d="M22.2705 20.2448C22.2705 15.7115 22.0038 14.1115 22.0038 13.8448C21.4705 11.9782 18.5372 11.1782 17.2039 12.7782C16.1373 13.5782 16.1373 13.3115 16.1373 19.9782V26.1115H13.7373H11.604V19.9782C11.604 13.0448 11.604 13.3115 10.804 12.5115C10.004 12.2448 9.20407 11.9782 8.40408 11.9782C7.33743 11.9782 6.27079 12.5115 6.00413 13.5782C5.47081 14.1115 5.4708 15.1782 5.4708 20.7782V26.1115H3.07085H0.670898V17.0448V7.71149H3.07085H5.4708V8.51149V9.31149L5.73747 8.77816C6.27079 8.51149 7.07077 7.97816 7.87076 7.71149C8.40408 7.71149 8.67074 7.71149 10.0041 7.71149C11.3374 7.71149 11.604 7.71149 12.404 7.97816C13.204 8.24482 14.004 8.77816 14.2706 9.31149L14.5373 9.57816L15.0706 9.04482C15.8706 8.24482 16.6706 7.97816 17.7372 7.71149C18.8039 7.44482 18.8039 7.44482 20.4038 7.44482C21.7372 7.44482 22.0038 7.44482 22.8038 7.71149C24.6704 8.51149 25.7371 9.84482 26.5371 11.9782L26.8037 12.7782V19.4448V26.1115H24.6704H22.2705V20.2448Z" fill="#7BA02D"/>
<path id="Vector_3" d="M106.536 26.1113C105.736 25.8446 104.669 25.578 103.869 25.0446C103.602 24.778 103.069 24.2446 102.536 23.7113C100.936 22.1113 100.669 21.0446 100.402 18.1113C100.136 16.2446 100.402 13.8446 100.669 12.5113C101.202 10.9113 102.002 9.57798 103.069 8.77798C104.402 7.71131 106.269 7.17798 108.669 7.17798C110.002 7.17798 110.269 7.17798 111.069 7.44464C112.402 7.97798 112.936 8.24465 114.002 9.31131C115.335 10.6446 115.869 12.2446 116.135 14.9113C116.135 16.778 116.135 19.178 115.869 20.5113C115.335 22.1113 115.069 22.9113 114.002 23.978C113.202 24.778 112.936 25.0446 112.136 25.3113C110.536 26.1113 108.402 26.378 106.536 26.1113ZM109.736 21.578C110.269 21.3113 110.802 20.5113 111.069 19.7113C111.336 18.9113 111.336 15.4446 111.069 14.378C110.802 13.3113 110.802 13.0446 110.002 12.5113C108.936 11.4446 106.802 11.4446 106.002 12.5113C105.202 13.3113 104.936 14.1113 104.936 16.778C104.936 19.4446 105.202 20.5113 106.002 21.0446C106.802 21.578 107.069 21.8446 108.136 21.8446C108.936 21.8446 109.202 21.8446 109.736 21.578Z" fill="#7BA02D"/>
<path id="Vector_4" d="M143.068 26.1113C140.935 25.8446 139.335 24.778 138.802 23.4446C138.269 22.378 138.269 21.578 138.269 20.2446C138.269 19.178 138.269 18.9113 138.535 18.378C139.069 17.3113 139.869 16.5113 140.935 15.978C142.268 15.4446 143.068 15.178 146.268 15.178H148.935V14.378C148.935 13.3113 148.668 12.778 148.135 12.2446C147.335 11.7113 146.535 11.4446 145.468 11.4446C144.135 11.4446 143.602 11.7113 142.535 12.2446L141.735 12.778L141.468 12.5113C140.402 11.4446 138.802 10.1113 138.802 9.84463C138.802 9.57796 139.869 8.5113 140.669 8.24463C142.802 6.9113 148.135 6.9113 150.802 8.24463C151.602 8.77796 152.668 9.57796 152.935 10.378C153.468 11.7113 153.468 11.7113 153.468 19.178V25.8446H151.068H148.668V25.3113V24.5113L148.135 24.778C147.602 25.3113 146.802 25.578 146.268 25.8446C145.735 26.1113 144.135 26.378 143.068 26.1113ZM147.068 22.1113C147.868 21.8446 148.668 21.3113 148.668 20.5113C148.668 19.978 148.935 19.4446 148.935 18.6446V18.1113H146.802C144.935 18.1113 144.402 18.1113 144.135 18.378C143.335 18.9113 142.802 19.7113 143.068 20.778C143.068 21.578 143.602 22.1113 144.135 22.1113C144.668 22.378 146.268 22.378 147.068 22.1113Z" fill="#7BA02D"/>
<path id="Vector_5" d="M123.068 25.8447C121.202 25.3114 119.868 23.7114 119.335 21.8447C119.335 21.3114 119.335 17.8447 119.335 10.9114V0.778076H121.735H124.135V10.9114C124.135 20.2447 124.135 21.0447 124.402 21.3114C124.668 21.8447 124.935 22.1114 126.535 22.1114H127.868V23.9781V25.8447H126.001C124.135 26.1114 123.602 26.1114 123.068 25.8447Z" fill="#7BA02D"/>
<path id="Vector_6" d="M130.269 16.7781V7.71143H132.669H135.068V16.7781V25.8448H132.669H130.269V16.7781Z" fill="#7BA02D"/>
<path id="Vector_7" d="M156.401 10.378C155.068 10.1113 154.002 9.04464 153.735 7.97798C153.468 6.64464 153.735 4.77798 154.801 4.24465C155.601 3.44465 156.135 3.44465 156.935 3.17798C157.735 3.17798 158.001 3.17798 158.535 3.44465C160.935 4.51131 161.468 7.71131 159.335 9.31131C158.535 10.378 157.468 10.6446 156.401 10.378ZM158.268 9.04464C159.068 8.51131 159.335 7.97798 159.601 6.91131C159.601 6.37798 159.601 6.11131 159.335 5.57798C159.068 5.31131 158.801 4.77798 158.801 4.77798C158.268 4.51131 157.468 4.24465 156.935 4.24465C156.135 4.24465 155.335 4.77798 155.068 5.57798C154.535 6.37798 154.535 7.71131 155.068 8.51131C155.335 8.77798 156.135 9.04465 156.401 9.31131C156.935 9.31131 157.735 9.31131 158.268 9.04464Z" fill="#7BA02D"/>
<path id="Vector_8" d="M155.602 6.91134V5.04468H156.668C157.468 5.04468 157.735 5.04468 158.002 5.31134C158.535 5.57801 158.801 6.64468 158.268 7.17801L158.002 7.44468L158.268 7.97801C158.535 8.77801 158.535 8.77801 158.002 8.77801H157.468L157.202 8.24468C156.935 7.97801 156.935 7.71134 156.935 7.71134C156.935 7.71134 156.935 7.97801 156.935 8.24468V8.77801H156.402H155.868V6.91134H155.602ZM157.468 6.37801C157.735 6.11134 157.468 5.84468 157.202 5.84468C156.935 5.84468 156.935 5.84468 156.935 6.11134C156.935 6.37801 156.935 6.37801 157.202 6.37801H157.468Z" fill="#7BA02D"/>
<path id="Vector_9" d="M130.269 2.64474V0.778076H132.669H135.068V2.64474V4.51141H132.669H130.269V2.64474Z" fill="#7BA02D"/>
</g>
</g>
</g>
<defs>
<clipPath id="clip0_223_534">
<rect width="160" height="40" fill="white" transform="translate(0.670898 0.778076)"/>
</clipPath>
</defs>
</svg>
