<svg width="172" height="52" viewBox="0 0 172 52" fill="none" xmlns="http://www.w3.org/2000/svg">
<g id="Microsoft%20Dynamics%20356_coloured.svg" clip-path="url(#clip0_223_553)">
<g id="Group">
<g id="Group_2">
<g id="Group_3">
<path id="Vector" d="M48.567 24.5049C48.567 22.4193 48.567 20.3337 48.567 18.2481C48.567 18.1018 48.567 17.9554 48.567 17.8091C48.567 17.6261 48.677 17.5164 48.8605 17.5164C48.9339 17.5164 49.0072 17.5164 49.0806 17.5164C50.4381 17.5164 51.7589 17.5164 53.1165 17.5164C54.2171 17.5164 55.2444 17.6993 56.3084 18.0286C58.363 18.7238 59.6472 20.0776 60.1241 22.1632C60.491 23.6633 60.491 25.2001 60.0141 26.7002C59.3537 28.7858 57.8861 30.1762 55.8682 30.9445C54.8775 31.3104 53.8502 31.4934 52.7862 31.4934C51.5388 31.4934 50.3281 31.4934 49.0806 31.4934C48.5303 31.4934 48.5303 31.4934 48.5303 30.9079C48.567 28.8224 48.567 26.6636 48.567 24.5049ZM50.9885 19.6019C50.9885 22.8949 50.9885 26.1514 50.9885 29.4078C51.0618 29.4444 51.0985 29.481 51.1352 29.481C52.1625 29.481 53.1531 29.5541 54.1804 29.3712C55.8682 29.0419 57.0789 28.0906 57.5926 26.4441C57.9961 25.2366 57.9961 23.9926 57.6659 22.7486C57.299 21.2118 56.3084 20.2605 54.7675 19.8581C53.5567 19.5288 52.3093 19.6385 50.9885 19.6019Z" fill="black"/>
<path id="Vector_2" d="M97.144 21.5777C97.144 21.9802 97.144 22.3461 97.144 22.712C97.1807 22.712 97.2174 22.7486 97.2541 22.7486C97.3275 22.6754 97.4375 22.5656 97.5109 22.4924C98.5015 21.3582 99.749 21.0655 101.18 21.3948C101.95 21.5777 102.501 22.0534 102.904 22.712C102.978 22.8217 103.051 22.9681 103.161 23.151C103.271 23.0047 103.381 22.8949 103.455 22.7851C104.555 21.285 106.316 21.0289 107.784 21.5045C108.591 21.7607 109.105 22.3827 109.435 23.151C109.692 23.7731 109.765 24.4317 109.802 25.0903C109.839 27.1027 109.802 29.115 109.802 31.1274C109.802 31.4933 109.765 31.5665 109.398 31.5665C108.775 31.5665 108.151 31.5665 107.49 31.5665C107.49 31.347 107.454 31.164 107.454 30.9811C107.454 29.2614 107.454 27.5417 107.417 25.822C107.417 25.3464 107.307 24.8341 107.234 24.3585C107.087 23.7365 106.683 23.2974 106.023 23.151C105.362 23.0047 104.775 23.151 104.298 23.6999C103.748 24.2853 103.491 25.0171 103.455 25.822C103.455 26.2977 103.455 26.7368 103.455 27.2124C103.455 28.493 103.455 29.8102 103.455 31.0909C103.455 31.5665 103.418 31.5665 102.978 31.6031C102.501 31.6031 102.024 31.6031 101.547 31.6031C101.437 31.6031 101.29 31.5665 101.143 31.5665C101.143 31.347 101.106 31.164 101.106 30.9811C101.106 29.3712 101.106 27.7978 101.106 26.1879C101.106 25.5659 101.07 24.9439 100.85 24.3585C100.409 22.9315 98.6116 22.7851 97.8411 23.7731C97.3642 24.3585 97.144 25.0171 97.144 25.7489C97.144 27.3222 97.144 28.8955 97.144 30.4323C97.144 30.725 97.144 31.0177 97.144 31.2738C97.144 31.4202 97.1073 31.5665 96.9239 31.5665C96.2635 31.5665 95.5664 31.5665 94.906 31.5665C94.7592 31.1274 94.7592 22.0534 94.906 21.6143C95.6398 21.5777 96.3369 21.5777 97.144 21.5777Z" fill="black"/>
<path id="Vector_3" d="M154.122 23.9558C154.196 23.8461 154.269 23.7363 154.379 23.6265C155.003 23.0045 155.773 22.6752 156.691 22.6386C157.645 22.602 158.562 22.7484 159.369 23.2972C160.139 23.8095 160.616 24.5778 160.837 25.456C161.167 26.7366 161.13 28.0172 160.58 29.2612C159.626 31.3834 157.388 32.1518 155.48 31.7493C153.866 31.42 152.838 30.4321 152.215 28.9685C151.664 27.6513 151.517 26.2609 151.591 24.834C151.628 23.5168 151.848 22.2361 152.361 20.9921C153.022 19.492 153.976 18.2845 155.553 17.6625C156.654 17.2235 157.755 17.1869 158.929 17.3698C159.222 17.4064 159.516 17.4796 159.809 17.5528C159.956 17.5893 160.103 17.6625 160.103 17.8821C160.103 18.4675 160.103 19.0895 160.103 19.7481C159.883 19.6383 159.736 19.6017 159.589 19.5286C158.782 19.1627 157.938 18.9797 157.058 19.1627C156.214 19.3456 155.553 19.7481 155.076 20.4433C154.306 21.4678 154.049 22.6752 154.049 23.9192C154.049 23.9192 154.086 23.9192 154.122 23.9558ZM158.709 27.2123C158.709 26.5902 158.598 25.9316 158.268 25.3828C157.828 24.651 157.094 24.3949 156.287 24.4315C155.407 24.5047 154.709 24.9437 154.379 25.7853C153.902 26.9195 154.086 28.0538 154.783 29.0783C155.223 29.7369 155.883 30.0662 156.691 29.993C157.535 29.9198 158.122 29.4442 158.452 28.6758C158.598 28.2002 158.709 27.7245 158.709 27.2123Z" fill="black"/>
<path id="Vector_4" d="M170.963 17.5529C170.963 18.2115 170.963 18.7604 170.963 19.419C170.78 19.419 170.596 19.4555 170.413 19.4555C169.129 19.4555 167.844 19.4555 166.56 19.4555C166.377 19.4555 166.23 19.4555 166.01 19.4921C165.937 20.6264 165.863 21.7241 165.79 22.8949C166.267 22.8949 166.67 22.8949 167.074 22.8949C167.698 22.8949 168.285 22.9681 168.835 23.151C170.449 23.6633 171.33 24.7975 171.587 26.444C171.697 27.0661 171.66 27.7247 171.513 28.3101C171.073 30.1395 169.862 31.2006 168.101 31.6031C166.78 31.9324 165.46 31.8592 164.139 31.5299C164.102 31.5299 164.029 31.4933 163.992 31.4933C163.295 31.2738 163.295 31.2372 163.295 30.542C163.295 30.2127 163.295 29.8468 163.295 29.5175C163.295 29.3712 163.332 29.2614 163.332 29.0419C163.515 29.115 163.625 29.1882 163.735 29.2614C164.322 29.6273 164.909 29.8468 165.57 29.9566C166.303 30.0664 167.037 29.9566 167.698 29.6639C168.798 29.1516 169.349 28.0906 169.165 26.8465C169.018 25.822 168.211 25.0537 167.074 24.7975C166.23 24.6146 165.386 24.6878 164.506 24.7244C164.212 24.761 163.919 24.761 163.552 24.7975C163.552 24.578 163.515 24.4317 163.515 24.2487C163.625 22.6754 163.735 21.1386 163.845 19.5653C163.882 19.0531 163.919 18.5408 163.955 17.992C163.992 17.4797 163.992 17.4797 164.506 17.4797C165.973 17.4797 167.404 17.4797 168.872 17.4797C169.385 17.4797 169.899 17.4797 170.376 17.4797C170.596 17.5163 170.743 17.5529 170.963 17.5529Z" fill="black"/>
<path id="Vector_5" d="M140.804 28.9321C141.024 29.0785 141.171 29.1883 141.318 29.2614C142.602 30.0298 143.959 30.2493 145.353 29.7371C146.601 29.298 147.188 28.0174 146.711 26.7734C146.454 26.0782 145.904 25.7123 145.207 25.4928C144.473 25.2732 143.702 25.2366 142.969 25.2366C142.088 25.2366 142.161 25.3098 142.161 24.4317C142.161 24.139 142.161 23.8463 142.161 23.4804C142.382 23.4438 142.565 23.4438 142.748 23.4438C143.335 23.4072 143.922 23.4072 144.51 23.2974C146.014 23.0779 146.711 21.907 146.344 20.4435C146.197 19.8946 145.867 19.4922 145.317 19.3092C144.069 18.8702 142.932 19.0531 141.831 19.7849C141.684 19.8946 141.574 19.9678 141.354 20.1142C141.318 19.9312 141.281 19.8215 141.281 19.7483C141.281 19.3458 141.281 18.9433 141.281 18.5043C141.244 18.175 141.428 17.992 141.721 17.8457C142.308 17.5895 142.932 17.4066 143.592 17.3334C144.546 17.2236 145.5 17.2236 146.417 17.5164C147.812 17.9554 148.729 19.0531 148.802 20.3703C148.912 22.0534 148.215 23.2608 146.821 23.9194C146.638 23.9926 146.491 24.0658 146.234 24.1756C146.491 24.2487 146.638 24.2853 146.821 24.3219C148.472 24.761 149.463 26.2611 149.279 27.9442C149.059 29.7737 147.995 30.9079 146.307 31.4568C144.693 31.969 143.079 31.9324 141.464 31.347C141.354 31.3104 141.244 31.2738 141.171 31.2007C140.914 31.0909 140.767 30.9079 140.804 30.6152C140.841 30.1762 140.804 29.7371 140.804 29.298C140.767 29.2248 140.767 29.1151 140.804 28.9321Z" fill="black"/>
<path id="Vector_6" d="M61.6282 34.4569C61.8483 34.4935 61.9951 34.4935 62.1418 34.5301C63.1691 34.6765 63.9029 34.3472 64.3799 33.3958C64.6367 32.847 64.8569 32.2616 65.0403 31.6762C65.1137 31.4932 65.0403 31.2737 64.9669 31.0907C64.3799 29.6272 63.8296 28.2002 63.2425 26.7366C62.6188 25.1999 61.9951 23.6266 61.3714 22.0898C61.298 21.9435 61.2613 21.7971 61.2246 21.6142C61.4081 21.5776 61.5181 21.5776 61.6282 21.5776C62.2152 21.5776 62.7656 21.5776 63.3526 21.5776C63.7562 21.5776 63.7562 21.5776 63.9029 21.9801C64.6734 24.3584 65.4439 26.7366 66.2511 29.1515C66.2511 29.1881 66.2877 29.1881 66.3244 29.2247C66.3611 29.1881 66.3978 29.1515 66.4345 29.0783C67.2417 26.7 68.0488 24.3218 68.856 21.9435C68.9294 21.6874 69.0761 21.541 69.3697 21.5776C69.92 21.5776 70.4337 21.5776 70.984 21.5776C71.0574 21.5776 71.1674 21.6142 71.3142 21.6142C71.2775 21.7605 71.2408 21.9069 71.1674 22.0167C69.7366 25.6756 68.3057 29.3345 66.8748 32.9934C66.5446 33.8349 66.0676 34.6399 65.4072 35.2985C64.4533 36.2498 63.3159 36.5059 62.0318 36.323C61.7016 36.2864 61.6282 36.2132 61.6282 35.8839C61.5915 35.4448 61.6282 34.9692 61.6282 34.4569Z" fill="black"/>
<path id="Vector_7" d="M89.8425 25.1634C89.9159 23.8828 89.2555 23.151 88.0448 23.1144C86.9808 23.0778 86.0268 23.3705 85.1463 23.9925C85.0362 24.0657 84.8895 24.1755 84.706 24.2852C84.706 24.0291 84.6693 23.8462 84.6693 23.6998C84.6693 23.3339 84.6693 22.968 84.6693 22.6021C84.6693 22.3094 84.7794 22.1631 85.0362 22.0533C85.8801 21.6142 86.7606 21.3581 87.7145 21.3215C88.5217 21.2849 89.3289 21.2849 90.0994 21.5411C91.2 21.9435 91.8238 22.7119 92.0439 23.8096C92.1173 24.1755 92.154 24.5779 92.154 24.9804C92.154 26.9928 92.154 29.0052 92.154 31.0542C92.154 31.2006 92.154 31.3469 92.1173 31.4933C92.0072 31.5299 91.8971 31.5664 91.7871 31.5664C91.2734 31.5664 90.7598 31.5664 90.2828 31.5664C89.9159 31.5664 89.8792 31.5299 89.8792 31.164C89.8792 30.8713 89.8792 30.6151 89.8792 30.2127C89.7325 30.359 89.6591 30.3956 89.6224 30.5054C88.485 32.0787 86.5038 32.1153 85.2564 31.5299C84.1924 31.0176 83.7154 30.1029 83.6787 28.9686C83.6787 27.2855 84.4859 26.1879 86.247 25.7854C87.1275 25.5658 88.0081 25.4927 88.9253 25.3463C89.2188 25.2731 89.5123 25.2365 89.8425 25.1634ZM89.8058 26.7367C88.9253 26.8831 88.0448 26.9928 87.2009 27.1392C87.0174 27.1758 86.8707 27.2489 86.7239 27.3221C86.1736 27.5417 85.9901 28.0173 85.9535 28.5661C85.9535 29.1516 86.1736 29.5906 86.6872 29.8102C87.0908 29.9931 87.4944 30.0297 87.9347 29.9565C89.2922 29.737 90.1727 28.493 89.8058 26.7367Z" fill="black"/>
<path id="Vector_8" d="M72.8916 31.5299C72.8916 28.1637 72.8916 24.9073 72.8916 21.5777C73.6621 21.5045 74.3959 21.5411 75.1663 21.5411C75.1663 21.9802 75.1663 22.4192 75.1663 22.8217C75.203 22.8217 75.2397 22.8583 75.2764 22.8583C75.3498 22.7485 75.4599 22.6754 75.5332 22.5656C76.5972 21.2484 78.2483 20.9923 79.6425 21.4313C80.4863 21.6875 81.0733 22.3095 81.4035 23.1144C81.6604 23.6999 81.8071 24.3585 81.8071 25.0171C81.8071 27.066 81.8071 29.115 81.8071 31.164C81.8071 31.2738 81.7704 31.347 81.7704 31.4933C81.0367 31.5299 80.3029 31.5299 79.5324 31.4933C79.5324 31.2738 79.4957 31.0908 79.4957 30.9079C79.4957 29.1516 79.4957 27.4319 79.4957 25.6757C79.4957 25.3098 79.459 24.9073 79.3489 24.5414C79.0187 23.1876 77.6612 22.6022 76.4505 23.334C75.68 23.773 75.3131 24.5048 75.2397 25.383C75.203 25.822 75.2397 26.2611 75.2397 26.7002C75.2397 28.0905 75.2397 29.4809 75.2397 30.8713C75.2397 30.9811 75.2764 31.1274 75.2397 31.2372C75.203 31.347 75.093 31.4933 75.0196 31.4933C74.2858 31.5665 73.6254 31.5299 72.8916 31.5299Z" fill="black"/>
<path id="Vector_9" d="M132.989 23.7363C132.806 23.6632 132.659 23.59 132.512 23.5168C131.631 23.1143 130.678 22.968 129.724 23.2241C129.247 23.3339 128.843 23.5534 128.733 24.1022C128.66 24.5779 128.916 24.9804 129.503 25.2365C130.017 25.456 130.567 25.639 131.081 25.8585C131.485 26.0415 131.925 26.261 132.292 26.4805C133.98 27.505 133.943 29.9931 132.255 31.0541C131.705 31.42 131.081 31.603 130.421 31.7127C129.173 31.8957 127.963 31.8225 126.752 31.3834C126.348 31.2371 126.348 31.2005 126.348 30.798C126.348 30.2492 126.348 29.7004 126.348 29.0417C126.568 29.1515 126.715 29.2247 126.862 29.3345C127.889 29.9199 128.99 30.1394 130.164 29.8833C130.347 29.8467 130.494 29.8101 130.641 29.7004C131.228 29.4076 131.375 28.7124 130.934 28.2368C130.678 27.9807 130.347 27.7977 130.017 27.6514C129.54 27.4318 129.026 27.2855 128.55 27.0659C128.146 26.883 127.742 26.6635 127.375 26.4073C126.128 25.5292 125.945 23.6998 126.935 22.5655C127.486 21.9435 128.219 21.5776 129.026 21.3946C130.164 21.1385 131.338 21.1751 132.439 21.5044C132.916 21.6508 132.916 21.6508 132.916 22.1264C132.916 22.4923 132.916 22.8582 132.916 23.2241C133.026 23.407 132.989 23.5168 132.989 23.7363Z" fill="black"/>
<path id="Vector_10" d="M124.734 23.8462C124.551 23.7364 124.404 23.6632 124.257 23.5901C123.597 23.1876 122.863 23.0412 122.129 23.151C120.808 23.3339 119.965 24.1023 119.524 25.3463C119.267 26.1879 119.267 27.0294 119.488 27.871C119.965 29.6272 121.579 30.1761 122.9 29.9931C123.413 29.92 123.927 29.737 124.367 29.4809C124.477 29.4077 124.587 29.3711 124.734 29.2979C124.771 29.4443 124.771 29.5541 124.771 29.6638C124.771 29.8834 124.771 30.1395 124.771 30.359C124.734 31.2372 124.954 31.164 123.964 31.5299C122.716 31.9689 121.432 32.0055 120.185 31.6031C118.717 31.1274 117.727 30.1395 117.213 28.6759C116.736 27.2124 116.773 25.7122 117.396 24.2852C118.203 22.4558 119.671 21.5045 121.652 21.3581C122.533 21.2849 123.377 21.3215 124.221 21.6142C124.734 21.7972 124.734 21.7972 124.734 22.3094C124.734 22.7119 124.734 23.1144 124.734 23.4803C124.771 23.5535 124.771 23.6632 124.734 23.8462Z" fill="black"/>
<path id="Vector_11" d="M114.755 21.5777C114.755 24.9073 114.755 28.1638 114.755 31.4934C113.984 31.5665 113.287 31.5299 112.553 31.4934C112.443 31.1275 112.407 22.1997 112.517 21.5777C113.25 21.5411 113.984 21.5411 114.755 21.5777Z" fill="black"/>
<path id="Vector_12" d="M113.654 19.4555C112.847 19.4555 112.26 18.9067 112.26 18.1749C112.26 17.4431 112.883 16.8577 113.654 16.8577C114.424 16.8577 115.048 17.4431 115.048 18.1749C115.048 18.8701 114.424 19.4555 113.654 19.4555Z" fill="black"/>
</g>
<g id="Group_4">
<path id="Vector_13" d="M27.6905 24.5413V34.9326C27.6905 37.1645 26.2963 39.1769 24.205 39.9819L20.4993 41.3723C19.949 41.5918 19.3253 41.2991 19.1051 40.7503C19.0684 40.6405 19.0317 40.4941 19.0317 40.3844V27.688L11.8039 30.3224C10.9601 30.6517 10.373 31.4567 10.373 32.3348V49.3121C10.373 50.8122 11.8773 51.8367 13.2715 51.3245L34.9183 43.4213C37.0463 42.6529 38.4771 40.6405 38.4771 38.372V16.821C38.4771 19.0896 37.0463 21.102 34.9183 21.8703C34.955 21.8703 27.6905 24.5413 27.6905 24.5413Z" fill="#0953CD"/>
<path id="Vector_14" d="M27.6905 23.4071V20.2971C27.6905 18.0651 26.2963 16.0527 24.1683 15.2478L20.4994 13.8574C19.949 13.6379 19.3253 13.9306 19.1052 14.4794C19.0685 14.5892 19.0318 14.7355 19.0318 14.8453V24.6146C19.0318 26.1147 17.5642 27.1392 16.1333 26.6636L2.08128 21.6509C1.23742 21.3216 0.650391 20.5166 0.650391 19.6019V2.62456C0.650391 1.12441 2.11797 0.099919 3.54885 0.575576L34.9183 11.7352C36.7161 12.3572 38.0369 13.894 38.4038 15.76C38.1103 17.5895 36.1657 20.2971 34.5881 20.8459C34.5881 20.8825 27.6905 23.4071 27.6905 23.4071Z" fill="#0953CD"/>
</g>
</g>
</g>
</g>
<defs>
<clipPath id="clip0_223_553">
<rect width="171" height="51" fill="white" transform="translate(0.650391 0.458008)"/>
</clipPath>
</defs>
</svg>
