<svg width="163" height="53" viewBox="0 0 163 53" fill="none" xmlns="http://www.w3.org/2000/svg">
<g id="Microsoft%20PowerApps_coloured.svg" clip-path="url(#clip0_223_608)">
<g id="Group">
<g id="Group_2">
<g id="Group_3">
<path id="Vector" d="M12.9965 18.8237C12.8946 16.8417 12.7649 14.4613 12.7834 12.6923H12.7186C12.237 14.3594 11.6442 16.1285 10.9311 18.0828L8.4211 24.9737H7.03182L4.73487 18.2125C4.05876 16.2119 3.49378 14.378 3.09552 12.6923H3.04921C3.0029 14.4613 2.90102 16.8417 2.77136 18.9719L2.39162 25.0664H0.650391L1.64141 10.8584H3.98466L6.41127 17.7308C7.00403 19.4813 7.48565 21.0374 7.84686 22.51H7.91169C8.27291 21.0744 8.77305 19.5184 9.41212 17.7308L11.9406 10.8584H14.2839L15.173 25.0664H13.3855L12.9965 18.8237Z" fill="#93298F"/>
<path id="Vector_2" d="M20.2296 11.9976C20.2481 12.6274 19.785 13.1368 19.0533 13.1368C18.3957 13.1368 17.9326 12.6274 17.9326 11.9976C17.9326 11.34 18.4142 10.8398 19.0904 10.8398C19.785 10.8398 20.2296 11.34 20.2296 11.9976ZM18.1642 25.0663V14.8596H20.0165V25.0571H18.1642V25.0663Z" fill="#93298F"/>
<path id="Vector_3" d="M30.3626 24.6868C29.881 24.9369 28.8066 25.2796 27.4359 25.2796C24.3609 25.2796 22.3604 23.1956 22.3604 20.0743C22.3604 16.9345 24.5091 14.656 27.8434 14.656C28.9363 14.656 29.9088 14.9339 30.4182 15.1839L29.9921 16.6196C29.5476 16.3695 28.8529 16.1379 27.8434 16.1379C25.5001 16.1379 24.2405 17.8699 24.2405 19.9909C24.2405 22.3528 25.7595 23.8069 27.7785 23.8069C28.8344 23.8069 29.529 23.529 30.057 23.2975L30.3626 24.6868Z" fill="#93298F"/>
<path id="Vector_4" d="M32.5394 18.0459C32.5394 16.8418 32.5209 15.8137 32.4561 14.8597H34.0769L34.1417 16.8603H34.2251C34.6882 15.4895 35.8089 14.6282 37.0499 14.6282C37.263 14.6282 37.4112 14.6467 37.5779 14.693V16.4435C37.3926 16.3972 37.1981 16.3787 36.9481 16.3787C35.6421 16.3787 34.7159 17.3697 34.4659 18.759C34.4196 19.0091 34.3825 19.3055 34.3825 19.6204V25.0572H32.5487V18.0459H32.5394Z" fill="#93298F"/>
<path id="Vector_5" d="M48.4414 19.8797C48.4414 23.6494 45.8295 25.298 43.3659 25.298C40.6058 25.298 38.4756 23.2789 38.4756 20.0465C38.4756 16.6288 40.7077 14.6282 43.5326 14.6282C46.4686 14.6282 48.4414 16.7584 48.4414 19.8797ZM40.3557 19.9816C40.3557 22.2138 41.6431 23.8995 43.4492 23.8995C45.2182 23.8995 46.5427 22.2323 46.5427 19.9353C46.5427 18.2033 45.6813 16.0175 43.4863 16.0175C41.3005 16.0267 40.3557 18.0459 40.3557 19.9816Z" fill="#93298F"/>
<path id="Vector_6" d="M50.5349 23.1678C51.0813 23.529 52.0538 23.9087 52.98 23.9087C54.3323 23.9087 54.9621 23.2326 54.9621 22.3898C54.9621 21.5006 54.4341 21.019 53.0634 20.5188C51.2295 19.8612 50.3682 18.8517 50.3682 17.6291C50.3682 15.9897 51.6926 14.6375 53.8877 14.6375C54.9157 14.6375 55.8234 14.9338 56.3976 15.2673L55.9346 16.6195C55.5363 16.3695 54.7953 16.0268 53.8506 16.0268C52.7577 16.0268 52.1465 16.6566 52.1465 17.4161C52.1465 18.2589 52.7577 18.6386 54.0822 19.1481C55.8512 19.8242 56.7589 20.7041 56.7589 22.2231C56.7589 24.0106 55.3696 25.2795 52.943 25.2795C51.8223 25.2795 50.7942 25.0017 50.0811 24.5849L50.5349 23.1678Z" fill="#93298F"/>
<path id="Vector_7" d="M68.3642 19.8797C68.3642 23.6494 65.7524 25.298 63.2887 25.298C60.5287 25.298 58.3984 23.2789 58.3984 20.0465C58.3984 16.6288 60.6305 14.6282 63.4554 14.6282C66.3822 14.6282 68.3642 16.7584 68.3642 19.8797ZM60.2693 19.9816C60.2693 22.2138 61.5567 23.8995 63.3628 23.8995C65.1318 23.8995 66.4563 22.2323 66.4563 19.9353C66.4563 18.2033 65.5949 16.0175 63.3998 16.0175C61.214 16.0267 60.2693 18.0459 60.2693 19.9816Z" fill="#93298F"/>
<path id="Vector_8" d="M70.8926 25.0664V16.2768H69.457V14.8689H70.8926V14.3873C70.8926 12.9517 71.2075 11.6458 72.0689 10.8214C72.7635 10.1453 73.6897 9.87671 74.5511 9.87671C75.2086 9.87671 75.7736 10.0249 76.1348 10.1731L75.8848 11.6087C75.6069 11.479 75.2272 11.3772 74.7085 11.3772C73.1247 11.3772 72.7265 12.7665 72.7265 14.3317V14.8782H75.1901V16.286H72.7265V25.0757H70.8926V25.0664Z" fill="#93298F"/>
<path id="Vector_9" d="M79.3205 11.9329V14.8597H81.9787V16.2675H79.3205V21.7691C79.3205 23.038 79.6817 23.7512 80.7098 23.7512C81.1914 23.7512 81.5526 23.6864 81.7842 23.6215L81.8675 25.0109C81.5063 25.159 80.9413 25.2609 80.2282 25.2609C79.3668 25.2609 78.6722 24.9831 78.2276 24.4829C77.6997 23.9365 77.5144 23.0288 77.5144 21.8247V16.2582H75.9307V14.8504H77.5144V12.4052L79.3205 11.9329Z" fill="#93298F"/>
<path id="Vector_10" d="M1.03027 31.2163C1.91941 31.0681 3.07715 30.9385 4.54978 30.9385C6.36511 30.9385 7.68955 31.3645 8.53238 32.1148C9.31038 32.7909 9.77347 33.819 9.77347 35.0879C9.77347 36.3753 9.39374 37.3849 8.68057 38.1258C7.70808 39.1539 6.13356 39.6818 4.33676 39.6818C3.79031 39.6818 3.28091 39.6633 2.86412 39.5522V45.2391H1.03027V31.2163ZM2.86412 38.0702C3.26238 38.1721 3.77179 38.2184 4.38307 38.2184C6.59665 38.2184 7.94889 37.144 7.94889 35.1805C7.94889 33.3096 6.62444 32.4019 4.59609 32.4019C3.79957 32.4019 3.18829 32.4667 2.86412 32.5501V38.0702Z" fill="#93298F"/>
<path id="Vector_11" d="M20.8779 40.0709C20.8779 43.8406 18.266 45.4892 15.8024 45.4892C13.0423 45.4892 10.9121 43.4701 10.9121 40.2376C10.9121 36.8199 13.1442 34.8193 15.9691 34.8193C18.9051 34.8193 20.8779 36.9496 20.8779 40.0709ZM12.7923 40.1728C12.7923 42.4049 14.0797 44.0906 15.8857 44.0906C17.6547 44.0906 18.9792 42.4235 18.9792 40.1265C18.9792 38.3945 18.1178 36.2086 15.9228 36.2086C13.737 36.2179 12.7923 38.237 12.7923 40.1728Z" fill="#93298F"/>
<path id="Vector_12" d="M23.8147 35.051L25.1669 40.2377C25.4633 41.377 25.7319 42.4328 25.9264 43.4795H25.9912C26.2228 42.4514 26.5562 41.3492 26.8989 40.2563L28.566 35.051H30.122L31.7058 40.1544C32.0855 41.377 32.3819 42.4514 32.6135 43.4795H32.6783C32.845 42.4514 33.1229 41.3677 33.4563 40.1729L34.9104 35.051H36.7257L33.4378 45.2485H31.7521L30.1961 40.3767C29.8349 39.2374 29.5385 38.2279 29.2885 37.0238H29.2422C28.9921 38.2464 28.6772 39.3023 28.316 40.3952L26.6766 45.2392H24.991L21.916 35.0417H23.8147V35.051Z" fill="#93298F"/>
<path id="Vector_13" d="M39.4018 40.4877C39.4481 42.9977 41.0412 44.0258 42.9028 44.0258C44.2273 44.0258 45.033 43.7942 45.7277 43.4978L46.0426 44.8223C45.385 45.1187 44.2736 45.4521 42.6527 45.4521C39.513 45.4521 37.6328 43.3867 37.6328 40.3117C37.6328 37.2367 39.4481 34.8101 42.4119 34.8101C45.7369 34.8101 46.6261 37.7369 46.6261 39.6171C46.6261 39.9968 46.5798 40.2932 46.5613 40.4784H39.4018V40.4877ZM44.8385 39.1632C44.8571 37.9869 44.3569 36.1531 42.2637 36.1531C40.3928 36.1531 39.5685 37.8851 39.4204 39.1632H44.8385Z" fill="#93298F"/>
<path id="Vector_14" d="M48.933 38.237C48.933 37.033 48.9144 36.0049 48.8496 35.0509H50.4704L50.5353 37.0515H50.6186C51.0817 35.6807 52.2024 34.8193 53.4435 34.8193C53.6565 34.8193 53.8047 34.8379 53.9714 34.8842V36.6347C53.7862 36.5884 53.5917 36.5699 53.3416 36.5699C52.0357 36.5699 51.1095 37.5609 50.8594 38.9502C50.8131 39.2003 50.7761 39.4967 50.7761 39.8116V45.2484H48.9422V38.237H48.933Z" fill="#93298F"/>
<path id="Vector_15" d="M58.1848 40.7842L56.7122 45.2485H54.8135L59.6389 31.0405H61.8525L66.6965 45.2485H64.7329L63.214 40.7842H58.1848ZM62.8435 39.3578L61.4542 35.2733C61.1393 34.3471 60.9263 33.5042 60.7133 32.6799H60.667C60.454 33.5228 60.2224 34.3841 59.9538 35.2548L58.5645 39.3671H62.8435V39.3578Z" fill="#93298F"/>
<path id="Vector_16" d="M68.6605 38.3852C68.6605 37.0793 68.6142 36.0234 68.5771 35.0602H70.2443L70.3276 36.8107H70.3739C71.1334 35.5696 72.3375 34.8286 73.9953 34.8286C76.459 34.8286 78.3114 36.9126 78.3114 40.0154C78.3114 43.6831 76.0793 45.4985 73.6712 45.4985C72.3189 45.4985 71.1427 44.9057 70.5314 43.8961H70.4851V49.4348H68.6512V38.3852H68.6605ZM70.4851 41.099C70.4851 41.3769 70.5314 41.6269 70.5685 41.8585C70.9019 43.1459 72.0226 44.0258 73.347 44.0258C75.3105 44.0258 76.4405 42.4235 76.4405 40.0894C76.4405 38.0425 75.3661 36.292 73.4026 36.292C72.1337 36.292 70.9574 37.1997 70.5962 38.589C70.5314 38.8205 70.4666 39.0984 70.4666 39.3485V41.099H70.4851Z" fill="#93298F"/>
<path id="Vector_17" d="M80.6449 38.3852C80.6449 37.0793 80.5986 36.0234 80.5615 35.0602H82.2287L82.312 36.8107H82.3583C83.1178 35.5696 84.3218 34.8286 85.9797 34.8286C88.4434 34.8286 90.2957 36.9126 90.2957 40.0154C90.2957 43.6831 88.0636 45.4985 85.6555 45.4985C84.3033 45.4985 83.1271 44.9057 82.5158 43.8961H82.4787V49.4348H80.6449V38.3852ZM82.4787 41.099C82.4787 41.3769 82.525 41.6269 82.5621 41.8585C82.8955 43.1459 84.0162 44.0258 85.3406 44.0258C87.3042 44.0258 88.4341 42.4235 88.4341 40.0894C88.4341 38.0425 87.3597 36.292 85.3962 36.292C84.1273 36.292 82.9511 37.1997 82.5899 38.589C82.525 38.8205 82.4602 39.0984 82.4602 39.3485V41.099H82.4787Z" fill="#93298F"/>
<path id="Vector_18" d="M92.3796 43.3589C92.9261 43.7202 93.8986 44.0999 94.8247 44.0999C96.177 44.0999 96.8068 43.4238 96.8068 42.5809C96.8068 41.6918 96.2789 41.2102 94.9081 40.71C93.0743 40.0524 92.2129 39.0428 92.2129 37.8202C92.2129 36.1809 93.5374 34.8286 95.7324 34.8286C96.7605 34.8286 97.6681 35.125 98.2424 35.4584L97.7793 36.8107C97.381 36.5606 96.6401 36.2179 95.6954 36.2179C94.6025 36.2179 93.9912 36.8477 93.9912 37.6072C93.9912 38.4501 94.6025 38.8298 95.9269 39.3392C97.6959 40.0154 98.6036 40.8952 98.6036 42.4142C98.6036 44.2018 97.2143 45.4707 94.7877 45.4707C93.667 45.4707 92.6389 45.1928 91.9258 44.776L92.3796 43.3589Z" fill="#93298F"/>
</g>
<path id="Vector_19" d="M128.598 51.4835L108.93 28.7771C107.717 27.3685 107.717 25.2744 108.949 23.8846L128.869 1.21585C129.728 0.239236 131.221 0.201674 132.127 1.13134L154.054 23.5184C155.463 24.9552 155.473 27.2652 154.063 28.7114L131.912 51.5774C130.997 52.5258 129.466 52.4789 128.598 51.4835Z" fill="#7F2977"/>
<path id="Vector_20" d="M160.928 24.2458L139.771 1.12604C138.874 0.199008 137.387 0.245828 136.546 1.21032L127.455 11.1549C126.661 12.0257 126.661 13.3648 127.455 14.2357L136.611 24.2364C137.646 25.3695 137.655 27.1205 136.62 28.2629L127.455 38.3948C126.725 39.2001 126.716 40.4455 127.446 41.2602L136.574 51.4857C137.433 52.4783 138.939 52.5251 139.854 51.5793L160.937 28.2723C161.972 27.1299 161.962 25.3788 160.928 24.2458Z" fill="#D975BD"/>
<path id="Vector_21" d="M151.578 13.9813L162.105 24.909C162.832 25.6645 162.832 26.8247 162.105 27.5712L152.494 37.5006C151.682 38.337 150.294 38.346 149.472 37.5096L139.663 27.5532C138.927 26.8067 138.917 25.6465 139.635 24.891L149.963 13.9813C150.379 13.5316 151.134 13.5316 151.578 13.9813Z" fill="#E696C8"/>
</g>
</g>
</g>
<defs>
<clipPath id="clip0_223_608">
<rect width="162" height="52" fill="white" transform="translate(0.650391 0.458008)"/>
</clipPath>
</defs>
</svg>
