<svg width="105" height="31" viewBox="0 0 105 31" fill="none" xmlns="http://www.w3.org/2000/svg">
<g id="neos_coloured.svg" clip-path="url(#clip0_223_579)">
<g id="Group">
<g id="Group_2">
<path id="Vector" d="M95.9721 20.1442C97.2338 21.3235 98.4029 21.9488 100.123 21.9488C101.659 21.9488 102.761 21.1308 102.761 19.9042C102.761 18.8219 102.187 18.2438 99.6646 17.5712C96.7526 16.8015 95.284 15.7423 95.284 13.6019C95.284 11.3888 97.2338 9.87269 99.7103 9.87269C101.567 9.87269 102.921 10.4981 104.228 11.5804L103.173 12.9996C101.957 12.0131 100.949 11.5804 99.6875 11.5804C98.2886 11.5804 97.1881 12.3027 97.1881 13.4565C97.1881 14.5631 97.8761 15.1642 100.467 15.8381C103.265 16.5362 104.641 17.7142 104.641 19.76C104.641 22.1658 102.668 23.6577 100.077 23.6577C98.036 23.6819 96.3389 22.9123 94.8258 21.4688L95.9721 20.1442ZM75.8143 16.7762C75.8143 12.9996 78.5892 9.87154 82.4646 9.87154C86.34 9.87154 89.1149 12.9996 89.1149 16.7762C89.1149 20.5527 86.34 23.6808 82.4646 23.6808C78.5892 23.6808 75.8143 20.5527 75.8143 16.7762ZM82.4646 11.6519C79.6669 11.6519 77.7172 13.865 77.7172 16.7762C77.7172 19.6873 79.6669 21.9004 82.4646 21.9004C85.2623 21.9004 87.2121 19.7115 87.2121 16.7762C87.2121 13.865 85.2623 11.6519 82.4646 11.6519ZM70.0121 10.1127V11.8446H62.5126V15.8623H69.2086V17.6185H62.5126V21.7319H70.1035V23.4638H60.6555V10.1127H70.0121ZM44.4646 10.1127L51.9172 19.9527V10.1127H53.7286V23.4408H52.2155L44.5561 13.3123V23.4408H42.7446V10.1127H44.4646ZM21.0509 0.778076L16.3035 4.41038V12.0362L21.0509 19.085V0.778076ZM21.0509 27.9154L2.75034 0.778076L0.640625 2.41423V30.7781L5.41091 27.1458V13.0954L17.3126 30.7781H22.4955L26.2566 27.9154H21.0509Z" fill="#2F2A52"/>
<path id="Vector_2" d="M5.41091 13.0954V27.1446L0.640625 30.7781H5.84634L10.6166 27.1458V20.8181L5.41091 13.0954ZM21.0509 19.0862V0.778076H26.2566V27.9154H21.0509L2.75034 0.778076H8.71262L21.0509 19.0862Z" fill="#19A2E4"/>
</g>
</g>
</g>
<defs>
<clipPath id="clip0_223_579">
<rect width="104" height="30" fill="white" transform="translate(0.640625 0.778076)"/>
</clipPath>
</defs>
</svg>
