<svg width="181" height="52" viewBox="0 0 181 52" fill="none" xmlns="http://www.w3.org/2000/svg">
<g id="OpenAi_coloured.svg" clip-path="url(#clip0_223_591)">
<g id="Group">
<g id="Group_2">
<path id="Vector" d="M57.2812 24.9771C57.2812 33.3157 62.488 39.1298 69.7032 39.1298C76.9183 39.1298 82.1251 33.3157 82.1251 24.9771C82.1251 16.6385 76.9183 10.8245 69.7032 10.8245C62.488 10.8245 57.2812 16.6385 57.2812 24.9771ZM77.3646 24.9771C77.3646 30.9442 74.2033 34.8075 69.7032 34.8075C65.203 34.8075 62.0417 30.9442 62.0417 24.9771C62.0417 19.0101 65.203 15.1468 69.7032 15.1468C74.2033 15.1468 77.3646 19.0101 77.3646 24.9771Z" fill="black"/>
<path id="Vector_2" d="M95.531 39.1296C100.998 39.1296 104.122 34.3866 104.122 28.6872C104.122 22.9879 100.998 18.2449 95.531 18.2449C93.002 18.2449 91.1424 19.2776 89.9151 20.7694V18.6274H85.4521V45.5939H89.9151V36.6051C91.1424 38.0969 93.002 39.1296 95.531 39.1296ZM89.8035 28.1135C89.8035 24.3267 91.8863 22.2612 94.6384 22.2612C97.8741 22.2612 99.6221 24.8622 99.6221 28.6872C99.6221 32.5123 97.8741 35.1133 94.6384 35.1133C91.8863 35.1133 89.8035 33.0095 89.8035 29.2992V28.1135Z" fill="black"/>
<path id="Vector_3" d="M116.2 39.1296C120.105 39.1296 123.192 37.0258 124.568 33.5068L120.737 32.015C120.142 34.0806 118.394 35.2281 116.2 35.2281C113.336 35.2281 111.328 33.1243 110.993 29.6818H124.679V28.1517C124.679 22.6437 121.667 18.2449 116.014 18.2449C110.361 18.2449 106.716 22.7967 106.716 28.6872C106.716 34.8838 110.621 39.1296 116.2 39.1296ZM115.976 22.1082C118.803 22.1082 120.142 24.0207 120.179 26.2392H111.216C111.885 23.5234 113.671 22.1082 115.976 22.1082Z" fill="black"/>
<path id="Vector_4" d="M128.028 38.7089H132.491V26.9277C132.491 24.0589 134.537 22.5289 136.545 22.5289C139 22.5289 139.967 24.3267 139.967 26.813V38.7089H144.43V25.4742C144.43 21.1519 141.975 18.2449 137.884 18.2449C135.355 18.2449 133.607 19.4306 132.491 20.7694V18.6274H128.028V38.7089Z" fill="black"/>
<path id="Vector_5" d="M157.501 11.2451L147.385 38.7089H152.108L154.377 32.4359H165.906L168.212 38.7089H173.01L162.894 11.2451H157.501ZM160.104 16.6767L164.344 28.1518H155.939L160.104 16.6767Z" fill="black"/>
<path id="Vector_6" d="M180.671 11.3247H175.91V38.7885H180.671V11.3247Z" fill="black"/>
<path id="Vector_7" d="M46.3745 21.3321C47.4995 17.8592 47.1121 14.0549 45.313 10.8961C42.6073 6.05101 37.168 3.55836 31.8559 4.73137C29.4927 1.99327 26.0974 0.436163 22.5379 0.458239C17.108 0.445726 12.2901 4.04127 10.6196 9.35489C7.13138 10.0896 4.12043 12.3352 2.35849 15.518C-0.367329 20.3503 0.254076 26.4417 3.89573 30.5855C2.77069 34.0583 3.1581 37.8626 4.95723 41.0215C7.6629 45.8665 13.1021 48.3592 18.4143 47.1862C20.776 49.9243 24.1728 51.4814 27.7323 51.4577C33.1653 51.4718 37.9847 47.8731 39.6552 42.5547C43.1435 41.82 46.1544 39.5743 47.9164 36.3916C50.6391 31.5593 50.0161 25.4727 46.376 21.3289L46.3745 21.3321ZM27.7354 48.1249C25.5612 48.1281 23.4553 47.3455 21.7863 45.9128C21.8623 45.8713 21.994 45.7964 22.0792 45.7422L31.9535 39.8772C32.4587 39.5823 32.7686 39.0293 32.7655 38.4316V24.1148L36.9387 26.5931C36.9836 26.6154 37.0131 26.66 37.0193 26.711V38.5671C37.0131 43.8393 32.8616 48.1137 27.7354 48.1249ZM7.76983 39.3544C6.68043 37.4196 6.28837 35.1516 6.66184 32.9506C6.73467 32.9953 6.86329 33.0765 6.95472 33.1307L16.829 38.9958C17.3296 39.297 17.9494 39.297 18.4515 38.9958L30.5061 31.8366V36.7932C30.5092 36.8442 30.486 36.8936 30.4473 36.9255L20.466 42.8527C16.0201 45.4856 10.3422 43.9205 7.77138 39.3544H7.76983ZM5.17108 17.1867C6.25583 15.2486 7.96818 13.7664 10.0075 12.9967C10.0075 13.0843 10.0029 13.2389 10.0029 13.3473V25.079C9.99976 25.6751 10.3097 26.2281 10.8133 26.523L22.868 33.6806L18.6948 36.1589C18.653 36.1876 18.6003 36.1924 18.5538 36.1716L8.57099 30.2396C4.13438 27.5972 2.61263 21.7592 5.16953 17.1883L5.17108 17.1867ZM39.4584 25.393L27.4038 18.2338L31.5769 15.7571C31.6188 15.7284 31.6715 15.7236 31.718 15.7443L41.7007 21.6715C46.1451 24.3124 47.6684 30.1599 45.1007 34.7309C44.0144 36.6657 42.3036 38.1479 40.2658 38.9193V26.8369C40.2704 26.2409 39.962 25.6894 39.46 25.393H39.4584ZM43.6115 18.9637C43.5386 18.9175 43.41 18.8378 43.3186 18.7836L33.4443 12.9186C32.9437 12.6173 32.3239 12.6173 31.8218 12.9186L19.7671 20.0778V15.1211C19.764 15.0701 19.7873 15.0207 19.826 14.9889L29.8073 9.06642C34.2532 6.42873 39.9373 7.99859 42.5004 12.5727C43.5836 14.5044 43.9756 16.7659 43.6084 18.9637H43.6115ZM17.4985 27.798L13.3237 25.3197C13.2788 25.2974 13.2494 25.2527 13.2432 25.2017V13.3457C13.2463 8.06713 17.4101 3.78945 22.5425 3.79264C24.7136 3.79264 26.8149 4.57677 28.4839 6.00479C28.4079 6.04623 28.2778 6.12114 28.191 6.17532L18.3167 12.0404C17.8115 12.3352 17.5016 12.8867 17.5047 13.4843L17.4985 27.7948V27.798ZM19.7656 22.7712L25.1351 19.5821L30.5046 22.7696V29.1463L25.1351 32.3338L19.7656 29.1463V22.7712Z" fill="black"/>
</g>
</g>
</g>
<defs>
<clipPath id="clip0_223_591">
<rect width="180" height="51" fill="white" transform="translate(0.670898 0.458008)"/>
</clipPath>
</defs>
</svg>
