<svg width="132" height="30" viewBox="0 0 132 30" fill="none" xmlns="http://www.w3.org/2000/svg">
<g id="shopware_coloured.svg" clip-path="url(#clip0_223_672)">
<g id="Group">
<g id="Group_2">
<path id="Vector" d="M39.0999 14.9101C37.9025 14.3753 36.9165 13.8904 36.9165 13.0866C36.9165 12.5228 37.5359 11.988 38.5805 11.988C39.517 11.988 40.326 12.2305 41.1579 12.6052C41.3935 12.713 41.7566 12.7397 41.9382 12.3627L42.3553 11.5032C42.5116 11.1818 42.3806 10.8048 42.0945 10.5914C41.4958 10.1877 40.2467 9.67963 38.5782 9.67963C35.6605 9.67963 34.4689 11.5032 34.4689 13.0576C34.4689 15.0945 36.0018 16.1142 37.8496 16.9737C39.5158 17.7509 40.4271 18.2857 40.4271 19.1186C40.4271 19.8169 39.8537 20.325 38.8379 20.325C37.4049 20.325 36.5477 19.8169 35.8433 19.4132C35.5307 19.2264 35.1928 19.3053 35.063 19.5744L34.5149 20.7286C34.3839 20.9978 34.5401 21.2367 34.7217 21.3713C35.3997 21.8538 36.7786 22.631 38.6804 22.631C41.3625 22.631 42.977 20.9421 42.977 19.0107C42.9793 16.7081 41.3131 15.8775 39.0999 14.9101ZM23.1317 26.1029C21.909 25.154 20.1049 24.4325 18.195 23.6704C15.9221 22.7644 13.3457 21.7332 11.4106 20.1498C9.22037 18.353 8.15284 16.0863 8.15284 13.2223C8.15284 10.6506 9.18935 8.45235 11.1497 6.86315C13.348 5.08139 16.6793 4.13831 20.7817 4.13831C21.9159 4.13831 22.9984 4.20907 24.0015 4.35175C24.0912 4.36451 24.1751 4.31463 24.2118 4.23343C24.25 4.15066 24.2304 4.05246 24.1636 3.99099C21.578 1.59559 18.2364 0.277832 14.7557 0.277832C10.9946 0.277832 7.45762 1.78467 4.79625 4.52575C2.13488 7.26683 0.670898 10.9058 0.670898 14.7767C0.670898 18.6476 2.13488 22.2923 4.79625 25.0299C7.45762 27.7675 10.9912 29.2778 14.7557 29.2778C17.7963 29.2778 20.6898 28.2953 23.1294 26.437C23.1807 26.3976 23.2109 26.3362 23.2109 26.2711C23.2121 26.2056 23.1828 26.1433 23.1317 26.1029ZM28.7773 13.438C28.7727 13.3824 28.7463 13.3302 28.706 13.2954C25.7677 10.784 23.3914 9.75851 20.5013 9.75851C18.9603 9.75851 17.779 10.0775 16.9907 10.7051C16.307 11.248 15.9462 12.0066 15.9462 12.8952C15.9462 15.3857 18.9017 16.5213 22.3261 17.8356L27.588 20.1707C27.619 20.1892 27.6523 20.1974 27.6856 20.1974C27.7086 20.1974 27.7316 20.1916 27.7546 20.1846C27.81 20.1637 27.854 20.1197 27.8752 20.064C28.5156 18.3766 28.8429 16.5847 28.8405 14.7778L28.7796 13.4392L28.7773 13.438ZM109.717 22.4814C110.078 22.4396 110.326 22.1682 110.326 21.8306V15.54C110.326 12.3221 109.944 9.82927 105.921 9.82927C103.61 9.82927 101.817 10.4719 101.6 10.5566C101.3 10.6668 101.111 10.8652 101.193 11.3129L101.439 12.3778C101.52 12.7409 101.764 12.9949 102.145 12.9102C102.798 12.7154 104.21 12.2931 105.651 12.2931C107.228 12.2931 107.716 13.2176 107.662 15.2604C107.662 15.2604 106.44 14.8683 105.134 14.8683C101.899 14.8683 100.106 16.6605 100.106 19.0397C100.106 21.7274 101.762 22.6368 104.126 22.6368L108.869 22.558L109.718 22.4814H109.717ZM107.634 20.1997C107.252 20.8423 105.894 20.6822 104.726 20.6579C103.421 20.6289 102.768 20.1602 102.768 19.0107C102.768 17.6662 103.882 16.8844 105.35 16.8844C106.491 16.8844 107.472 17.222 107.632 17.3322V20.1997H107.634ZM130.24 9.68311C131.031 9.68311 131.671 9.02655 131.671 8.21571C131.671 7.40487 131.031 6.74831 130.24 6.74831C129.45 6.74831 128.81 7.40487 128.81 8.21571C128.81 9.02655 129.45 9.68311 130.24 9.68311ZM130.24 6.96407C130.903 6.96407 131.446 7.52783 131.446 8.21571C131.446 8.90359 130.906 9.46735 130.24 9.46735C129.575 9.46735 129.037 8.90359 129.037 8.21571C129.037 7.52783 129.577 6.96407 130.24 6.96407Z" fill="#179EFF"/>
<path id="Vector_2" d="M129.754 8.95833H129.887C129.908 8.95833 129.926 8.93977 129.926 8.91889V8.37833H130.24L130.51 8.93165C130.518 8.95021 130.531 8.95833 130.554 8.95833H130.708C130.743 8.95833 130.756 8.92353 130.743 8.89801L130.461 8.35745C130.64 8.28321 130.766 8.12313 130.766 7.92825C130.767 7.80786 130.719 7.69232 130.635 7.60719C130.551 7.52207 130.436 7.47438 130.317 7.47469H129.755C129.732 7.47469 129.716 7.49325 129.716 7.51413V8.91889C129.716 8.93977 129.731 8.95833 129.755 8.95833H129.754ZM129.931 7.68001H130.299C130.432 7.68001 130.55 7.79369 130.55 7.93289C130.55 8.08021 130.432 8.19621 130.299 8.19621H129.931V7.68001ZM50.9794 9.68333C49.0776 9.68333 47.7756 10.7563 47.4918 10.9721V5.44005C47.4918 5.14541 47.2057 4.84961 46.9184 4.84961H45.4601C45.1476 4.84961 44.8867 5.14425 44.8867 5.44005V22.0443C44.8873 22.3657 45.1419 22.6278 45.4601 22.6347H46.8931C47.2585 22.6347 47.4918 22.3923 47.4918 22.0443V14.0287C47.7526 13.4939 48.7949 12.2318 50.6415 12.2318C52.2055 12.2318 53.0363 13.4382 53.0363 15.4752V22.0478C53.0369 22.3691 53.2914 22.6313 53.6097 22.6382H55.0679C55.3541 22.6382 55.6414 22.3691 55.6414 22.0478V15.5309C55.6391 12.153 54.39 9.68333 50.9782 9.68333H50.9794ZM81.4748 15.6596C81.3312 11.4512 79.619 9.68333 75.6763 9.68333C73.7826 9.68333 71.5234 10.268 71.1901 10.4188C70.7811 10.6009 70.4788 10.8166 70.4788 11.1113V11.356V12.255V15.1643V15.5599V26.878C70.4794 27.1994 70.734 27.4615 71.0522 27.4684H72.26C72.6518 27.4684 72.8839 27.226 72.8839 26.878L72.8816 22.4224C73.2471 22.5199 75.1178 22.6834 76.6795 22.6336C79.4638 22.5443 81.3323 20.4621 81.4874 16.9473C81.5104 16.4705 81.4748 15.6608 81.4748 15.6608V15.6596ZM78.9594 16.9426C78.9054 19.3276 78.2331 20.382 76.2831 20.4922C75.3178 20.5479 73.0402 20.2706 73.0402 20.2706C72.946 20.2393 72.8816 20.1964 72.8816 20.1071L72.8794 15.2745V12.5334C72.8794 12.4592 72.9334 12.3989 73.0046 12.3908C73.2735 12.3618 74.2583 12.0346 75.6763 12.0346C78.0516 12.0346 78.8881 12.3931 78.9651 15.4891L78.9605 16.9415L78.9594 16.9426ZM98.7254 9.95129H97.6326C97.32 9.95129 96.8776 9.95129 96.7213 10.3283L94.7943 17.4588H94.7426L91.5135 9.97797C91.4618 9.81673 91.278 9.68333 90.9941 9.68333H90.8126C90.577 9.68333 90.3954 9.81789 90.3184 9.97797L87.0607 17.4333H87.009L85.0313 10.3294C84.9796 10.087 84.7188 9.95245 84.5119 9.95245H82.948C82.5308 9.95245 82.3493 10.2738 82.5308 10.6508L86.0472 22.3146C86.0989 22.5013 86.2827 22.6359 86.5413 22.6359H86.6976C86.9584 22.6359 87.1147 22.5013 87.1664 22.3412L90.8643 13.922H90.916L94.5886 22.3412C94.6679 22.5025 94.8494 22.6359 95.108 22.6359H95.2126C95.4734 22.6359 95.7067 22.5013 95.7607 22.3146L99.1966 10.6496C99.3781 10.2726 99.1426 9.95129 98.7254 9.95129ZM117.934 9.83065L117.747 9.83877L117.43 9.83065L115.646 9.88053L113.471 10.0626L112.839 10.1369C112.611 10.1659 112.445 10.2633 112.343 10.3979C112.274 10.4744 112.23 10.5719 112.23 10.6902V10.732V10.9767V11.8757V14.3686V22.042C112.23 22.3633 112.485 22.6255 112.803 22.6324H114.001C114.495 22.6324 114.835 22.5802 114.835 22.042V14.3686V12.6088C114.835 12.5346 114.948 12.443 115.008 12.4035C115.303 12.2214 116.009 12.0903 117.43 12.0903L117.759 12.0961C118.085 12.1274 118.598 12.2307 118.765 12.3281C119.026 12.4627 119.338 12.3803 119.495 12.0335L120.119 10.9825C120.51 10.1554 119.08 9.83413 117.933 9.83413L117.934 9.83065ZM126.177 9.68333C122.558 9.68333 120.189 12.661 120.189 16.1445C120.189 19.6837 122.558 22.6324 126.202 22.6324C128.206 22.6324 129.795 21.8819 130.655 21.1035C131.018 20.7822 130.916 20.5398 130.707 20.273L130.003 19.1478C129.797 18.8265 129.561 18.9053 129.3 19.0956C128.57 19.6303 127.736 20.1419 126.357 20.1419C124.249 20.1419 122.79 18.4262 122.764 16.764H131.071C131.332 16.764 131.59 16.5482 131.619 16.2269C131.649 15.9413 131.666 15.6545 131.671 15.3673C131.671 12.0706 129.304 9.68333 126.179 9.68333H126.177ZM122.896 14.7769C123.078 13.2225 124.224 11.9627 126.125 11.9627C127.896 11.9627 129.043 13.2782 129.093 14.7769H122.895H122.896ZM68.3932 13.5148C68.122 12.7167 67.7405 12.0312 67.2521 11.4616C66.7709 10.8978 66.1726 10.4479 65.4997 10.1438C64.8217 9.83529 63.8599 9.67985 63.0612 9.67985C62.2626 9.67985 61.3031 9.83529 60.6251 10.1438C59.9526 10.4486 59.3544 10.8984 58.8727 11.4616C58.382 12.0312 58.0028 12.7156 57.7316 13.5148C57.4604 14.314 57.3248 15.1956 57.3248 16.1608C57.3248 17.141 57.4604 18.026 57.7316 18.8172C57.979 19.5645 58.3664 20.2568 58.8727 20.8564C59.3539 21.4202 59.9522 21.8701 60.6251 22.1742C61.3031 22.4828 62.2626 22.6359 63.0612 22.6359C63.8599 22.6359 64.8217 22.4828 65.4997 22.1742C66.1722 21.8695 66.7703 21.4197 67.2521 20.8564C67.7584 20.2568 68.1458 19.5645 68.3932 18.8172C68.6644 18.026 68.8 17.141 68.8 16.1608C68.8 15.1968 68.6644 14.314 68.3932 13.5148ZM62.9934 20.5003C60.8205 20.5003 59.7253 18.606 59.7253 16.2686C59.7253 13.9312 60.8182 12.037 62.9934 12.037C65.1687 12.037 66.2616 13.9312 66.2616 16.2686C66.2616 18.606 65.1664 20.5003 62.9934 20.5003Z" fill="#179EFF"/>
</g>
</g>
</g>
<defs>
<clipPath id="clip0_223_672">
<rect width="131" height="29" fill="white" transform="translate(0.670898 0.277832)"/>
</clipPath>
</defs>
</svg>
