<svg width="100" height="41" viewBox="0 0 100 41" fill="none" xmlns="http://www.w3.org/2000/svg">
<g id="spryker_coloured.svg" clip-path="url(#clip0_223_684)">
<g id="Group">
<g id="Group_2">
<path id="Vector" d="M14.553 38.1028L14.2378 38.3208L13.9084 38.5658C13.8125 38.6478 13.7306 38.7427 13.6751 38.8517C13.6205 38.9467 13.6064 39.0557 13.6337 39.1787C13.6337 39.2057 13.6478 39.2197 13.6478 39.2467C13.6478 39.2607 13.662 39.2877 13.662 39.3017C13.6761 39.3157 13.6761 39.3427 13.6892 39.3567C13.7024 39.3707 13.7034 39.3977 13.7165 39.4117L13.5104 39.7387C13.4579 39.8411 13.3935 39.9371 13.3185 40.0247C13.2498 40.1067 13.168 40.1747 13.072 40.2157C12.976 40.2567 12.8528 40.2837 12.7154 40.2837C12.5757 40.2811 12.4372 40.2582 12.3042 40.2157C12.1706 40.1752 12.0418 40.1202 11.9203 40.0517C11.7964 39.9823 11.6772 39.9048 11.5637 39.8197C11.4435 39.7365 11.3291 39.6453 11.2213 39.5467C11.2213 39.5327 11.2213 39.5197 11.2071 39.5057C11.2071 39.4917 11.2071 39.4787 11.193 39.4647C11.193 39.4507 11.193 39.4377 11.1788 39.4237C11.1788 39.4097 11.1647 39.3967 11.1647 39.3827C11.13 39.2826 11.0839 39.1866 11.0273 39.0967C10.9728 39.0147 10.8899 38.9327 10.8212 38.8517L10.5747 38.6478C10.4929 38.5928 10.3969 38.5248 10.301 38.4838V38.5108V38.5378C10.301 38.5518 10.3151 38.5648 10.3151 38.5928C10.3151 38.6068 10.3293 38.6198 10.3293 38.6478C10.3293 38.6618 10.3434 38.6888 10.3434 38.7028C10.3434 38.7168 10.3575 38.7437 10.3575 38.7577C10.4535 39.0307 10.5909 39.2887 10.7556 39.5347C10.9181 39.7643 11.1119 39.9705 11.3314 40.1477C11.5506 40.3247 11.784 40.4747 12.0305 40.5837C12.2769 40.6927 12.5517 40.7607 12.8124 40.7747C13.0743 40.7906 13.3366 40.7486 13.5801 40.6517C13.8135 40.5567 14.0327 40.3927 14.1974 40.1887C14.3752 39.9847 14.4994 39.7257 14.5671 39.4387C14.6402 39.1206 14.645 38.7908 14.5812 38.4708L14.554 38.1028H14.553ZM3.77599 24.7072L3.69417 24.7482L3.61234 24.7892C3.58506 24.8032 3.55779 24.8162 3.53051 24.8442C3.50324 24.8582 3.47596 24.8852 3.44868 24.8992C3.29816 24.9942 3.16077 25.1032 3.02338 25.1992C2.89028 25.3019 2.76656 25.416 2.65365 25.5402C2.53451 25.6734 2.42449 25.8144 2.32432 25.9622C2.20668 26.1414 2.11009 26.3333 2.0364 26.5341C2.29539 26.4931 2.55932 26.4931 2.81831 26.5341C3.09208 26.5751 3.35271 26.6431 3.62749 26.7521C3.90227 26.8611 4.17604 27.0111 4.44981 27.1881C4.72358 27.3651 4.99835 27.5831 5.27212 27.8291L4.17503 24.5862C4.14775 24.6002 4.10633 24.6002 4.07906 24.6132C4.05178 24.6262 4.01036 24.6272 3.98309 24.6402L3.88712 24.6812C3.83257 24.6812 3.80529 24.6952 3.777 24.7082L3.77599 24.7072ZM4.667 24.5302L5.74995 27.6781L8.14921 27.7191C7.91953 27.2471 7.64878 26.7957 7.34003 26.3701C7.08286 26.0094 6.78867 25.676 6.46215 25.3752C6.1601 25.1022 5.85906 24.8982 5.557 24.7482C5.26909 24.6252 4.96704 24.5442 4.66599 24.5302H4.667ZM6.09343 28.6731C6.48793 29.1432 6.84974 29.6394 7.17638 30.158C7.55245 30.757 7.89575 31.3755 8.20477 32.011L9.1372 34.2049L9.93224 36.7128L9.94638 35.5408L9.87769 34.3279L9.7403 33.0879L9.52108 31.834L9.32914 31.003L9.10993 30.213L8.87657 29.463L8.61593 28.7681L6.09343 28.6731ZM0.650391 5.46582L0.88375 7.42776L1.17166 9.44469L1.50099 11.5026L1.88487 13.6016L2.46069 16.2995L3.09107 18.8884L3.777 21.3413L4.50335 23.6582L4.83268 23.6312C4.94279 23.6312 5.0519 23.6452 5.16201 23.6582C5.27473 23.6723 5.38532 23.6998 5.49134 23.7402L5.82067 23.8762L5.08018 22.0503L4.36697 20.1283L3.69518 18.1254L3.05066 16.0405L2.29704 13.2876L1.65252 10.6027L1.11812 7.98574C0.911026 7.12877 0.773637 6.28379 0.650391 5.46582ZM22.0659 18.9294L21.6406 19.0114L21.2153 19.1064L20.8042 19.2154L20.393 19.3514L19.9404 23.3582C20.384 22.8514 20.8601 22.3735 21.3658 21.9273L22.8741 20.7143C23.3765 20.352 23.9033 20.0243 24.451 19.7334C24.9799 19.4488 25.5246 19.194 26.0825 18.9704C25.7532 18.8754 25.4522 18.8064 25.137 18.7664C24.8233 18.7278 24.5075 18.7094 24.1914 18.7114C23.8762 18.7114 23.5469 18.7384 23.2044 18.7794L22.1215 18.9294H22.1073H22.0932H22.0791H22.0659ZM18.6241 25.0072L12.7841 27.8961C12.6991 28.2187 12.6349 28.5464 12.5921 28.8771L12.4689 29.885C12.4393 30.2248 12.4302 30.5661 12.4416 30.907C12.4462 31.2529 12.4644 31.5985 12.4962 31.943C12.5507 32.4609 12.6336 32.9649 12.7568 33.4559C12.8761 33.9375 13.0273 34.4109 13.2094 34.8729C13.3872 35.3359 13.6074 35.7718 13.8397 36.1808C14.0775 36.5889 14.3432 36.9805 14.6348 37.3528C14.6587 36.165 14.7732 34.9807 14.9773 33.8099C15.1833 32.6789 15.4571 31.589 15.8137 30.539C16.151 29.5269 16.5681 28.5425 17.0613 27.5951C17.5135 26.6933 18.036 25.8287 18.6241 25.0072Z" fill="#070707"/>
<path id="Vector_2" opacity="0.7" d="M16.8565 0.777832L17.3364 3.02676L17.6243 5.46568L17.7889 8.12259L17.8576 11.0115C17.899 13.3284 17.7202 15.1954 17.4192 16.7483C17.1595 18.1062 16.7359 19.4283 16.1574 20.6862C15.6503 21.7762 15.1018 22.6621 14.6078 23.4931C14.1006 24.3521 13.6622 25.142 13.3874 26.082C13.3733 26.109 13.3733 26.123 13.3601 26.15C13.347 26.177 13.3329 26.191 13.3329 26.218C13.3187 26.245 13.3187 26.273 13.3056 26.286C13.2915 26.313 13.2915 26.341 13.2783 26.354L18.8032 23.7101L19.3649 18.7633L19.4608 14.5664L19.2547 11.0235L18.8567 8.0796L18.4728 6.10366L18.0071 4.22272L17.4727 2.45078L16.8565 0.777832Z" fill="#070707"/>
<path id="Vector_3" d="M39.8209 31.5478C36.0508 31.5478 34.3506 29.6669 34.3506 27.228L34.5425 27.037H36.8044L36.9963 27.228C36.9963 28.5359 37.75 29.2859 40.0128 29.2859C41.713 29.2859 42.6586 28.7269 42.6586 27.596C42.6586 26.288 41.905 25.906 39.2582 25.538C36.6114 25.17 34.5415 24.2301 34.5415 21.6002C34.5415 19.7192 36.0498 18.0303 39.6421 18.0303C43.2344 18.0303 44.7427 19.7202 44.7427 21.9681L44.5507 22.1591H42.2889L42.0969 21.9681C42.0969 20.8372 41.5352 20.2782 39.4512 20.2782C37.751 20.2782 37.1893 20.8372 37.1893 21.5862C37.1893 22.7171 37.9429 23.0851 40.5897 23.4671C43.2364 23.8491 45.3064 24.966 45.3064 27.596C45.2922 29.6809 43.785 31.5478 39.8219 31.5478H39.8209ZM51.7071 31.5478C50.0069 31.5478 49.2533 30.6079 49.2533 30.6079H49.0613V34.9277L48.8694 35.1187H46.6075L46.4156 34.9277V22.1731L46.6075 21.9821H48.6774L48.8694 22.1731L49.0613 22.7321H49.2533C49.2533 22.7321 50.0069 21.7922 51.7071 21.7922C53.969 21.7922 55.8611 23.6731 55.8611 26.671C55.8611 29.6689 53.969 31.5498 51.7071 31.5498V31.5478ZM51.1454 24.0531C49.6372 24.0531 49.0755 25.184 49.0755 26.683C49.0755 28.1819 49.6372 29.3129 51.1454 29.3129C52.6537 29.3129 53.2153 28.1819 53.2153 26.683C53.2153 25.17 52.6537 24.0531 51.1454 24.0531Z" fill="#070707"/>
<path id="Vector_4" d="M63.031 24.2439H61.7147C60.2065 24.2439 59.6448 24.9939 59.6448 26.6828V31.1797L59.4528 31.3707H57.191L56.999 31.1797V22.172L57.191 21.981H59.2609L59.4528 22.172L59.6448 22.7309H59.8367C59.8367 22.7309 60.2206 21.981 61.9066 21.981H63.0441L63.2361 22.172V24.0529L63.03 24.2439H63.031Z" fill="#070707"/>
<path id="Vector_5" d="M70.0095 31.5479C69.2558 33.4289 68.5012 34.5458 65.8555 34.5458H64.9099L64.718 34.3549V32.4739L64.9099 32.2829H65.8555C66.801 32.2829 66.993 32.0919 67.1718 31.5329V31.342L64.1553 24.0242V22.1432L64.3472 21.9523H66.0474L66.2393 22.1432L68.5012 28.521H68.6932L70.955 22.1432L71.147 21.9523H72.8472L73.0391 22.1432V24.0242L70.0095 31.5469V31.5479ZM82.2805 31.371H81.143L80.7592 31.18L78.1265 28.359H77.9346L76.7971 29.49L76.6052 29.872V31.18L76.4132 31.371H74.1513L73.9594 31.18V18.4254L74.1513 18.2344H76.4274L76.6193 18.4254V25.9341H76.8112L80.5814 22.1862L80.9652 21.9953H82.1027L82.2947 22.1862V24.0672L80.0328 26.3161V26.5071L82.4866 29.314V31.195L82.2805 31.371ZM92.0837 27.4331L91.8917 27.6241H86.0375L85.8456 27.8151C85.8456 28.1971 86.2295 29.314 87.7377 29.314C88.2994 29.314 88.8752 29.123 89.054 28.755L89.246 28.564H91.5078L91.6998 28.755C91.5078 29.886 90.5623 31.5619 87.7377 31.5619C84.5293 31.5619 83.021 29.313 83.021 26.6831C83.021 24.0532 84.5293 21.8043 87.5458 21.8043C90.5623 21.8043 92.0705 24.0532 92.0705 26.6831V27.4331H92.0847H92.0837ZM89.2591 25.5521C89.2591 25.3611 89.0672 24.0532 87.5589 24.0532C86.0507 24.0532 85.8587 25.3611 85.8587 25.5521L86.0507 25.7431H89.0672L89.2591 25.5521Z" fill="#070707"/>
<g id="Group_3">
<path id="Vector_6" d="M99.4451 24.2439H98.1288C96.6205 24.2439 96.0588 24.9939 96.0588 26.6828V31.1797L95.8669 31.3707H93.605L93.4131 31.1797V22.172L93.605 21.981H95.675L95.8669 22.172L96.0588 22.7309H96.2508C96.2508 22.7309 96.6347 21.981 98.3207 21.981H99.4582L99.6501 22.172V24.0529L99.4441 24.2439H99.4451Z" fill="#070707"/>
</g>
</g>
</g>
</g>
<defs>
<clipPath id="clip0_223_684">
<rect width="99" height="40" fill="white" transform="translate(0.650391 0.777832)"/>
</clipPath>
</defs>
</svg>
