<svg width="156" height="34" viewBox="0 0 156 34" fill="none" xmlns="http://www.w3.org/2000/svg">
<g id="twilio%20segment_coloured.svg" clip-path="url(#clip0_223_640)">
<g id="Group">
<g id="Group_2">
<g id="Group_3">
<path id="Vector" d="M12.8811 11.1787H30.2145C30.5455 11.1787 30.8163 11.4468 30.8163 11.7744V13.7699C30.8163 14.0975 30.5455 14.3655 30.2145 14.3655H12.8811C12.5501 14.3655 12.2793 14.0975 12.2793 13.7699V11.7744C12.2793 11.4468 12.5501 11.1787 12.8811 11.1787Z" fill="#25C365"/>
<path id="Vector_2" d="M1.4163 19.1309H18.7195C19.0506 19.1309 19.3214 19.3989 19.3214 19.7265V21.722C19.3214 22.0496 19.0506 22.3177 18.7195 22.3177H1.4163C1.08529 22.3177 0.814453 22.0496 0.814453 21.722V19.7265C0.844546 19.3989 1.08529 19.1309 1.4163 19.1309Z" fill="#25C365"/>
<path id="Vector_3" d="M3.0411 13.3529C3.37212 13.4423 3.67304 13.2636 3.76332 12.936C5.74943 6.77079 12.1592 3.13722 18.5388 4.53704C18.8397 4.5966 19.1406 4.4179 19.2309 4.12007L19.7425 2.18415C19.8328 1.85653 19.6221 1.52892 19.3212 1.46935H19.2911C11.2263 -0.317655 3.13138 4.29877 0.663785 12.1318C0.573507 12.4594 0.754063 12.787 1.08508 12.8764L3.0411 13.3529Z" fill="#25C365"/>
<path id="Vector_4" d="M28.5897 20.1137C28.2586 20.0244 27.9577 20.2031 27.8674 20.5307C25.8813 26.6959 19.4716 30.3294 13.092 28.9594C12.7911 28.8998 12.4901 29.0785 12.3998 29.3764L11.8883 31.2825C11.798 31.6101 12.0086 31.9377 12.3096 31.9973H12.3397C20.4045 33.7843 28.4994 29.1381 30.967 21.3349C31.0573 21.037 30.8767 20.7094 30.5758 20.5903H30.5457L28.5897 20.1137Z" fill="#25C365"/>
<path id="Vector_5" d="M24.9786 4.20947C25.959 4.20947 26.754 4.99635 26.754 5.96669C26.754 6.93704 25.959 7.72391 24.9786 7.72391C23.9982 7.72391 23.2031 6.93704 23.2031 5.96669C23.2031 4.99635 23.9982 4.20947 24.9786 4.20947Z" fill="#25C365"/>
<path id="Vector_6" d="M6.65242 25.7727C7.63283 25.7727 8.42788 26.5596 8.42788 27.5299C8.42788 28.5003 7.63283 29.2871 6.65242 29.2871C5.672 29.2871 4.87695 28.5003 4.87695 27.5299C4.87695 26.5596 5.672 25.7727 6.65242 25.7727Z" fill="#25C365"/>
</g>
<g id="Group_4">
<path id="Vector_7" d="M121.425 11.2383C125.788 11.2978 128.497 14.3059 128.497 19.1309C128.497 19.3989 128.497 19.6372 128.466 19.9052C128.436 20.1435 128.226 20.3222 127.985 20.3222H117.603C117.663 22.4666 119.469 24.194 121.635 24.1643C123.321 24.2834 124.855 23.2112 125.337 21.6029C125.427 21.3646 125.698 21.2455 125.939 21.305L128.015 22.0198C128.135 22.0496 128.226 22.139 128.286 22.2581C128.346 22.3772 128.346 22.4964 128.316 22.6155C127.353 25.4449 124.645 27.2915 121.635 27.2022C119.679 27.2319 117.784 26.4576 116.369 25.0875C114.834 23.509 114.022 21.3646 114.112 19.1904C114.112 14.1868 117.784 11.2085 121.304 11.2383H121.425ZM121.334 14.3059C119.499 14.2762 117.934 15.6462 117.723 17.463H125.006C124.825 15.4973 123.441 14.3059 121.334 14.3059Z" fill="#121C2D"/>
<path id="Vector_8" d="M62.5944 11.2383C67.0481 11.2383 69.7866 14.2464 69.7866 19.1309C69.7866 19.3989 69.7866 19.6372 69.7565 19.9052C69.7264 20.1435 69.5157 20.3222 69.275 20.3222H58.893C58.9532 22.4964 60.7588 24.1941 62.9555 24.1643C64.6407 24.2834 66.1754 23.2112 66.6569 21.6029C66.7472 21.3646 67.018 21.2455 67.2588 21.3051L69.3352 22.0199C69.4555 22.0497 69.5458 22.139 69.606 22.2581C69.6662 22.3773 69.6662 22.4964 69.606 22.6155C68.643 25.445 65.9347 27.2915 62.9254 27.2022C60.9393 27.232 59.0435 26.4576 57.6592 25.0876C56.1245 23.509 55.312 21.3646 55.4023 19.1904C55.4324 14.1868 59.0736 11.2383 62.5944 11.2383ZM62.6245 14.306C60.7889 14.2762 59.2241 15.6462 59.0134 17.463H66.2657C66.0852 15.4973 64.7009 14.306 62.6245 14.306Z" fill="#121C2D"/>
<path id="Vector_9" d="M79.0249 11.4171C80.8906 11.4171 82.3351 11.9829 83.2378 13.0849V12.1914C83.2378 11.9234 83.4485 11.7149 83.7193 11.7149H86.1568C86.4277 11.7447 86.6383 11.9234 86.6383 12.1914V25.6237C86.7286 27.5299 86.1267 29.3764 84.9531 30.8954C83.6291 32.4739 81.6429 33.2781 78.9948 33.2781C75.3536 33.2781 72.4647 30.9847 71.9832 27.7384C71.9531 27.5001 72.1036 27.2618 72.3443 27.2023L74.7216 26.6364H74.7517C75.0226 26.6066 75.2633 26.7853 75.2934 27.0236C75.504 28.8403 77.099 30.2104 78.9647 30.1806C81.8235 30.1806 83.1476 28.7212 83.1476 25.7131V24.5515C82.0943 25.7131 80.5596 26.3683 78.9647 26.3088C74.9022 26.3088 71.9531 23.1815 71.9531 18.8927C71.9531 16.927 72.6453 15.0506 73.9392 13.5912C75.2332 12.1914 77.099 11.3873 79.0249 11.4171ZM79.4161 14.4252C77.0087 14.4252 75.474 16.1228 75.474 18.8331C75.474 21.5732 76.9786 23.2411 79.4161 23.2411C81.7332 23.2411 83.298 21.4541 83.298 18.8331C83.298 16.2122 81.7332 14.4252 79.4161 14.4252Z" fill="#121C2D"/>
<path id="Vector_10" d="M138.879 11.2384C140.474 11.1788 141.979 11.834 143.032 13.0254C143.995 14.2763 144.476 15.7952 144.386 17.344V26.4577C144.386 26.7257 144.176 26.9342 143.905 26.9342H141.437C141.166 26.9044 140.956 26.7257 140.956 26.4577V17.8205C140.956 15.5569 139.872 14.3954 137.826 14.3954C136.923 14.3656 136.051 14.7528 135.509 15.4676C134.967 16.242 134.666 17.195 134.726 18.1481V26.4577C134.726 26.7257 134.516 26.9342 134.245 26.9342H131.777C131.507 26.9044 131.326 26.7257 131.296 26.4577V12.1319C131.296 11.8638 131.507 11.6553 131.777 11.6553H134.185C134.456 11.6851 134.636 11.8638 134.666 12.1319V13.1445C135.689 11.8936 137.254 11.1788 138.879 11.2384Z" fill="#121C2D"/>
<path id="Vector_11" d="M101.624 13.6804C102.677 12.0721 104.543 11.1191 106.499 11.2084C109.147 11.2084 111.826 13.055 111.826 17.1055V26.4575C111.826 26.7256 111.615 26.934 111.344 26.934H108.907C108.636 26.9043 108.455 26.7256 108.425 26.4575V17.4034C108.425 16.2716 108.064 14.3357 105.627 14.3357C103.851 14.3357 102.557 15.7355 102.557 17.7608V26.4575C102.557 26.7256 102.346 26.934 102.076 26.934H99.608C99.3372 26.9043 99.1266 26.7256 99.1266 26.4575V17.4034C99.1266 16.2716 98.7654 14.3357 96.3279 14.3357C94.4622 14.3357 93.1983 15.7057 93.1983 17.7905V26.4575C93.1983 26.7256 92.9877 26.934 92.7168 26.934H90.2793C90.0085 26.9043 89.8279 26.6958 89.7979 26.4575V12.1317C89.7979 11.8636 90.0085 11.6552 90.2793 11.6552H92.6266C92.8974 11.6849 93.0779 11.8636 93.108 12.1317V12.9954C94.1613 11.8339 95.6659 11.2084 97.2307 11.2382C99.0363 11.1786 100.721 12.1317 101.624 13.6804Z" fill="#121C2D"/>
<path id="Vector_12" d="M151.999 7.00903C152.27 7.03882 152.481 7.2473 152.481 7.51535V11.6552H155.159C155.43 11.685 155.641 11.8935 155.641 12.1616V14.3655C155.641 14.6336 155.43 14.8421 155.159 14.8421H152.481V22.1986C152.481 23.4197 152.962 23.926 154.226 23.926C154.527 23.926 154.798 23.8962 155.069 23.8664C155.219 23.8367 155.34 23.8962 155.46 23.9856C155.55 24.0749 155.611 24.2238 155.611 24.343V26.4278C155.611 26.6363 155.46 26.815 155.28 26.8746C154.678 27.0533 154.046 27.1128 153.384 27.1128C150.705 27.1128 149.02 25.4152 149.02 22.6453V14.8718H146.703C146.432 14.8421 146.222 14.6634 146.222 14.3953V12.1913C146.222 11.9233 146.432 11.7148 146.703 11.685H147.305C148.027 11.685 149.261 11.4468 149.261 9.71932V7.51535C149.261 7.2473 149.472 7.03882 149.743 7.00903H151.999Z" fill="#121C2D"/>
<path id="Vector_13" d="M46.8858 11.2383C48.8719 11.2383 50.4969 11.7148 51.7006 12.6679C52.5131 13.2933 53.1149 14.1571 53.4158 15.1399C53.4459 15.3186 53.3557 15.4973 53.1751 15.5271L50.7075 16.3312C50.5871 16.361 50.4668 16.361 50.3765 16.3312C50.2862 16.3015 50.226 16.2121 50.1959 16.093C49.9853 15.2888 49.2631 13.9784 46.9158 13.9784C45.2908 13.9784 44.2978 14.9016 44.2978 15.7951C44.2978 16.3908 44.5987 17.1652 46.0733 17.4332L48.7816 17.9395C51.8209 18.5352 53.5663 20.2031 53.5663 22.4964V22.4666C53.5663 24.7302 51.3395 27.1724 47.2469 27.1724C42.4922 27.1724 40.5964 24.4919 40.2654 22.9134C40.2353 22.7347 40.3557 22.5858 40.5061 22.5262L43.064 21.7518H43.2145C43.2746 21.7518 43.3649 21.7816 43.4251 21.8114C43.5154 21.8412 43.5756 21.9305 43.6057 22.0497C43.9367 23.5686 45.3209 24.4621 47.307 24.4621C49.1728 24.4621 50.0154 23.509 50.0154 22.6453C50.0154 21.7816 49.2631 21.1264 47.9691 20.8881L45.1103 20.352C42.4321 19.8457 40.777 18.2076 40.777 16.0632C40.7168 13.4125 43.5455 11.2383 46.8858 11.2383Z" fill="#121C2D"/>
</g>
<g id="Group_5">
<path id="Vector_14" d="M44.3279 1.52898V6.35389H42.9437V1.52898H41.0479V0.367432H46.2539V1.52898H44.3279Z" fill="#121C2D"/>
<path id="Vector_15" d="M54.8605 6.38368H53.4161L52.092 1.97573L50.7679 6.38368H49.3536L47.5781 0.367432H49.0527L50.1661 4.68602L51.43 0.367432H52.9045L54.1684 4.68602L55.2517 0.367432H56.6059L54.8605 6.38368Z" fill="#121C2D"/>
<path id="Vector_16" d="M58.502 6.35389H59.8561V0.367432H58.502V6.35389Z" fill="#121C2D"/>
<path id="Vector_17" d="M62.3232 6.35389V0.367432H63.7075V5.16256H66.0547V6.35389H62.3232Z" fill="#121C2D"/>
<path id="Vector_18" d="M68.1016 6.35389H69.4557V0.367432H68.1016V6.35389Z" fill="#121C2D"/>
<path id="Vector_19" d="M74.5708 1.35028C73.5175 1.35028 72.9157 2.214 72.9157 3.34577C72.9157 4.50732 73.5476 5.34125 74.5708 5.34125C75.5939 5.34125 76.1958 4.47753 76.1958 3.34577C76.1958 2.214 75.5939 1.35028 74.5708 1.35028ZM74.5708 6.47302C72.8856 6.47302 71.5615 5.28169 71.5615 3.37555C71.5615 1.46941 72.9157 0.278076 74.5708 0.278076C76.2259 0.278076 77.58 1.46941 77.58 3.37555C77.58 5.28169 76.256 6.47302 74.5708 6.47302Z" fill="#121C2D"/>
</g>
</g>
</g>
</g>
<defs>
<clipPath id="clip0_223_640">
<rect width="155" height="33" fill="white" transform="translate(0.640625 0.278076)"/>
</clipPath>
</defs>
</svg>
