<svg width="18" height="18" viewBox="0 0 18 18" fill="none" xmlns="http://www.w3.org/2000/svg">
<g id="Link &#226;&#134;&#146; SVG">
<g id="Group">
<path id="Vector" d="M8.95216 5.30176C6.72994 5.30176 4.88867 7.11128 4.88867 9.36525C4.88867 11.6192 6.6982 13.4287 8.95216 13.4287C11.2061 13.4287 13.0157 11.5875 13.0157 9.36525C13.0157 7.14303 11.1744 5.30176 8.95216 5.30176ZM8.95216 11.9684C7.52359 11.9684 6.34899 10.7938 6.34899 9.36525C6.34899 7.93668 7.52359 6.76207 8.95216 6.76207C10.3807 6.76207 11.5553 7.93668 11.5553 9.36525C11.5553 10.7938 10.3807 11.9684 8.95216 11.9684Z" fill="#2F2F2F"/>
<path id="Vector_2" d="M13.1745 6.12716C13.683 6.12716 14.0952 5.71498 14.0952 5.20652C14.0952 4.69807 13.683 4.28589 13.1745 4.28589C12.6661 4.28589 12.2539 4.69807 12.2539 5.20652C12.2539 5.71498 12.6661 6.12716 13.1745 6.12716Z" fill="#2F2F2F"/>
<path id="Vector_3" d="M15.5563 2.82551C14.7309 1.96837 13.5563 1.52393 12.2229 1.52393H5.68325C2.92135 1.52393 1.08008 3.3652 1.08008 6.1271V12.635C1.08008 14.0001 1.52452 15.1747 2.41341 16.0319C3.27055 16.8573 4.41341 17.27 5.715 17.27H12.1912C13.5563 17.27 14.6991 16.8255 15.5245 16.0319C16.3817 15.2065 16.8261 14.0319 16.8261 12.6668V6.1271C16.8261 4.79377 16.3817 3.65091 15.5563 2.82551ZM15.3658 12.6668C15.3658 13.6509 15.0801 14.4446 14.5086 14.9842C13.9372 15.5239 13.1436 15.8096 12.1912 15.8096H5.715C4.76262 15.8096 3.96897 15.5239 3.39754 14.9842C2.82611 14.4128 2.5404 13.6192 2.5404 12.635V6.1271C2.5404 5.17472 2.82611 4.38107 3.39754 3.80964C3.93722 3.26996 4.76262 2.98424 5.715 2.98424H12.2547C13.2071 2.98424 14.0007 3.26996 14.5721 3.84139C15.1118 4.41281 15.4293 5.20647 15.4293 6.1271V12.6668H15.3658Z" fill="#2F2F2F"/>
</g>
</g>
</svg>
