<svg width="18" height="18" viewBox="0 0 18 18" fill="none" xmlns="http://www.w3.org/2000/svg">
<g id="SVG">
<path id="Vector" d="M17.1703 4.93694C16.5952 5.19243 15.9766 5.36483 15.3272 5.44218C15.9899 5.0453 16.4986 4.41649 16.7383 3.66678C16.1181 4.03467 15.4317 4.30178 14.7005 4.4458C14.1153 3.82214 13.2813 3.43237 12.3584 3.43237C10.5862 3.43237 9.14944 4.86919 9.14944 6.64134C9.14944 6.8928 9.1778 7.13759 9.23253 7.37245C6.56557 7.23881 4.2009 5.96138 2.61822 4.01978C2.3421 4.49355 2.18382 5.0447 2.18382 5.63303C2.18382 6.74627 2.7503 7.72839 3.61133 8.30402C3.08546 8.28713 2.59044 8.14295 2.15791 7.90248C2.15763 7.91581 2.15763 7.92931 2.15763 7.94312C2.15763 9.4976 3.26376 10.7946 4.73188 11.0896C4.46258 11.1628 4.17905 11.2021 3.88635 11.2021C3.67937 11.2021 3.47846 11.1821 3.2825 11.1445C3.69102 12.4193 4.87606 13.3471 6.28001 13.373C5.18178 14.2337 3.79828 14.7467 2.29466 14.7467C2.03577 14.7467 1.78044 14.7314 1.5293 14.7019C2.94966 15.6125 4.63622 16.1437 6.44835 16.1437C12.3509 16.1437 15.5783 11.2539 15.5783 7.01339C15.5783 6.87448 15.5755 6.73573 15.5693 6.59822C16.1961 6.14585 16.7404 5.58064 17.1703 4.93694Z" fill="#2F2F2F"/>
</g>
</svg>
