<svg width="138" height="81" viewBox="0 0 138 81" fill="none" xmlns="http://www.w3.org/2000/svg">
<g id="aws_coloured.svg" clip-path="url(#clip0_223_125)">
<g id="Group">
<g id="Group_2">
<path id="Vector" d="M38.9279 28.8626C38.8827 30.1687 39.0635 31.4749 39.4251 32.7375C39.8318 33.8259 40.329 34.8708 40.8713 35.8722C41.0521 36.177 41.1877 36.5253 41.1877 36.8736C41.1425 37.396 40.8261 37.9185 40.329 38.1797L37.4817 40.0083C37.1201 40.226 36.7134 40.4001 36.3066 40.4001C35.8095 40.3566 35.3123 40.1389 34.9508 39.7906C34.3632 39.1811 33.7757 38.4845 33.3237 37.7443C32.8718 37.0042 32.4198 36.177 31.9227 35.1756C28.3975 39.1811 23.9684 41.1838 18.6354 41.1838C14.839 41.1838 11.8109 40.1389 9.59638 38.0491C7.38183 35.9593 6.25195 33.1729 6.25195 29.6898C6.25195 25.9891 7.6078 22.985 10.3647 20.721C13.1216 18.4571 16.7824 17.3251 21.4375 17.3251C23.0193 17.3251 24.6463 17.4557 26.2281 17.6734C27.9003 17.8911 29.6178 18.2394 31.4256 18.6312V15.453C31.4256 12.1441 30.7024 9.83658 29.3014 8.48691C27.9004 7.13724 25.4146 6.48417 21.9346 6.48417C20.3076 6.48417 18.6354 6.65832 17.0536 7.05016C15.3813 7.442 13.7543 7.92092 12.1725 8.53045C11.6754 8.74814 11.133 8.92229 10.5907 9.09644C10.3647 9.18352 10.0935 9.22705 9.86755 9.22705C9.23482 9.22705 8.91846 8.79168 8.91846 7.87738V5.74403C8.87326 5.22158 9.00885 4.69912 9.23482 4.22021C9.59638 3.82837 10.0031 3.5236 10.5003 3.30591C12.3081 2.43515 14.2063 1.78209 16.1948 1.34671C18.4998 0.780718 20.8951 0.519491 23.2453 0.519491C28.6235 0.519491 32.5554 1.69501 35.0864 4.04605C37.6173 6.3971 38.8375 9.9672 38.8375 14.7564V28.8626H38.9279ZM20.5788 35.4804C22.1606 35.4804 23.7424 35.2191 25.2338 34.6967C26.9061 34.1307 28.3523 33.1729 29.5274 31.9103C30.2505 31.1266 30.7928 30.1687 31.064 29.1238C31.3804 27.9048 31.5159 26.5986 31.5159 25.3361V23.5075C30.1601 23.2027 28.7591 22.9415 27.358 22.7673C25.957 22.5932 24.5107 22.5061 23.1097 22.5061C20.0816 22.5061 17.8671 23.0721 16.3756 24.2476C14.8842 25.4231 14.1611 27.0776 14.1611 29.2545C14.1611 31.3007 14.7034 32.8246 15.8333 33.8695C16.9632 34.9144 18.4998 35.4804 20.5788 35.4804ZM56.8703 40.1824C56.2828 40.226 55.6501 40.0954 55.1529 39.7471C54.701 39.2682 54.3394 38.7022 54.2038 38.0491L43.583 4.39436C43.357 3.82837 43.2214 3.26237 43.1763 2.65284C43.1311 2.13039 43.4926 1.65147 44.035 1.5644H48.7352C49.5939 1.5644 50.1815 1.69501 50.4978 1.99978C50.8142 2.30454 51.1306 2.87053 51.4017 3.69775L58.9493 32.5198L65.9997 3.69775C66.2257 2.827 66.4969 2.261 66.8584 1.99978C67.4008 1.69501 68.0335 1.52086 68.6662 1.5644H72.2818C73.1405 1.5644 73.7281 1.69501 74.0896 1.99978C74.5416 2.47869 74.8579 3.04468 74.9483 3.69775L82.0891 32.8681L89.9079 3.69775C90.0435 3.04468 90.3598 2.47869 90.8118 1.99978C91.3541 1.69501 91.9416 1.52086 92.5744 1.5644H96.7775C97.3198 1.47732 97.817 1.86916 97.9074 2.39162V2.65284C97.9074 2.87053 97.8622 3.13176 97.817 3.34945C97.7266 3.74129 97.6362 4.08959 97.5006 4.43789L86.6086 38.0926C86.3375 38.9634 86.0211 39.5294 85.6595 39.7906C85.1624 40.0954 84.5297 40.2695 83.9421 40.226H80.0554C79.1967 40.226 78.6091 40.0954 78.2476 39.7906C77.7956 39.3117 77.4792 38.7022 77.3889 38.0491L70.3836 9.9672L63.4236 38.0056C63.3332 38.6586 63.0168 39.2682 62.5649 39.7471C62.0226 40.0954 61.3898 40.226 60.7571 40.1824H56.8703ZM114.946 41.358C112.596 41.358 110.246 41.0967 107.986 40.5743C105.726 40.0518 103.964 39.4858 102.788 38.8328C102.201 38.5715 101.704 38.1362 101.387 37.6137C101.207 37.2219 101.116 36.83 101.116 36.3947V34.1742C101.116 33.2599 101.478 32.8246 102.156 32.8246C102.427 32.8246 102.698 32.8681 102.969 32.9552C103.24 33.0422 103.647 33.2164 104.099 33.3905C105.681 34.0872 107.353 34.5661 109.071 34.9144C110.833 35.2627 112.641 35.4368 114.449 35.4368C117.296 35.4368 119.511 34.9579 121.047 34.0001C122.539 33.1293 123.443 31.562 123.397 29.864C123.443 28.732 122.991 27.6436 122.177 26.8163C121.364 25.9891 119.827 25.249 117.612 24.5524L111.059 22.5932C107.76 21.5918 105.319 20.1115 103.828 18.1523C102.382 16.3237 101.568 14.1468 101.568 11.8393C101.523 10.1413 101.93 8.48691 102.788 7.00663C103.602 5.61342 104.687 4.39436 106.042 3.43652C107.444 2.39162 109.025 1.65147 110.743 1.17256C112.596 0.650104 114.494 0.388877 116.437 0.432415C117.432 0.432415 118.471 0.475953 119.465 0.606566C120.505 0.73718 121.454 0.911331 122.403 1.08548C123.352 1.25963 124.166 1.52086 124.979 1.78209C125.657 1.99978 126.29 2.261 126.877 2.56577C127.42 2.827 127.872 3.1753 128.233 3.65421C128.55 4.08959 128.685 4.56851 128.64 5.09096V7.13724C128.64 8.05153 128.278 8.53045 127.6 8.53045C127.013 8.44337 126.425 8.26922 125.883 8.008C123.171 6.83247 120.189 6.26648 117.206 6.31002C114.63 6.31002 112.596 6.70186 111.195 7.52908C109.794 8.3563 109.071 9.6189 109.071 11.4039C109.025 12.5795 109.522 13.7115 110.426 14.4951C111.33 15.3224 113.003 16.1496 115.398 16.8897L121.816 18.8489C125.07 19.8503 127.42 21.2435 128.821 23.0285C130.222 24.7701 130.945 26.9469 130.9 29.1238C130.945 30.8654 130.538 32.6069 129.725 34.1742C128.911 35.6545 127.781 36.9606 126.425 38.0056C124.934 39.1375 123.217 39.9648 121.409 40.4437C119.33 41.0532 117.16 41.358 114.946 41.358Z" fill="#252F3E"/>
<path id="Vector_2" d="M124.237 63.6177C109.282 74.5984 87.5533 80.4277 68.8706 80.4277C42.6875 80.4277 19.0954 70.8026 1.27639 54.8059C-0.132769 53.5407 1.14002 51.8235 2.82192 52.8177C22.0956 63.934 45.8694 70.6671 70.4615 70.6671C88.1897 70.5767 105.736 67.0068 122.055 60.1834C124.555 59.0536 126.692 61.8101 124.237 63.6177Z" fill="#FE9900"/>
<path id="Vector_3" d="M129.488 57.1558C127.546 54.803 116.638 56.0229 111.693 56.5894C110.214 56.7636 109.982 55.5437 111.323 54.6287C120.012 48.8774 134.295 50.5331 135.959 52.4502C137.623 54.3673 135.496 67.8741 127.361 74.3225C126.114 75.3246 124.912 74.8018 125.466 73.4947C127.315 69.1812 131.429 59.465 129.488 57.1558Z" fill="#FE9900"/>
</g>
</g>
</g>
<defs>
<clipPath id="clip0_223_125">
<rect width="137.143" height="80" fill="white" transform="translate(0.670898 0.427734)"/>
</clipPath>
</defs>
</svg>
