<svg width="142" height="142" viewBox="0 0 142 142" fill="none" xmlns="http://www.w3.org/2000/svg">
<g id="Frame 23">
<rect width="142" height="142" rx="20" fill="url(#paint0_radial_91_287)"/>
<g id="Group">
<g id="Group_2">
<g id="Group_3">
<path id="Vector" d="M52.7388 52.4843V36.2609C52.7388 26.1757 60.9144 18 70.9996 18C81.0849 18 89.2605 26.1757 89.2605 36.2609V52.4843" stroke="white" stroke-width="5.6" stroke-miterlimit="10" stroke-linecap="round"/>
</g>
</g>
<g id="Group_4">
<g id="Group_5">
<path id="Vector_2" d="M104.913 81.913C104.913 100.643 89.7304 115.826 71 115.826C52.2695 115.826 37.0869 100.643 37.0869 81.913C37.0869 63.1826 52.2695 48 71 48C89.7304 48 104.913 63.1826 104.913 81.913Z" stroke="white" stroke-width="5.6" stroke-miterlimit="10"/>
</g>
</g>
<g id="Group_6">
<g id="Group_7" opacity="0.0100037">
<g id="Vector_3">
<mask id="path-4-inside-1_91_287" fill="white">
<path d="M70.9579 83.7887L70.8979 83.7469C70.7544 83.7469 71.0597 83.7365 70.8979 83.7365L70.9788 83.8069C70.9788 83.5435 70.6658 83.8174 70.9292 83.8174L70.8875 83.7574C71.151 83.7574 70.9579 83.5435 70.9579 83.8069L70.9188 83.8382C70.9997 83.8382 71.0388 83.7887 70.9579 83.7887Z"/>
</mask>
<path d="M70.9579 83.7887L70.8979 83.7469C70.7544 83.7469 71.0597 83.7365 70.8979 83.7365L70.9788 83.8069C70.9788 83.5435 70.6658 83.8174 70.9292 83.8174L70.8875 83.7574C71.151 83.7574 70.9579 83.5435 70.9579 83.8069L70.9188 83.8382C70.9997 83.8382 71.0388 83.7887 70.9579 83.7887Z" fill="#6F35A5"/>
<path d="M70.9579 83.7887L69.359 86.0872L70.0798 86.5887H70.9579V83.7887ZM70.8979 83.7469L72.4969 81.4484L71.776 80.9469H70.8979V83.7469ZM70.8979 83.7365V80.9365H63.4199L69.0589 85.8479L70.8979 83.7365ZM70.9788 83.8069L69.1398 85.9184L73.7788 89.9588V83.8069H70.9788ZM70.9292 83.8174V86.6174H76.2879L73.2278 82.2184L70.9292 83.8174ZM70.8875 83.7574V80.9574H65.5288L68.589 85.3563L70.8875 83.7574ZM70.9579 83.8069L72.7071 85.9934L73.7579 85.1527V83.8069H70.9579ZM70.9188 83.8382L69.1696 81.6518L62.9367 86.6382H70.9188V83.8382ZM72.5569 81.4901L72.4969 81.4484L69.299 86.0455L69.359 86.0872L72.5569 81.4901ZM70.8979 80.9469C70.8976 80.9469 70.8987 80.9469 70.901 80.947C70.9032 80.947 70.9076 80.947 70.9137 80.9471C70.9195 80.9472 70.9295 80.9473 70.9423 80.9477C70.9489 80.9478 70.9572 80.9481 70.9668 80.9484C70.9764 80.9488 70.9888 80.9493 71.0033 80.95C71.0175 80.9507 71.0371 80.9518 71.0605 80.9535C71.0724 80.9543 71.0865 80.9554 71.1024 80.9568C71.1181 80.9581 71.1373 80.9599 71.1591 80.9623C71.1806 80.9646 71.2079 80.9678 71.2395 80.9721C71.2555 80.9743 71.2736 80.9769 71.2935 80.98C71.3134 80.9832 71.3362 80.987 71.3614 80.9916C71.3865 80.9961 71.416 81.0019 71.4489 81.009C71.4816 81.016 71.521 81.0251 71.5655 81.0367C71.5832 81.0414 71.6202 81.0516 71.6393 81.0571C71.6604 81.0633 71.7043 81.0768 71.7272 81.0842C71.7525 81.0925 71.8055 81.111 71.8332 81.1211C71.8641 81.1328 71.9289 81.1586 71.9628 81.1729C72.0009 81.1896 72.0812 81.227 72.1233 81.2479C72.171 81.2726 72.2714 81.3286 72.3241 81.3602C72.384 81.398 72.5099 81.4848 72.5753 81.5341C72.6499 81.594 72.8039 81.7322 72.8823 81.811C72.9699 81.907 73.143 82.1271 73.2264 82.2518C73.3137 82.4 73.4673 82.7292 73.5306 82.9099C73.5853 83.1102 73.6498 83.5273 73.6584 83.7417C73.6506 83.9548 73.5892 84.3642 73.5378 84.5586C73.4787 84.7327 73.337 85.0482 73.2575 85.1895C73.1815 85.3089 73.0247 85.5198 72.9458 85.612C72.8748 85.6885 72.7357 85.8232 72.6685 85.882C72.609 85.9311 72.4947 86.0179 72.4403 86.0561C72.3921 86.0884 72.3001 86.1461 72.2566 86.1717C72.2177 86.1937 72.1437 86.2333 72.1086 86.2512C72.077 86.2667 72.0168 86.2949 71.9882 86.3077C71.9623 86.319 71.9127 86.3397 71.8891 86.3491C71.8676 86.3575 71.8263 86.3731 71.8065 86.3803C71.7884 86.3868 71.7535 86.3988 71.7368 86.4044C71.6947 86.4183 71.6573 86.4295 71.6261 86.4384C71.5947 86.4474 71.5665 86.4548 71.5424 86.4609C71.5182 86.4669 71.4963 86.4721 71.4772 86.4764C71.458 86.4808 71.4405 86.4845 71.4251 86.4877C71.4095 86.4909 71.3953 86.4937 71.3825 86.4961C71.3573 86.5009 71.3352 86.5048 71.3174 86.5077C71.2994 86.5107 71.2835 86.5132 71.2701 86.5151C71.2567 86.5171 71.2447 86.5188 71.2344 86.5202C71.2143 86.5229 71.1972 86.5249 71.1846 86.5264C71.1717 86.5279 71.1607 86.5291 71.1521 86.5299C71.1434 86.5308 71.1359 86.5316 71.1299 86.5321C71.1181 86.5333 71.1088 86.534 71.1031 86.5345C71.0972 86.535 71.0926 86.5354 71.09 86.5356C71.0873 86.5358 71.0854 86.5359 71.0848 86.536C71.0841 86.536 71.084 86.536 71.0848 86.536C71.0856 86.5359 71.0868 86.5358 71.0887 86.5357C71.0897 86.5356 71.0907 86.5355 71.0919 86.5355C71.093 86.5354 71.0944 86.5353 71.0958 86.5352C71.101 86.5348 71.1097 86.5342 71.1191 86.5336C71.1241 86.5332 71.13 86.5328 71.1365 86.5323C71.1429 86.5318 71.1508 86.5312 71.1598 86.5305C71.1685 86.5297 71.18 86.5288 71.1933 86.5275C71.2001 86.5269 71.2079 86.5262 71.2166 86.5253C71.2253 86.5244 71.2357 86.5234 71.2474 86.5221C71.259 86.5208 71.2735 86.5191 71.2901 86.5171C71.2986 86.516 71.3081 86.5148 71.3185 86.5134C71.3289 86.5119 71.3409 86.5103 71.3541 86.5083C71.3672 86.5064 71.3826 86.504 71.3998 86.5012C71.4168 86.4984 71.4375 86.4948 71.4608 86.4904C71.4839 86.4861 71.513 86.4803 71.5465 86.473C71.5635 86.4693 71.5827 86.4649 71.6037 86.4598C71.6246 86.4547 71.6486 86.4487 71.675 86.4416C71.7014 86.4345 71.7322 86.4257 71.7664 86.4152C71.8005 86.4048 71.8413 86.3916 71.8872 86.3752C71.9054 86.3686 71.9433 86.3545 71.9631 86.3469C71.9846 86.3384 72.0294 86.3201 72.0528 86.3101C72.0785 86.2989 72.1321 86.2745 72.1602 86.2612C72.1911 86.2461 72.256 86.2129 72.2899 86.1946C72.3276 86.1736 72.4068 86.127 72.4483 86.1011C72.4946 86.0711 72.5917 86.0036 72.6424 85.9659C72.6992 85.9216 72.8175 85.8211 72.8786 85.7646C72.9466 85.6974 73.0855 85.5448 73.1553 85.4588C73.2311 85.3568 73.3779 85.1268 73.4469 84.9983C73.5163 84.8498 73.6337 84.525 73.6791 84.3492C73.7148 84.1586 73.7465 83.7652 73.7412 83.5643C73.7219 83.3665 73.6437 82.9858 73.5865 82.8044C73.5232 82.6417 73.3755 82.3447 73.2934 82.2105C73.2153 82.0967 73.0541 81.8942 72.9726 81.8051C72.8992 81.7309 72.7548 81.5999 72.6846 81.5424C72.6224 81.4946 72.5024 81.4098 72.445 81.3724C72.3942 81.341 72.2968 81.2848 72.2504 81.2598C72.2092 81.2385 72.1302 81.2002 72.0927 81.183C72.059 81.1682 71.9946 81.1412 71.9638 81.129C71.9361 81.1184 71.8829 81.0989 71.8574 81.09C71.8343 81.0821 71.7898 81.0677 71.7685 81.061C71.749 81.0551 71.7114 81.0442 71.6933 81.0391C71.6478 81.0265 71.6074 81.0165 71.5736 81.0088C71.5396 81.0009 71.5091 80.9946 71.4829 80.9895C71.4567 80.9844 71.4329 80.9801 71.4121 80.9766C71.3912 80.9731 71.3722 80.9701 71.3553 80.9676C71.3384 80.9651 71.3228 80.9629 71.3088 80.9611C71.2811 80.9575 71.2569 80.9547 71.2372 80.9527C71.2173 80.9506 71.1996 80.9489 71.1846 80.9476C71.1696 80.9463 71.1561 80.9453 71.1444 80.9444C71.1213 80.9428 71.1015 80.9416 71.0864 80.9408C71.0709 80.94 71.0573 80.9395 71.0462 80.939C71.0349 80.9386 71.0248 80.9383 71.0161 80.938C71.0074 80.9378 70.9993 80.9376 70.9922 80.9374C70.9782 80.9371 70.9656 80.9369 70.955 80.9368C70.9443 80.9367 70.9342 80.9366 70.925 80.9366C70.9157 80.9365 70.9067 80.9365 70.8979 80.9365V86.5365C70.8993 86.5365 70.8994 86.5365 70.8985 86.5365C70.8976 86.5365 70.895 86.5365 70.891 86.5364C70.8871 86.5364 70.8804 86.5363 70.8715 86.5361C70.8669 86.536 70.8613 86.5359 70.8548 86.5357C70.8483 86.5355 70.8402 86.5352 70.8308 86.5349C70.8215 86.5345 70.8096 86.534 70.7956 86.5333C70.782 86.5326 70.7636 86.5315 70.7417 86.5299C70.7306 86.5291 70.7176 86.5281 70.7031 86.5269C70.6887 86.5256 70.6715 86.524 70.652 86.522C70.6327 86.52 70.6089 86.5173 70.5816 86.5137C70.5678 86.5119 70.5524 86.5098 70.5356 86.5073C70.5189 86.5048 70.5 86.5018 70.4793 86.4983C70.4587 86.4949 70.435 86.4906 70.4089 86.4855C70.3829 86.4804 70.3524 86.4741 70.3186 86.4663C70.2849 86.4586 70.2446 86.4486 70.1992 86.4361C70.1811 86.431 70.1436 86.4201 70.1241 86.4142C70.1028 86.4075 70.0584 86.3931 70.0353 86.3853C70.0099 86.3764 69.9567 86.3569 69.929 86.3463C69.8983 86.3341 69.8339 86.3071 69.8003 86.2923C69.7627 86.2751 69.6838 86.2368 69.6426 86.2156C69.5963 86.1906 69.4989 86.1344 69.4481 86.103C69.3907 86.0657 69.2707 85.9808 69.2086 85.933C69.1384 85.8756 68.994 85.7445 68.9205 85.6704C68.8391 85.5813 68.6779 85.3788 68.5998 85.265C68.5178 85.1309 68.3701 84.8339 68.3068 84.6711C68.2495 84.4898 68.1714 84.1091 68.152 83.9113C68.1468 83.7104 68.1784 83.317 68.2142 83.1264C68.2596 82.9506 68.3769 82.6259 68.4464 82.4774C68.5154 82.3489 68.6621 82.1189 68.7379 82.0169C68.8077 81.9309 68.9466 81.7783 69.0146 81.7112C69.0756 81.6547 69.1939 81.5543 69.2507 81.5099C69.3014 81.4722 69.3985 81.4048 69.4448 81.3747C69.4862 81.3489 69.5654 81.3023 69.6031 81.2813C69.637 81.263 69.7019 81.2298 69.7327 81.2147C69.7607 81.2014 69.8144 81.177 69.8399 81.1659C69.8633 81.156 69.9082 81.1376 69.9296 81.1292C69.9493 81.1216 69.9872 81.1074 70.0053 81.1009C70.0512 81.0845 70.0919 81.0713 70.1258 81.0609C70.16 81.0505 70.1907 81.0418 70.2169 81.0347C70.2433 81.0276 70.2672 81.0216 70.2879 81.0166C70.3088 81.0115 70.3278 81.0072 70.3447 81.0035C70.3779 80.9962 70.4067 80.9905 70.4294 80.9862C70.4525 80.9819 70.4727 80.9784 70.4894 80.9757C70.5062 80.9729 70.5212 80.9706 70.5339 80.9687C70.5466 80.9668 70.5581 80.9652 70.568 80.9639C70.5779 80.9625 70.5869 80.9614 70.5948 80.9604C70.6104 80.9584 70.6237 80.9569 70.634 80.9558C70.6444 80.9546 70.6535 80.9537 70.6607 80.953C70.668 80.9522 70.6743 80.9516 70.6795 80.9512C70.6896 80.9502 70.6976 80.9496 70.7026 80.9492C70.7078 80.9487 70.7117 80.9484 70.714 80.9482C70.7164 80.9481 70.7179 80.948 70.7184 80.9479C70.7189 80.9479 70.7181 80.9479 70.7138 80.9482C70.7128 80.9483 70.7118 80.9484 70.7105 80.9485C70.7093 80.9485 70.708 80.9486 70.7065 80.9487C70.7037 80.9489 70.7002 80.9492 70.6964 80.9494C70.6925 80.9497 70.6879 80.95 70.6829 80.9504C70.6779 80.9508 70.6718 80.9512 70.6651 80.9517C70.6584 80.9522 70.65 80.9529 70.6405 80.9537C70.6313 80.9544 70.6187 80.9555 70.604 80.9569C70.5965 80.9576 70.5875 80.9585 70.5775 80.9595C70.5676 80.9605 70.5553 80.9618 70.5413 80.9635C70.5276 80.9651 70.5095 80.9672 70.4884 80.9701C70.4776 80.9715 70.4652 80.9733 70.4513 80.9753C70.4376 80.9773 70.4213 80.9799 70.4029 80.9829C70.3847 80.9859 70.3623 80.9898 70.3368 80.9947C70.3238 80.9971 70.3094 80.9999 70.2937 81.0032C70.2781 81.0064 70.2605 81.0102 70.2412 81.0145C70.222 81.0189 70.1999 81.0241 70.1756 81.0302C70.1514 81.0363 70.1231 81.0438 70.0916 81.0527C70.0603 81.0617 70.0228 81.0729 69.9806 81.0869C69.9639 81.0925 69.929 81.1045 69.9108 81.111C69.891 81.1182 69.8497 81.1338 69.8281 81.1422C69.8044 81.1517 69.7548 81.1724 69.7289 81.1837C69.7003 81.1965 69.64 81.2247 69.6084 81.2402C69.5733 81.2581 69.4992 81.2978 69.4604 81.3198C69.4168 81.3454 69.3248 81.4031 69.2766 81.4354C69.2222 81.4736 69.1079 81.5604 69.0483 81.6095C68.9811 81.6683 68.842 81.803 68.771 81.8796C68.692 81.9718 68.5353 82.1827 68.4593 82.3021C68.3797 82.4434 68.238 82.759 68.1789 82.933C68.1275 83.1275 68.0662 83.5369 68.0584 83.75C68.0669 83.9644 68.1315 84.3815 68.1861 84.5819C68.2495 84.7626 68.4031 85.0918 68.4903 85.24C68.5738 85.3647 68.7468 85.5848 68.8345 85.6808C68.9129 85.7596 69.0669 85.8978 69.1415 85.9577C69.2069 86.007 69.3328 86.0938 69.3928 86.1317C69.4454 86.1633 69.546 86.2193 69.5936 86.244C69.6358 86.2649 69.7161 86.3023 69.7542 86.319C69.7882 86.3333 69.853 86.3592 69.8839 86.3709C69.9116 86.381 69.9647 86.3995 69.99 86.4079C70.0129 86.4152 70.0569 86.4288 70.078 86.435C70.0972 86.4405 70.1342 86.4507 70.1519 86.4554C70.1965 86.467 70.236 86.4761 70.2688 86.4832C70.3019 86.4903 70.3315 86.4961 70.3567 86.5007C70.3821 86.5053 70.405 86.5091 70.425 86.5123C70.445 86.5154 70.4633 86.5181 70.4795 86.5203C70.5114 86.5247 70.5391 86.5279 70.561 86.5302C70.5832 86.5326 70.6028 86.5345 70.619 86.5359C70.6353 86.5373 70.6499 86.5384 70.6624 86.5393C70.6869 86.541 70.7078 86.5422 70.7234 86.543C70.7394 86.5438 70.7534 86.5444 70.7647 86.5448C70.7761 86.5452 70.7863 86.5455 70.795 86.5457C70.812 86.5462 70.8269 86.5464 70.8384 86.5466C70.8502 86.5467 70.8611 86.5468 70.8706 86.5469C70.8801 86.5469 70.8893 86.5469 70.8979 86.5469V80.9469ZM69.0589 85.8479L69.1398 85.9184L72.8178 81.6955L72.7369 81.6251L69.0589 85.8479ZM73.7788 83.8069C73.7788 83.3684 73.6415 81.8465 72.0846 81.1447C70.7209 80.5301 69.5689 81.1638 69.1274 81.51C68.8438 81.7324 68.5291 82.0655 68.3046 82.5336C68.0803 83.0011 67.8627 83.8072 68.1891 84.7207C68.5288 85.6716 69.2525 86.1703 69.7741 86.3888C70.2604 86.5924 70.6933 86.6174 70.9292 86.6174V81.0174C71.0993 81.0174 71.4844 81.0338 71.9373 81.2234C72.4256 81.428 73.1306 81.9073 73.4626 82.8366C73.7813 83.7286 73.567 84.5109 73.3537 84.9556C73.1401 85.4008 72.844 85.7121 72.583 85.9167C72.1868 86.2274 71.0966 86.842 69.7834 86.2501C68.2769 85.5711 68.1788 84.1138 68.1788 83.8069H73.7788ZM73.2278 82.2184L73.186 82.1584L68.589 85.3563L68.6307 85.4163L73.2278 82.2184ZM70.8875 86.5574C71.2206 86.5574 72.0528 86.5092 72.8117 85.8711C73.6435 85.1717 74.3919 83.5185 73.2658 82.0091C72.7473 81.3141 71.8747 80.8289 70.8665 80.8789C69.872 80.9282 69.1865 81.4656 68.8215 81.9093C68.4652 82.3425 68.3148 82.7838 68.2468 83.0603C68.1744 83.3544 68.1579 83.6145 68.1579 83.8069H73.7579C73.7579 83.9237 73.7664 84.7131 73.1464 85.4667C72.7954 85.8935 72.1249 86.4234 71.1438 86.472C70.1489 86.5214 69.288 86.0423 68.7773 85.3577C67.6665 83.8687 68.4137 82.2526 69.2076 81.585C69.9286 80.9788 70.6862 80.9574 70.8875 80.9574V86.5574ZM69.2088 81.6205L69.1696 81.6518L72.668 86.0247L72.7071 85.9934L69.2088 81.6205ZM70.9188 86.6382C71.2152 86.6382 71.5377 86.5941 71.8653 86.4837C72.0972 86.4054 72.7038 86.1728 73.1967 85.5485C73.4626 85.2117 73.8697 84.5251 73.7933 83.5791C73.7108 82.5567 73.1203 81.8754 72.6356 81.5258C71.8681 80.972 71.0763 80.9887 70.9579 80.9887V86.5887C70.88 86.5887 70.1136 86.6116 69.359 86.0671C68.8808 85.7221 68.2935 85.0463 68.2115 84.0296C68.1356 83.0895 68.5403 82.4091 68.8013 82.0785C69.2844 81.4665 69.8712 81.2463 70.0755 81.1773C70.3755 81.0762 70.6628 81.0382 70.9188 81.0382V86.6382Z" fill="white" mask="url(#path-4-inside-1_91_287)"/>
</g>
</g>
</g>
<g id="Group_8">
<g id="Group_9">
<path id="Vector_4" d="M63.1738 83.2174L68.3912 88.4348L78.826 75.3913" stroke="white" stroke-width="5.6" stroke-linecap="round" stroke-linejoin="round"/>
</g>
</g>
<g id="Group_10">
<g id="Group_11">
<path id="Vector_5" d="M119.192 46.6904C119.192 50.2542 116.303 53.1426 112.739 53.1426C109.175 53.1426 106.287 50.2542 106.287 46.6904C106.287 43.1265 109.175 40.2381 112.739 40.2381C116.303 40.2381 119.192 43.1265 119.192 46.6904Z" fill="#6F35A5" stroke="white" stroke-width="2.8114"/>
</g>
<g id="Group_12">
<path id="Vector_6" d="M101.326 64.9565H112.739V59.7391V49.3044" stroke="white" stroke-width="5.6" stroke-linecap="round" stroke-linejoin="round"/>
</g>
</g>
<g id="Group_13">
<g id="Group_14">
<path id="Vector_7" d="M129.6 81.9131C129.6 85.4625 126.723 88.3392 123.174 88.3392C119.624 88.3392 116.748 85.4625 116.748 81.9131C116.748 78.3637 119.624 75.487 123.174 75.487C126.723 75.487 129.6 78.3637 129.6 81.9131Z" fill="#6F35A5" stroke="white" stroke-width="2.8"/>
</g>
<g id="Group_15">
<path id="Vector_8" d="M105.158 81.9131H123.174" stroke="white" stroke-width="5.6" stroke-miterlimit="10" stroke-linecap="round"/>
</g>
</g>
<g id="Group_16">
<g id="Group_17">
<path id="Vector_9" d="M112.739 109.4C116.289 109.4 119.165 112.277 119.165 115.826C119.165 119.375 116.289 122.252 112.739 122.252C109.19 122.252 106.313 119.375 106.313 115.826C106.313 112.277 109.19 109.4 112.739 109.4Z" fill="#6F35A5" stroke="white" stroke-width="2.8"/>
</g>
<g id="Group_18">
<path id="Vector_10" d="M100.817 98.8696H112.739V104.087V113.217" stroke="white" stroke-width="5.6" stroke-linecap="round" stroke-linejoin="round"/>
</g>
</g>
<g id="Group_19">
<g id="Group_20">
<path id="Vector_11" d="M22.6382 115.827C22.6382 112.169 25.6029 109.204 29.2609 109.204C32.9189 109.204 35.8837 112.169 35.8837 115.827C35.8837 119.485 32.9189 122.449 29.2609 122.449C25.6029 122.449 22.6382 119.485 22.6382 115.827Z" fill="#6F35A5" stroke="white" stroke-width="2.88569"/>
</g>
<g id="Group_21">
<path id="Vector_12" d="M40.6738 98.8695H29.2607V104.087V113.217" stroke="white" stroke-width="5.6" stroke-linecap="round" stroke-linejoin="round"/>
</g>
</g>
<g id="Group_22">
<g id="Group_23">
<path id="Vector_13" d="M18.8261 88.3392C15.2767 88.3392 12.4 85.4625 12.4 81.9131C12.4 78.3637 15.2767 75.487 18.8261 75.487C22.3755 75.487 25.2522 78.3637 25.2522 81.9131C25.2522 85.4625 22.3755 88.3392 18.8261 88.3392Z" fill="#6F35A5" stroke="white" stroke-width="2.8"/>
</g>
<g id="Group_24">
<path id="Vector_14" d="M36.8418 81.9131H18.8262" stroke="white" stroke-width="5.6" stroke-miterlimit="10" stroke-linecap="round"/>
</g>
</g>
<g id="Group_25">
<g id="Group_26">
<path id="Vector_15" d="M29.2611 54.4261C25.7117 54.4261 22.8351 51.5494 22.8351 48C22.8351 44.4506 25.7117 41.5739 29.2611 41.5739C32.8106 41.5739 35.6872 44.4506 35.6872 48C35.6872 51.5494 32.8106 54.4261 29.2611 54.4261Z" fill="#6F35A5" stroke="white" stroke-width="2.8"/>
</g>
<g id="Group_27">
<path id="Vector_16" d="M41.0807 64.9565H29.2607V59.7391V50.6087" stroke="white" stroke-width="5.6" stroke-linecap="round" stroke-linejoin="round"/>
</g>
</g>
</g>
</g>
<defs>
<radialGradient id="paint0_radial_91_287" cx="0" cy="0" r="1" gradientUnits="userSpaceOnUse" gradientTransform="translate(71 71) rotate(90) scale(71)">
<stop stop-color="#EA8279"/>
<stop offset="1" stop-color="#F4C39A"/>
</radialGradient>
</defs>
</svg>
