<svg width="23" height="23" viewBox="0 0 23 23" fill="none" xmlns="http://www.w3.org/2000/svg">
<g id="instagram.svg" clip-path="url(#clip0_38_942)">
<path id="Vector" fill-rule="evenodd" clip-rule="evenodd" d="M22.6599 7.10998C22.6599 3.58898 19.8009 0.72998 16.2799 0.72998H7.03991C3.51891 0.72998 0.659912 3.58898 0.659912 7.10998V16.35C0.659912 19.871 3.51891 22.73 7.03991 22.73H16.2799C19.8009 22.73 22.6599 19.871 22.6599 16.35V7.10998ZM20.6599 7.10998V16.35C20.6599 18.767 18.6969 20.73 16.2799 20.73H7.03991C4.62291 20.73 2.65991 18.767 2.65991 16.35V7.10998C2.65991 4.69298 4.62291 2.72998 7.03991 2.72998H16.2799C18.6969 2.72998 20.6599 4.69298 20.6599 7.10998ZM11.6599 6.22998C14.6959 6.22998 17.1599 8.69398 17.1599 11.73C17.1599 14.766 14.6959 17.23 11.6599 17.23C8.62391 17.23 6.15991 14.766 6.15991 11.73C6.15991 8.69398 8.62391 6.22998 11.6599 6.22998ZM11.6599 8.22998C13.5919 8.22998 15.1599 9.79798 15.1599 11.73C15.1599 13.662 13.5919 15.23 11.6599 15.23C9.72791 15.23 8.15991 13.662 8.15991 11.73C8.15991 9.79798 9.72791 8.22998 11.6599 8.22998ZM17.3969 4.75598C18.0789 4.75598 18.6339 5.31098 18.6339 5.99298C18.6339 6.67598 18.0789 7.22998 17.3969 7.22998C16.7139 7.22998 16.1599 6.67598 16.1599 5.99298C16.1599 5.31098 16.7139 4.75598 17.3969 4.75598Z" fill="#808080"/>
</g>
<defs>
<clipPath id="clip0_38_942">
<rect width="22" height="22" fill="white" transform="translate(0.659912 0.72998)"/>
</clipPath>
</defs>
</svg>
