<svg width="22" height="23" viewBox="0 0 22 23" fill="none" xmlns="http://www.w3.org/2000/svg">
<g id="linkedin.svg" clip-path="url(#clip0_38_934)">
<path id="Vector" d="M4.783 3.60001C4.783 4.91501 3.946 5.99101 2.391 5.99101C0.957 5.99101 0 4.91501 0 3.71901C0 2.40401 0.957 1.20801 2.391 1.20801C3.826 1.20801 4.783 2.28401 4.783 3.60001ZM0 22.73H4.783V7.42601H0V22.73ZM16.739 7.42601C14.228 7.42601 12.793 8.86001 12.196 9.81701H12.076L11.837 7.78401H7.533C7.533 9.10001 7.652 10.654 7.652 12.447V22.73H12.435V14.36C12.435 13.882 12.435 13.404 12.554 13.045C12.913 12.208 13.511 11.132 14.826 11.132C16.5 11.132 17.217 12.567 17.217 14.48V22.73H22V13.882C22 9.45801 19.728 7.42601 16.739 7.42601Z" fill="#808080"/>
</g>
<defs>
<clipPath id="clip0_38_934">
<rect width="22" height="22" fill="white" transform="translate(0 0.72998)"/>
</clipPath>
</defs>
</svg>
