<svg width="23" height="23" viewBox="0 0 23 23" fill="none" xmlns="http://www.w3.org/2000/svg">
<g id="twitter.svg" clip-path="url(#clip0_38_938)">
<path id="Vector" d="M20.0771 8.80498C20.0871 8.99898 20.0911 9.19498 20.0911 9.38898C20.0911 15.355 15.5511 22.233 7.24908 22.233C4.69908 22.233 2.32808 21.485 0.330078 20.204C0.684078 20.245 1.04308 20.267 1.40608 20.267C3.52208 20.267 5.46808 19.545 7.01108 18.336C5.03708 18.299 3.36908 16.996 2.79508 15.202C3.07008 15.254 3.35408 15.281 3.64408 15.281C4.05708 15.281 4.45608 15.227 4.83408 15.124C2.76908 14.708 1.21408 12.885 1.21408 10.697V10.641C1.82208 10.979 2.51908 11.182 3.25808 11.206C2.04708 10.396 1.24908 9.01598 1.24908 7.44798C1.24908 6.62198 1.47208 5.84598 1.86208 5.17898C4.08708 7.91098 7.41408 9.70698 11.1651 9.89598C11.0881 9.56498 11.0491 9.22198 11.0491 8.86598C11.0491 6.37498 13.0681 4.35498 15.5611 4.35498C16.8601 4.35498 18.0331 4.90198 18.8571 5.77898C19.8841 5.57598 20.8501 5.20098 21.7231 4.68398C21.3851 5.73698 20.6691 6.62198 19.7381 7.18098C20.6511 7.07098 21.5191 6.82998 22.3301 6.46998C21.7251 7.37698 20.9601 8.17098 20.0771 8.80498Z" fill="#808080"/>
</g>
<defs>
<clipPath id="clip0_38_938">
<rect width="22" height="22" fill="white" transform="translate(0.330078 0.72998)"/>
</clipPath>
</defs>
</svg>
