<svg width="181" height="48" viewBox="0 0 181 48" fill="none" xmlns="http://www.w3.org/2000/svg">
<g id="Adobe_coloured.svg" clip-path="url(#clip0_223_702)">
<g id="Group">
<g id="Group_2">
<g id="Group_3">
<path id="Vector" d="M20.502 0.227539H0.670898V47.2275L20.502 0.227539Z" fill="#FA0C00"/>
<path id="Vector_2" d="M34.4551 0.227539H54.2603V47.2275L34.4551 0.227539Z" fill="#FA0C00"/>
<path id="Vector_3" d="M27.4784 17.5503L40.1005 47.2278H31.8193L28.0469 37.7791H18.8096L27.4784 17.5503Z" fill="#FA0C00"/>
</g>
<g id="Group_4">
<path id="Vector_4" d="M86.6132 30.1168L88.9516 36.7616C89.0291 36.9281 89.1454 37.0049 89.3521 37.0049H93.848C94.0935 37.0049 94.1322 36.8897 94.0935 36.6464L84.8045 11.0787C84.7657 10.8739 84.727 10.8354 84.5203 10.8354H78.9391C78.7841 10.8354 78.6937 10.9507 78.6937 11.1171C78.6161 12.4614 78.4999 12.8711 78.3319 13.268L70.0507 36.608C70.0119 36.8897 70.1024 37.0049 70.3349 37.0049H74.3528C74.5983 37.0049 74.7145 36.9281 74.805 36.6848L77.0142 30.1168H86.6132ZM78.2932 25.7766C79.5076 22.1405 81.1096 17.4802 81.7556 14.8172H81.7943C82.5953 17.6083 84.4815 23.1392 85.3342 25.7766H78.2932Z" fill="#FA0C00"/>
<path id="Vector_5" d="M106.035 37.4017C108.451 37.4017 111.022 36.9663 113.631 35.8525C113.838 35.7757 113.877 35.686 113.877 35.494C113.799 34.777 113.709 33.74 113.709 32.9462V8.87645C113.709 8.72282 113.709 8.646 113.515 8.646H109.135C108.967 8.646 108.89 8.72282 108.89 8.92766V17.0832C108.205 17.0064 107.727 16.968 107.159 16.968C100.092 16.968 95.751 21.5899 95.751 27.3641C95.751 34.0601 100.208 37.4017 106.035 37.4017ZM108.89 32.9462C108.166 33.1766 107.365 33.2663 106.551 33.2663C103.348 33.2663 100.725 31.4738 100.725 27.1208C100.725 23.2671 103.425 20.9881 107.004 20.9881C107.727 20.9881 108.36 21.065 108.89 21.2698V32.9462Z" fill="#FA0C00"/>
<path id="Vector_6" d="M127.849 16.9678C121.816 16.9678 118.082 21.5513 118.082 27.2102C118.082 32.2674 121.053 37.4014 127.759 37.4014C133.43 37.4014 137.409 33.2661 137.409 27.0822C137.409 21.6281 134.037 16.9678 127.849 16.9678ZM127.604 20.9879C131.014 20.9879 132.461 23.8942 132.461 27.2102C132.461 31.3072 130.33 33.3429 127.849 33.3429C124.787 33.3429 122.978 30.7951 122.978 27.1206C122.978 23.3437 124.903 20.9879 127.604 20.9879Z" fill="#FA0C00"/>
<path id="Vector_7" d="M141.938 8.646C141.77 8.646 141.653 8.72282 141.653 8.92766V36.1726C141.653 36.2878 141.77 36.4926 141.938 36.531C143.863 37.12 145.878 37.4017 147.958 37.4017C153.914 37.4017 159.702 33.74 159.702 26.3654C159.702 21.0265 156.007 16.968 150.219 16.968C148.888 16.968 147.648 17.1728 146.563 17.5313L146.511 8.96607C146.511 8.68441 146.433 8.646 146.149 8.646H141.938ZM154.753 26.8519C154.753 31.269 151.705 33.3431 148.41 33.3431C147.725 33.3431 147.118 33.3047 146.563 33.1382V21.5131C147.196 21.2698 147.958 21.065 149.366 21.065C152.544 21.065 154.753 23.0622 154.753 26.8519Z" fill="#FA0C00"/>
<path id="Vector_8" d="M176.046 28.2857C178.009 28.2857 179.624 28.2473 180.18 28.1192C180.387 28.0808 180.464 28.004 180.503 27.8376C180.619 27.4023 180.671 26.4932 180.671 25.3794C180.671 21.5897 178.371 16.9678 172.428 16.9678C166.356 16.9678 162.984 21.8713 162.984 27.4023C162.984 32.3058 165.594 37.4014 172.906 37.4014C175.645 37.4014 177.415 36.9661 178.94 36.2492C179.095 36.1723 179.172 36.0443 179.172 35.8139V32.4979C179.172 32.3058 179.056 32.2674 178.94 32.3442C177.415 32.9844 175.762 33.3045 173.953 33.3045C169.857 33.3045 167.997 31.0639 167.881 28.2857H176.046ZM167.881 24.8545C168.204 22.9084 169.444 20.7959 172.222 20.7959C175.284 20.7959 176.085 23.3437 176.085 24.496C176.085 24.5344 176.085 24.7008 176.085 24.816C175.917 24.8545 175.4 24.8545 173.875 24.8545H167.881Z" fill="#FA0C00"/>
</g>
</g>
</g>
</g>
<defs>
<clipPath id="clip0_223_702">
<rect width="180" height="47" fill="white" transform="translate(0.670898 0.227539)"/>
</clipPath>
</defs>
</svg>
