<svg width="88" height="41" viewBox="0 0 88 41" fill="none" xmlns="http://www.w3.org/2000/svg">
<g id="argo_coloured.svg" clip-path="url(#clip0_223_717)">
<g id="Group">
<g id="Group_2">
<g id="Group_3">
<g id="Group_4">
<path id="Vector" d="M73.6495 20.0734C73.6608 21.6555 73.7284 23.0886 73.4581 24.5217C72.9287 27.3419 71.0589 28.9585 68.4007 29.6119C66.0354 30.1966 63.3546 29.0158 61.9354 26.9063C61.7214 26.5853 61.5299 26.2299 61.3948 25.863C61.147 25.1637 61.361 24.5904 61.9692 24.2236C62.5211 23.8796 63.0956 23.9026 63.5686 24.3726C63.9854 24.7853 64.2895 25.3012 64.7062 25.714C65.8213 26.826 67.1505 27.1241 68.5809 26.5394C69.9663 25.9777 70.676 24.8427 70.7773 23.3293C70.8336 22.5497 70.676 22.4351 69.9889 22.7332C68.6147 23.3293 67.2406 23.5701 65.7425 23.2147C63.1293 22.6071 60.55 20.0849 60.7978 16.462C61.0343 13.1144 63.5574 10.5807 66.6774 10.3973C70.0452 10.1909 72.8836 12.2889 73.4581 15.5563C73.7171 17.0467 73.6495 18.6976 73.6495 20.0734ZM67.2743 20.4861C69.2342 20.4517 70.8674 18.7206 70.7999 16.7601C70.7323 14.7997 69.1554 13.2863 67.2068 13.2863C65.2018 13.2863 63.5799 14.9143 63.6024 16.9092C63.6249 18.8811 65.3032 20.5205 67.2743 20.4861Z" fill="black"/>
<path id="Vector_2" d="M52.2492 19.0529C52.2492 19.9356 52.2379 20.8299 52.2492 21.7127C52.2604 22.3432 52.0802 22.8706 51.4945 23.1916C50.8975 23.5241 50.3343 23.4209 49.9289 22.9164C49.4445 22.3432 49.0165 22.6184 48.5096 22.8362C46.2231 23.8221 44.0493 23.5126 42.0556 22.0795C39.6565 20.3598 38.8342 17.2415 39.9718 14.4556C41.1207 11.6467 44.0718 9.98437 47.0341 10.4659C49.7712 10.913 52.0014 13.3779 52.2154 16.244C52.2829 17.1727 52.2266 18.1128 52.2266 19.0529C52.2266 19.0529 52.2379 19.0529 52.2492 19.0529ZM49.3995 16.9548C49.3995 14.8798 47.969 13.3435 46.0091 13.3091C43.9592 13.2747 42.2921 14.96 42.3259 17.0236C42.3597 18.9612 43.9254 20.4745 45.9303 20.486C47.9465 20.4974 49.3995 19.0185 49.3995 16.9548Z" fill="black"/>
<path id="Vector_3" d="M53.3752 19.0071C53.3752 18.2161 53.3527 17.4365 53.3752 16.6454C53.4879 13.5844 55.6843 11.0048 58.6353 10.4775C59.0521 10.3972 59.5026 10.3857 59.9307 10.4316C60.6515 10.5119 61.1246 10.9934 61.2034 11.6354C61.2823 12.2659 60.9331 12.8277 60.246 13.1143C59.9419 13.2404 59.5928 13.3207 59.2661 13.3436C57.5766 13.4583 56.2587 15.0404 56.2587 16.7257C56.2587 18.0556 56.2587 19.374 56.2475 20.7039C56.2475 21.0937 56.27 21.4949 56.2137 21.8847C56.0785 22.8707 55.5266 23.4325 54.7607 23.4095C53.9722 23.3866 53.4654 22.8248 53.3978 21.816C53.364 21.2771 53.3865 20.7383 53.3865 20.1994C53.3865 19.7982 53.3865 19.3969 53.3752 19.0071C53.3865 19.0071 53.3865 19.0071 53.3752 19.0071Z" fill="black"/>
</g>
<path id="Vector_4" d="M81.1514 10.2939C77.5583 10.2939 74.6523 13.2518 74.6523 16.909C74.6523 20.5662 77.5583 23.5241 81.1514 23.5241C84.7445 23.5241 87.6505 20.5662 87.6505 16.909C87.6505 13.2518 84.7333 10.2939 81.1514 10.2939ZM81.1514 20.5777C79.1578 20.5777 77.5471 18.9383 77.5471 16.909C77.5471 14.8798 79.1578 13.2403 81.1514 13.2403C83.1451 13.2403 84.7558 14.8798 84.7558 16.909C84.7558 18.9383 83.1338 20.5777 81.1514 20.5777Z" fill="black"/>
</g>
<g id="Group_5">
<g id="Group_6">
<path id="Vector_5" d="M30.1268 18.9268C29.3383 18.9268 28.6963 18.2733 28.6963 17.4708V13.4467C28.6963 12.6442 29.3383 11.9907 30.1268 11.9907C30.9152 11.9907 31.5572 12.6442 31.5572 13.4467V17.4708C31.5685 18.2733 30.9265 18.9268 30.1268 18.9268Z" fill="#BBD9FC"/>
</g>
<g id="Group_7">
<path id="Vector_6" d="M2.08087 18.9268C1.29242 18.9268 0.650391 18.2733 0.650391 17.4708V13.4467C0.650391 12.6442 1.29242 11.9907 2.08087 11.9907C2.86932 11.9907 3.51134 12.6442 3.51134 13.4467V17.4708C3.51134 18.2733 2.86932 18.9268 2.08087 18.9268Z" fill="#BBD9FC"/>
</g>
<g id="Group_8">
<path id="Vector_7" d="M16.0477 30.1619C24.004 30.1619 30.4539 23.597 30.4539 15.4987C30.4539 7.4004 24.004 0.835449 16.0477 0.835449C8.09145 0.835449 1.6416 7.4004 1.6416 15.4987C1.6416 23.597 8.09145 30.1619 16.0477 30.1619Z" fill="#E2F5FC"/>
<path id="Vector_8" d="M16.0476 30.4487C7.9491 30.4487 1.34863 23.742 1.34863 15.4989C1.34863 7.25585 7.93783 0.537598 16.0476 0.537598C24.1461 0.537598 30.7353 7.24439 30.7353 15.4874C30.7353 23.7305 24.1461 30.4487 16.0476 30.4487ZM16.0476 1.12229C8.25322 1.12229 1.92308 7.5654 1.92308 15.4874C1.92308 23.4095 8.25322 29.8641 16.0476 29.8641C23.842 29.8641 30.1609 23.4209 30.1609 15.4874C30.1609 7.55393 23.8308 1.12229 16.0476 1.12229Z" fill="#BBD9FC"/>
</g>
<path id="Vector_9" d="M16.0482 26.9293C22.2502 26.9293 27.278 21.8118 27.278 15.4991C27.278 9.18633 22.2502 4.06885 16.0482 4.06885C9.84611 4.06885 4.81836 9.18633 4.81836 15.4991C4.81836 21.8118 9.84611 26.9293 16.0482 26.9293Z" fill="#CDECF6"/>
<path id="Vector_10" d="M11.7224 5.44427C11.5309 5.44427 11.3394 5.32962 11.2606 5.13472C11.1592 4.87104 11.2719 4.57296 11.5309 4.46977C11.6886 4.40099 11.8576 4.3322 12.0153 4.27488C12.2743 4.18316 12.5672 4.30927 12.6573 4.57296C12.7474 4.83664 12.6235 5.13472 12.3644 5.22644C12.218 5.28376 12.0716 5.34108 11.9252 5.39841C11.8576 5.4328 11.79 5.44427 11.7224 5.44427Z" fill="white"/>
<path id="Vector_11" d="M10.4385 5.58196C10.8552 5.3412 11.2832 5.12338 11.7225 4.93994L10.4385 5.58196Z" fill="#CDECF6"/>
<path id="Vector_12" d="M6.8571 22.5726C6.69941 22.5726 6.54171 22.4924 6.45161 22.3548C5.04366 20.3485 4.31152 17.9639 4.31152 15.4875C4.31152 11.2341 6.56424 7.26738 10.1911 5.13497C10.4277 4.99739 10.7318 5.07764 10.8782 5.3184C11.0134 5.55916 10.9345 5.8687 10.698 6.01774C7.37522 7.96672 5.31398 11.5895 5.31398 15.4875C5.31398 17.7575 5.9898 19.9243 7.26258 21.7701C7.42028 21.9994 7.36396 22.3204 7.13869 22.4809C7.04858 22.5497 6.9472 22.5726 6.8571 22.5726Z" fill="white"/>
<path id="Vector_13" d="M25.0248 30.4141C25.0136 30.4141 25.0023 30.4141 24.9798 30.4141C23.5155 30.4141 22.2315 29.0384 22.0963 28.8894L22.637 13.8478C22.6482 13.6529 22.6595 13.458 22.6595 13.2516C22.6595 13.2172 22.6595 13.1943 22.6595 13.1599V13.1026C22.5806 9.42246 19.6183 6.45312 15.9802 6.45312C12.342 6.45312 9.39098 9.41099 9.30087 13.1026V13.1599C9.30087 13.1943 9.30087 13.2172 9.30087 13.2516C9.30087 13.4465 9.31213 13.6529 9.3234 13.8478L9.88658 28.832C9.85278 28.832 9.80773 28.8435 9.7852 28.8779C9.77394 28.8894 8.39978 30.4485 6.84541 30.4141C6.77782 30.4141 6.71024 30.4715 6.69898 30.5403C6.68771 30.609 6.73277 30.6778 6.81161 30.7008C6.8792 30.7122 7.85913 30.9644 8.87285 30.9644C9.24455 30.9644 9.61625 30.9301 9.95416 30.8383V36.6738C9.95416 37.2356 8.35473 37.5566 7.341 37.6368C7.26216 37.6483 7.20584 37.7056 7.20584 37.7859C7.20584 37.8661 7.27342 37.9235 7.35227 37.9235H10.1006C10.6412 37.9235 11.0467 37.7744 11.3058 37.4878C11.6212 37.1439 11.6099 36.7197 11.6099 36.6624V31.6982L11.914 32.1797V37.7744C11.914 38.1871 10.3146 38.5769 8.8278 38.7145C8.74895 38.726 8.69263 38.7833 8.69263 38.8636C8.69263 38.9438 8.76022 39.0011 8.8278 39.0011C8.83906 39.0011 9.69509 39.0241 10.6412 39.0241C11.1143 39.0241 11.6212 39.0126 12.0492 39.0011C13.4571 38.9438 13.5472 37.7974 13.5472 37.7859C13.5472 37.7859 13.5472 37.7859 13.5472 37.7744V34.335L13.795 34.6446V38.5655C13.795 38.5769 13.795 38.5769 13.795 38.5884C13.795 38.5999 13.795 38.5999 13.795 38.6113C13.8288 38.726 13.8063 38.8406 13.7275 38.9553C13.2769 39.6432 11.1594 40.0788 10.3822 40.182C10.3146 40.1934 10.2583 40.2508 10.2583 40.331C10.2583 40.3998 10.3146 40.4686 10.3934 40.4686C10.4047 40.4686 11.0805 40.5374 12.0041 40.5374C12.4659 40.5374 12.9841 40.5259 13.5135 40.4686C15.1917 40.3081 15.4508 38.5999 15.4508 38.5884V38.5769V38.5655V36.2267H16.4758V38.554C16.4645 38.6343 16.4082 39.1502 16.7686 39.6088C17.1065 40.0215 17.681 40.2508 18.4807 40.2622C20.2829 40.3081 21.4318 40.4571 21.443 40.4571C21.4543 40.4571 21.4543 40.4571 21.4656 40.4571C21.5331 40.4571 21.6007 40.4113 21.612 40.331C21.6232 40.2508 21.5782 40.182 21.4993 40.1705C20.159 39.9068 18.0639 39.2419 18.1315 38.5769V38.5655V38.554C18.1315 38.4852 18.1428 38.4279 18.1315 38.3706V35.0802L18.3568 34.8624V37.9579V37.9693C18.3568 37.9808 18.3568 37.9808 18.3568 37.9922C18.3681 38.0381 18.6159 39.0011 20.5757 39.0011H22.8622C22.9411 39.0011 22.9974 38.9438 23.0087 38.8636C23.0087 38.7833 22.9523 38.7145 22.8848 38.7145C21.5557 38.5655 20.0914 38.2215 20.0125 37.9349V33.2459L20.2153 33.0395V36.7999C20.204 36.8802 20.1702 37.1783 20.3955 37.4534C20.6433 37.763 21.0826 37.912 21.7246 37.912H24.3378C24.4166 37.912 24.4729 37.8547 24.4842 37.7744C24.4955 37.6942 24.4391 37.6254 24.3603 37.6139C23.493 37.4763 22.085 37.1324 21.871 36.7655V30.7925C22.2202 30.8957 22.6257 30.9415 23.0199 30.9415C24.0336 30.9415 25.0136 30.7008 25.0812 30.6778C25.1487 30.6549 25.1938 30.5861 25.1938 30.5173C25.16 30.4715 25.0924 30.4141 25.0248 30.4141Z" fill="#FE723E"/>
<g id="Group_9">
<path id="Vector_14" d="M21.0266 21.7015C23.3593 21.7015 25.2504 19.7767 25.2504 17.4023C25.2504 15.0279 23.3593 13.103 21.0266 13.103C18.6938 13.103 16.8027 15.0279 16.8027 17.4023C16.8027 19.7767 18.6938 21.7015 21.0266 21.7015Z" fill="#FE6042"/>
<path id="Vector_15" d="M21.0268 20.7612C22.8495 20.7612 24.327 19.2573 24.327 17.4021C24.327 15.5469 22.8495 14.043 21.0268 14.043C19.2041 14.043 17.7266 15.5469 17.7266 17.4021C17.7266 19.2573 19.2041 20.7612 21.0268 20.7612Z" fill="#FEFFFE"/>
<path id="Vector_16" d="M20.7227 17.8291C21.2749 17.8291 21.7227 17.3814 21.7227 16.8291C21.7227 16.2768 21.2749 15.8291 20.7227 15.8291C20.1704 15.8291 19.7227 16.2768 19.7227 16.8291C19.7227 17.3814 20.1704 17.8291 20.7227 17.8291Z" fill="black"/>
</g>
<g id="Group_10">
<path id="Vector_17" d="M11.1936 21.7015C13.5263 21.7015 15.4174 19.7767 15.4174 17.4023C15.4174 15.0279 13.5263 13.103 11.1936 13.103C8.86081 13.103 6.96973 15.0279 6.96973 17.4023C6.96973 19.7767 8.86081 21.7015 11.1936 21.7015Z" fill="#FE6042"/>
<path id="Vector_18" d="M11.1938 20.7612C13.0165 20.7612 14.494 19.2573 14.494 17.4021C14.494 15.5469 13.0165 14.043 11.1938 14.043C9.37112 14.043 7.89355 15.5469 7.89355 17.4021C7.89355 19.2573 9.37112 20.7612 11.1938 20.7612Z" fill="#FEFFFE"/>
<path id="Vector_19" d="M11.1934 17.8291C11.7456 17.8291 12.1934 17.3814 12.1934 16.8291C12.1934 16.2768 11.7456 15.8291 11.1934 15.8291C10.6411 15.8291 10.1934 16.2768 10.1934 16.8291C10.1934 17.3814 10.6411 17.8291 11.1934 17.8291Z" fill="black"/>
</g>
<g id="Group_11">
<path id="Vector_20" d="M17.0959 27.1126C16.6003 27.3533 15.6879 27.3419 15.0346 27.0667C14.28 26.7572 13.9759 25.9432 13.8857 24.9458C14.3701 25.2668 14.494 25.7254 14.9107 25.8744C15.778 26.1839 16.4876 26.1152 17.2761 25.7941C17.659 25.6451 18.211 24.9114 18.2335 24.8999C18.211 25.2094 18.0758 26.6425 17.0959 27.1126Z" fill="black"/>
<path id="Vector_21" d="M17.7488 25.5765C17.028 26.1956 15.9129 26.402 15.0456 26.0007C13.8742 25.4733 13.7615 24.8657 13.6602 23.8683C14.1445 24.1893 14.4486 24.6249 14.8541 24.774C15.7214 25.0835 16.5211 25.1179 17.3096 24.8084C17.6925 24.6593 18.526 23.7307 18.5373 23.7192C18.6612 23.8339 18.3008 25.095 17.7488 25.5765Z" fill="white"/>
</g>
</g>
</g>
</g>
</g>
<defs>
<clipPath id="clip0_223_717">
<rect width="87" height="40" fill="white" transform="translate(0.650391 0.537598)"/>
</clipPath>
</defs>
</svg>
