<svg width="138" height="46" viewBox="0 0 138 46" fill="none" xmlns="http://www.w3.org/2000/svg">
<g id="Kong_coloured.svg" clip-path="url(#clip0_223_754)">
<g id="Group">
<g id="Group_2">
<path id="Vector" d="M126.334 30.5695H132.75V20.598H126.334V30.5695ZM132.714 16.6806H137.641V35.1992C137.641 38.2618 137.322 38.796 136.507 39.6151C135.869 40.2918 134.841 40.6123 133.069 40.6123H125.873L123.64 38.1194V37.0866H132.714V34.5581H126.511C124.633 34.5581 123.676 34.202 122.896 33.4185C121.868 32.3502 121.442 30.0353 121.442 25.655C121.442 21.2747 121.939 18.853 123.002 17.749C123.817 16.9655 124.81 16.645 126.582 16.645L130.268 16.6806L132.714 18.9242V16.6806ZM74.5833 11.7661H80.3964L72.0312 22.4499L80.7508 34.5225H74.5833L67.955 25.0496H66.3954V34.5225H61.1494V11.7661H66.3954V20.598H67.955L74.5833 11.7661ZM112.865 22.3074V20.6692H111.092C111.057 20.6692 111.057 20.6692 111.021 20.6692H109.639C109.604 20.6692 109.604 20.6692 109.568 20.6692H106.839V22.3074V34.4513H101.947V16.6806H105.173H106.839V17.0012V18.9242L109.285 16.6806H110.702C110.915 16.645 111.163 16.645 111.411 16.645H113.538C115.027 16.645 115.984 16.9655 116.657 17.6422C117.402 18.3544 117.685 19.2804 117.685 21.9157V34.4513H112.794V22.5211C112.865 22.4499 112.865 22.3786 112.865 22.3074ZM87.0956 30.5339H93.5113V20.5624H87.0956V30.5339ZM87.3083 34.4513C85.536 34.4513 84.579 34.1664 83.8346 33.3473C82.7004 32.1721 82.2396 30.5695 82.2396 25.5482C82.2396 20.4912 82.7004 18.9242 83.8346 17.7134C84.579 16.9299 85.536 16.645 87.3083 16.645H93.2632C95.0354 16.645 95.9925 16.9299 96.7368 17.7134C97.8711 18.9242 98.3319 20.4912 98.3319 25.5482C98.3319 30.6051 97.8711 32.1721 96.7368 33.3473C95.957 34.1664 95.0354 34.4513 93.2632 34.4513H87.3083Z" fill="#043558"/>
<g id="Group_3">
<path id="Vector_2" d="M16.624 38.7299L17.8349 37.1504H26.7952L31.4657 43.1812L30.6354 45.2273H19.0803L19.3571 43.1812L16.624 38.7299Z" fill="#169FCC"/>
<path id="Vector_3" d="M19.3643 18.1667L23.6908 10.6123H28.7326L51.3309 37.1413L49.5788 45.2277H39.8887L40.4966 42.9578L19.3643 18.1667Z" fill="#14B59A"/>
<path id="Vector_4" d="M24.6152 9.17683L26.6869 5.30489L32.9019 0.227539L43.5511 8.66544L42.17 10.09L44.0236 12.6835V15.4596L38.7172 19.8429L29.8126 9.17683H24.6152Z" fill="#1BC263"/>
<path id="Vector_5" d="M8.1587 26.0479H10.9735L18.3134 19.8428L28.0406 31.2659L25.2971 35.4261H16.3181L10.1184 43.3941L8.69316 45.2274H0.640625V35.4614L8.1587 26.0479Z" fill="#16BDCC"/>
</g>
</g>
</g>
</g>
<defs>
<clipPath id="clip0_223_754">
<rect width="137" height="45" fill="white" transform="translate(0.640625 0.227539)"/>
</clipPath>
</defs>
</svg>
