<svg width="181" height="31" viewBox="0 0 181 31" fill="none" xmlns="http://www.w3.org/2000/svg">
<g id="kubernetes_coloured.svg" clip-path="url(#clip0_223_765)">
<g id="Group">
<g id="Group_2">
<path id="Vector" d="M29.3627 7.20976C29.183 6.64192 28.7515 6.18054 28.2121 5.89662L17.2456 0.715049C16.958 0.573088 16.6344 0.537598 16.3467 0.537598C16.0591 0.537598 15.7355 0.537598 15.4478 0.608578L4.48129 5.82564C3.94196 6.07407 3.54644 6.53545 3.40262 7.13878L0.705932 18.8151C0.598065 19.4184 0.741888 20.0217 1.10145 20.5186L8.68813 29.7815C9.1196 30.2074 9.73085 30.4914 10.3421 30.5268H22.4233C23.0705 30.5978 23.6817 30.3139 24.0772 29.7815L31.6639 20.5186C32.0235 20.0217 32.1673 19.4184 32.0954 18.8151L29.3627 7.20976Z" fill="#326DE6"/>
<path id="Vector_2" d="M27.6723 18.3536C27.6364 18.3536 27.6004 18.3536 27.6004 18.3181C27.6004 18.2826 27.5285 18.2826 27.4566 18.2826C27.3128 18.2471 27.1689 18.2471 27.0251 18.2471C26.9532 18.2471 26.8813 18.2471 26.8094 18.2116H26.7734C26.3779 18.1761 25.9464 18.1051 25.5509 17.9987C25.4431 17.9632 25.3352 17.8567 25.2992 17.7502L25.0116 17.6793C25.1554 16.65 25.0835 15.5853 24.8678 14.5561C24.6161 13.5269 24.1846 12.5332 23.6093 11.6459L23.8251 11.433V11.3975C23.8251 11.291 23.861 11.149 23.9329 11.0781C24.2565 10.7941 24.5801 10.5812 24.9397 10.3683C25.0116 10.3328 25.0835 10.2973 25.1554 10.2618C25.2992 10.1908 25.4071 10.1198 25.5509 10.0489C25.5869 10.0134 25.6228 10.0134 25.6588 9.97787C25.6948 9.94238 25.6588 9.94238 25.6588 9.90689C25.9824 9.65846 26.0543 9.23258 25.8026 8.91316C25.6948 8.7712 25.479 8.66473 25.2992 8.66473C25.1195 8.66473 24.9397 8.73571 24.7959 8.84218L24.7599 8.87767C24.724 8.91316 24.688 8.94865 24.652 8.94865C24.5442 9.05513 24.4363 9.1616 24.3644 9.26807C24.3284 9.33905 24.2565 9.37454 24.2206 9.41003C23.9689 9.69395 23.6453 9.97787 23.3217 10.1908C23.2498 10.2263 23.1779 10.2618 23.1059 10.2618C23.07 10.2618 22.9981 10.2618 22.9621 10.2263H22.9262L22.6385 10.4038C22.3509 10.1198 22.0273 9.83591 21.7396 9.55199C20.4093 8.52277 18.7553 7.88395 17.0654 7.7065L17.0294 7.42257V7.45807C16.9215 7.38708 16.8856 7.28061 16.8496 7.17414C16.8496 6.78375 16.8496 6.39336 16.9215 5.96748V5.93199C16.9215 5.86101 16.9575 5.79002 16.9575 5.71904C16.9934 5.57708 16.9934 5.43512 17.0294 5.29316V5.08022C17.0654 4.72532 16.7777 4.37042 16.4182 4.33492C16.2024 4.29943 15.9867 4.40591 15.8069 4.58336C15.6631 4.72532 15.5912 4.90277 15.5912 5.08022V5.25767C15.5912 5.39963 15.6271 5.54159 15.6631 5.68355C15.699 5.75453 15.699 5.82551 15.699 5.89649V5.93199C15.7709 6.32238 15.7709 6.71277 15.7709 7.13865C15.735 7.24512 15.699 7.35159 15.5912 7.42257V7.49356L15.5552 7.77748C15.1597 7.81297 14.7642 7.88395 14.3327 7.95493C12.6428 8.30983 11.0967 9.19709 9.91015 10.4392L9.69441 10.2973H9.65846C9.6225 10.2973 9.58654 10.3328 9.51463 10.3328C9.44272 10.3328 9.37081 10.2973 9.2989 10.2618C8.9753 10.0134 8.65169 9.72944 8.4 9.44552C8.36405 9.37454 8.29214 9.33905 8.25618 9.30356C8.14831 9.19709 8.0764 9.09062 7.96853 8.98414C7.93258 8.94865 7.89662 8.94865 7.86067 8.91316C7.82471 8.87767 7.82471 8.87767 7.82471 8.87767C7.68089 8.7712 7.50111 8.70022 7.32133 8.70022C7.10559 8.70022 6.92581 8.7712 6.81795 8.94865C6.60221 9.26807 6.67412 9.69395 6.96177 9.94238C6.99773 9.94238 6.99773 9.97787 6.99773 9.97787C6.99773 9.97787 7.06964 10.0489 7.10559 10.0489C7.21346 10.1198 7.35728 10.1908 7.50111 10.2618C7.57302 10.2973 7.64493 10.3328 7.71684 10.3683C8.0764 10.5812 8.43596 10.7941 8.72361 11.0781C8.79552 11.149 8.86743 11.291 8.83147 11.3975V11.362L9.04721 11.5749C9.01125 11.6459 8.9753 11.6814 8.93934 11.7524C7.82471 13.4914 7.35728 15.5498 7.68089 17.5728L7.39324 17.6438C7.39324 17.6793 7.35728 17.6793 7.35728 17.6793C7.32133 17.7857 7.21346 17.8567 7.10559 17.9277C6.71008 18.0342 6.31456 18.1051 5.88309 18.1406C5.81118 18.1406 5.73927 18.1406 5.66736 18.1761C5.52354 18.1761 5.37971 18.2116 5.23589 18.2116C5.19993 18.2116 5.16398 18.2471 5.09207 18.2471C5.05611 18.2471 5.05611 18.2471 5.02015 18.2826C4.62464 18.3536 4.37295 18.7085 4.44486 19.0989C4.51677 19.4183 4.84038 19.6312 5.16398 19.5957C5.23589 19.5957 5.27185 19.5957 5.34376 19.5602C5.37971 19.5602 5.37971 19.5602 5.37971 19.5247C5.37971 19.4893 5.48758 19.5247 5.52354 19.5247C5.66736 19.4893 5.81118 19.4183 5.91905 19.3828C5.99096 19.3473 6.06287 19.3118 6.13479 19.3118H6.17074C6.56626 19.1698 6.92581 19.0634 7.35728 18.9924H7.39324C7.50111 18.9924 7.60897 19.0279 7.68089 19.0989C7.71684 19.0989 7.71684 19.1344 7.71684 19.1344L8.04044 19.0989C8.57978 20.7314 9.58655 22.1865 10.9888 23.2512C11.3124 23.4996 11.6001 23.7126 11.9596 23.89L11.7799 24.1385C11.7799 24.174 11.8158 24.174 11.8158 24.174C11.8877 24.2804 11.8877 24.4224 11.8518 24.5289C11.7079 24.8838 11.4922 25.2387 11.2765 25.5581V25.5936C11.2405 25.6646 11.2046 25.7 11.1326 25.771C11.0607 25.842 10.9888 25.984 10.881 26.1259C10.845 26.1614 10.845 26.1969 10.809 26.2324C10.809 26.2324 10.809 26.2679 10.7731 26.2679C10.5933 26.6228 10.7371 27.0487 11.0607 27.2261C11.1326 27.2616 11.2405 27.2971 11.3124 27.2971C11.6001 27.2971 11.8518 27.1197 11.9956 26.8712C11.9956 26.8712 11.9956 26.8357 12.0315 26.8357C12.0315 26.8002 12.0675 26.7647 12.1035 26.7293C12.1394 26.5873 12.2113 26.4808 12.2473 26.3389L12.3192 26.1259C12.4271 25.7355 12.6068 25.3806 12.7866 25.0257C12.8585 24.9193 12.9664 24.8483 13.0743 24.8128C13.1102 24.8128 13.1102 24.8128 13.1102 24.7773L13.254 24.4934C14.2608 24.8838 15.3035 25.0612 16.3822 25.0612C17.0294 25.0612 17.6766 24.9902 18.3238 24.8128C18.7193 24.7418 19.1148 24.5998 19.4744 24.4934L19.6182 24.7418C19.6542 24.7418 19.6542 24.7418 19.6542 24.7773C19.762 24.8128 19.8699 24.8838 19.9418 24.9902C20.1216 25.3451 20.3014 25.7 20.4093 26.0904V26.1259L20.4812 26.3389C20.5171 26.4808 20.5531 26.6228 20.625 26.7293C20.6609 26.7647 20.6609 26.8002 20.6969 26.8357C20.6969 26.8357 20.6969 26.8712 20.7329 26.8712C20.8767 27.1197 21.1284 27.2971 21.416 27.2971C21.5239 27.2971 21.5958 27.2616 21.7037 27.2261C21.8475 27.1551 21.9913 27.0132 22.0273 26.8357C22.0632 26.6583 22.0632 26.4808 21.9913 26.3034C21.9913 26.2679 21.9554 26.2679 21.9554 26.2679C21.9554 26.2324 21.9194 26.1969 21.8834 26.1614C21.8115 26.0195 21.7396 25.913 21.6318 25.8065C21.5958 25.7355 21.5598 25.7 21.4879 25.6291V25.5581C21.2362 25.2387 21.0565 24.8838 20.9126 24.5289C20.8767 24.4224 20.8767 24.2804 20.9486 24.174C20.9486 24.1385 20.9845 24.1385 20.9845 24.1385L20.8767 23.8546C22.7104 22.7544 24.1127 21.0508 24.7599 19.0279L25.0476 19.0634C25.0835 19.0634 25.0835 19.0279 25.0835 19.0279C25.1554 18.9569 25.2633 18.9214 25.3712 18.9214H25.4071C25.8026 18.9924 26.1981 19.0989 26.5577 19.2408H26.5937C26.6656 19.2763 26.7375 19.3118 26.8094 19.3118C26.9532 19.3828 27.0611 19.4538 27.2049 19.4893C27.2409 19.4893 27.2768 19.5247 27.3487 19.5247C27.3847 19.5247 27.3847 19.5247 27.4206 19.5602C27.4925 19.5957 27.5285 19.5957 27.6004 19.5957C27.924 19.5957 28.2117 19.3828 28.3195 19.0989C28.2836 18.7085 27.9959 18.4245 27.6723 18.3536ZM17.2811 17.2534L16.3103 17.7147L15.3395 17.2534L15.0878 16.2242L15.7709 15.3724H16.8496L17.5328 16.2242L17.2811 17.2534ZM23.1419 14.9465C23.3217 15.6918 23.3576 16.4371 23.2857 17.1824L19.8699 16.2242C19.5463 16.1532 19.3665 15.8338 19.4384 15.5143C19.4744 15.4079 19.5104 15.3369 19.5823 15.2659L22.279 12.8526C22.6745 13.4914 22.9621 14.2012 23.1419 14.9465ZM21.2003 11.5394L18.2519 13.5979C18.0002 13.7398 17.6407 13.7043 17.4609 13.4559C17.389 13.3849 17.353 13.314 17.353 13.2075L17.1373 9.62297C18.7193 9.80042 20.1216 10.4747 21.2003 11.5394ZM14.6923 9.72944L15.4114 9.58748L15.2316 13.1365C15.2316 13.4559 14.944 13.7043 14.6204 13.7043C14.5125 13.7043 14.4406 13.6689 14.3327 13.6334L11.3484 11.5394C12.2832 10.6522 13.4338 10.0134 14.6923 9.72944ZM10.3057 12.8526L12.9664 15.1949C13.2181 15.4079 13.254 15.7628 13.0383 16.0112C12.9664 16.1177 12.8945 16.1532 12.7507 16.1887L9.26294 17.1824C9.15507 15.6918 9.51463 14.1657 10.3057 12.8526ZM9.69441 18.8504L13.254 18.2471C13.5417 18.2471 13.8293 18.4245 13.8653 18.7085C13.9012 18.8149 13.9012 18.9569 13.8293 19.0634L12.463 22.3285C11.2046 21.5122 10.1978 20.27 9.69441 18.8504ZM17.8564 23.2512C17.353 23.3577 16.8496 23.4287 16.3103 23.4287C15.5552 23.4287 14.7642 23.2867 14.0451 23.0738L15.8069 19.9151C15.9867 19.7022 16.2743 19.6312 16.526 19.7732C16.6339 19.8442 16.7058 19.9151 16.8137 20.0216L18.5395 23.1093C18.3238 23.1447 18.1081 23.1802 17.8564 23.2512ZM22.243 20.1636C21.7037 21.0153 20.9486 21.7606 20.0856 22.293L18.6834 18.9569C18.6115 18.673 18.7553 18.3891 19.007 18.2826C19.1148 18.2471 19.2227 18.2116 19.3306 18.2116L22.9262 18.8149C22.7464 19.3118 22.5306 19.7732 22.243 20.1636Z" fill="white"/>
<path id="Vector_3" d="M174.876 22.7191C175.379 22.7546 175.919 22.6836 176.386 22.5062C176.674 22.3642 176.854 22.0448 176.818 21.7254C176.782 21.3705 176.566 21.0511 176.242 20.9446C175.703 20.6252 175.092 20.3413 174.48 20.1638C173.869 19.9509 173.33 19.7024 172.827 19.454C172.359 19.2411 171.964 18.9571 171.568 18.6022C171.208 18.2473 170.957 17.8569 170.777 17.3956C170.561 16.8632 170.489 16.2954 170.489 15.7275C170.453 14.5564 170.993 13.4207 171.928 12.7109C172.898 11.9656 174.193 11.6107 175.847 11.6107C176.638 11.6107 177.465 11.6816 178.256 11.8591C178.867 11.9656 179.478 12.1075 180.09 12.3205L179.406 15.3371C178.903 15.1597 178.436 15.0532 177.932 14.9113C177.357 14.7693 176.746 14.7338 176.17 14.7338C174.948 14.7338 174.337 15.0532 174.337 15.7275C174.337 15.8695 174.373 16.0115 174.409 16.1534C174.48 16.2954 174.588 16.4018 174.732 16.5083C174.876 16.6148 175.092 16.7213 175.343 16.8632C175.595 17.0052 175.955 17.1471 176.386 17.2891C177.105 17.5375 177.824 17.8569 178.472 18.2119C178.975 18.4603 179.406 18.7797 179.766 19.2056C180.09 19.525 180.305 19.9154 180.449 20.3768C180.593 20.8736 180.665 21.3705 180.665 21.8673C180.737 23.074 180.161 24.2452 179.119 24.9195C178.112 25.5938 176.674 25.9487 174.804 25.9487C173.761 25.9842 172.755 25.8777 171.748 25.6293C171.173 25.4873 170.633 25.3099 170.094 25.1324L170.741 22.0093C171.388 22.2577 172.071 22.4707 172.755 22.6126C173.474 22.6481 174.157 22.7191 174.876 22.7191ZM155.064 18.8152C155.028 17.7505 155.244 16.6858 155.604 15.692C155.927 14.8403 156.431 14.095 157.078 13.4207C157.689 12.8173 158.372 12.356 159.163 12.072C159.954 11.7526 160.781 11.6107 161.608 11.6107C163.55 11.6107 165.096 12.214 166.211 13.3852C167.325 14.5564 167.901 16.2954 167.901 18.5668C167.901 18.7797 167.901 19.0281 167.865 19.312C167.865 19.596 167.829 19.8089 167.829 20.0219H159.055C159.127 20.7671 159.523 21.477 160.17 21.9028C160.961 22.3997 161.896 22.6481 162.831 22.6126C163.514 22.6126 164.233 22.5417 164.916 22.4352C165.492 22.3287 166.067 22.1513 166.606 21.9028L167.145 25.026C166.894 25.1679 166.606 25.2389 166.318 25.3454C165.923 25.4519 165.527 25.5583 165.132 25.5938C164.7 25.6648 164.269 25.7358 163.766 25.8068C163.298 25.8422 162.795 25.8777 162.291 25.8777C161.177 25.9132 160.098 25.7358 159.055 25.3454C158.192 25.026 157.437 24.5291 156.79 23.8903C156.179 23.2515 155.747 22.4707 155.46 21.6544C155.208 20.6962 155.064 19.7379 155.064 18.8152ZM164.161 17.3601C164.161 17.0407 164.089 16.7213 163.981 16.4018C163.909 16.0824 163.73 15.834 163.55 15.5856C163.334 15.3371 163.082 15.1242 162.795 14.9822C162.435 14.8048 162.076 14.7338 161.68 14.7338C161.285 14.7338 160.925 14.8048 160.566 14.9822C160.278 15.1242 159.99 15.3017 159.775 15.5501C159.559 15.7985 159.379 16.0824 159.271 16.4018C159.163 16.7213 159.091 17.0407 159.055 17.3601H164.161ZM144.529 8.55851L148.412 7.95517V11.9301H153.087V15.1242H148.412V19.8799C148.377 20.5542 148.52 21.2285 148.844 21.7964C149.132 22.2577 149.707 22.5062 150.606 22.5062C151.037 22.5062 151.469 22.4707 151.864 22.3997C152.296 22.3287 152.691 22.2222 153.087 22.0803L153.626 25.0615C153.123 25.2744 152.583 25.4164 152.044 25.5583C151.361 25.7003 150.642 25.7713 149.923 25.7713C149.024 25.8068 148.125 25.6648 147.298 25.3454C146.651 25.097 146.075 24.6711 145.644 24.1742C145.212 23.6419 144.925 23.003 144.745 22.3287C144.565 21.5479 144.493 20.7317 144.529 19.9509V8.55851ZM128.817 18.8152C128.781 17.7505 128.996 16.6858 129.356 15.692C129.679 14.8403 130.183 14.095 130.83 13.4207C131.441 12.8173 132.124 12.356 132.916 12.072C133.707 11.7526 134.534 11.6107 135.361 11.6107C137.302 11.6107 138.848 12.214 139.963 13.3852C141.077 14.5564 141.653 16.2954 141.653 18.5668C141.653 18.7797 141.653 19.0281 141.617 19.312C141.581 19.596 141.581 19.8089 141.581 20.0219H132.772C132.844 20.7671 133.239 21.477 133.886 21.9028C134.677 22.3997 135.612 22.6481 136.547 22.6126C137.23 22.6126 137.949 22.5417 138.632 22.4352C139.208 22.3287 139.783 22.1513 140.358 21.9028L140.898 25.026C140.646 25.1679 140.358 25.2389 140.071 25.3454C139.675 25.4519 139.28 25.5583 138.884 25.5938C138.453 25.6648 138.021 25.7358 137.518 25.8068C137.05 25.8422 136.547 25.8777 136.044 25.8777C134.929 25.9132 133.85 25.7358 132.808 25.3454C131.945 25.026 131.19 24.5291 130.542 23.8903C129.931 23.2515 129.5 22.4707 129.212 21.6544C128.924 20.6962 128.781 19.7379 128.817 18.8152ZM137.913 17.3601C137.913 17.0407 137.841 16.7213 137.734 16.4018C137.662 16.0824 137.482 15.834 137.302 15.5856C137.086 15.3371 136.835 15.1242 136.547 14.9822C136.188 14.8048 135.828 14.7338 135.432 14.7338C135.037 14.7338 134.677 14.8048 134.318 14.9822C134.03 15.1242 133.778 15.3017 133.563 15.5501C133.347 15.7985 133.167 16.0824 133.059 16.4018C132.951 16.7213 132.88 17.0407 132.844 17.3601H137.913ZM114.075 12.3915C114.902 12.1785 115.765 12.0011 116.628 11.8591C117.706 11.6816 118.821 11.6107 119.9 11.6107C120.87 11.5752 121.841 11.7526 122.776 12.072C123.495 12.3205 124.142 12.7464 124.61 13.3142C125.077 13.882 125.401 14.5564 125.581 15.2662C125.796 16.0824 125.868 16.9342 125.868 17.786V25.4164H122.021V18.2828C122.021 17.0407 121.841 16.1889 121.518 15.6566C121.194 15.1597 120.583 14.8758 119.684 14.8758C119.396 14.8758 119.108 14.8758 118.785 14.9113C118.461 14.9113 118.21 14.9467 117.958 14.9822V25.4164H114.075V12.3915ZM111.342 15.3371C110.982 15.2662 110.587 15.1597 110.12 15.0887C109.616 14.9822 109.113 14.9467 108.609 14.9467C108.322 14.9467 108.034 14.9822 107.71 15.0177C107.459 15.0532 107.207 15.0887 106.955 15.1597V25.4873H103.072V12.6399C103.863 12.356 104.69 12.143 105.517 11.9656C106.56 11.7171 107.639 11.6107 108.681 11.6462C108.933 11.6462 109.185 11.6816 109.436 11.6816C109.724 11.6816 110.012 11.7171 110.335 11.7881C110.623 11.8236 110.911 11.8591 111.234 11.9301C111.486 11.9656 111.738 12.0365 111.989 12.143L111.342 15.3371ZM87.2157 18.8152C87.1797 17.7505 87.3954 16.6858 87.755 15.692C88.0786 14.8403 88.582 14.095 89.2292 13.4207C89.8404 12.8173 90.5236 12.356 91.3146 12.072C92.1056 11.7526 92.9326 11.6107 93.7596 11.6107C95.7012 11.6107 97.2473 12.214 98.362 13.3852C99.4766 14.5564 100.052 16.2954 100.052 18.5313C100.052 18.7442 100.052 18.9926 100.016 19.2766C99.98 19.5605 99.98 19.7734 99.98 19.9864H91.1708C91.2427 20.7317 91.6382 21.4415 92.2854 21.8673C93.0765 22.3642 94.0113 22.6126 94.9462 22.5771C95.6293 22.5771 96.3484 22.5062 97.0316 22.3997C97.6069 22.2932 98.1822 22.1158 98.7215 21.9028L99.2609 25.026C99.0092 25.1679 98.7215 25.2389 98.4339 25.3454C98.0384 25.4519 97.6429 25.5583 97.2473 25.5938C96.8159 25.6648 96.3844 25.7358 95.881 25.8068C95.4136 25.8422 94.9102 25.8777 94.4068 25.8777C93.2922 25.9132 92.2135 25.7358 91.1708 25.3454C90.3079 25.026 89.5528 24.5291 88.9056 23.8903C88.2943 23.2515 87.8629 22.4707 87.5752 21.6544C87.3595 20.6962 87.2157 19.7734 87.2157 18.8152ZM96.3484 17.3601C96.3484 17.0407 96.2765 16.7213 96.1687 16.4018C96.0968 16.0824 95.917 15.834 95.7372 15.5856C95.5215 15.3371 95.2698 15.1242 94.9821 14.9822C94.6226 14.8048 94.263 14.7338 93.8675 14.7338C93.472 14.7338 93.1124 14.8048 92.7529 14.9822C92.4652 15.1242 92.1776 15.3017 91.9618 15.5501C91.7461 15.7985 91.5663 16.0824 91.4585 16.4018C91.3506 16.7213 91.2787 17.0407 91.2427 17.3601H96.3484ZM80.9234 18.6022C80.9234 16.1179 79.9885 14.9113 78.1548 14.9113C77.7593 14.9113 77.3638 14.9467 76.9682 15.0532C76.6446 15.1242 76.321 15.2662 76.0334 15.4436V22.3997C76.2132 22.4352 76.4649 22.4707 76.7525 22.5062C77.0402 22.5417 77.3638 22.5417 77.7233 22.5417C78.6582 22.6126 79.5571 22.2222 80.1324 21.477C80.6717 20.6252 80.9593 19.6315 80.9234 18.6022ZM84.8785 18.7442C84.8785 19.7379 84.7347 20.7317 84.3751 21.6899C84.0875 22.5417 83.6201 23.287 83.0088 23.9258C82.3616 24.5646 81.6065 25.0615 80.7796 25.3809C79.8088 25.7358 78.802 25.8777 77.7593 25.8777C77.2919 25.8777 76.7885 25.8422 76.2851 25.8068C75.7817 25.7713 75.2783 25.7003 74.7749 25.6648C74.3075 25.5938 73.8401 25.5228 73.3727 25.4164C72.9052 25.3454 72.5097 25.2389 72.1861 25.097V6.10968L76.0694 5.50635V12.2495C76.5008 12.072 76.9682 11.9301 77.4357 11.8236C77.939 11.7171 78.4424 11.6816 78.9458 11.6816C79.8447 11.6816 80.7077 11.8236 81.5346 12.214C82.2538 12.5334 82.901 13.0303 83.4043 13.6336C83.9437 14.3079 84.3392 15.0532 84.5549 15.8695C84.7707 16.7568 84.8785 17.7505 84.8785 18.7442ZM68.4827 24.9905C67.6557 25.2034 66.7927 25.3809 65.9298 25.4873C64.8511 25.6648 63.7365 25.7358 62.6578 25.7358C61.6511 25.7713 60.6803 25.5938 59.7454 25.2744C59.0263 24.9905 58.415 24.5646 57.9117 23.9968C57.4442 23.3934 57.1206 22.7191 56.9408 21.9738C56.7251 21.1575 56.6532 20.2703 56.6532 19.4185V11.9301H60.5364V18.9926C60.5364 20.2348 60.7162 21.122 61.0398 21.6544C61.3634 22.1868 61.9747 22.4707 62.8736 22.4707C63.1612 22.4707 63.4489 22.4707 63.7725 22.4352C64.0961 22.3997 64.3478 22.3997 64.5994 22.3287V11.9301H68.4827V24.9905ZM45.8305 16.8277C46.226 16.4018 46.5856 15.976 47.017 15.5501C47.4126 15.0887 47.8081 14.6628 48.2036 14.2369C48.5991 13.7756 48.9587 13.3852 49.2823 12.9948C49.6059 12.6044 49.9295 12.2495 50.1812 11.9656H54.7835C53.8486 12.9948 52.9498 14.024 52.0868 14.9822C51.1879 15.9405 50.2531 16.9342 49.2103 17.9279C49.7856 18.4603 50.325 18.9926 50.8284 19.596C51.3677 20.2348 51.907 20.8736 52.4464 21.5834C52.9498 22.2577 53.4531 22.9675 53.8846 23.6419C54.3161 24.3162 54.6756 24.955 54.9633 25.5228H50.5048C50.2171 25.0615 49.8935 24.6001 49.5339 24.0677C49.1744 23.5354 48.7789 23.003 48.4193 22.4352C48.0238 21.9028 47.5923 21.3705 47.1249 20.8736C46.7294 20.4122 46.2979 19.9864 45.8305 19.6315V25.5583H41.9473V6.10968L45.8305 5.50635V16.8277Z" fill="black"/>
</g>
</g>
</g>
<defs>
<clipPath id="clip0_223_765">
<rect width="180" height="30" fill="white" transform="translate(0.670898 0.537598)"/>
</clipPath>
</defs>
</svg>
