<svg width="151" height="21" viewBox="0 0 151 21" fill="none" xmlns="http://www.w3.org/2000/svg">
<g id="Oracle_coloured.svg" clip-path="url(#clip0_223_804)">
<g id="Group">
<g id="Group_2">
<path id="Vector" d="M65.5386 13.2013H75.4314L70.2059 4.76944L60.5986 19.9986H56.2299L67.9144 1.72749C68.4313 0.987676 69.275 0.544183 70.178 0.537667C71.081 0.531294 71.931 0.962699 72.4584 1.69506L84.1753 19.9986H79.8066L77.7488 16.5935H67.7391L65.558 13.2013M110.952 16.5935V0.722158H107.239V18.1566C107.238 18.6462 107.437 19.115 107.791 19.4538C108.146 19.8168 108.633 20.0204 109.141 20.0181H126.019L128.219 16.6129H110.933M49.5633 13.7591C53.1663 13.7591 56.0871 10.8407 56.0871 7.24061C56.0871 3.64057 53.1663 0.722158 49.5633 0.722158H33.3348V19.9986H37.0414V4.13381H49.3361C51.0605 4.13381 52.4584 5.53058 52.4584 7.25358C52.4584 8.97659 51.0605 10.3734 49.3361 10.3734H38.8784L49.9527 19.9986H55.3341L47.895 13.7591H49.5633ZM10.537 19.9986H21.7477C26.9759 19.8631 31.1436 15.5893 31.1436 10.3636C31.1436 5.13797 26.9759 0.864193 21.7477 0.728644H10.537C7.03229 0.637779 3.75414 2.45406 1.97499 5.47252C0.195837 8.49097 0.195837 12.2363 1.97499 15.2547C3.75414 18.2732 7.03229 20.0895 10.537 19.9986ZM21.4945 16.6064H10.7837C7.41497 16.4979 4.74031 13.7378 4.74031 10.3701C4.74031 7.00241 7.41497 4.24237 10.7837 4.13381H21.4945C23.7724 4.0604 25.9094 5.23272 27.07 7.19245C28.2307 9.15218 28.2307 11.5881 27.07 13.5478C25.9094 15.5075 23.7724 16.6798 21.4945 16.6064ZM91.9195 19.9986H103.364L105.532 16.6064H92.1727C89.8948 16.6798 87.7579 15.5075 86.5972 13.5478C85.4365 11.5881 85.4365 9.15218 86.5972 7.19245C87.7579 5.23272 89.8948 4.0604 92.1727 4.13381H103.046L105.24 0.728644H91.9195C88.4148 0.637779 85.1367 2.45406 83.3575 5.47252C81.5783 8.49097 81.5783 12.2363 83.3575 15.2547C85.1367 18.2732 88.4148 20.0895 91.9195 19.9986ZM137.275 16.6064C134.48 16.6075 132.025 14.7531 131.264 12.0662H147.116L149.297 8.66754H131.264C132.023 5.97936 134.479 4.12406 137.275 4.12732H148.154L150.329 0.722158H137.022C131.793 0.857707 127.626 5.13148 127.626 10.3571C127.626 15.5828 131.793 19.8566 137.022 19.9921H148.466L150.641 16.5999H137.268" fill="#C74634"/>
</g>
</g>
</g>
<defs>
<clipPath id="clip0_223_804">
<rect width="150" height="20" fill="white" transform="translate(0.640625 0.537598)"/>
</clipPath>
</defs>
</svg>
