<svg width="181" height="43" viewBox="0 0 181 43" fill="none" xmlns="http://www.w3.org/2000/svg">
<g id="RedHat_coloured.svg" clip-path="url(#clip0_223_810)">
<g id="Group">
<g id="Group_2">
<path id="Vector" d="M38.0245 24.433C41.7049 24.433 47.0298 23.6805 47.0298 19.3405C47.0408 19.0055 47.0102 18.6705 46.9386 18.343L44.7469 8.90462C44.2409 6.82796 43.7966 5.88587 40.1192 4.06296C37.2655 2.61629 31.0492 0.227539 29.2105 0.227539C27.4983 0.227539 27.0011 2.41504 24.9594 2.41504C22.9941 2.41504 21.5349 0.781706 19.6962 0.781706C17.9311 0.781706 16.7808 1.97462 15.8923 4.42754C15.8923 4.42754 13.4181 11.3459 13.1004 12.3492C13.0499 12.5335 13.0281 12.7243 13.0357 12.915C13.0357 15.6042 23.7149 24.4213 38.0245 24.4213" fill="#EE0000"/>
<path id="Vector_2" d="M47.5949 21.1022C48.1039 23.4909 48.1039 23.7418 48.1039 24.0568C48.1039 28.1401 43.4733 30.4063 37.3864 30.4063C23.6298 30.4151 11.5796 22.4234 11.5796 17.1413C11.5788 16.4061 11.73 15.6785 12.0239 15.0034C7.07551 15.2484 0.670898 16.1234 0.670898 21.7293C0.670898 30.9109 22.6149 42.2276 39.99 42.2276C53.3111 42.2276 56.6708 36.2543 56.6708 31.538C56.6708 27.828 53.4347 23.6163 47.6008 21.1022" fill="#EE0000"/>
<path id="Vector_3" d="M47.5954 21.1021C48.1043 23.4908 48.1043 23.7417 48.1043 24.0567C48.1043 28.14 43.4737 30.4063 37.3868 30.4063C23.6303 30.415 11.5801 22.4233 11.5801 17.1413C11.5793 16.406 11.7305 15.6784 12.0243 15.0033L13.1011 12.3608C13.0517 12.5413 13.0299 12.7281 13.0363 12.915C13.0363 15.6042 23.7156 24.4213 38.0252 24.4213C41.7056 24.4213 47.0305 23.6688 47.0305 19.3288C47.0415 18.9938 47.0109 18.6588 46.9393 18.3313L47.5954 21.1021Z" fill="black"/>
<path id="Vector_4" d="M171.08 27.1485C171.08 30.6164 173.184 32.3022 177.02 32.3022C178.201 32.2731 179.375 32.1086 180.518 31.8122V27.7901C179.787 28.0197 179.025 28.1338 178.258 28.1285C176.679 28.1285 176.093 27.6385 176.093 26.1655V20.0026H180.671V15.861H176.093V10.611L171.092 11.6843V15.861H167.77V20.0026H171.08V27.1485ZM155.488 27.2418C155.488 26.1685 156.573 25.6464 158.212 25.6464C159.214 25.6521 160.211 25.7755 161.183 26.0139V28.0993C160.225 28.6182 159.148 28.8824 158.056 28.8664C156.45 28.8664 155.488 28.2539 155.488 27.2418ZM157.018 32.3635C158.783 32.3635 160.207 31.996 161.536 31.1064V32.0893H166.485V21.6885C166.485 17.7335 163.796 15.5635 159.309 15.5635C156.803 15.5635 154.326 16.1468 151.66 17.3426L153.455 20.9943C155.373 20.1951 156.985 19.7051 158.406 19.7051C160.466 19.7051 161.531 20.5014 161.531 22.1289V22.9251C160.318 22.614 159.07 22.4591 157.818 22.4643C153.608 22.4643 151.072 24.2143 151.072 27.3439C151.072 30.1964 153.361 32.3722 157.012 32.3722L157.018 32.3635ZM129.816 32.098H135.138V23.6835H144.05V32.0893H149.386V10.6168H144.07V18.868H135.159V10.6168H129.837L129.816 32.098ZM109.558 23.9605C109.558 21.6272 111.415 19.848 113.859 19.848C115.131 19.8225 116.366 20.2723 117.319 21.108V26.781C116.387 27.6543 115.141 28.1225 113.859 28.0818C111.447 28.0818 109.558 26.3026 109.558 23.9722V23.9605ZM117.387 32.101H122.338V9.54346L117.337 10.6168V16.7214C116.063 16.0058 114.623 15.6356 113.159 15.648C108.396 15.648 104.651 19.2968 104.651 23.9605C104.623 26.1711 105.493 28.2999 107.064 29.8685C108.635 31.4372 110.776 32.3141 113.006 32.3023C114.584 32.3097 116.124 31.816 117.398 30.8935L117.387 32.101ZM94.666 19.6235C96.2429 19.6235 97.5727 20.6355 98.0993 22.1989H91.2739C91.7682 20.586 93.0068 19.6235 94.666 19.6235ZM86.2315 23.9985C86.2315 28.7235 90.1295 32.4043 95.1397 32.4043C97.8933 32.4043 99.9056 31.6664 101.98 29.9485L98.6671 27.0318C97.8933 27.831 96.7489 28.2597 95.3897 28.2597C93.6402 28.3086 92.0407 27.285 91.3651 25.6843H103.03V24.4505C103.03 19.2968 99.5349 15.5868 94.769 15.5868C92.5057 15.5529 90.3242 16.4256 88.7184 18.0072C87.1126 19.5888 86.2181 21.7457 86.2373 23.9897L86.2315 23.9985ZM77.6027 15.126C79.3679 15.126 80.3564 16.2285 80.3564 17.5497C80.3564 18.871 79.3679 19.9735 77.6027 19.9735H72.3396V15.126H77.6027ZM67.0117 32.0893H72.3337V24.2668H76.3848L80.4711 32.0893H86.4286L81.6626 23.4997C84.1405 22.5006 85.7569 20.1084 85.746 17.4564C85.746 13.5918 82.6835 10.6168 78.097 10.6168H67.0117V32.0893Z" fill="black"/>
</g>
</g>
</g>
<defs>
<clipPath id="clip0_223_810">
<rect width="180" height="42" fill="white" transform="translate(0.670898 0.227539)"/>
</clipPath>
</defs>
</svg>
