<svg width="92" height="59" viewBox="0 0 92 59" fill="none" xmlns="http://www.w3.org/2000/svg">
<g id="sap_coloured.svg" clip-path="url(#clip0_223_819)">
<g id="Group">
<g id="Group_2">
<g id="Group_3">
<g id="Group_4">
<path id="Vector" d="M91.6504 0.227539H0.650391V58.2275H91.6504V0.227539Z" fill="white"/>
<g id="Mask group">
<mask id="mask0_223_819" style="mask-type:luminance" maskUnits="userSpaceOnUse" x="0" y="0" width="92" height="59">
<g id="Group_5">
<path id="Vector_2" d="M91.6504 0.227539H0.650391V58.2275H91.6504V0.227539Z" fill="white"/>
</g>
</mask>
<g mask="url(#mask0_223_819)">
<g id="Group_6">
<g id="Group_7">
<path id="Vector_3" d="M0.650391 50.2275H46.5956L91.6504 5.22754H0.650391V50.2275Z" fill="#014185"/>
<path id="Vector_4" fill-rule="evenodd" clip-rule="evenodd" d="M55.0755 13.7081L46.2199 13.7063V35.1555L38.427 13.7063H30.8112L24.0809 31.6446C23.3725 27.1259 18.7676 25.5641 15.0482 24.395C12.7458 23.6097 10.0891 22.4549 10.2662 21.1925C10.2662 20.1454 11.506 19.1843 14.1627 19.3277C15.9338 19.4192 17.5278 19.568 20.7158 21.1065L23.9038 15.6429C20.8929 14.1653 16.9964 13.2311 13.8084 13.2275C9.91197 13.2275 6.72396 14.4684 4.77573 16.5251C3.53595 17.956 2.65039 19.7724 2.65039 21.7861C2.65039 24.5564 3.71306 26.5217 5.66129 28.0871C7.60952 29.405 9.73486 30.2639 11.8602 30.8933C14.3398 31.6697 16.288 32.3421 16.288 33.7838C16.288 34.3163 16.1109 34.8005 15.7567 35.1896C15.0482 35.8333 14.1627 36.0772 12.7458 36.1076C10.2662 36.1543 8.49508 35.7544 5.48418 33.9738L2.65039 39.5056C5.66129 41.2198 9.20352 42.2275 12.7458 42.2275L13.2771 42.224C16.288 42.1666 18.9447 41.2611 20.8929 39.615C21.07 39.5181 21.07 39.4285 21.2471 39.3388L20.3616 41.747H28.5087L29.7485 37.5726C31.1654 38.0532 32.7594 38.3329 34.5305 38.3329C36.3016 38.3329 37.7185 38.0621 39.1354 37.6067L40.5523 41.747H53.6586V33.088H56.6695C63.5768 33.088 67.6504 29.5 67.6504 23.4823C67.6504 16.7833 63.7539 13.7081 55.0755 13.7081ZM34.5305 32.0714C33.4678 32.0714 32.5823 31.8849 31.6967 31.5585L34.5305 22.5356L37.3643 31.5872C36.4787 31.8956 35.5932 32.0714 34.5305 32.0714ZM55.6068 26.8821H53.6586V19.6074H55.6068C58.2635 19.6074 60.3888 20.4878 60.3888 23.208C60.3888 26.0053 58.2635 26.8821 55.6068 26.8821Z" fill="white"/>
<path id="Vector_5" d="M57.3563 47.2047C57.3563 45.792 58.4151 44.7155 59.6504 44.7155C60.8857 44.7155 61.9445 45.792 61.9445 47.2047C61.9445 48.6704 60.8857 49.7268 59.6504 49.7268C58.4151 49.7268 57.3563 48.6704 57.3563 47.2047ZM59.6504 50.2275C61.2386 50.2275 62.6504 48.9464 62.6504 47.2047C62.6504 45.4886 61.2386 44.2275 59.6504 44.2275C58.0622 44.2275 56.6504 45.4886 56.6504 47.2047C56.6504 48.9464 58.0622 50.2275 59.6504 50.2275ZM59.121 47.4551H59.6504L60.5327 48.9464H61.0622L60.1798 47.4258C60.5327 47.3637 61.0622 47.095 61.0622 46.481C61.0622 45.792 60.5327 45.4886 59.8269 45.4886H58.5916V48.9464H59.121V47.4551ZM59.121 47.0091V45.929H59.8269C60.0033 45.929 60.5327 46.0131 60.5327 46.4499C60.5327 46.9744 60.0033 47.0091 59.6504 47.0091H59.121Z" fill="#014185"/>
</g>
</g>
</g>
</g>
</g>
</g>
</g>
</g>
</g>
<defs>
<clipPath id="clip0_223_819">
<rect width="91" height="58" fill="white" transform="translate(0.650391 0.227539)"/>
</clipPath>
</defs>
</svg>
