<svg width="99" height="51" viewBox="0 0 99 51" fill="none" xmlns="http://www.w3.org/2000/svg">
<g id="synyk_coloured.svg" clip-path="url(#clip0_223_835)">
<g id="Group">
<g id="Group_2">
<path id="Vector" d="M23.5508 0.292194C25.5251 3.86978 27.4126 7.51202 28.5624 11.456C28.7794 12.2103 28.8011 12.9431 28.4757 13.6974C28.1068 14.5163 27.9116 15.4 27.5211 16.1974C26.8919 17.4905 26.9136 18.7836 27.0438 20.1629C27.2607 22.3612 27.3258 24.5594 27.456 26.7577C27.4994 27.5767 27.2607 28.3094 26.7834 28.9775C26.2627 29.6887 25.7637 30.4 25.2647 31.1327C25.1563 31.3051 25.0695 31.5637 25.0912 31.7793C25.4817 35.5724 25.9156 39.3439 26.3278 43.1155C26.3712 43.4387 26.2844 43.6327 26.0241 43.8267C23.2471 45.8094 20.4918 47.7922 17.7148 49.775C16.8686 50.3784 16.1093 50.3784 15.2632 49.775C12.4862 47.7922 9.70917 45.7879 6.91046 43.7836C6.62842 43.5896 6.62842 43.3956 6.65012 43.0939C7.06233 39.3224 7.47454 35.5293 7.88676 31.7577C7.90845 31.5422 7.79997 31.262 7.6698 31.0896C7.12742 30.2706 6.49825 29.4948 5.99926 28.6327C5.71722 28.1586 5.52196 27.5551 5.52196 27.0163C5.58705 24.7318 5.73891 22.4258 5.89078 20.1413C5.93417 19.5594 6.02095 18.9991 6.04265 18.4172C6.06435 18.1155 6.02095 17.8137 5.93417 17.5336C5.43518 16.1112 4.8711 14.7103 4.3938 13.2879C4.26363 12.8784 4.15515 12.3827 4.28532 11.9948C4.89279 10.1629 5.47857 8.30944 6.23791 6.54219C7.10572 4.53788 8.1688 2.61978 9.14509 0.658574C9.21017 0.507711 9.31865 0.378401 9.40543 0.249091C9.51391 0.249091 9.62239 0.249091 9.73086 0.249091C9.75256 0.378401 9.79595 0.529263 9.81764 0.658574C10.2516 3.76202 10.7072 6.86547 11.1411 9.96892C11.3146 11.2405 11.4665 12.4905 12.3343 13.525C12.4428 13.6543 12.7031 13.7836 12.8116 13.7405C15.2415 12.8784 17.6497 12.9215 20.0796 13.7405C20.188 13.7836 20.405 13.762 20.4484 13.6974C20.8172 13.0077 21.3596 12.3396 21.4898 11.6068C22.0104 8.5034 22.401 5.3784 22.8566 2.2534C22.965 1.56375 23.1386 0.895643 23.2688 0.227539C23.4206 0.292194 23.4857 0.292194 23.5508 0.292194ZM15.2415 37.2103C14.9811 36.9948 14.7208 36.8008 14.4821 36.5853C13.5059 35.6801 13.4842 35.4215 14.135 34.2577C14.2652 34.0422 14.3303 33.762 14.3086 33.5034C14.2218 31.4129 14.0916 29.3008 13.9832 27.2103C13.9615 26.9086 13.8313 26.6284 13.7445 26.3267C13.5059 26.5206 13.2021 26.6715 13.0286 26.9086C11.9655 28.2879 10.7939 29.4732 8.92813 29.6672C8.51592 29.7103 8.47253 29.9689 8.71118 30.2706C9.03661 30.6801 9.38374 31.0681 9.66578 31.5206C9.83934 31.8008 9.99121 32.1456 10.0129 32.4905C10.1431 33.5896 10.1431 34.7103 10.36 35.8094C10.5553 36.8224 10.8373 37.8353 11.2929 38.762C11.8787 39.9689 13.4408 40.5293 14.634 40.0336C15.8923 39.5163 16.3913 38.8913 16.1744 37.275C16.1527 37.1025 16.0442 36.8655 15.914 36.8008C15.8056 36.7577 15.5886 36.9086 15.415 36.9948C15.35 37.0163 15.3066 37.1241 15.2415 37.2103ZM17.8666 37.2318C17.6714 37.0594 17.5629 36.887 17.4327 36.8655C17.2809 36.8224 16.9771 36.887 16.9554 36.9732C16.8252 37.6198 16.6517 38.2879 17.0205 38.9129C18.127 40.7448 20.8172 40.6155 21.8586 38.6758C22.5962 37.275 22.8349 35.7448 22.9 34.1931C22.9433 32.7275 23.1386 31.3913 24.2885 30.3568C24.3102 30.3353 24.3318 30.2922 24.3535 30.2706C24.5488 29.9905 24.5054 29.7965 24.1583 29.7103C23.6159 29.5594 23.0952 29.387 22.5528 29.2577C22.0972 29.15 21.7501 28.9344 21.4464 28.5681C20.9257 27.9 20.3399 27.275 19.7758 26.6715C19.6673 26.5422 19.4504 26.4991 19.2985 26.4129C19.2334 26.5637 19.125 26.7146 19.125 26.887C18.9948 28.9344 18.908 30.9819 18.7778 33.0077C18.7344 33.6543 18.7778 34.2362 19.1683 34.7965C19.5155 35.2922 19.4504 35.831 18.9948 36.262C18.626 36.5637 18.2354 36.887 17.8666 37.2318ZM26.1326 13.6543C26.2193 13.6112 26.2627 13.6112 26.2844 13.5896C26.3061 13.5681 26.3495 13.5465 26.3495 13.5034C26.74 12.6629 27.0872 11.8439 26.6533 10.8956C26.4146 10.3568 26.2627 9.77495 26.0241 9.23616C25.6336 8.30943 25.2214 7.40426 24.8091 6.47754C24.7441 6.34823 24.5922 6.28357 24.4837 6.19737C24.462 6.19737 24.3102 6.32668 24.3102 6.41288C24.2234 6.90857 24.0715 7.42582 24.1366 7.89995C24.3969 9.7103 24.8742 11.4775 25.7637 13.1155C25.8722 13.3094 26.0241 13.4818 26.1326 13.6543ZM6.80199 13.7405C6.95386 13.6112 7.01894 13.5681 7.06233 13.5034C7.17081 13.331 7.27929 13.1801 7.36607 12.9862C8.10371 11.5853 8.58101 10.0982 8.79796 8.56806C8.90644 7.89995 8.77627 7.18875 8.75457 6.49909C8.75457 6.39133 8.6244 6.30513 8.58101 6.19737C8.47253 6.28357 8.32066 6.32668 8.27727 6.43444C7.58302 8.11547 6.88877 9.77495 6.2596 11.456C5.93417 12.2965 6.47656 12.9646 6.80199 13.7405ZM16.4781 43.5034C17.7365 43.4387 18.7561 42.9215 19.4287 41.8655C19.5155 41.7146 19.4287 41.4775 19.4287 41.2836C18.9948 41.3267 18.5609 41.0034 18.1487 41.4991C17.3242 42.4689 15.8056 42.512 14.9378 41.6068C14.634 41.2836 14.352 41.1758 13.9181 41.2189C13.3323 41.3051 13.2455 41.4129 13.5926 41.9086C14.2869 42.9431 15.2849 43.4387 16.4781 43.5034ZM12.2909 22.5336C12.7248 22.5336 13.1587 22.5551 13.5926 22.5336C13.7445 22.5336 13.8747 22.4258 14.0265 22.3827C13.9615 22.2318 13.9398 22.0379 13.8096 21.9301C13.4191 21.6284 13.0286 21.3051 12.573 21.0681C11.9221 20.7232 11.2278 20.5508 10.4902 20.7448C10.0563 20.8525 9.92612 21.1327 10.0563 21.5422C10.2949 22.275 10.6204 22.5336 11.3797 22.5336C11.6834 22.5336 11.9872 22.5336 12.2909 22.5336ZM20.7304 22.5336C21.0558 22.5336 21.3813 22.4905 21.7067 22.5336C22.2708 22.6198 22.5745 22.3181 22.8132 21.887C23.2254 21.1327 23.0084 20.7017 22.1623 20.6801C20.9474 20.637 19.9711 21.1758 19.1467 21.9948C19.0599 22.081 18.9948 22.275 19.0382 22.3612C19.0816 22.4474 19.2768 22.512 19.3853 22.512C19.8192 22.5336 20.2748 22.5336 20.7304 22.5336ZM10.2732 23.7405C10.2516 24.4517 10.5336 24.9258 11.076 25.206C11.6184 25.5077 12.1607 25.4646 12.6597 25.1198C13.1153 24.7965 13.3974 24.3655 13.3323 23.7405C12.9635 23.7405 12.6597 23.7405 12.2909 23.7405C12.5296 24.1931 12.6163 24.6241 12.1174 24.8827C11.7268 25.0767 11.4014 24.9258 11.2495 24.6456C11.358 24.3224 11.4448 24.0853 11.5099 23.8698C11.2929 23.8267 11.0977 23.7405 10.8807 23.7189C10.7072 23.7189 10.5336 23.7405 10.2732 23.7405ZM19.689 23.762C19.689 24.7318 20.3399 25.4 21.2077 25.4C22.0972 25.4 22.7264 24.7534 22.7264 23.7405C22.4227 23.7405 22.1189 23.7405 21.8152 23.7405C21.3813 23.7405 21.403 24.0206 21.5331 24.2793C21.5982 24.387 21.7501 24.4301 21.8586 24.4948C21.5982 24.9905 21.2511 25.0982 20.8823 24.9043C20.3833 24.6456 20.4484 24.2146 20.6653 23.762C20.3182 23.762 20.0362 23.762 19.689 23.762ZM15.2849 40.8741C15.9791 41.5853 17.129 41.5637 17.6497 40.8741C16.8686 40.8741 16.1093 40.8741 15.2849 40.8741Z" fill="black"/>
<path id="Vector_2" d="M97.6403 33.5895C95.8613 33.5895 94.104 33.568 92.325 33.5895C91.8911 33.5895 91.6524 33.4602 91.4355 33.0938C90.3941 31.2404 89.3093 29.387 88.2245 27.5335C88.1161 27.3395 87.9425 27.2102 87.7906 27.0378C87.7255 27.0594 87.6822 27.1025 87.6171 27.124C87.6171 29.2576 87.6171 31.3697 87.6171 33.5249C86.0333 33.5249 84.5363 33.5249 82.9526 33.5249C82.9309 33.3309 82.9092 33.1585 82.9092 32.9645C82.9092 27.943 82.9092 22.8999 82.9092 17.8783C82.9092 17.6197 82.9743 17.3395 83.1261 17.124C84.4929 14.9689 85.8814 12.8352 87.27 10.6801C87.335 10.5723 87.4218 10.4861 87.5954 10.249C87.5954 15.2706 87.5954 20.1197 87.5954 24.9904C87.6388 25.012 87.6822 25.012 87.7255 25.0335C87.9208 24.7964 88.1161 24.5594 88.3113 24.3007C89.3527 22.8999 90.3941 21.499 91.4355 20.0982C91.5439 19.9473 91.7609 19.7749 91.9345 19.7749C93.7135 19.7533 95.5142 19.7533 97.4451 19.7533C95.5793 21.7145 93.8003 23.5895 91.9778 25.5076C92.7589 26.6283 93.5399 27.7275 94.2992 28.8266C95.3189 30.2706 96.3386 31.7145 97.3366 33.137C97.4234 33.2447 97.5319 33.3309 97.6186 33.4387C97.6403 33.5249 97.6403 33.5464 97.6403 33.5895Z" fill="black"/>
<path id="Vector_3" d="M74.1667 28.8912C75.0128 26.0895 75.8806 23.2231 76.705 20.3352C76.8135 19.9472 76.9871 19.7964 77.421 19.8179C78.5925 19.8395 79.7641 19.8179 80.9356 19.8395C81.0875 19.8395 81.2394 19.861 81.4563 19.861C81.3262 20.1843 81.2394 20.4645 81.1309 20.7446C79.2868 25.3352 77.4861 29.9472 75.6203 34.5378C74.9477 36.2188 73.9714 37.7274 72.5829 38.9559C70.4134 40.874 67.376 40.6369 65.6621 39.7317C66.096 39.0421 66.5733 38.374 66.9855 37.6628C67.2893 37.1024 67.6798 36.8438 68.3523 36.9084C69.0683 36.9946 69.7408 36.6714 70.1964 36.1541C70.8039 35.4214 71.3246 34.5809 71.8236 33.7619C71.9104 33.611 71.8236 33.3093 71.7368 33.1153C69.9795 28.8696 68.2222 24.624 66.4648 20.3783C66.3997 20.2274 66.3347 20.055 66.2479 19.8179C67.2025 19.8179 68.0703 19.8179 68.9598 19.8179C69.6541 19.8179 70.3266 19.8395 71.0209 19.8179C71.3463 19.8179 71.4982 19.9041 71.6066 20.2274C72.4528 23.0938 73.7328 25.8309 74.1233 28.8481C74.1667 28.9128 74.2101 28.9559 74.1667 28.8912Z" fill="black"/>
<path id="Vector_4" d="M65.4659 33.5682C64.0557 33.5682 62.6672 33.5682 61.2787 33.5682C61.1703 33.5682 61.0618 33.5682 60.8882 33.5466C60.8882 33.3527 60.8665 33.1587 60.8665 32.9647C60.8665 30.7018 60.8665 28.4389 60.8665 26.1759C60.8665 26.0251 60.8665 25.8958 60.8665 25.7449C60.8231 23.3527 58.8271 22.232 56.7227 23.4604C56.5708 23.5466 56.4841 23.8484 56.4841 24.0423C56.4624 26.9734 56.4841 29.9044 56.4841 32.8139C56.4841 33.0294 56.4841 33.2449 56.4841 33.5035C54.922 33.5035 53.4033 33.5035 51.8412 33.5035C51.8412 33.3096 51.8195 33.1372 51.8195 32.9647C51.8195 28.8268 51.8195 24.6673 51.7979 20.5294C51.7979 20.0553 51.9497 19.9044 52.4053 19.8828C53.707 19.7966 54.9871 19.6889 56.3322 19.5811C56.3322 20.3139 56.3322 21.0251 56.3322 21.7147C56.3973 21.7794 56.4624 21.8225 56.5274 21.8872C56.5925 21.7363 56.6142 21.5639 56.7227 21.4561C58.1546 19.9044 59.9119 19.2363 62.0381 19.538C64.0557 19.8397 65.4442 21.4346 65.531 23.7837C65.6178 26.9734 65.5527 30.163 65.5527 33.3742C65.531 33.4604 65.4876 33.482 65.4659 33.5682Z" fill="black"/>
<path id="Vector_5" d="M2.87525 11.1543C2.50643 12.3181 2.59321 13.3526 3.07051 14.3871C3.41763 15.1414 3.5912 15.9603 3.96002 16.6931C4.48071 17.7707 4.45901 18.8698 4.35053 20.0336C4.15527 22.1026 4.06849 24.1931 3.91663 26.2621C3.80815 27.8138 4.19867 29.1931 5.19665 30.3784C5.97769 31.3052 6.21633 32.2534 6.02108 33.4819C5.63056 36.0896 5.41361 38.719 5.13157 41.3483C5.13157 41.4345 5.10987 41.5207 5.08818 41.6715C4.06849 40.9388 3.13559 40.1629 2.09421 39.5595C0.987751 38.9129 0.640625 38.0508 0.640625 36.7793C0.705711 28.9129 0.66232 21.0681 0.66232 13.2233C0.66232 11.8655 0.857579 11.6284 2.181 11.3052C2.37625 11.2405 2.57151 11.219 2.87525 11.1543Z" fill="black"/>
<path id="Vector_6" d="M30.2543 11.1543C30.7099 11.2836 31.1438 11.3698 31.5561 11.5207C32.0334 11.6931 32.2937 12.081 32.3371 12.5983C32.3371 12.6845 32.3371 12.7707 32.3371 12.8569C32.3371 21.1112 32.3371 29.3871 32.3371 37.6414C32.3371 38.2233 32.1418 38.6758 31.6428 39.0207C30.4279 39.8827 29.213 40.7448 27.9329 41.6715C27.8245 40.6371 27.6943 39.6888 27.6075 38.719C27.3688 36.5422 27.1302 34.3655 26.9349 32.1888C26.9132 31.9302 27 31.6069 27.1519 31.4129C28.7574 29.5595 29.3648 27.4474 29.1045 25.0336C28.8875 23.0293 28.7574 21.025 28.6055 19.0207C28.5838 18.5465 28.6272 18.0508 28.779 17.6198C29.2346 16.2621 29.8421 14.9474 30.2326 13.5681C30.4062 12.8353 30.2543 12.0164 30.2543 11.1543Z" fill="black"/>
<path id="Vector_7" d="M49.2597 20.3783C49.1078 21.4343 48.9559 22.4257 48.8258 23.3524C47.7193 23.1153 46.6345 22.8352 45.5281 22.6627C44.964 22.5765 44.3782 22.6412 43.8141 22.7705C43.5755 22.8136 43.2935 23.1369 43.2501 23.374C43.2067 23.5895 43.4236 23.9558 43.6406 24.0636C44.2481 24.4084 44.9206 24.6455 45.5498 24.9472C46.3091 25.2921 47.1118 25.5938 47.8278 26.0464C50.4963 27.6412 49.9539 31.0895 48.0881 32.4903C47.1118 33.2231 46.0271 33.611 44.8555 33.7619C42.8379 33.999 40.8636 33.8481 38.9327 33.0938C38.5422 32.9429 38.3686 32.7921 38.4771 32.3179C38.6506 31.4774 38.7157 30.6153 38.8025 29.8826C40.1259 30.1627 41.406 30.486 42.7077 30.7015C43.185 30.7877 43.7274 30.7446 44.2047 30.5938C44.5084 30.5076 44.8772 30.1627 44.9423 29.8826C44.9857 29.6455 44.7037 29.2145 44.4433 29.0421C43.9226 28.7188 43.3151 28.5464 42.7728 28.2877C41.8182 27.7921 40.7768 27.4041 39.9524 26.736C38.2167 25.3352 38.2818 22.4903 39.9524 21.0248C41.3626 19.7964 43.0765 19.4946 44.8555 19.5162C46.3742 19.5377 47.8061 19.8395 49.2597 20.3783Z" fill="black"/>
<path id="Vector_8" d="M12.79 9.71045C15.3067 9.71045 17.7149 9.71045 20.2316 9.71045C20.1231 10.4001 20.0363 11.0036 19.9278 11.607C19.8627 11.8872 19.6675 11.9734 19.342 11.8872C17.4545 11.3915 15.567 11.3915 13.6579 11.8872C13.289 11.9734 13.1155 11.8225 13.0721 11.5423C12.9419 10.982 12.8768 10.4001 12.79 9.71045Z" fill="black"/>
</g>
</g>
</g>
<defs>
<clipPath id="clip0_223_835">
<rect width="98" height="50" fill="white" transform="translate(0.640625 0.227539)"/>
</clipPath>
</defs>
</svg>
