<svg width="141" height="27" viewBox="0 0 141 27" fill="none" xmlns="http://www.w3.org/2000/svg">
<g id="teradata_coloured.svg" clip-path="url(#clip0_223_848)">
<g id="Group">
<g id="Group_2">
<path id="Vector" d="M30.7246 18.0761H16.4213C16.9113 20.7217 18.8246 22.341 21.1346 22.341C22.6046 22.341 24.4479 22.1585 25.8013 19.9006L30.2346 20.8129C28.5779 24.6445 25.2179 26.4918 21.1113 26.4918C15.7913 26.4918 11.4746 22.5462 11.4746 16.7761C11.4746 11.0059 15.8146 7.01465 21.1813 7.01465C26.1979 7.01465 30.5146 10.8006 30.7013 16.4111V18.0761H30.7246ZM16.5613 14.655H25.6379C25.0079 12.3059 23.1879 11.2568 21.2046 11.2568C19.3146 11.2796 17.1679 12.3743 16.5613 14.655Z" fill="#3D4952"/>
<path id="Vector_2" d="M83.7605 25.9674H78.7905V24.3937C77.2739 25.7622 75.2205 26.5376 72.5839 26.5376C67.8005 26.5376 63.3672 22.592 63.3672 16.8218C63.3672 11.0516 67.8005 7.0604 72.5839 7.0604C75.2205 7.0604 77.2972 7.83584 78.7905 9.20426V0.537598H83.7605V25.9674ZM78.7905 16.799C78.7905 13.4008 76.1072 11.2797 73.4472 11.2797C70.4372 11.2797 68.1739 13.4236 68.1739 16.799C68.1739 20.1972 70.4372 22.2727 73.4472 22.2727C76.1305 22.2727 78.7905 20.1744 78.7905 16.799Z" fill="#3D4952"/>
<path id="Vector_3" d="M124.431 7.63037H117.571V11.69H124.431C126.345 11.69 127.628 12.4883 127.628 14.3356V14.6321H122.215C117.478 14.6321 114.748 16.9812 114.748 20.5163C114.748 24.1198 117.618 26.5146 121.911 26.5146C124.478 26.5146 126.345 25.6707 127.628 24.4619V25.9672H132.388V13.9707C132.388 9.59177 129.238 7.7216 124.431 7.63037ZM127.628 18.5321C127.628 20.8812 125.341 22.6602 122.705 22.6602C120.791 22.6602 119.508 21.7707 119.508 20.4251C119.508 19.1707 120.558 18.3269 122.145 18.3269H127.651V18.5321H127.628Z" fill="#3D4952"/>
<path id="Vector_4" d="M95.0544 7.63037H88.1944V11.69H95.0544C96.9678 11.69 98.2511 12.4883 98.2511 14.3356V14.6321H92.8378C88.1011 14.6321 85.3711 16.9812 85.3711 20.5163C85.3711 24.1198 88.2411 26.5146 92.5344 26.5146C95.1011 26.5146 96.9678 25.6707 98.2511 24.4619V25.9672H102.988V13.9707C102.988 9.59177 99.8378 7.7216 95.0544 7.63037ZM98.2511 18.5321C98.2511 20.8812 95.9644 22.6602 93.3278 22.6602C91.4144 22.6602 90.1311 21.7707 90.1311 20.4251C90.1311 19.1707 91.1811 18.3269 92.7678 18.3269H98.2744V18.5321H98.2511Z" fill="#3D4952"/>
<path id="Vector_5" d="M53.7312 7.63037H46.8712V11.69H53.7312C55.6445 11.69 56.9279 12.4883 56.9279 14.3356V14.6321H51.5145C46.7779 14.6321 44.0479 16.9812 44.0479 20.5163C44.0479 24.1198 46.9179 26.5146 51.2112 26.5146C53.7779 26.5146 55.6445 25.6707 56.9279 24.4619V25.9672H61.6879V13.9707C61.6879 9.59177 58.5379 7.7216 53.7312 7.63037ZM56.9279 18.5321C56.9279 20.8812 54.6412 22.6602 52.0045 22.6602C50.0912 22.6602 48.8078 21.7707 48.8078 20.4251C48.8078 19.1707 49.8579 18.3269 51.4445 18.3269H56.9512V18.5321H56.9279Z" fill="#3D4952"/>
<path id="Vector_6" d="M44.2114 7.60777C41.1547 7.60777 38.9847 8.79373 37.468 10.9376V7.58496H32.498V25.9446H37.468V20.0148C37.468 14.906 39.568 11.6902 44.1647 11.6902H44.398V7.60777C44.328 7.60777 44.2814 7.60777 44.2114 7.60777Z" fill="#3D4952"/>
<path id="Vector_7" d="M10.5409 21.5199C9.79423 21.7936 9.0009 21.976 8.39423 21.976C6.73757 21.976 5.6409 21.0181 5.6409 18.8058V11.5532H10.7276V7.58478H5.6409V3.0918H0.670898V11.576V19.1936C0.670898 24.2339 3.6109 26.5146 8.04423 26.5146C9.60756 26.5146 11.1242 26.1953 13.0376 25.169C12.0342 24.1655 11.0776 22.9339 10.5409 21.5199Z" fill="#3D4952"/>
<path id="Vector_8" d="M113.185 21.9304C112.975 21.9532 112.788 21.976 112.625 21.976C110.968 21.976 109.871 21.0181 109.871 18.8058V11.5532H115.098V7.58478H109.871V3.0918H104.901V11.576V19.1936C104.901 24.2339 107.841 26.5146 112.275 26.5146C113.371 26.5146 114.328 26.355 115.471 25.9216C114.001 24.8953 113.441 23.2076 113.185 21.9304Z" fill="#3D4952"/>
<path id="Vector_9" d="M140.671 23.1623C140.671 24.8956 139.318 26.2412 137.404 26.2412C135.514 26.2412 134.138 24.9184 134.138 23.1623C134.138 21.4974 135.491 20.0605 137.404 20.0605C139.318 20.0605 140.671 21.5202 140.671 23.1623Z" fill="#F06F37"/>
</g>
</g>
</g>
<defs>
<clipPath id="clip0_223_848">
<rect width="140" height="26" fill="white" transform="translate(0.670898 0.537598)"/>
</clipPath>
</defs>
</svg>
