<svg width="181" height="44" viewBox="0 0 181 44" fill="none" xmlns="http://www.w3.org/2000/svg">
<g id="Terraform_coloured.svg" clip-path="url(#clip0_223_862)">
<g id="Group">
<g id="Group_2">
<path id="Vector" d="M56.3358 5.84649V3.53743H54.1761V5.84649H53.125V0.306176H54.2121V2.62953H56.3718V0.306176H57.4589V5.84649H56.3358ZM61.3752 5.84649H60.5113L60.4321 5.57484C60.0664 5.80826 59.6429 5.9369 59.2083 5.94657C58.4452 5.94657 58.114 5.44616 58.114 4.75987C58.114 3.94491 58.4812 3.63751 59.3379 3.63751H60.3457V3.19429C60.3457 2.75106 60.2162 2.59379 59.5466 2.59379C59.1573 2.59741 58.7691 2.63811 58.3876 2.71532L58.2436 1.95755C58.7135 1.83468 59.1974 1.77222 59.6834 1.77168C61.0009 1.77168 61.3896 2.2149 61.3896 3.20144L61.3752 5.84649ZM60.3457 4.3381H59.5682C59.2227 4.3381 59.1291 4.43103 59.1291 4.73128C59.1291 5.03153 59.2227 5.13161 59.5538 5.13161C59.8308 5.12737 60.1026 5.05622 60.3457 4.9243V4.3381ZM63.5925 5.94657C63.1041 5.93884 62.6192 5.86181 62.1527 5.71781L62.2967 4.95289C62.7026 5.06324 63.1213 5.12091 63.5421 5.12446C64.0101 5.12446 64.0749 5.02438 64.0749 4.72413C64.0749 4.42388 64.0245 4.35239 63.355 4.20227C62.3327 3.96636 62.2103 3.71615 62.2103 2.94408C62.2103 2.17201 62.5631 1.76453 63.7653 1.76453C64.1893 1.766 64.6118 1.81394 65.0252 1.90751L64.9244 2.70102C64.5439 2.63415 64.1588 2.59592 63.7725 2.58664C63.319 2.58664 63.2398 2.68672 63.2398 2.92978C63.2398 3.17284 63.2398 3.27293 63.8301 3.4159C65.0036 3.709 65.1116 3.85913 65.1116 4.68124C65.1116 5.50335 64.8596 5.94657 63.5925 5.94657ZM68.4016 5.86794V3.08706C68.4016 2.87259 68.308 2.76536 68.0632 2.76536C67.681 2.8016 67.3094 2.91083 66.9689 3.08706V5.84649H65.9179V0.227539L66.9689 0.384813V2.15056C67.4474 1.91713 67.9697 1.78563 68.5024 1.76453C69.2223 1.76453 69.4526 2.2292 69.4526 2.94408V5.84649L68.4016 5.86794ZM70.3309 1.30701V0.306176H71.382V1.28556L70.3309 1.30701ZM70.3309 5.86794V1.85032H71.382V5.84649L70.3309 5.86794ZM72.2171 1.90751C72.2171 0.906675 72.829 0.32047 74.2545 0.32047C74.778 0.31992 75.2999 0.379897 75.8095 0.499193L75.6871 1.39279C75.2238 1.30785 74.7543 1.26004 74.2833 1.24982C73.5634 1.24982 73.297 1.49288 73.297 2.07908V4.15938C73.297 4.73843 73.5346 4.98864 74.2833 4.98864C74.7543 4.97842 75.2238 4.9306 75.6871 4.84566L75.8095 5.73926C75.2999 5.85856 74.778 5.91853 74.2545 5.91798C72.8146 5.91798 72.2171 5.33893 72.2171 4.33095V1.90751ZM78.1348 5.94657C76.695 5.94657 76.3134 5.1888 76.3134 4.37384V3.34441C76.3134 2.5223 76.7022 1.77168 78.1348 1.77168C79.5674 1.77168 79.9562 2.52945 79.9562 3.34441V4.35239C79.9634 5.17451 79.5746 5.94657 78.1348 5.94657ZM78.1348 2.63668C77.5733 2.63668 77.3573 2.87259 77.3573 3.35156V4.42388C77.3573 4.87426 77.5733 5.13876 78.1348 5.13876C78.6963 5.13876 78.9123 4.90285 78.9123 4.42388V3.30867C78.9123 2.8583 78.6963 2.62239 78.1348 2.62239V2.63668ZM82.915 2.70102C82.5314 2.86613 82.1608 3.0597 81.8064 3.28007V5.85364H80.7553V1.85032H81.6408L81.7128 2.29354C82.0559 2.0735 82.4261 1.89811 82.8142 1.77168L82.915 2.70102ZM87.1121 4.51682C87.1764 4.90176 87.0541 5.29427 86.7819 5.57576C86.5098 5.85724 86.1198 5.99469 85.7299 5.94657C85.3552 5.94303 84.9816 5.90474 84.614 5.83219V7.44782L83.563 7.6051V1.88606H84.398L84.4988 2.22205C84.885 1.94713 85.3483 1.79959 85.8235 1.80027C86.6658 1.80027 87.1121 2.27924 87.1121 3.18714V4.51682ZM84.6068 4.96719C84.9122 5.03262 85.2232 5.06853 85.5355 5.07442C85.9171 5.07442 86.0611 4.90285 86.0611 4.53826V3.1085C86.0611 2.77966 85.9315 2.60094 85.5427 2.60094C85.1981 2.61346 84.8681 2.74204 84.6068 2.96553V4.96719ZM59.525 14.1963H53.125V10.4003H70.2661V14.1963H63.8589V33.162H59.5394L59.525 14.1963Z" fill="black"/>
<path id="Vector_2" d="M74.2188 30.0881C75.9572 30.0793 77.6846 29.8143 79.3446 29.3017L79.9997 32.4472C78.0235 33.1542 75.9378 33.5123 73.8372 33.5053C68.5747 33.5053 66.7461 31.0817 66.7461 27.0713V22.6748C66.7461 19.1575 68.3299 16.1836 73.7005 16.1836C79.071 16.1836 80.2733 19.2934 80.2733 22.8821V26.4565H70.9144V27.3143C70.9504 29.3017 71.6703 30.0881 74.2188 30.0881ZM70.9504 23.1037H76.285V22.2601C76.285 20.6874 75.8026 19.5936 73.7365 19.5936C71.6703 19.5936 70.9504 20.6874 70.9504 22.2601V23.1037ZM91.4967 20.0083C89.9506 20.7007 88.4607 21.5109 87.0405 22.4317V33.1549H82.8434V16.5196H86.3853L86.6589 18.364C88.0245 17.446 89.5058 16.7105 91.0648 16.1765L91.4967 20.0083ZM101.748 20.0083C100.207 20.7013 98.722 21.5115 97.3064 22.4317V33.1549H93.1093V16.5196H96.6513L96.9249 18.364C98.2904 17.446 99.7718 16.7105 101.331 16.1765L101.748 20.0083ZM115.794 33.162H112.353L112.043 32.0325C110.558 32.9919 108.825 33.5034 107.054 33.5052C103.994 33.5052 102.684 31.4177 102.684 28.5511C102.684 25.1697 104.167 23.8686 107.572 23.8686H111.597V22.1243C111.597 20.2799 111.078 19.6294 108.393 19.6294C106.832 19.6468 105.276 19.8192 103.75 20.1441L103.231 16.9629C105.107 16.4474 107.044 16.183 108.991 16.1765C114.253 16.1765 115.808 18.0209 115.808 22.1886L115.794 33.162ZM111.597 26.8711H108.501C107.126 26.8711 106.744 27.25 106.744 28.5082C106.744 29.7664 107.126 30.181 108.429 30.181C109.541 30.1642 110.63 29.8691 111.597 29.3231V26.8711ZM128.695 12.7236C127.902 12.5545 127.094 12.4635 126.283 12.452C124.634 12.452 124.39 13.1669 124.39 14.4322V16.5196H128.659L128.421 19.8367H124.397V33.162H120.2V19.8367H117.514V16.5196H120.2V14.1963C120.2 10.7434 121.819 9.03476 125.534 9.03476C126.751 9.03028 127.962 9.19144 129.134 9.51382L128.695 12.7236ZM136.887 33.5052C131.128 33.5052 129.595 30.3597 129.595 26.9426V22.7391C129.595 19.322 131.142 16.1765 136.887 16.1765C142.632 16.1765 144.18 19.322 144.18 22.7391V26.9426C144.187 30.3597 142.632 33.5052 136.887 33.5052ZM136.887 19.7294C134.648 19.7294 133.792 20.7231 133.792 22.589V27.0641C133.792 28.9442 134.656 29.9236 136.887 29.9236C139.119 29.9236 139.983 28.9299 139.983 27.0641V22.6033C139.983 20.7231 139.126 19.7294 136.887 19.7294ZM154.986 20.0083C153.445 20.7013 151.96 21.5115 150.544 22.4317V33.1549H146.347V16.5196H149.889L150.162 18.364C151.528 17.4459 153.009 16.7104 154.568 16.1765L154.986 20.0083ZM166.519 33.162V21.5452C166.519 20.6588 166.137 20.2156 165.18 20.2156C163.642 20.397 162.156 20.8832 160.81 21.6453V33.162H156.613V16.5196H159.817L160.227 17.9494C162.319 16.8987 164.609 16.2948 166.951 16.1765C168.278 16.0524 169.542 16.7629 170.118 17.9565C172.213 16.8905 174.513 16.2834 176.864 16.1765C179.65 16.1765 180.651 18.121 180.651 21.0949V33.162H176.454V21.5452C176.454 20.6588 176.072 20.2156 175.115 20.2156C173.574 20.3841 172.085 20.8711 170.745 21.6453V33.162H166.519Z" fill="black"/>
<path id="Vector_3" d="M26.8555 14.6682V28.2008L38.6621 21.4381V7.89111L26.8555 14.6682Z" fill="#4040B2"/>
<path id="Vector_4" d="M13.7529 7.89111L25.5595 14.6682V28.2008L13.7529 21.4309V7.89111Z" fill="#5C4EE5"/>
<path id="Vector_5" d="M0.650391 0.334961V13.8748L12.457 20.6447V7.10487L0.650391 0.334961ZM13.7528 36.4578L25.5594 43.2277V29.6879L13.7528 22.918V36.4578Z" fill="#5C4EE5"/>
</g>
</g>
</g>
<defs>
<clipPath id="clip0_223_862">
<rect width="180" height="43" fill="white" transform="translate(0.650391 0.227539)"/>
</clipPath>
</defs>
</svg>
