<svg width="142" height="142" viewBox="0 0 142 142" fill="none" xmlns="http://www.w3.org/2000/svg">
<g id="Frame 13">
<rect width="142" height="142" rx="20" fill="url(#paint0_radial_88_233)"/>
<g id="Group">
<g id="Group_2">
<g id="Group_3">
<path id="Vector" d="M23.6461 95.6184V85.8502H30.8093V95.6184H23.6461Z" fill="white" stroke="#FCF4F4" stroke-width="1.29212"/>
</g>
</g>
<g id="Group_4">
<g id="Group_5">
<path id="Vector_2" d="M110.074 95.6914V85.7773H117.344V95.6914H110.074Z" fill="white" stroke="#FCF4F4" stroke-width="1.31142"/>
</g>
</g>
<g id="Group_6">
<g id="Group_7">
<path id="Vector_3" d="M66.8873 33.4137V23.6461H74.0505V33.4137H66.8873Z" fill="white" stroke="#FCF4F4" stroke-width="1.29212"/>
</g>
</g>
<g id="Group_8">
<g id="Group_9">
<path id="Vector_4" d="M27.2446 84.6335C27.5584 76.1601 31.0745 28.5351 70.4619 28.5295" stroke="#FCF4F4" stroke-width="4" stroke-miterlimit="10"/>
</g>
</g>
<g id="Group_10">
<g id="Group_11">
<path id="Vector_5" d="M70.4619 28.5295C70.4642 28.5295 70.4666 28.5295 70.4689 28.5295C109.863 28.5295 113.355 76.1593 113.665 84.6335" stroke="#FCF4F4" stroke-width="4" stroke-miterlimit="10"/>
</g>
</g>
<g id="Group_12">
<g id="Group_13">
<path id="Vector_6" d="M27.228 31.596C26.648 31.596 26.0947 31.2896 25.6734 30.7385C25.2518 30.187 24.9794 29.4075 24.9794 28.5298C24.9794 27.6521 25.2518 26.8725 25.6734 26.3209C26.0947 25.7698 26.648 25.4633 27.228 25.4633C27.808 25.4633 28.3614 25.7698 28.7828 26.321C29.2045 26.8725 29.4769 27.6521 29.4769 28.5298C29.4769 29.4075 29.2045 30.187 28.7828 30.7384C28.3614 31.2895 27.808 31.596 27.228 31.596Z" fill="white" stroke="#FCF4F4" stroke-width="0.811284"/>
</g>
</g>
<g id="Group_14">
<g id="Group_15">
<path id="Vector_7" d="M113.709 31.596C113.129 31.596 112.576 31.2895 112.154 30.7385C111.733 30.187 111.46 29.4075 111.46 28.5298C111.46 27.6521 111.733 26.8725 112.154 26.3209C112.576 25.7698 113.129 25.4633 113.709 25.4633C114.289 25.4633 114.842 25.7698 115.264 26.3209C115.685 26.8725 115.958 27.6521 115.958 28.5298C115.958 29.4075 115.685 30.187 115.264 30.7384C114.842 31.2896 114.289 31.596 113.709 31.596Z" fill="white" stroke="#FCF4F4" stroke-width="0.811284"/>
</g>
</g>
<g id="Group_16">
<g id="Group_17">
<path id="Vector_8" d="M27.8438 28.5297H113.093" stroke="#FCF4F4" stroke-width="4" stroke-miterlimit="10"/>
</g>
</g>
<g id="Group_18">
<g id="Group_19">
<path id="Vector_9" d="M78.8774 108.043L78.8774 108.044C78.7673 108.228 78.642 108.271 78.5725 108.271H62.4481C62.3787 108.271 62.2536 108.228 62.1437 108.044L62.1437 108.044L52.1161 91.2755C51.657 90.5078 51.5516 89.4431 51.8642 88.5276C51.8642 88.5275 51.8642 88.5275 51.8642 88.5274L66.4587 45.8137L66.4587 45.8136C66.4869 45.7309 66.5259 45.6826 66.5531 45.6596C66.5697 45.6455 66.5799 45.6419 66.5833 45.6412H68.4032L68.404 45.6413C68.4049 45.6415 68.4079 45.6424 68.413 45.6453C68.4235 45.6511 68.4434 45.6654 68.4665 45.6956C68.514 45.7578 68.5588 45.8669 68.5589 46.0094L68.5731 80.2584C66.3948 81.3287 64.9945 84.1137 65.1904 87.1776L65.7248 87.1434L65.1904 87.1776C65.396 90.3913 67.4358 93.1698 70.1442 93.3925C71.7494 93.5246 73.1851 92.7522 74.1982 91.5028C75.2096 90.2555 75.8232 88.5122 75.8232 86.6035C75.8232 83.7742 74.4616 81.2598 72.4183 80.2557L72.4041 46.0099C72.404 45.8674 72.4488 45.7581 72.4964 45.6957C72.5195 45.6654 72.5394 45.6511 72.5499 45.6452C72.555 45.6424 72.558 45.6415 72.5588 45.6413L72.5593 45.6412L72.5594 45.6412L72.5594 45.6412L72.5595 45.6412H74.3152C74.3186 45.6419 74.3286 45.6455 74.345 45.6594C74.3722 45.6823 74.4111 45.7304 74.4395 45.8129L74.4395 45.813L89.1276 88.5278C89.4423 89.4433 89.3381 90.5098 88.8791 91.2791L89.339 91.5535L88.8791 91.2791L78.8774 108.043ZM66.5846 45.641C66.5846 45.641 66.5842 45.6411 66.5833 45.6411L66.5846 45.641ZM74.3139 45.641C74.3139 45.6409 74.3143 45.641 74.3152 45.6411L74.3139 45.641Z" fill="white" stroke="#FCF4F4" stroke-width="1.071"/>
</g>
<g id="Group_20">
<path id="Vector_10" d="M78.4232 119.174H63.004C62.9866 119.174 62.9336 119.166 62.8677 119.08C62.8014 118.993 62.745 118.85 62.745 118.67V112.419C62.745 112.239 62.8014 112.096 62.8677 112.009C62.9336 111.923 62.9866 111.915 63.004 111.915H78.4232C78.4408 111.915 78.4938 111.923 78.5597 112.009C78.626 112.096 78.6824 112.239 78.6824 112.419V118.67C78.6824 118.85 78.626 118.993 78.5597 119.08C78.4938 119.166 78.4408 119.174 78.4232 119.174Z" fill="white" stroke="#FCF4F4" stroke-width="1.071"/>
</g>
</g>
</g>
</g>
<defs>
<radialGradient id="paint0_radial_88_233" cx="0" cy="0" r="1" gradientUnits="userSpaceOnUse" gradientTransform="translate(71 71) rotate(90) scale(71)">
<stop stop-color="#EA8279"/>
<stop offset="1" stop-color="#F4C39A"/>
</radialGradient>
</defs>
</svg>
