<svg width="142" height="142" viewBox="0 0 142 142" fill="none" xmlns="http://www.w3.org/2000/svg">
<g id="Frame 19">
<rect width="142" height="142" rx="20" fill="url(#paint0_radial_88_239)"/>
<g id="Group">
<path id="Vector" d="M85.0417 62.9053C88.1328 62.9053 91.0974 61.6773 93.2832 59.4916M85.0417 62.9053C81.9505 62.9053 78.9859 61.6773 76.8001 59.4916M85.0417 62.9053V71.6459M93.2832 59.4916C95.469 57.3058 96.697 54.3412 96.697 51.25M93.2832 59.4916L99.4634 65.6717M96.697 51.25C96.697 48.1588 95.469 45.1943 93.2832 43.0085M96.697 51.25H105.437M93.2832 43.0085C91.0974 40.8227 88.1328 39.5947 85.0417 39.5947M93.2832 43.0085L99.4634 36.8283M85.0417 39.5947C81.9505 39.5947 78.9859 40.8227 76.8001 43.0085M85.0417 39.5947V30.8542M76.8001 43.0085C74.6143 45.1943 73.3864 48.1588 73.3864 51.25M76.8001 43.0085L70.62 36.8283M73.3864 51.25C73.3864 54.3412 74.6143 57.3058 76.8001 59.4916M73.3864 51.25H64.6458M76.8001 59.4916L70.62 65.6717M83.0985 30.8542H86.9848M98.0913 35.4562L100.835 38.2004M105.437 49.3069V53.1932M100.835 64.2996L98.0913 67.0438M86.9848 71.6459H83.0985M71.992 67.0438L69.2479 64.2996M64.6458 53.1932V49.3069M69.2479 38.2004L71.992 35.4562M47.0312 81.8438L53.2353 77.1898C53.8681 76.7145 54.5914 76.3734 55.3607 76.1874C56.13 76.0013 56.9292 75.9743 57.7093 76.108C58.4894 76.2417 59.234 76.5332 59.8975 76.9647C60.561 77.3962 61.1294 77.9586 61.5679 78.6175C62.2046 79.573 62.5443 80.6956 62.5443 81.8438C62.5443 82.992 62.2046 84.1145 61.5679 85.07L55.4677 94.2185C53.5932 97.0285 50.91 99.2035 47.7729 100.456L38.6875 104.094M49.8125 62.375L36.481 68.0896C32.5422 69.7767 29.4033 72.9142 27.7145 76.8524L23.3498 87.0354C22.4587 89.1142 21.9995 91.3523 22 93.614V112.438" stroke="white" stroke-width="6" stroke-linecap="round" stroke-linejoin="round"/>
<path id="Vector_2" d="M105.437 79.0625V104.094C105.437 106.307 104.558 108.429 102.994 109.994C101.429 111.558 99.3066 112.437 97.0937 112.437H58.1562C55.9433 112.437 53.8211 111.558 52.2563 109.994C50.6916 108.429 49.8125 106.307 49.8125 104.094V99.4769M49.8125 79.756V37.3437C49.8125 35.1308 50.6916 33.0086 52.2563 31.4438C53.8211 29.8791 55.9433 29 58.1562 29H64.6458" stroke="white" stroke-width="6" stroke-linecap="round" stroke-linejoin="round"/>
</g>
</g>
<defs>
<radialGradient id="paint0_radial_88_239" cx="0" cy="0" r="1" gradientUnits="userSpaceOnUse" gradientTransform="translate(71 71) rotate(90) scale(71)">
<stop stop-color="#EA8279"/>
<stop offset="1" stop-color="#F4C39A"/>
</radialGradient>
</defs>
</svg>
