<svg width="142" height="142" viewBox="0 0 142 142" fill="none" xmlns="http://www.w3.org/2000/svg">
<g id="Frame 22">
<rect width="142" height="142" rx="20" fill="url(#paint0_radial_88_242)"/>
<path id="Vector" d="M61.3725 86.5498L61.328 86.4468C60.6604 86.2655 59.9985 86.0644 59.343 85.8436L59.2936 85.824C52.4723 83.5062 46.5515 79.1282 42.36 73.3026C38.1685 67.4771 35.9161 60.4957 35.9181 53.3358C35.9159 44.5485 39.3069 36.0951 45.3927 29.7165C51.4785 23.338 59.7956 19.5201 68.6309 19.0493C77.4662 18.5786 86.1469 21.4907 92.8849 27.1859C99.623 32.8811 103.905 40.9257 104.85 49.6628C105.067 51.6832 103.388 53.3358 101.344 53.3358C99.2998 53.3358 97.6654 51.6783 97.3938 49.6677C96.737 44.922 94.8197 40.4357 91.8388 36.6697C88.858 32.9036 84.9212 29.9938 80.433 28.2393C75.9448 26.4847 71.0671 25.9487 66.3012 26.6864C61.5354 27.424 57.0532 29.4086 53.3155 32.4363C49.5777 35.464 46.7191 39.4256 45.0336 43.9138C43.348 48.4021 42.8962 53.2551 43.7246 57.9742C44.5531 62.6932 46.6318 67.1081 49.7473 70.7651C52.8628 74.422 56.9026 77.1892 61.4515 78.782C62.3678 76.725 63.9683 75.0433 65.9847 74.0187C68.001 72.9942 70.3107 72.6892 72.5266 73.1547C74.7425 73.6202 76.7299 74.8281 78.1558 76.5758C79.5816 78.3235 80.3593 80.5048 80.3583 82.7542C80.3583 85.6867 79.0646 88.3152 77.0154 90.11C75.212 91.692 72.889 92.5657 70.4827 92.5669C68.5346 92.5738 66.6285 92.0054 65.0064 90.934C63.3842 89.8627 62.1194 88.3366 61.3725 86.5498ZM50.7167 90.1149C47.0773 88.1835 43.7447 85.7297 40.8262 82.8327C38.121 83.1452 35.6256 84.4337 33.8141 86.4534C32.0026 88.473 31.0011 91.0832 31 93.7879V96.6224C31 100.997 32.5702 105.234 35.4342 108.563C43.1668 117.557 54.9484 122 70.4827 122C86.0171 122 97.8036 117.557 105.551 108.563C108.422 105.232 110 100.992 110 96.6077V93.7879C110 90.8633 108.831 88.0583 106.749 85.9894C104.668 83.9204 101.845 82.7568 98.8998 82.7542H87.765C87.765 85.3925 87.1725 87.8837 86.101 90.11H98.8998C99.8803 90.1126 100.82 90.5013 101.512 91.1907C102.204 91.8802 102.593 92.8142 102.593 93.7879V96.6077C102.594 99.2383 101.648 101.783 99.9269 103.782C93.72 110.981 84.0074 114.639 70.4827 114.639C56.9581 114.639 47.2553 110.981 41.0682 103.787C39.3477 101.789 38.4022 99.2465 38.4018 96.6175V93.7879C38.4018 92.8125 38.7919 91.877 39.4865 91.1873C40.181 90.4975 41.1229 90.11 42.1051 90.11L50.7167 90.1149ZM50.7315 53.3358C50.7324 49.9523 51.6145 46.6267 53.2921 43.6819C54.9697 40.7371 57.3857 38.2733 60.3055 36.5299C63.2252 34.7865 66.5494 33.8228 69.955 33.7324C73.3607 33.642 76.7319 34.428 79.7413 36.014C82.7506 37.6001 85.2957 39.9322 87.1293 42.7838C88.9629 45.6354 90.0226 48.9095 90.2055 52.2881C90.3883 55.6666 89.6882 59.0347 88.1729 62.0651C86.6577 65.0955 84.379 67.6851 81.5582 69.5824C78.4505 67.0062 74.5308 65.5952 70.4827 65.5955C73.7567 65.5955 76.8966 64.3038 79.2116 62.0047C81.5267 59.7056 82.8272 56.5873 82.8272 53.3358C82.8272 50.0843 81.5267 46.966 79.2116 44.6669C76.8966 42.3677 73.7567 41.0761 70.4827 41.0761C67.2087 41.0761 64.0689 42.3677 61.7538 44.6669C59.4388 46.966 58.1382 50.0843 58.1382 53.3358C58.1382 56.5873 59.4388 59.7056 61.7538 62.0047C64.0689 64.3038 67.2087 65.5955 70.4827 65.5955C66.2658 65.5955 62.4045 67.0961 59.4122 69.5824C56.7353 67.7883 54.5436 65.3682 53.0299 62.5351C51.5162 59.7021 50.7269 56.543 50.7315 53.3358Z" fill="white"/>
</g>
<defs>
<radialGradient id="paint0_radial_88_242" cx="0" cy="0" r="1" gradientUnits="userSpaceOnUse" gradientTransform="translate(71 71) rotate(90) scale(71)">
<stop stop-color="#EA8279"/>
<stop offset="1" stop-color="#F4C39A"/>
</radialGradient>
</defs>
</svg>
