<svg width="142" height="142" viewBox="0 0 142 142" fill="none" xmlns="http://www.w3.org/2000/svg">
<g id="Frame 18">
<g clip-path="url(#clip0_88_238)">
<rect width="142" height="142" rx="20" fill="url(#paint0_radial_88_238)"/>
<g id="Group">
<g id="Group_2">
<g id="Group_3">
<path id="Vector" d="M69.2871 23.3948L65.3012 24.5315C64.6625 23.4816 63.9019 22.5289 63.0435 21.6865L65.0585 18.0631C65.545 17.1889 65.2304 16.0859 64.3559 15.5995L60.6589 13.5433C59.7844 13.0569 58.6814 13.3714 58.1953 14.2459L56.1799 17.869C55.0114 17.5841 53.8009 17.4404 52.5719 17.4516L51.4352 13.4658C51.1608 12.5037 50.1583 11.9462 49.1963 12.2205L45.128 13.3808C44.166 13.6552 43.6084 14.6576 43.8828 15.6197L45.0195 19.6055C43.9695 20.2442 43.0168 21.0048 42.1744 21.8633L38.551 19.8482C37.6768 19.3617 36.5738 19.6763 36.0874 20.5508L34.0312 24.2478C33.5448 25.1223 33.8594 26.2253 34.7338 26.7114L38.357 28.7268C38.072 29.8953 37.9284 31.1059 37.9396 32.3348L33.9537 33.4715C32.9917 33.7459 32.4341 34.7484 32.7085 35.7104L33.8687 39.7787C34.1431 40.7408 35.1455 41.2983 36.1076 41.024L40.0934 39.8872C40.7322 40.9372 41.4928 41.8899 42.3512 42.7323L40.3362 46.3557C39.8497 47.2299 40.1642 48.3329 41.0388 48.8193L44.7357 50.8755C45.6103 51.3619 46.7132 51.0474 47.1993 50.1729L49.2148 46.5498C50.3832 46.8347 51.5938 46.9784 52.8228 46.9672L53.9595 50.953C54.2338 51.9151 55.2363 52.4726 56.1984 52.1983L60.2667 51.038C61.2287 50.7636 61.7863 49.7612 61.5119 48.7991L60.3752 44.8133C61.4252 44.1746 62.3779 43.414 63.2202 42.5555L66.8436 44.5706C67.7178 45.0571 68.8208 44.7425 69.3072 43.868L71.3634 40.171C71.8498 39.2965 71.5353 38.1935 70.6609 37.7074L67.0377 35.692C67.3227 34.5235 67.4663 33.3129 67.4551 32.084L71.4409 30.9472C72.403 30.6729 72.9605 29.6704 72.6862 28.7084L71.5259 24.6401C71.2516 23.678 70.2491 23.1205 69.2871 23.3948ZM54.1842 37.4231C51.3047 38.2443 48.3049 36.5758 47.4836 33.6963C46.6624 30.8167 48.3309 27.8169 51.2104 26.9957C54.09 26.1745 57.0898 27.843 57.911 30.7225C58.7322 33.6021 57.0638 36.6019 54.1842 37.4231Z" fill="#AEAEAE"/>
</g>
<rect id="Rectangle 1" x="29.375" y="47.5584" width="88.25" height="64.3333" rx="14" stroke="#FFFDFD" stroke-width="4"/>
</g>
<g id="Group_4">
<g id="Group_5">
<path id="Vector_2" d="M54.7978 59.2144L50.2197 56.372C50.6718 54.8393 50.9236 53.2744 50.9838 51.7115L56.2331 50.4837C57.4996 50.1875 58.2861 48.9208 57.9899 47.6542L56.7372 42.2986C56.4411 41.0317 55.1741 40.2451 53.9074 40.5416L48.6587 41.769C47.9116 40.395 46.9915 39.1047 45.9065 37.9316L48.749 33.3534C49.4351 32.2484 49.0958 30.7959 47.9905 30.1096L43.3177 27.2084C42.2127 26.5223 40.7601 26.8623 40.074 27.9673L37.2315 32.5454C35.6989 32.0933 34.134 31.8408 32.5712 31.7806L31.3436 26.5323C31.0475 25.2654 29.7802 24.4786 28.5134 24.7751L23.1581 26.0279C21.8916 26.3242 21.1051 27.5909 21.4013 28.8575L22.6288 34.1066C21.2552 34.8539 19.9642 35.7736 18.7911 36.8586L14.213 34.0162C13.1079 33.3301 11.6562 33.6694 10.9699 34.7747L8.06847 39.4478C7.38237 40.5528 7.72198 42.0048 8.82703 42.6909L13.4052 45.5333C12.9531 47.066 12.7011 48.6312 12.6406 50.1939L7.39179 51.4216C6.12523 51.7178 5.33856 52.9848 5.63481 54.2514L6.88737 59.6065C7.18362 60.8731 8.45093 61.6599 9.71749 61.3637L14.966 60.1358C15.7133 61.5095 16.6334 62.8006 17.7184 63.9738L14.8757 68.5522C14.1896 69.6572 14.5295 71.1093 15.6346 71.7954L20.3073 74.6967C21.4127 75.3829 22.8646 75.0433 23.5507 73.9383L26.3933 69.3599C27.926 69.812 29.4909 70.0637 31.0536 70.1243L32.2813 75.3731C32.5775 76.6396 33.8445 77.4263 35.1111 77.13L40.4665 75.8777C41.7331 75.5814 42.5198 74.3144 42.2235 73.0478L40.9955 67.7988C42.3695 67.0517 43.6606 66.1317 44.8338 65.0467L49.4119 67.8891C50.5169 68.5752 51.9692 68.2358 52.6553 67.1308L55.5567 62.4577C56.243 61.3524 55.9029 59.9005 54.7978 59.2144ZM28.0944 56.9411C24.787 54.8876 23.7701 50.5418 25.8235 47.2345C27.8769 43.9271 32.2233 42.9105 35.5307 44.964C38.838 47.0174 39.8543 51.3636 37.8009 54.671C35.7474 57.9783 31.4017 58.9945 28.0944 56.9411Z" fill="#DCDCDC"/>
<path id="Vector_3" d="M54.7978 59.2144L50.2197 56.372C50.6718 54.8393 50.9236 53.2744 50.9838 51.7115L56.2331 50.4837C57.4996 50.1875 58.2861 48.9208 57.9899 47.6542L56.7372 42.2986C56.4411 41.0317 55.1741 40.2451 53.9074 40.5416L48.6587 41.769C47.9116 40.395 46.9915 39.1047 45.9065 37.9316L48.749 33.3534C49.4351 32.2484 49.0958 30.7959 47.9905 30.1096L43.3177 27.2084C42.2127 26.5223 40.7601 26.8623 40.074 27.9673L37.2315 32.5454C35.6989 32.0933 34.134 31.8408 32.5712 31.7806L31.3436 26.5323C31.0475 25.2654 29.7802 24.4786 28.5134 24.7751L23.1581 26.0279C21.8916 26.3242 21.1051 27.5909 21.4013 28.8575L22.6288 34.1066C21.2552 34.8539 19.9642 35.7736 18.7911 36.8586L14.213 34.0162C13.1079 33.3301 11.6562 33.6694 10.9699 34.7747L8.06847 39.4478C7.38237 40.5528 7.72198 42.0048 8.82703 42.6909L13.4052 45.5333C12.9531 47.066 12.7011 48.6312 12.6406 50.1939L7.39179 51.4216C6.12523 51.7178 5.33856 52.9848 5.63481 54.2514L6.88737 59.6065C7.18362 60.8731 8.45093 61.6599 9.71749 61.3637L14.966 60.1358C15.7133 61.5095 16.6334 62.8006 17.7184 63.9738L14.8757 68.5522C14.1896 69.6572 14.5295 71.1093 15.6346 71.7954L20.3073 74.6967C21.4127 75.3829 22.8646 75.0433 23.5507 73.9383L26.3933 69.3599C27.926 69.812 29.4909 70.0637 31.0536 70.1243L32.2813 75.3731C32.5775 76.6396 33.8445 77.4263 35.1111 77.13L40.4665 75.8777C41.7331 75.5814 42.5198 74.3144 42.2235 73.0478L40.9955 67.7988C42.3695 67.0517 43.6606 66.1317 44.8338 65.0467L49.4119 67.8891C50.5169 68.5752 51.9692 68.2358 52.6553 67.1308L55.5567 62.4577C56.243 61.3524 55.9029 59.9005 54.7978 59.2144ZM28.0944 56.9411C24.787 54.8876 23.7701 50.5418 25.8235 47.2345C27.8769 43.9271 32.2233 42.9105 35.5307 44.964C38.838 47.0174 39.8543 51.3636 37.8009 54.671C35.7474 57.9783 31.4017 58.9945 28.0944 56.9411Z" fill="#DCDCDC" stroke="#E0EEFB" stroke-width="2" stroke-miterlimit="10"/>
</g>
</g>
<g id="Group_6">
<g id="Group_7">
<path id="Vector_4" d="M80.2601 92.1105H50.5874V89.1229H80.2601V92.1105Z" fill="white"/>
</g>
<g id="Group_8">
<path id="Vector_5" d="M75.2606 84.4695H45.5879V81.482H75.2606V84.4695Z" fill="white"/>
</g>
<g id="Group_9">
<path id="Vector_6" d="M101.517 76.8281H71.8442V73.8406H101.517V76.8281Z" fill="white"/>
</g>
<g id="Group_10">
<g id="Group_11">
<path id="Vector_7" d="M69.0972 69.1878H60.6895V66.2002H69.0972V69.1878Z" fill="white"/>
</g>
<g id="Group_12">
<path id="Vector_8" d="M89.7533 69.1877H71.1201V66.2002H89.7533V69.1877Z" fill="white"/>
</g>
<g id="Group_13">
<path id="Vector_9" d="M109.75 69.1877H91.1167V66.2002H109.75V69.1877Z" fill="white"/>
</g>
</g>
</g>
<g id="Group_14">
<g id="Group_15">
<g id="Group_16">
<path id="Vector_10" d="M64.9709 99.9469H45.666V96.9594H64.9709V99.9469Z" fill="#AEAEAE"/>
</g>
<g id="Group_17">
<path id="Vector_11" d="M77.2225 99.813H66.2598V96.8254H77.2225V99.813Z" fill="#AEAEAE"/>
</g>
<g id="Group_18">
<path id="Vector_12" d="M95.721 99.813H79.4365V96.8254H95.721V99.813Z" fill="#AEAEAE"/>
</g>
</g>
</g>
<g id="Group_19">
<g id="Group_20">
<path id="Vector_13" d="M124.002 84.1435L120.325 86.6523L115.689 79.8581L119.366 77.349L124.002 84.1435Z" fill="#CCCCCC"/>
</g>
<g id="Group_21">
<path id="Vector_14" d="M134.81 99.3207L130.241 102.438C129.462 102.97 128.399 102.769 127.868 101.99L119.009 89.005C118.477 88.2255 118.678 87.1626 119.457 86.6309L124.026 83.5137C124.805 82.982 125.868 83.183 126.4 83.9623L135.258 96.9466C135.79 97.7261 135.59 98.789 134.81 99.3207Z" fill="#CCCCCC"/>
</g>
<g id="Group_22">
<path id="Vector_15" d="M124.266 71.0482C127.02 62.7787 122.549 53.8426 114.282 51.09C106.013 48.3363 97.0768 52.8077 94.323 61.0772C91.5693 69.3467 96.0408 78.2827 104.31 81.0365C112.576 83.7891 121.513 79.3177 124.266 71.0482ZM120.574 69.8187C122.649 63.5882 119.279 56.8591 113.052 54.7855C106.821 52.7107 100.09 56.0762 98.0153 62.3067C95.9417 68.5339 99.3104 75.2662 105.541 77.341C111.768 79.4146 118.5 76.0459 120.574 69.8187Z" fill="#CCCCCC"/>
<g id="Group_23">
<path id="Vector_16" d="M124.268 71.0486C127.022 62.7791 122.55 53.8433 114.281 51.0897C106.012 48.336 97.0759 52.8071 94.3222 61.0766C91.5685 69.3461 96.04 78.2818 104.309 81.0355C112.579 83.7891 121.515 79.318 124.268 71.0486Z" fill="#CCCCCC"/>
</g>
<g id="Group_24">
<path id="Vector_17" d="M120.573 69.8181C122.647 63.5895 119.28 56.8589 113.051 54.7849C106.822 52.7107 100.092 56.0785 98.0175 62.307C95.9434 68.5356 99.3113 75.2662 105.54 77.3403C111.769 79.4144 118.499 76.0466 120.573 69.8181Z" fill="white"/>
</g>
</g>
<g id="Group_25" opacity="0.75">
<path id="Vector_18" d="M120.573 69.8181C122.647 63.5895 119.28 56.8589 113.051 54.7849C106.822 52.7107 100.092 56.0785 98.0175 62.307C95.9434 68.5356 99.3113 75.2662 105.54 77.3403C111.769 79.4144 118.499 76.0466 120.573 69.8181Z" fill="white"/>
</g>
</g>
</g>
</g>
</g>
<defs>
<radialGradient id="paint0_radial_88_238" cx="0" cy="0" r="1" gradientUnits="userSpaceOnUse" gradientTransform="translate(71 71) rotate(90) scale(71)">
<stop stop-color="#EA8279"/>
<stop offset="1" stop-color="#F4C39A"/>
</radialGradient>
<clipPath id="clip0_88_238">
<rect width="142" height="142" rx="20" fill="white"/>
</clipPath>
</defs>
</svg>
