<svg width="142" height="142" viewBox="0 0 142 142" fill="none" xmlns="http://www.w3.org/2000/svg">
<g id="Frame 14">
<rect width="142" height="142" rx="20" fill="url(#paint0_radial_88_234)"/>
<path id="Vector" d="M82.1907 54.5641C85.0691 53.5638 88.0961 53.0551 91.1442 53.0594C94.218 53.0594 97.1743 53.5703 99.9332 54.5078M99.9332 54.5078C110.452 58.0938 118 67.9422 118 79.5297C118 94.15 105.977 106 91.1442 106H44.1442C33.0193 106 24 97.1125 24 86.1484C24 75.1844 33.0193 66.2969 44.1442 66.2922C45.4536 66.2923 46.7599 66.4179 48.0452 66.6672M99.9332 54.5078C98.4339 41.2844 87.0552 31 73.2372 31C58.404 31 46.3814 42.85 46.3814 57.4703C46.3776 60.6107 46.9412 63.7261 48.0452 66.6672M48.0452 66.6672C50.6457 67.1709 53.1212 68.1808 55.3302 69.6391" stroke="white" stroke-width="7" stroke-linecap="round"/>
</g>
<defs>
<radialGradient id="paint0_radial_88_234" cx="0" cy="0" r="1" gradientUnits="userSpaceOnUse" gradientTransform="translate(71 71) rotate(90) scale(71)">
<stop stop-color="#EA8279"/>
<stop offset="1" stop-color="#F4C39A"/>
</radialGradient>
</defs>
</svg>
