<svg width="142" height="142" viewBox="0 0 142 142" fill="none" xmlns="http://www.w3.org/2000/svg">
<g id="Frame 16">
<rect width="142" height="142" rx="20" fill="url(#paint0_radial_88_236)"/>
<g id="Group">
<g id="Group_2">
<g id="Group_3">
<path id="Vector" d="M62.2529 76.1323V78.2503H60.135V76.1323H62.2529Z" fill="black" stroke="white" stroke-width="1.105"/>
</g>
</g>
<g id="Group_4">
<g id="Group_5">
<path id="Vector_2" d="M71.5469 70.881V72.9989H69.429V70.881H71.5469Z" fill="black" stroke="white" stroke-width="1.105"/>
</g>
</g>
<g id="Group_6">
<g id="Group_7">
<path id="Vector_3" d="M80.647 76.1183V78.2362H78.5291V76.1183H80.647Z" fill="black" stroke="white" stroke-width="1.105"/>
</g>
</g>
<g id="Group_8">
<g id="Group_9">
<path id="Vector_4" d="M62.963 68.7424V69.6424H59.424V68.7424H62.963Z" fill="black" stroke="white" stroke-width="1.011"/>
</g>
</g>
<g id="Group_10">
<g id="Group_11">
<path id="Vector_5" d="M81.3575 68.7467V69.6467H77.8185V68.7467H81.3575Z" fill="black" stroke="white" stroke-width="1.011"/>
</g>
</g>
<g id="Group_12">
<g id="Group_13">
<path id="Vector_6" d="M72.2579 68.5354V69.4354H68.7189V68.5354H72.2579Z" fill="black" stroke="white" stroke-width="1.011"/>
</g>
</g>
<g id="Group_14">
<g id="Group_15">
<path id="Vector_7" d="M79.6001 67.311V78.181H87.3101V86.6152" stroke="white" stroke-width="2" stroke-linejoin="round"/>
</g>
</g>
<g id="Group_16">
<g id="Group_17">
<path id="Vector_8" d="M70.5 66.8754V89.2284" stroke="white" stroke-width="2" stroke-miterlimit="10"/>
</g>
</g>
<g id="Group_18">
<g id="Group_19">
<path id="Vector_9" d="M61.2105 67.311V78.181H53.5005V86.6152" stroke="white" stroke-width="2" stroke-linejoin="round"/>
</g>
</g>
<g id="Group_20">
<g id="Group_21">
<path id="Vector_10" d="M116 51.8263C116 52.602 115.943 53.3626 115.829 54.105C114.733 61.335 108.497 66.8758 100.968 66.8758H42.0955C34.5959 66.8758 28.2256 62.0414 25.9221 55.3165C25.3246 53.5757 25 51.7061 25 49.7613C25 40.3125 32.6527 32.6495 42.0955 32.6495C43.561 32.6495 44.9847 32.833 46.3452 33.1815C48.4147 20.0445 59.7794 10 73.4871 10C88.4202 10 100.572 21.9233 100.959 36.7802H100.968C109.269 36.7802 116 43.5168 116 51.8263Z" stroke="white" stroke-width="4" stroke-linecap="round" stroke-linejoin="round"/>
</g>
</g>
<g id="Group_22">
<g id="Group_23">
<path id="Vector_11" d="M73.1649 129.116C73.1649 130.603 71.9591 131.809 70.4714 131.809C68.9837 131.809 67.7779 130.603 67.7779 129.116C67.7779 127.629 68.9838 126.423 70.4714 126.423C71.959 126.423 73.1649 127.629 73.1649 129.116Z" fill="#B4B0B0" stroke="white" stroke-width="1.3"/>
</g>
<g id="Group_24">
<path id="Vector_12" d="M46.9263 129.116C46.9263 130.211 46.0383 131.099 44.9432 131.099C43.8486 131.099 42.9609 130.211 42.9609 129.116C42.9609 128.021 43.8486 127.134 44.9432 127.134C46.0383 127.134 46.9263 128.021 46.9263 129.116Z" stroke="white" stroke-width="3.9" stroke-miterlimit="10"/>
</g>
<g id="Group_25">
<path id="Vector_13" d="M97.7026 129.116C97.7026 130.211 96.8142 131.099 95.7196 131.099C94.6249 131.099 93.7373 130.211 93.7373 129.116C93.7373 128.021 94.6249 127.134 95.7196 127.134C96.8142 127.134 97.7026 128.021 97.7026 129.116Z" stroke="white" stroke-width="3.9" stroke-miterlimit="10"/>
</g>
<g id="Group_26">
<path id="Vector_14" d="M70.4712 128.674V86.6149" stroke="white" stroke-width="5.2" stroke-miterlimit="10"/>
</g>
<g id="Group_27">
<path id="Vector_15" d="M47.2056 129.116H93.7377" stroke="white" stroke-width="2" stroke-miterlimit="10"/>
</g>
<g id="Group_28">
<path id="Vector_16" d="M97.547 122.232H43.0738V112.571H97.547V122.232Z" fill="#B4B0B0" stroke="white" stroke-width="1.3"/>
</g>
<g id="Group_29">
<path id="Vector_17" d="M90.418 115.028C90.418 115.269 90.2224 115.465 89.9805 115.465C89.7388 115.465 89.5431 115.269 89.5431 115.028C89.5431 114.787 89.7388 114.591 89.9805 114.591C90.2224 114.591 90.418 114.787 90.418 115.028Z" fill="white" stroke="white" stroke-width="1.3"/>
</g>
<g id="Group_30">
<path id="Vector_18" d="M94.458 115.028C94.458 115.269 94.2625 115.465 94.0206 115.465C93.7786 115.465 93.5831 115.269 93.5831 115.028C93.5831 114.787 93.7786 114.591 94.0206 114.591C94.2625 114.591 94.458 114.787 94.458 115.028Z" fill="white" stroke="white" stroke-width="1.3"/>
</g>
<g id="Group_31">
<g id="Vector_19">
<mask id="path-20-inside-1_88_236" fill="white">
<path d="M49.741 117.93H45.4238V116.874H49.741V117.93Z"/>
</mask>
<path d="M49.741 117.93H45.4238V116.874H49.741V117.93Z" fill="white"/>
<path d="M49.741 117.93V119.23H51.041V117.93H49.741ZM45.4238 117.93H44.1238V119.23H45.4238V117.93ZM45.4238 116.874V115.574H44.1238V116.874H45.4238ZM49.741 116.874H51.041V115.574H49.741V116.874ZM49.741 116.63H45.4238V119.23H49.741V116.63ZM46.7238 117.93V116.874H44.1238V117.93H46.7238ZM45.4238 118.174H49.741V115.574H45.4238V118.174ZM48.441 116.874V117.93H51.041V116.874H48.441Z" fill="white" mask="url(#path-20-inside-1_88_236)"/>
</g>
</g>
<g id="Group_32">
<g id="Vector_20">
<mask id="path-22-inside-2_88_236" fill="white">
<path d="M49.741 120.303H45.4238V119.248H49.741V120.303Z"/>
</mask>
<path d="M49.741 120.303H45.4238V119.248H49.741V120.303Z" fill="white"/>
<path d="M49.741 120.303V121.603H51.041V120.303H49.741ZM45.4238 120.303H44.1238V121.603H45.4238V120.303ZM45.4238 119.248V117.948H44.1238V119.248H45.4238ZM49.741 119.248H51.041V117.948H49.741V119.248ZM49.741 119.003H45.4238V121.603H49.741V119.003ZM46.7238 120.303V119.248H44.1238V120.303H46.7238ZM45.4238 120.548H49.741V117.948H45.4238V120.548ZM48.441 119.248V120.303H51.041V119.248H48.441Z" fill="white" mask="url(#path-22-inside-2_88_236)"/>
</g>
</g>
<g id="Group_33">
<g id="Vector_21">
<mask id="path-24-inside-3_88_236" fill="white">
<path d="M49.741 115.556H45.4238V114.501H49.741V115.556Z"/>
</mask>
<path d="M49.741 115.556H45.4238V114.501H49.741V115.556Z" fill="white"/>
<path d="M49.741 115.556V116.856H51.041V115.556H49.741ZM45.4238 115.556H44.1238V116.856H45.4238V115.556ZM45.4238 114.501V113.201H44.1238V114.501H45.4238ZM49.741 114.501H51.041V113.201H49.741V114.501ZM49.741 114.256H45.4238V116.856H49.741V114.256ZM46.7238 115.556V114.501H44.1238V115.556H46.7238ZM45.4238 115.801H49.741V113.201H45.4238V115.801ZM48.441 114.501V115.556H51.041V114.501H48.441Z" fill="white" mask="url(#path-24-inside-3_88_236)"/>
</g>
</g>
<g id="Group_34">
<path id="Vector_22" d="M97.547 109.069H43.0738V99.4073H97.547V109.069Z" fill="#B4B0B0" stroke="white" stroke-width="1.3"/>
</g>
<g id="Group_35">
<path id="Vector_23" d="M90.418 101.865C90.418 102.106 90.2224 102.302 89.9805 102.302C89.7388 102.302 89.5431 102.106 89.5431 101.865C89.5431 101.623 89.7394 101.427 89.9805 101.427C90.2218 101.427 90.418 101.623 90.418 101.865Z" fill="white" stroke="white" stroke-width="1.3"/>
</g>
<g id="Group_36">
<path id="Vector_24" d="M94.458 101.865C94.458 102.106 94.2625 102.302 94.0206 102.302C93.7786 102.302 93.5831 102.106 93.5831 101.865C93.5831 101.623 93.7792 101.427 94.0206 101.427C94.2619 101.427 94.458 101.623 94.458 101.865Z" fill="white" stroke="white" stroke-width="1.3"/>
</g>
<g id="Group_37">
<g id="Vector_25">
<mask id="path-29-inside-4_88_236" fill="white">
<path d="M49.741 104.766H45.4238V103.711H49.741V104.766Z"/>
</mask>
<path d="M49.741 104.766H45.4238V103.711H49.741V104.766Z" fill="white"/>
<path d="M49.741 104.766V106.066H51.041V104.766H49.741ZM45.4238 104.766H44.1238V106.066H45.4238V104.766ZM45.4238 103.711V102.411H44.1238V103.711H45.4238ZM49.741 103.711H51.041V102.411H49.741V103.711ZM49.741 103.466H45.4238V106.066H49.741V103.466ZM46.7238 104.766V103.711H44.1238V104.766H46.7238ZM45.4238 105.011H49.741V102.411H45.4238V105.011ZM48.441 103.711V104.766H51.041V103.711H48.441Z" fill="white" mask="url(#path-29-inside-4_88_236)"/>
</g>
</g>
<g id="Group_38">
<g id="Vector_26">
<mask id="path-31-inside-5_88_236" fill="white">
<path d="M49.741 107.14H45.4238V106.084H49.741V107.14Z"/>
</mask>
<path d="M49.741 107.14H45.4238V106.084H49.741V107.14Z" fill="white"/>
<path d="M49.741 107.14V108.44H51.041V107.14H49.741ZM45.4238 107.14H44.1238V108.44H45.4238V107.14ZM45.4238 106.084V104.784H44.1238V106.084H45.4238ZM49.741 106.084H51.041V104.784H49.741V106.084ZM49.741 105.84H45.4238V108.44H49.741V105.84ZM46.7238 107.14V106.084H44.1238V107.14H46.7238ZM45.4238 107.384H49.741V104.784H45.4238V107.384ZM48.441 106.084V107.14H51.041V106.084H48.441Z" fill="white" mask="url(#path-31-inside-5_88_236)"/>
</g>
</g>
<g id="Group_39">
<g id="Vector_27">
<mask id="path-33-inside-6_88_236" fill="white">
<path d="M49.741 102.392H45.4238V101.336H49.741V102.392Z"/>
</mask>
<path d="M49.741 102.392H45.4238V101.336H49.741V102.392Z" fill="white"/>
<path d="M49.741 102.392V103.692H51.041V102.392H49.741ZM45.4238 102.392H44.1238V103.692H45.4238V102.392ZM45.4238 101.336V100.036H44.1238V101.336H45.4238ZM49.741 101.336H51.041V100.036H49.741V101.336ZM49.741 101.092H45.4238V103.692H49.741V101.092ZM46.7238 102.392V101.336H44.1238V102.392H46.7238ZM45.4238 102.636H49.741V100.036H45.4238V102.636ZM48.441 101.336V102.392H51.041V101.336H48.441Z" fill="white" mask="url(#path-33-inside-6_88_236)"/>
</g>
</g>
<g id="Group_40">
<path id="Vector_28" d="M97.547 95.9047H43.0738V86.2437H97.547V95.9047Z" fill="#B4B0B0" stroke="white" stroke-width="1.3"/>
</g>
<g id="Group_41">
<path id="Vector_29" d="M90.418 88.7002C90.418 88.9421 90.2218 89.1381 89.9805 89.1381C89.7394 89.1381 89.5431 88.942 89.5431 88.7002C89.5431 88.4591 89.7388 88.2632 89.9805 88.2632C90.2224 88.2632 90.418 88.4589 90.418 88.7002Z" fill="white" stroke="white" stroke-width="1.3"/>
</g>
<g id="Group_42">
<path id="Vector_30" d="M94.458 88.7002C94.458 88.9421 94.2619 89.1381 94.0206 89.1381C93.7792 89.1381 93.5831 88.9421 93.5831 88.7002C93.5831 88.4589 93.7786 88.2632 94.0206 88.2632C94.2625 88.2632 94.458 88.4589 94.458 88.7002Z" fill="white" stroke="white" stroke-width="1.3"/>
</g>
<g id="Group_43">
<g id="Vector_31">
<mask id="path-38-inside-7_88_236" fill="white">
<path d="M49.741 91.602H45.4238V90.5464H49.741V91.602Z"/>
</mask>
<path d="M49.741 91.602H45.4238V90.5464H49.741V91.602Z" fill="white"/>
<path d="M49.741 91.602V92.902H51.041V91.602H49.741ZM45.4238 91.602H44.1238V92.902H45.4238V91.602ZM45.4238 90.5464V89.2464H44.1238V90.5464H45.4238ZM49.741 90.5464H51.041V89.2464H49.741V90.5464ZM49.741 90.302H45.4238V92.902H49.741V90.302ZM46.7238 91.602V90.5464H44.1238V91.602H46.7238ZM45.4238 91.8464H49.741V89.2464H45.4238V91.8464ZM48.441 90.5464V91.602H51.041V90.5464H48.441Z" fill="white" mask="url(#path-38-inside-7_88_236)"/>
</g>
</g>
<g id="Group_44">
<g id="Vector_32">
<mask id="path-40-inside-8_88_236" fill="white">
<path d="M49.741 93.9764H45.4238V92.9208H49.741V93.9764Z"/>
</mask>
<path d="M49.741 93.9764H45.4238V92.9208H49.741V93.9764Z" fill="white"/>
<path d="M49.741 93.9764V95.2764H51.041V93.9764H49.741ZM45.4238 93.9764H44.1238V95.2764H45.4238V93.9764ZM45.4238 92.9208V91.6208H44.1238V92.9208H45.4238ZM49.741 92.9208H51.041V91.6208H49.741V92.9208ZM49.741 92.6764H45.4238V95.2764H49.741V92.6764ZM46.7238 93.9764V92.9208H44.1238V93.9764H46.7238ZM45.4238 94.2208H49.741V91.6208H45.4238V94.2208ZM48.441 92.9208V93.9764H51.041V92.9208H48.441Z" fill="white" mask="url(#path-40-inside-8_88_236)"/>
</g>
</g>
<g id="Group_45">
<g id="Vector_33">
<mask id="path-42-inside-9_88_236" fill="white">
<path d="M49.741 89.2288H45.4238V88.1732H49.741V89.2288Z"/>
</mask>
<path d="M49.741 89.2288H45.4238V88.1732H49.741V89.2288Z" fill="white"/>
<path d="M49.741 89.2288V90.5288H51.041V89.2288H49.741ZM45.4238 89.2288H44.1238V90.5288H45.4238V89.2288ZM45.4238 88.1732V86.8732H44.1238V88.1732H45.4238ZM49.741 88.1732H51.041V86.8732H49.741V88.1732ZM49.741 87.9288H45.4238V90.5288H49.741V87.9288ZM46.7238 89.2288V88.1732H44.1238V89.2288H46.7238ZM45.4238 89.4732H49.741V86.8732H45.4238V89.4732ZM48.441 88.1732V89.2288H51.041V88.1732H48.441Z" fill="white" mask="url(#path-42-inside-9_88_236)"/>
</g>
</g>
</g>
<g id="Group_46">
<g id="Group_47">
<g id="Vector_34">
<mask id="path-44-inside-10_88_236" fill="white">
<path d="M77.4361 36.8165V35.6643C77.4361 31.8388 74.3248 28.7266 70.5004 28.7266C66.6749 28.7266 63.5626 31.8388 63.5626 35.6643V36.8165H62.3188V35.6643C62.3188 31.1529 65.9894 27.4828 70.5004 27.4828C75.0118 27.4828 78.683 31.1529 78.683 35.6643V36.8165H77.4361Z"/>
</mask>
<path d="M77.4361 36.8165V35.6643C77.4361 31.8388 74.3248 28.7266 70.5004 28.7266C66.6749 28.7266 63.5626 31.8388 63.5626 35.6643V36.8165H62.3188V35.6643C62.3188 31.1529 65.9894 27.4828 70.5004 27.4828C75.0118 27.4828 78.683 31.1529 78.683 35.6643V36.8165H77.4361Z" fill="black"/>
<path d="M77.4361 36.8165H75.6421V38.6105H77.4361V36.8165ZM63.5626 36.8165V38.6105H65.3566V36.8165H63.5626ZM62.3188 36.8165H60.5248V38.6105H62.3188V36.8165ZM78.683 36.8165V38.6105H80.477V36.8165H78.683ZM79.2301 36.8165V35.6643H75.6421V36.8165H79.2301ZM79.2301 35.6643C79.2301 30.8486 75.3161 26.9326 70.5004 26.9326V30.5206C73.3335 30.5206 75.6421 32.8291 75.6421 35.6643H79.2301ZM70.5004 26.9326C65.6841 26.9326 61.7686 30.848 61.7686 35.6643H65.3566C65.3566 32.8296 67.6657 30.5206 70.5004 30.5206V26.9326ZM61.7686 35.6643V36.8165H65.3566V35.6643H61.7686ZM63.5626 35.0225H62.3188V38.6105H63.5626V35.0225ZM64.1128 36.8165V35.6643H60.5248V36.8165H64.1128ZM64.1128 35.6643C64.1128 32.1437 66.9802 29.2768 70.5004 29.2768V25.6888C64.9987 25.6888 60.5248 30.162 60.5248 35.6643H64.1128ZM70.5004 29.2768C74.0213 29.2768 76.889 32.144 76.889 35.6643H80.477C80.477 30.1618 76.0023 25.6888 70.5004 25.6888V29.2768ZM76.889 35.6643V36.8165H80.477V35.6643H76.889ZM78.683 35.0225H77.4361V38.6105H78.683V35.0225Z" fill="white" mask="url(#path-44-inside-10_88_236)"/>
</g>
</g>
<g id="Group_48">
<path id="Vector_35" d="M80.7427 55.665H60.2559C59.7227 55.665 59.2905 55.2333 59.2905 54.7006V38.156C59.2905 37.6228 59.7227 37.1901 60.2559 37.1901H80.7427C81.2764 37.1901 81.7087 37.6228 81.7087 38.156V54.7006C81.7087 55.2333 81.2764 55.665 80.7427 55.665Z" stroke="white" stroke-width="2" stroke-miterlimit="10"/>
</g>
<g id="Group_49">
<path id="Vector_36" d="M72.993 51.2613L71.8084 46.0016C72.4635 45.5736 72.8978 44.8342 72.8978 43.9929C72.8978 42.6675 71.824 41.5938 70.4992 41.5938C69.1743 41.5938 68.1001 42.6675 68.1001 43.9929C68.1001 44.8342 68.5344 45.5736 69.19 46.0016L68.0054 51.2613H72.993Z" stroke="white" stroke-width="2" stroke-linejoin="round"/>
</g>
</g>
</g>
</g>
<defs>
<radialGradient id="paint0_radial_88_236" cx="0" cy="0" r="1" gradientUnits="userSpaceOnUse" gradientTransform="translate(71 71) rotate(90) scale(71)">
<stop stop-color="#EA8279"/>
<stop offset="1" stop-color="#F4C39A"/>
</radialGradient>
</defs>
</svg>
