<svg width="142" height="142" viewBox="0 0 142 142" fill="none" xmlns="http://www.w3.org/2000/svg">
<g id="Frame 21">
<rect width="142" height="142" rx="20" fill="url(#paint0_radial_88_241)"/>
<path id="Vector" fill-rule="evenodd" clip-rule="evenodd" d="M30.375 36.4286V86.7143H111.625V36.4286H30.375ZM27.25 96.1429H52.25V105.571H44.4375C43.1943 105.571 42.002 106.068 41.1229 106.952C40.2439 107.836 39.75 109.035 39.75 110.286C39.75 111.536 40.2439 112.735 41.1229 113.619C42.002 114.503 43.1943 115 44.4375 115H97.5625C98.8057 115 99.998 114.503 100.877 113.619C101.756 112.735 102.25 111.536 102.25 110.286C102.25 109.035 101.756 107.836 100.877 106.952C99.998 106.068 98.8057 105.571 97.5625 105.571H89.75V96.1429H114.75C116.408 96.1429 117.997 95.4806 119.169 94.3018C120.342 93.123 121 91.5242 121 89.8571V33.2857C121 31.6186 120.342 30.0198 119.169 28.841C117.997 27.6622 116.408 27 114.75 27H27.25C25.5924 27 24.0027 27.6622 22.8306 28.841C21.6585 30.0198 21 31.6186 21 33.2857V89.8571C21 91.5242 21.6585 93.123 22.8306 94.3018C24.0027 95.4806 25.5924 96.1429 27.25 96.1429ZM61.625 105.571V96.1429H80.375V105.571H61.625ZM92.875 56.8571C92.875 55.6068 92.3811 54.4077 91.5021 53.5236C90.623 52.6395 89.4307 52.1429 88.1875 52.1429C86.9443 52.1429 85.752 52.6395 84.8729 53.5236C83.9939 54.4077 83.5 55.6068 83.5 56.8571V72.5714C83.5 73.8217 83.9939 75.0208 84.8729 75.9049C85.752 76.789 86.9443 77.2857 88.1875 77.2857C89.4307 77.2857 90.623 76.789 91.5021 75.9049C92.3811 75.0208 92.875 73.8217 92.875 72.5714V56.8571ZM69.4375 45.8571C70.6807 45.8571 71.873 46.3538 72.7521 47.2379C73.6311 48.122 74.125 49.3211 74.125 50.5714V72.5714C74.125 73.8217 73.6311 75.0208 72.7521 75.9049C71.873 76.789 70.6807 77.2857 69.4375 77.2857C68.1943 77.2857 67.002 76.789 66.1229 75.9049C65.2439 75.0208 64.75 73.8217 64.75 72.5714V50.5714C64.75 49.3211 65.2439 48.122 66.1229 47.2379C67.002 46.3538 68.1943 45.8571 69.4375 45.8571ZM55.375 63.1429C55.375 61.8926 54.8811 60.6935 54.0021 59.8094C53.123 58.9253 51.9307 58.4286 50.6875 58.4286C49.4443 58.4286 48.252 58.9253 47.3729 59.8094C46.4939 60.6935 46 61.8926 46 63.1429V72.5714C46 73.8217 46.4939 75.0208 47.3729 75.9049C48.252 76.789 49.4443 77.2857 50.6875 77.2857C51.9307 77.2857 53.123 76.789 54.0021 75.9049C54.8811 75.0208 55.375 73.8217 55.375 72.5714V63.1429Z" fill="white"/>
</g>
<defs>
<radialGradient id="paint0_radial_88_241" cx="0" cy="0" r="1" gradientUnits="userSpaceOnUse" gradientTransform="translate(71 71) rotate(90) scale(71)">
<stop stop-color="#EA8279"/>
<stop offset="1" stop-color="#F4C39A"/>
</radialGradient>
</defs>
</svg>
