<svg width="142" height="142" viewBox="0 0 142 142" fill="none" xmlns="http://www.w3.org/2000/svg">
<g id="Frame 20">
<rect width="142" height="142" rx="20" fill="url(#paint0_radial_88_240)"/>
<g id="Group">
<g id="Group_2">
<g id="Group_3">
<path id="Vector" d="M128.686 69.8637C127.223 48.3842 113.79 30.1945 95.0039 21.9102L72.1689 73.7696L128.686 69.8637Z" fill="white"/>
</g>
</g>
<g id="Group_4">
<g id="Group_5">
<path id="Vector_2" d="M88.9292 16.7946C81.9432 13.7141 74.2194 12 66.0942 12V68.6538L88.9292 16.7946Z" fill="#D6D6D6"/>
</g>
</g>
<g id="Group_6">
<g id="Group_7">
<path id="Vector_3" d="M59.06 83.0416V36.9816C33.6217 36.9816 13 57.6033 13 83.0416C13 108.48 33.6217 129.102 59.06 129.102C84.4983 129.102 105.12 108.48 105.12 83.0416C105.12 81.974 105.081 80.9158 105.009 79.8661L59.06 83.0416Z" fill="#E8E8E8"/>
</g>
</g>
</g>
</g>
<defs>
<radialGradient id="paint0_radial_88_240" cx="0" cy="0" r="1" gradientUnits="userSpaceOnUse" gradientTransform="translate(71 71) rotate(90) scale(71)">
<stop stop-color="#EA8279"/>
<stop offset="1" stop-color="#F4C39A"/>
</radialGradient>
</defs>
</svg>
