<svg width="142" height="142" viewBox="0 0 142 142" fill="none" xmlns="http://www.w3.org/2000/svg">
<g id="Frame 15">
<g clip-path="url(#clip0_88_235)">
<rect width="142" height="142" rx="20" fill="url(#paint0_radial_88_235)"/>
<g id="Clip path group">
<mask id="mask0_88_235" style="mask-type:luminance" maskUnits="userSpaceOnUse" x="28" y="7" width="134" height="128">
<g id="__lottie_element_33928">
<path id="Vector" d="M162 7H28V135H162V7Z" fill="white"/>
</g>
</mask>
<g mask="url(#mask0_88_235)">
<g id="Group">
<g id="Group_2">
<g id="Group_3">
<path id="Vector_2" d="M60.4229 70.4562H62.2754V58.2788H60.4229V70.4562Z" fill="white"/>
</g>
<g id="Group_4">
<path id="Vector_3" d="M79.1756 111.048H55.1729V69.3492H79.1756L83.2736 82.1409L79.1756 89.6259V111.048Z" fill="white"/>
</g>
<g id="Group_5">
<path id="Vector_4" d="M72.2658 60.493H70.304V51.3471C70.304 50.6916 70.7431 50.1606 71.2851 50.1606H84.8175V52.5332H72.2658V60.493ZM71.2306 42.4113H82.0383V40.1971H71.2306V42.4113ZM71.2306 32.0789H82.0383V29.8647H71.2306V32.0789ZM50.4951 62.3381H41.277V59.9856H49.5229V52.0057H51.4673V61.1618C51.4673 61.8113 51.0318 62.3381 50.4951 62.3381ZM37.2627 43.8875H51.4673V41.6733H37.2627V43.8875ZM52.3936 33.924H38.2571C37.7075 33.924 37.2627 33.3862 37.2627 32.7227V24.3296H39.2512V31.5219H52.3936V33.924ZM62.4072 23.2227H60.4225V14.4649C60.4225 13.7988 60.8667 13.2592 61.415 13.2592H76.6666C77.2143 13.2592 77.6588 13.7988 77.6588 14.4649V18.4178H86.9792V20.829H76.6666C76.1183 20.829 75.6741 20.2889 75.6741 19.6232V15.6703H62.4072V23.2227Z" fill="white"/>
</g>
<g id="Group_6">
<path id="Vector_5" d="M37.3409 121.861C39.2175 126.206 45.2421 127.103 48.046 127.644C63.7997 130.683 79.5373 123.65 95.317 120.929C92.2422 104.696 80.3308 92.5972 66.1056 92.5972C51.9684 92.5972 40.1185 104.548 36.9541 120.629C37.0555 121.074 37.1806 121.489 37.3409 121.861Z" fill="white"/>
</g>
<g id="Group_7">
<path id="Vector_6" d="M92.0891 88.9067H100.333C100.698 88.9067 101.048 88.7333 101.306 88.4235C101.563 88.1133 101.707 87.6926 101.707 87.2545V78.0256L104.05 76.2476V76.2434C104.308 75.9336 104.455 75.5122 104.455 75.074V69.2511H106.461C107.393 69.2511 108.262 68.6846 108.767 67.747C109.275 66.8093 109.354 65.6278 108.976 64.603L104.703 53.0357C106.324 50.7139 107.21 47.7771 107.204 44.7444C107.217 39.3866 105.984 33.9546 103.642 29.3935C101.299 24.8325 97.3205 20.991 93.3255 18.6109L89.3413 16.2114L81.3558 28.4597L81.0973 50.0754L85.2186 56.4072V61.1527L78.5576 64.8969L78.333 79.5794L92.0891 88.9067Z" fill="white"/>
</g>
<g id="Group_8">
<path id="Vector_7" d="M87.9058 50.5295H89.7586V48.3156H87.9058V50.5295ZM87.9058 45.7325H89.7586V37.614H87.9058V45.7325ZM87.9058 35.0309H89.7586V26.9127H87.9058V35.0309Z" fill="white"/>
</g>
<g id="Group_9">
<path id="Vector_8" d="M38.0347 21.3777C36.5851 21.3777 35.4102 22.7819 35.4102 24.5141C35.4102 26.2462 36.5851 27.6508 38.0347 27.6508C39.4843 27.6508 40.6596 26.2462 40.6596 24.5141C40.6596 22.7819 39.4843 21.3777 38.0347 21.3777Z" fill="white"/>
</g>
<g id="Group_10">
<path id="Vector_9" d="M71.3848 58.6476C69.9352 58.6476 68.7599 60.0522 68.7599 61.7844C68.7599 63.5165 69.9352 64.9211 71.3848 64.9211C72.8344 64.9211 74.0097 63.5165 74.0097 61.7844C74.0097 60.0522 72.8344 58.6476 71.3848 58.6476ZM35.8729 39.459C34.4233 39.459 33.248 40.8636 33.248 42.5957C33.248 44.3279 34.4233 45.7325 35.8729 45.7325C37.3225 45.7325 38.4978 44.3279 38.4978 42.5957C38.4978 40.8636 37.3225 39.459 35.8729 39.459Z" fill="white"/>
</g>
<g id="Group_11">
<path id="Vector_10" d="M40.8138 58.6477C39.3642 58.6477 38.189 60.0523 38.189 61.7845C38.189 63.5166 39.3642 64.9212 40.8138 64.9212C42.2635 64.9212 43.4384 63.5166 43.4384 61.7845C43.4384 60.0523 42.2635 58.6477 40.8138 58.6477Z" fill="white"/>
</g>
<g id="Group_12">
<path id="Vector_11" d="M60.1138 105.882H62.8929V102.56H60.1138V105.882ZM60.1138 99.608H62.8929V89.276H60.1138V99.608ZM60.1138 85.5856H62.8929V75.2532H60.1138V85.5856Z" fill="white"/>
</g>
</g>
<g id="Group_13">
<g id="Group_14">
<path id="Vector_12" d="M61.8177 48.3982C59.9097 48.3555 58.0924 47.4086 56.7678 45.7654C55.4441 44.1222 54.7206 41.9169 54.756 39.6364C54.791 37.3543 55.5841 35.1846 56.9589 33.6022C58.3341 32.0198 60.1795 31.1542 62.0878 31.1976C63.9971 31.2399 65.8131 32.1876 67.1371 33.8304C68.4614 35.4736 69.1861 37.6793 69.1495 39.9594C69.1113 42.2395 68.3176 44.4081 66.9437 45.9905C65.5689 47.5714 63.726 48.4378 61.8173 48.3986L61.8177 48.3982ZM77.9827 37.6722C77.7215 37.4644 75.6595 35.932 74.8411 35.4612L73.8607 32.4789C74.1798 31.5068 74.8054 28.7761 74.9144 28.3001C75.0034 27.8597 74.8981 27.3961 74.6345 27.0698L73.0492 25.1173C72.787 24.7895 72.4019 24.6469 72.0301 24.7405C71.7243 24.8171 69.3759 25.4736 68.4977 25.8496L66.0389 24.5725C65.6927 23.6186 64.5162 21.1642 64.302 20.7414C64.109 20.3489 63.7592 20.1024 63.3772 20.094L61.1037 20.0455C60.7242 20.0374 60.3687 20.2628 60.1605 20.6411C59.9864 20.9534 58.7043 23.4166 58.3101 24.3953L55.8145 25.5668C55.001 25.185 52.7157 24.4379 52.3176 24.3075C51.9489 24.2012 51.5607 24.3267 51.2878 24.6414L49.6542 26.5365C49.3796 26.8497 49.2604 27.3095 49.339 27.7541C49.4028 28.1196 49.9523 30.9259 50.2671 31.9754L49.1982 34.9136C48.3993 35.327 46.3458 36.7327 45.9922 36.9891C45.6638 37.2191 45.4573 37.6376 45.4503 38.0935L45.4101 40.8065C45.4033 41.2597 45.5922 41.6847 45.9086 41.9355C46.1699 42.1432 48.2313 43.6752 49.0503 44.1465L50.0306 47.1283C49.7113 48.1005 49.0857 50.8312 48.9766 51.3072L48.9767 51.3056C48.8877 51.7468 48.993 52.2115 49.2563 52.536L50.833 54.4886C51.0953 54.8168 51.48 54.9587 51.8506 54.8666C52.1563 54.7899 54.505 54.1335 55.3833 53.7571L57.8421 55.0346C58.1882 55.9888 59.3644 58.4437 59.5786 58.8661L59.5786 58.8645C59.7731 59.2627 60.128 59.5116 60.5138 59.5167L62.7832 59.5651C63.163 59.5732 63.5182 59.3479 63.728 58.9699C63.9021 58.6576 65.1842 56.1941 65.5781 55.2153L68.0737 54.0442C68.8872 54.4256 71.1725 55.1728 71.5706 55.3035L71.5694 55.3034C71.938 55.4097 72.3271 55.2839 72.5988 54.9688L74.2326 53.0851C74.5071 52.7719 74.6267 52.3117 74.5493 51.869C74.4849 51.5035 73.9358 48.6969 73.6209 47.6477L74.6895 44.7092C75.4887 44.2961 77.5422 42.8897 77.8959 42.634L77.8946 42.634C78.2283 42.4018 78.4362 41.9776 78.4401 41.5168L78.4807 38.8C78.4903 38.3469 78.3018 37.9185 77.9827 37.6729L77.9827 37.6722Z" fill="white"/>
</g>
</g>
</g>
</g>
</g>
</g>
</g>
<defs>
<radialGradient id="paint0_radial_88_235" cx="0" cy="0" r="1" gradientUnits="userSpaceOnUse" gradientTransform="translate(71 71) rotate(90) scale(71)">
<stop stop-color="#EA8279"/>
<stop offset="1" stop-color="#F4C39A"/>
</radialGradient>
<clipPath id="clip0_88_235">
<rect width="142" height="142" rx="20" fill="white"/>
</clipPath>
</defs>
</svg>
