<svg width="122" height="122" viewBox="0 0 122 122" fill="none" xmlns="http://www.w3.org/2000/svg">
<g id="ic:sharp-engineering">
<path id="Vector" d="M45.7502 76.25C32.1777 76.25 5.0835 83.0617 5.0835 96.5833V106.75H86.4168V96.5833C86.4168 83.0617 59.3227 76.25 45.7502 76.25ZM69.896 40.6667H66.0835C66.0835 33.1433 61.966 26.6875 55.9168 23.1292V27.9583C55.9168 29.3817 54.7985 30.5 53.3752 30.5C51.9518 30.5 50.8335 29.3817 50.8335 27.9583V21.045C49.2068 20.6383 47.5293 20.3333 45.7502 20.3333C43.971 20.3333 42.2935 20.6383 40.6668 21.045V27.9583C40.6668 29.3817 39.5485 30.5 38.1252 30.5C36.7018 30.5 35.5835 29.3817 35.5835 27.9583V23.1292C29.5343 26.6875 25.4168 33.1433 25.4168 40.6667H21.6043V45.75H69.896V40.6667ZM45.7502 66.0833C55.2052 66.0833 63.0843 59.5767 65.3718 50.8333H26.1285C28.416 59.5767 36.2952 66.0833 45.7502 66.0833ZM111.732 31.6692L116.459 27.45L112.647 20.8417L106.598 22.8242C105.886 22.265 105.073 21.8075 104.208 21.4517L102.938 15.25H95.3127L94.0418 21.4517C93.1777 21.8075 92.3643 22.265 91.6018 22.8242L85.6035 20.8417L81.791 27.45L86.5185 31.6692C86.4168 32.5333 86.4168 33.4483 86.5185 34.3125L81.791 38.6333L85.6035 45.2417L91.7035 43.31C92.3643 43.8183 93.1268 44.225 93.8893 44.5808L95.3127 50.8333H102.938L104.31 44.6317C105.124 44.2758 105.835 43.8692 106.547 43.3608L112.596 45.2925L116.409 38.6842L111.681 34.3633C111.833 33.3975 111.783 32.5333 111.732 31.6692ZM99.1252 39.3958C97.4399 39.3958 95.8237 38.7264 94.6321 37.5347C93.4405 36.3431 92.771 34.7269 92.771 33.0417C92.771 31.3564 93.4405 29.7402 94.6321 28.5486C95.8237 27.357 97.4399 26.6875 99.1252 26.6875C100.81 26.6875 102.427 27.357 103.618 28.5486C104.81 29.7402 105.479 31.3564 105.479 33.0417C105.479 34.7269 104.81 36.3431 103.618 37.5347C102.427 38.7264 100.81 39.3958 99.1252 39.3958ZM98.6168 54.8492L94.296 56.2725C93.7877 55.8658 93.2285 55.5608 92.6185 55.3067L91.7035 50.8333H86.2643L85.3493 55.2558C84.7393 55.51 84.1293 55.8658 83.621 56.2217L79.351 54.7983L76.606 59.5258L79.961 62.525C79.9102 63.1858 79.9102 63.7958 79.961 64.4058L76.606 67.5067L79.351 72.2342L83.7227 70.8617C84.231 71.2175 84.7393 71.5225 85.2985 71.7767L86.2135 76.25H91.6527L92.6185 71.8275C93.1777 71.5733 93.7368 71.2683 94.2452 70.9125L98.566 72.285L101.311 67.5575L97.956 64.4567C98.0068 63.7958 98.0068 63.1858 97.956 62.5758L101.311 59.5767L98.6168 54.8492ZM88.9585 68.0658C86.4677 68.0658 84.4343 66.0325 84.4343 63.5417C84.4343 61.0508 86.4677 59.0175 88.9585 59.0175C91.4493 59.0175 93.4827 61.0508 93.4827 63.5417C93.4827 66.0325 91.4493 68.0658 88.9585 68.0658Z" fill="#E6E6E6"/>
</g>
</svg>
